<svg xmlns="http://www.w3.org/2000/svg" width="138" height="138" viewBox="0 0 138 138">
  <defs>
    <style>
      .cls-1 {
        fill: #fff;
      }

      .cls-2 {
        fill: #010101;
        fill-rule: evenodd;
      }
    </style>
  </defs>
  <circle id="bg" class="cls-1" cx="69" cy="69" r="69"/>
  <path id="Responsive_website_template_" data-name="Responsive • website • template •" class="cls-2" d="M75.783,21.83l-2.6-4.771a2.706,2.706,0,0,0,2.149-2.748c0.093-1.874-.963-3.023-3.376-3.142l-3.267-.161L68.169,21.454l1.589,0.079L69.977,17.1l0.944,0.047,0.659,0.033,2.329,4.562Zm-5.733-6.2L70.2,12.571l1.514,0.075c1.364,0.067,2.048.506,1.993,1.615s-0.781,1.509-2.145,1.441Zm8.276,6.737L85,24.161l0.386-1.433-5.125-1.38,0.815-3.026,4.705,1.268,0.386-1.433-4.705-1.268,0.745-2.765,5.125,1.38,0.386-1.433-6.674-1.8Zm12.111,4.5c1.913,0.97,3.712.5,4.567-1.182,0.664-1.311.4-2.351-1.225-4.151-1.153-1.274-1.465-1.919-1.112-2.614a1.387,1.387,0,0,1,1.927-.486,2.025,2.025,0,0,1,1.076,1.924l1.563-.132a3.336,3.336,0,0,0-1.955-3.042c-1.685-.854-3.31-0.434-4.063,1.051-0.664,1.311-.335,2.352,1.219,4.064,1.18,1.32,1.464,2.02,1.078,2.782a1.625,1.625,0,0,1-2.4.53,2.184,2.184,0,0,1-1.151-2.869l-1.607-.378A3.712,3.712,0,0,0,90.437,26.867Zm5.571,3.015,1.25,0.982L99.982,27.4l1.322,1.037c1.793,1.408,3.439,1.328,4.661-.23,1.2-1.533.876-3.107-.929-4.524l-2.571-2.018Zm4.89-3.654,1.9-2.419,1.192,0.936c1.132,0.889,1.34,1.644.683,2.481s-1.462.817-2.582-.063Zm4.924,13.163c1.835,2.277,4.768,2.475,7.3.434s2.986-4.949,1.142-7.238-4.778-2.488-7.325-.437S103.977,37.1,105.822,39.391Zm1.191-.96c-1.27-1.577-.933-3.525.936-5.031s3.856-1.43,5.126.146,0.912,3.523-.957,5.029S108.283,40.008,107.013,38.43Zm15.671,8.724-6.964,3.171,5.036-7.4-0.69-1.516-9.518,4.335,0.666,1.461,7-3.19-5.084,7.409,0.7,1.529,9.517-4.334Zm-7.4,12.267c0.438,2.1,1.927,3.217,3.778,2.831,1.44-.3,2.09-1.156,2.48-3.551,0.275-1.7.584-2.345,1.348-2.5a1.388,1.388,0,0,1,1.585,1.2,2.027,2.027,0,0,1-.832,2.044l1.081,1.139a3.338,3.338,0,0,0,1.155-3.429c-0.385-1.851-1.729-2.859-3.36-2.519-1.44.3-2.048,1.208-2.415,3.492-0.3,1.748-.664,2.407-1.5,2.582a1.627,1.627,0,0,1-1.917-1.548,2.187,2.187,0,0,1,1.524-2.693l-0.709-1.492A3.714,3.714,0,0,0,115.288,59.42Zm1.047,6.267,0.084,1.6,10.447-.551-0.085-1.6Zm9.83,13.034L118.7,74.835l8.158-2.091,0.2-1.758-10.87,2.94-0.141,1.222,9.91,5.332Zm-11.323,2.945-2.283,6.53,1.4,0.49,1.753-5.014,2.961,1.035-1.61,4.6,1.4,0.491,1.609-4.6,2.706,0.946-1.753,5.014,1.4,0.491,2.283-6.53ZM109.368,97.2a1.763,1.763,0,1,0,2.445-.432A1.757,1.757,0,0,0,109.368,97.2Zm-9.232,7.807-1.273.927,2.372,7.331-6.252-4.5-1.273.928,3.648,10.28,1.358-.989-2.863-7.828,6.326,4.581,1.115-.813-2.433-7.416,6.585,5.114,1.358-.989Zm-11.479,7.3-6.469,2.435,0.523,1.388,4.968-1.868,1.1,2.932-4.561,1.716,0.523,1.39,4.561-1.716,1.009,2.679-4.968,1.87,0.523,1.389,6.469-2.434Zm-9.584,3.178-3.873.558c-2.107.3-3.181,1.579-2.909,3.464a2.479,2.479,0,0,0,2.121,2.316,2.367,2.367,0,0,0-.9,2.371c0.235,1.632,1.576,2.424,3.594,2.133l3.458-.5Zm-0.709,6.328,0.4,2.775-1.87.269a1.4,1.4,0,0,1-1.835-1.174,1.346,1.346,0,0,1,1.361-1.59Zm-0.667-4.63,0.46,3.191L75.9,120.7a1.535,1.535,0,0,1-2-1.287,1.643,1.643,0,0,1,1.647-1.919ZM65.97,116.163c-2.141-.129-3.608,1.014-3.722,2.9-0.089,1.467.566,2.317,2.774,3.323,1.565,0.711,2.108,1.179,2.061,1.957a1.386,1.386,0,0,1-1.576,1.212,2.025,2.025,0,0,1-1.752-1.337l-1.382.742a3.341,3.341,0,0,0,3,2.016c1.886,0.113,3.211-.918,3.311-2.58,0.089-1.468-.628-2.292-2.734-3.246-1.608-.743-2.147-1.272-2.1-2.125a1.625,1.625,0,0,1,2-1.442,2.185,2.185,0,0,1,2.2,2.176l1.626-.293A3.713,3.713,0,0,0,65.97,116.163Zm-6.313-.639-1.569-.341L55.864,125.4l1.569,0.343Zm-7.189-2.04-1.508-.592-3.276,8.353-3.157-1.239-0.542,1.383,7.808,3.063,0.542-1.384-3.143-1.232ZM45.6,110.4l-5.779-3.8-0.816,1.242,4.438,2.918-1.723,2.619L37.646,110.7,36.83,111.94l4.074,2.679-1.574,2.394L34.893,114.1l-0.816,1.242,5.779,3.8Zm-13.762-9.093a1.763,1.763,0,1,0-.171,2.478A1.758,1.758,0,0,0,31.839,101.305Zm-5.28-11.068-0.7-1.46L17.77,92.662,16.3,89.606l-1.339.643L18.6,97.809l1.339-.643-1.462-3.042ZM23.63,83.262l-1.623-6.72-1.443.349,1.246,5.16-3.046.736L17.62,78.05l-1.443.349,1.144,4.737-2.784.672L13.29,78.648,11.847,79l1.623,6.72ZM11.162,65.036l7.661,3.077L11.059,70.9l-0.041,2.311L21.477,73.4,21.5,71.791l-8.237-.144,7.387-2.723,0.027-1.56L13.4,64.369l8.237,0.145,0.028-1.606L11.2,62.725Zm11.313-5.8L22.9,57.7l-4.252-1.166,0.444-1.619c0.6-2.2-.109-3.684-2.018-4.208-1.88-.516-3.2.4-3.81,2.609L12.4,56.469Zm-5.263-3.091-2.965-.813,0.4-1.46c0.381-1.389,1-1.873,2.022-1.591s1.319,1.03.942,2.4Zm8.215-6.1,2.759-5.517-1.329-.664-2.041,4.081L16.788,43.93,16.07,45.366Zm8.381-13,1.1-1.369L24.2,32.325l-0.778.971,5.6,9.717,1.088-1.356-1.3-2.161,2.616-3.263ZM28,38.178l-2.361-3.91,4.321,1.466Zm9.735-4.871,1.237-1.047-5.795-6.847,2.588-2.19-0.959-1.134-6.4,5.417,0.959,1.133,2.576-2.18Zm5.984-4.587L49.8,25.436,49.1,24.129l-4.671,2.522-1.489-2.758,4.288-2.315-0.705-1.306-4.288,2.315-1.361-2.521,4.671-2.522L44.838,16.24l-6.083,3.283Zm14.5-7.779a1.763,1.763,0,1,0-2.1-1.33A1.758,1.758,0,0,0,58.218,20.941Z"/>
</svg>
