<svg 
 xmlns="http://www.w3.org/2000/svg"
 xmlns:xlink="http://www.w3.org/1999/xlink"
 width="192px" height="222px" viewBox="0 0 192 222" fill="#fff" aria-hidden="true">
<path fill-rule="evenodd" 
 d="M191.000,221.999 C190.448,221.999 190.000,221.552 190.000,221.000 C190.000,220.447 190.448,219.999 191.000,219.999 C191.552,219.999 192.000,220.447 192.000,221.000 C192.000,221.552 191.552,221.999 191.000,221.999 ZM191.000,212.000 C190.448,212.000 190.000,211.552 190.000,210.999 C190.000,210.447 190.448,210.000 191.000,210.000 C191.552,210.000 192.000,210.447 192.000,210.999 C192.000,211.552 191.552,212.000 191.000,212.000 ZM191.000,202.000 C190.448,202.000 190.000,201.552 190.000,200.999 C190.000,200.448 190.448,200.000 191.000,200.000 C191.552,200.000 192.000,200.448 192.000,200.999 C192.000,201.552 191.552,202.000 191.000,202.000 ZM191.000,192.000 C190.448,192.000 190.000,191.552 190.000,191.000 C190.000,190.447 190.448,190.000 191.000,190.000 C191.552,190.000 192.000,190.447 192.000,191.000 C192.000,191.552 191.552,192.000 191.000,192.000 ZM191.000,181.999 C190.448,181.999 190.000,181.551 190.000,181.000 C190.000,180.447 190.448,179.999 191.000,179.999 C191.552,179.999 192.000,180.447 192.000,181.000 C192.000,181.551 191.552,181.999 191.000,181.999 ZM191.000,171.999 C190.448,171.999 190.000,171.552 190.000,171.000 C190.000,170.447 190.448,169.999 191.000,169.999 C191.552,169.999 192.000,170.447 192.000,171.000 C192.000,171.552 191.552,171.999 191.000,171.999 ZM191.000,162.000 C190.448,162.000 190.000,161.552 190.000,160.999 C190.000,160.447 190.448,160.000 191.000,160.000 C191.552,160.000 192.000,160.447 192.000,160.999 C192.000,161.552 191.552,162.000 191.000,162.000 ZM191.000,152.000 C190.448,152.000 190.000,151.552 190.000,150.999 C190.000,150.448 190.448,150.000 191.000,150.000 C191.552,150.000 192.000,150.448 192.000,150.999 C192.000,151.552 191.552,152.000 191.000,152.000 ZM191.000,142.000 C190.448,142.000 190.000,141.552 190.000,140.999 C190.000,140.448 190.448,140.000 191.000,140.000 C191.552,140.000 192.000,140.448 192.000,140.999 C192.000,141.552 191.552,142.000 191.000,142.000 ZM191.000,131.999 C190.448,131.999 190.000,131.552 190.000,131.000 C190.000,130.447 190.448,129.999 191.000,129.999 C191.552,129.999 192.000,130.447 192.000,131.000 C192.000,131.552 191.552,131.999 191.000,131.999 ZM191.000,121.999 C190.448,121.999 190.000,121.552 190.000,121.000 C190.000,120.447 190.448,119.999 191.000,119.999 C191.552,119.999 192.000,120.447 192.000,121.000 C192.000,121.552 191.552,121.999 191.000,121.999 ZM191.000,111.999 C190.448,111.999 190.000,111.552 190.000,111.000 C190.000,110.447 190.448,110.000 191.000,110.000 C191.552,110.000 192.000,110.447 192.000,111.000 C192.000,111.552 191.552,111.999 191.000,111.999 ZM191.000,102.000 C190.448,102.000 190.000,101.552 190.000,100.999 C190.000,100.447 190.448,100.000 191.000,100.000 C191.552,100.000 192.000,100.447 192.000,100.999 C192.000,101.552 191.552,102.000 191.000,102.000 ZM191.000,92.000 C190.448,92.000 190.000,91.552 190.000,90.999 C190.000,90.448 190.448,90.000 191.000,90.000 C191.552,90.000 192.000,90.448 192.000,90.999 C192.000,91.552 191.552,92.000 191.000,92.000 ZM191.000,81.999 C190.448,81.999 190.000,81.552 190.000,81.000 C190.000,80.447 190.448,79.999 191.000,79.999 C191.552,79.999 192.000,80.447 192.000,81.000 C192.000,81.552 191.552,81.999 191.000,81.999 ZM191.000,71.999 C190.448,71.999 190.000,71.551 190.000,71.000 C190.000,70.447 190.448,69.999 191.000,69.999 C191.552,69.999 192.000,70.447 192.000,71.000 C192.000,71.551 191.552,71.999 191.000,71.999 ZM191.000,61.999 C190.448,61.999 190.000,61.552 190.000,61.000 C190.000,60.447 190.448,59.999 191.000,59.999 C191.552,59.999 192.000,60.447 192.000,61.000 C192.000,61.552 191.552,61.999 191.000,61.999 ZM191.000,52.000 C190.448,52.000 190.000,51.552 190.000,50.999 C190.000,50.447 190.448,50.000 191.000,50.000 C191.552,50.000 192.000,50.447 192.000,50.999 C192.000,51.552 191.552,52.000 191.000,52.000 ZM191.000,42.000 C190.448,42.000 190.000,41.552 190.000,40.999 C190.000,40.448 190.448,40.000 191.000,40.000 C191.552,40.000 192.000,40.448 192.000,40.999 C192.000,41.552 191.552,42.000 191.000,42.000 ZM191.000,32.000 C190.448,32.000 190.000,31.552 190.000,31.000 C190.000,30.447 190.448,30.000 191.000,30.000 C191.552,30.000 192.000,30.447 192.000,31.000 C192.000,31.552 191.552,32.000 191.000,32.000 ZM191.000,21.999 C190.448,21.999 190.000,21.551 190.000,21.000 C190.000,20.447 190.448,19.999 191.000,19.999 C191.552,19.999 192.000,20.447 192.000,21.000 C192.000,21.551 191.552,21.999 191.000,21.999 ZM191.000,11.999 C190.448,11.999 190.000,11.552 190.000,11.000 C190.000,10.447 190.448,9.999 191.000,9.999 C191.552,9.999 192.000,10.447 192.000,11.000 C192.000,11.552 191.552,11.999 191.000,11.999 ZM191.000,2.000 C190.448,2.000 190.000,1.552 190.000,0.999 C190.000,0.447 190.448,-0.000 191.000,-0.000 C191.552,-0.000 192.000,0.447 192.000,0.999 C192.000,1.552 191.552,2.000 191.000,2.000 ZM181.000,221.999 C180.448,221.999 180.000,221.552 180.000,221.000 C180.000,220.447 180.448,219.999 181.000,219.999 C181.552,219.999 182.000,220.447 182.000,221.000 C182.000,221.552 181.552,221.999 181.000,221.999 ZM181.000,212.000 C180.448,212.000 180.000,211.552 180.000,210.999 C180.000,210.447 180.448,210.000 181.000,210.000 C181.552,210.000 182.000,210.447 182.000,210.999 C182.000,211.552 181.552,212.000 181.000,212.000 ZM181.000,202.000 C180.448,202.000 180.000,201.552 180.000,200.999 C180.000,200.448 180.448,200.000 181.000,200.000 C181.552,200.000 182.000,200.448 182.000,200.999 C182.000,201.552 181.552,202.000 181.000,202.000 ZM181.000,192.000 C180.448,192.000 180.000,191.552 180.000,191.000 C180.000,190.447 180.448,190.000 181.000,190.000 C181.552,190.000 182.000,190.447 182.000,191.000 C182.000,191.552 181.552,192.000 181.000,192.000 ZM181.000,181.999 C180.448,181.999 180.000,181.551 180.000,181.000 C180.000,180.447 180.448,179.999 181.000,179.999 C181.552,179.999 182.000,180.447 182.000,181.000 C182.000,181.551 181.552,181.999 181.000,181.999 ZM181.000,171.999 C180.448,171.999 180.000,171.552 180.000,171.000 C180.000,170.447 180.448,169.999 181.000,169.999 C181.552,169.999 182.000,170.447 182.000,171.000 C182.000,171.552 181.552,171.999 181.000,171.999 ZM181.000,162.000 C180.448,162.000 180.000,161.552 180.000,160.999 C180.000,160.447 180.448,160.000 181.000,160.000 C181.552,160.000 182.000,160.447 182.000,160.999 C182.000,161.552 181.552,162.000 181.000,162.000 ZM181.000,152.000 C180.448,152.000 180.000,151.552 180.000,150.999 C180.000,150.448 180.448,150.000 181.000,150.000 C181.552,150.000 182.000,150.448 182.000,150.999 C182.000,151.552 181.552,152.000 181.000,152.000 ZM181.000,142.000 C180.448,142.000 180.000,141.552 180.000,140.999 C180.000,140.448 180.448,140.000 181.000,140.000 C181.552,140.000 182.000,140.448 182.000,140.999 C182.000,141.552 181.552,142.000 181.000,142.000 ZM181.000,131.999 C180.448,131.999 180.000,131.552 180.000,131.000 C180.000,130.447 180.448,129.999 181.000,129.999 C181.552,129.999 182.000,130.447 182.000,131.000 C182.000,131.552 181.552,131.999 181.000,131.999 ZM181.000,121.999 C180.448,121.999 180.000,121.552 180.000,121.000 C180.000,120.447 180.448,119.999 181.000,119.999 C181.552,119.999 182.000,120.447 182.000,121.000 C182.000,121.552 181.552,121.999 181.000,121.999 ZM181.000,111.999 C180.448,111.999 180.000,111.552 180.000,111.000 C180.000,110.447 180.448,110.000 181.000,110.000 C181.552,110.000 182.000,110.447 182.000,111.000 C182.000,111.552 181.552,111.999 181.000,111.999 ZM181.000,102.000 C180.448,102.000 180.000,101.552 180.000,100.999 C180.000,100.447 180.448,100.000 181.000,100.000 C181.552,100.000 182.000,100.447 182.000,100.999 C182.000,101.552 181.552,102.000 181.000,102.000 ZM181.000,92.000 C180.448,92.000 180.000,91.552 180.000,90.999 C180.000,90.448 180.448,90.000 181.000,90.000 C181.552,90.000 182.000,90.448 182.000,90.999 C182.000,91.552 181.552,92.000 181.000,92.000 ZM181.000,81.999 C180.448,81.999 180.000,81.552 180.000,81.000 C180.000,80.447 180.448,79.999 181.000,79.999 C181.552,79.999 182.000,80.447 182.000,81.000 C182.000,81.552 181.552,81.999 181.000,81.999 ZM181.000,71.999 C180.448,71.999 180.000,71.551 180.000,71.000 C180.000,70.447 180.448,69.999 181.000,69.999 C181.552,69.999 182.000,70.447 182.000,71.000 C182.000,71.551 181.552,71.999 181.000,71.999 ZM181.000,61.999 C180.448,61.999 180.000,61.552 180.000,61.000 C180.000,60.447 180.448,59.999 181.000,59.999 C181.552,59.999 182.000,60.447 182.000,61.000 C182.000,61.552 181.552,61.999 181.000,61.999 ZM181.000,52.000 C180.448,52.000 180.000,51.552 180.000,50.999 C180.000,50.447 180.448,50.000 181.000,50.000 C181.552,50.000 182.000,50.447 182.000,50.999 C182.000,51.552 181.552,52.000 181.000,52.000 ZM181.000,42.000 C180.448,42.000 180.000,41.552 180.000,40.999 C180.000,40.448 180.448,40.000 181.000,40.000 C181.552,40.000 182.000,40.448 182.000,40.999 C182.000,41.552 181.552,42.000 181.000,42.000 ZM181.000,32.000 C180.448,32.000 180.000,31.552 180.000,31.000 C180.000,30.447 180.448,30.000 181.000,30.000 C181.552,30.000 182.000,30.447 182.000,31.000 C182.000,31.552 181.552,32.000 181.000,32.000 ZM181.000,21.999 C180.448,21.999 180.000,21.551 180.000,21.000 C180.000,20.447 180.448,19.999 181.000,19.999 C181.552,19.999 182.000,20.447 182.000,21.000 C182.000,21.551 181.552,21.999 181.000,21.999 ZM181.000,11.999 C180.448,11.999 180.000,11.552 180.000,11.000 C180.000,10.447 180.448,9.999 181.000,9.999 C181.552,9.999 182.000,10.447 182.000,11.000 C182.000,11.552 181.552,11.999 181.000,11.999 ZM181.000,2.000 C180.448,2.000 180.000,1.552 180.000,0.999 C180.000,0.447 180.448,-0.000 181.000,-0.000 C181.552,-0.000 182.000,0.447 182.000,0.999 C182.000,1.552 181.552,2.000 181.000,2.000 ZM171.000,221.999 C170.448,221.999 170.000,221.552 170.000,221.000 C170.000,220.447 170.448,219.999 171.000,219.999 C171.552,219.999 172.000,220.447 172.000,221.000 C172.000,221.552 171.552,221.999 171.000,221.999 ZM171.000,212.000 C170.448,212.000 170.000,211.552 170.000,210.999 C170.000,210.447 170.448,210.000 171.000,210.000 C171.552,210.000 172.000,210.447 172.000,210.999 C172.000,211.552 171.552,212.000 171.000,212.000 ZM171.000,202.000 C170.448,202.000 170.000,201.552 170.000,200.999 C170.000,200.448 170.448,200.000 171.000,200.000 C171.552,200.000 172.000,200.448 172.000,200.999 C172.000,201.552 171.552,202.000 171.000,202.000 ZM171.000,192.000 C170.448,192.000 170.000,191.552 170.000,191.000 C170.000,190.447 170.448,190.000 171.000,190.000 C171.552,190.000 172.000,190.447 172.000,191.000 C172.000,191.552 171.552,192.000 171.000,192.000 ZM171.000,181.999 C170.448,181.999 170.000,181.551 170.000,181.000 C170.000,180.447 170.448,179.999 171.000,179.999 C171.552,179.999 172.000,180.447 172.000,181.000 C172.000,181.551 171.552,181.999 171.000,181.999 ZM171.000,171.999 C170.448,171.999 170.000,171.552 170.000,171.000 C170.000,170.447 170.448,169.999 171.000,169.999 C171.552,169.999 172.000,170.447 172.000,171.000 C172.000,171.552 171.552,171.999 171.000,171.999 ZM171.000,162.000 C170.448,162.000 170.000,161.552 170.000,160.999 C170.000,160.447 170.448,160.000 171.000,160.000 C171.552,160.000 172.000,160.447 172.000,160.999 C172.000,161.552 171.552,162.000 171.000,162.000 ZM171.000,152.000 C170.448,152.000 170.000,151.552 170.000,150.999 C170.000,150.448 170.448,150.000 171.000,150.000 C171.552,150.000 172.000,150.448 172.000,150.999 C172.000,151.552 171.552,152.000 171.000,152.000 ZM171.000,142.000 C170.448,142.000 170.000,141.552 170.000,140.999 C170.000,140.448 170.448,140.000 171.000,140.000 C171.552,140.000 172.000,140.448 172.000,140.999 C172.000,141.552 171.552,142.000 171.000,142.000 ZM171.000,131.999 C170.448,131.999 170.000,131.552 170.000,131.000 C170.000,130.447 170.448,129.999 171.000,129.999 C171.552,129.999 172.000,130.447 172.000,131.000 C172.000,131.552 171.552,131.999 171.000,131.999 ZM171.000,121.999 C170.448,121.999 170.000,121.552 170.000,121.000 C170.000,120.447 170.448,119.999 171.000,119.999 C171.552,119.999 172.000,120.447 172.000,121.000 C172.000,121.552 171.552,121.999 171.000,121.999 ZM171.000,111.999 C170.448,111.999 170.000,111.552 170.000,111.000 C170.000,110.447 170.448,110.000 171.000,110.000 C171.552,110.000 172.000,110.447 172.000,111.000 C172.000,111.552 171.552,111.999 171.000,111.999 ZM171.000,102.000 C170.448,102.000 170.000,101.552 170.000,100.999 C170.000,100.447 170.448,100.000 171.000,100.000 C171.552,100.000 172.000,100.447 172.000,100.999 C172.000,101.552 171.552,102.000 171.000,102.000 ZM171.000,92.000 C170.448,92.000 170.000,91.552 170.000,90.999 C170.000,90.448 170.448,90.000 171.000,90.000 C171.552,90.000 172.000,90.448 172.000,90.999 C172.000,91.552 171.552,92.000 171.000,92.000 ZM171.000,81.999 C170.448,81.999 170.000,81.552 170.000,81.000 C170.000,80.447 170.448,79.999 171.000,79.999 C171.552,79.999 172.000,80.447 172.000,81.000 C172.000,81.552 171.552,81.999 171.000,81.999 ZM171.000,71.999 C170.448,71.999 170.000,71.551 170.000,71.000 C170.000,70.447 170.448,69.999 171.000,69.999 C171.552,69.999 172.000,70.447 172.000,71.000 C172.000,71.551 171.552,71.999 171.000,71.999 ZM171.000,61.999 C170.448,61.999 170.000,61.552 170.000,61.000 C170.000,60.447 170.448,59.999 171.000,59.999 C171.552,59.999 172.000,60.447 172.000,61.000 C172.000,61.552 171.552,61.999 171.000,61.999 ZM171.000,52.000 C170.448,52.000 170.000,51.552 170.000,50.999 C170.000,50.447 170.448,50.000 171.000,50.000 C171.552,50.000 172.000,50.447 172.000,50.999 C172.000,51.552 171.552,52.000 171.000,52.000 ZM171.000,42.000 C170.448,42.000 170.000,41.552 170.000,40.999 C170.000,40.448 170.448,40.000 171.000,40.000 C171.552,40.000 172.000,40.448 172.000,40.999 C172.000,41.552 171.552,42.000 171.000,42.000 ZM171.000,32.000 C170.448,32.000 170.000,31.552 170.000,31.000 C170.000,30.447 170.448,30.000 171.000,30.000 C171.552,30.000 172.000,30.447 172.000,31.000 C172.000,31.552 171.552,32.000 171.000,32.000 ZM171.000,21.999 C170.448,21.999 170.000,21.551 170.000,21.000 C170.000,20.447 170.448,19.999 171.000,19.999 C171.552,19.999 172.000,20.447 172.000,21.000 C172.000,21.551 171.552,21.999 171.000,21.999 ZM171.000,11.999 C170.448,11.999 170.000,11.552 170.000,11.000 C170.000,10.447 170.448,9.999 171.000,9.999 C171.552,9.999 172.000,10.447 172.000,11.000 C172.000,11.552 171.552,11.999 171.000,11.999 ZM171.000,2.000 C170.448,2.000 170.000,1.552 170.000,0.999 C170.000,0.447 170.448,-0.000 171.000,-0.000 C171.552,-0.000 172.000,0.447 172.000,0.999 C172.000,1.552 171.552,2.000 171.000,2.000 ZM161.000,221.999 C160.448,221.999 160.000,221.552 160.000,221.000 C160.000,220.447 160.448,219.999 161.000,219.999 C161.552,219.999 162.000,220.447 162.000,221.000 C162.000,221.552 161.552,221.999 161.000,221.999 ZM161.000,212.000 C160.448,212.000 160.000,211.552 160.000,210.999 C160.000,210.447 160.448,210.000 161.000,210.000 C161.552,210.000 162.000,210.447 162.000,210.999 C162.000,211.552 161.552,212.000 161.000,212.000 ZM161.000,202.000 C160.448,202.000 160.000,201.552 160.000,200.999 C160.000,200.448 160.448,200.000 161.000,200.000 C161.552,200.000 162.000,200.448 162.000,200.999 C162.000,201.552 161.552,202.000 161.000,202.000 ZM161.000,192.000 C160.448,192.000 160.000,191.552 160.000,191.000 C160.000,190.447 160.448,190.000 161.000,190.000 C161.552,190.000 162.000,190.447 162.000,191.000 C162.000,191.552 161.552,192.000 161.000,192.000 ZM161.000,181.999 C160.448,181.999 160.000,181.551 160.000,181.000 C160.000,180.447 160.448,179.999 161.000,179.999 C161.552,179.999 162.000,180.447 162.000,181.000 C162.000,181.551 161.552,181.999 161.000,181.999 ZM161.000,171.999 C160.448,171.999 160.000,171.552 160.000,171.000 C160.000,170.447 160.448,169.999 161.000,169.999 C161.552,169.999 162.000,170.447 162.000,171.000 C162.000,171.552 161.552,171.999 161.000,171.999 ZM161.000,162.000 C160.448,162.000 160.000,161.552 160.000,160.999 C160.000,160.447 160.448,160.000 161.000,160.000 C161.552,160.000 162.000,160.447 162.000,160.999 C162.000,161.552 161.552,162.000 161.000,162.000 ZM161.000,152.000 C160.448,152.000 160.000,151.552 160.000,150.999 C160.000,150.448 160.448,150.000 161.000,150.000 C161.552,150.000 162.000,150.448 162.000,150.999 C162.000,151.552 161.552,152.000 161.000,152.000 ZM161.000,142.000 C160.448,142.000 160.000,141.552 160.000,140.999 C160.000,140.448 160.448,140.000 161.000,140.000 C161.552,140.000 162.000,140.448 162.000,140.999 C162.000,141.552 161.552,142.000 161.000,142.000 ZM161.000,131.999 C160.448,131.999 160.000,131.552 160.000,131.000 C160.000,130.447 160.448,129.999 161.000,129.999 C161.552,129.999 162.000,130.447 162.000,131.000 C162.000,131.552 161.552,131.999 161.000,131.999 ZM161.000,121.999 C160.448,121.999 160.000,121.552 160.000,121.000 C160.000,120.447 160.448,119.999 161.000,119.999 C161.552,119.999 162.000,120.447 162.000,121.000 C162.000,121.552 161.552,121.999 161.000,121.999 ZM161.000,111.999 C160.448,111.999 160.000,111.552 160.000,111.000 C160.000,110.447 160.448,110.000 161.000,110.000 C161.552,110.000 162.000,110.447 162.000,111.000 C162.000,111.552 161.552,111.999 161.000,111.999 ZM161.000,102.000 C160.448,102.000 160.000,101.552 160.000,100.999 C160.000,100.447 160.448,100.000 161.000,100.000 C161.552,100.000 162.000,100.447 162.000,100.999 C162.000,101.552 161.552,102.000 161.000,102.000 ZM161.000,92.000 C160.448,92.000 160.000,91.552 160.000,90.999 C160.000,90.448 160.448,90.000 161.000,90.000 C161.552,90.000 162.000,90.448 162.000,90.999 C162.000,91.552 161.552,92.000 161.000,92.000 ZM161.000,81.999 C160.448,81.999 160.000,81.552 160.000,81.000 C160.000,80.447 160.448,79.999 161.000,79.999 C161.552,79.999 162.000,80.447 162.000,81.000 C162.000,81.552 161.552,81.999 161.000,81.999 ZM161.000,71.999 C160.448,71.999 160.000,71.551 160.000,71.000 C160.000,70.447 160.448,69.999 161.000,69.999 C161.552,69.999 162.000,70.447 162.000,71.000 C162.000,71.551 161.552,71.999 161.000,71.999 ZM161.000,61.999 C160.448,61.999 160.000,61.552 160.000,61.000 C160.000,60.447 160.448,59.999 161.000,59.999 C161.552,59.999 162.000,60.447 162.000,61.000 C162.000,61.552 161.552,61.999 161.000,61.999 ZM161.000,52.000 C160.448,52.000 160.000,51.552 160.000,50.999 C160.000,50.447 160.448,50.000 161.000,50.000 C161.552,50.000 162.000,50.447 162.000,50.999 C162.000,51.552 161.552,52.000 161.000,52.000 ZM161.000,42.000 C160.448,42.000 160.000,41.552 160.000,40.999 C160.000,40.448 160.448,40.000 161.000,40.000 C161.552,40.000 162.000,40.448 162.000,40.999 C162.000,41.552 161.552,42.000 161.000,42.000 ZM161.000,32.000 C160.448,32.000 160.000,31.552 160.000,31.000 C160.000,30.447 160.448,30.000 161.000,30.000 C161.552,30.000 162.000,30.447 162.000,31.000 C162.000,31.552 161.552,32.000 161.000,32.000 ZM161.000,21.999 C160.448,21.999 160.000,21.551 160.000,21.000 C160.000,20.447 160.448,19.999 161.000,19.999 C161.552,19.999 162.000,20.447 162.000,21.000 C162.000,21.551 161.552,21.999 161.000,21.999 ZM161.000,11.999 C160.448,11.999 160.000,11.552 160.000,11.000 C160.000,10.447 160.448,9.999 161.000,9.999 C161.552,9.999 162.000,10.447 162.000,11.000 C162.000,11.552 161.552,11.999 161.000,11.999 ZM161.000,2.000 C160.448,2.000 160.000,1.552 160.000,0.999 C160.000,0.447 160.448,-0.000 161.000,-0.000 C161.552,-0.000 162.000,0.447 162.000,0.999 C162.000,1.552 161.552,2.000 161.000,2.000 ZM151.000,221.999 C150.448,221.999 150.000,221.552 150.000,221.000 C150.000,220.447 150.448,219.999 151.000,219.999 C151.552,219.999 152.000,220.447 152.000,221.000 C152.000,221.552 151.552,221.999 151.000,221.999 ZM151.000,212.000 C150.448,212.000 150.000,211.552 150.000,210.999 C150.000,210.447 150.448,210.000 151.000,210.000 C151.552,210.000 152.000,210.447 152.000,210.999 C152.000,211.552 151.552,212.000 151.000,212.000 ZM151.000,202.000 C150.448,202.000 150.000,201.552 150.000,200.999 C150.000,200.448 150.448,200.000 151.000,200.000 C151.552,200.000 152.000,200.448 152.000,200.999 C152.000,201.552 151.552,202.000 151.000,202.000 ZM151.000,192.000 C150.448,192.000 150.000,191.552 150.000,191.000 C150.000,190.447 150.448,190.000 151.000,190.000 C151.552,190.000 152.000,190.447 152.000,191.000 C152.000,191.552 151.552,192.000 151.000,192.000 ZM151.000,181.999 C150.448,181.999 150.000,181.551 150.000,181.000 C150.000,180.447 150.448,179.999 151.000,179.999 C151.552,179.999 152.000,180.447 152.000,181.000 C152.000,181.551 151.552,181.999 151.000,181.999 ZM151.000,171.999 C150.448,171.999 150.000,171.552 150.000,171.000 C150.000,170.447 150.448,169.999 151.000,169.999 C151.552,169.999 152.000,170.447 152.000,171.000 C152.000,171.552 151.552,171.999 151.000,171.999 ZM151.000,162.000 C150.448,162.000 150.000,161.552 150.000,160.999 C150.000,160.447 150.448,160.000 151.000,160.000 C151.552,160.000 152.000,160.447 152.000,160.999 C152.000,161.552 151.552,162.000 151.000,162.000 ZM151.000,152.000 C150.448,152.000 150.000,151.552 150.000,150.999 C150.000,150.448 150.448,150.000 151.000,150.000 C151.552,150.000 152.000,150.448 152.000,150.999 C152.000,151.552 151.552,152.000 151.000,152.000 ZM151.000,142.000 C150.448,142.000 150.000,141.552 150.000,140.999 C150.000,140.448 150.448,140.000 151.000,140.000 C151.552,140.000 152.000,140.448 152.000,140.999 C152.000,141.552 151.552,142.000 151.000,142.000 ZM151.000,131.999 C150.448,131.999 150.000,131.552 150.000,131.000 C150.000,130.447 150.448,129.999 151.000,129.999 C151.552,129.999 152.000,130.447 152.000,131.000 C152.000,131.552 151.552,131.999 151.000,131.999 ZM151.000,121.999 C150.448,121.999 150.000,121.552 150.000,121.000 C150.000,120.447 150.448,119.999 151.000,119.999 C151.552,119.999 152.000,120.447 152.000,121.000 C152.000,121.552 151.552,121.999 151.000,121.999 ZM151.000,111.999 C150.448,111.999 150.000,111.552 150.000,111.000 C150.000,110.447 150.448,110.000 151.000,110.000 C151.552,110.000 152.000,110.447 152.000,111.000 C152.000,111.552 151.552,111.999 151.000,111.999 ZM151.000,102.000 C150.448,102.000 150.000,101.552 150.000,100.999 C150.000,100.447 150.448,100.000 151.000,100.000 C151.552,100.000 152.000,100.447 152.000,100.999 C152.000,101.552 151.552,102.000 151.000,102.000 ZM151.000,92.000 C150.448,92.000 150.000,91.552 150.000,90.999 C150.000,90.448 150.448,90.000 151.000,90.000 C151.552,90.000 152.000,90.448 152.000,90.999 C152.000,91.552 151.552,92.000 151.000,92.000 ZM151.000,81.999 C150.448,81.999 150.000,81.552 150.000,81.000 C150.000,80.447 150.448,79.999 151.000,79.999 C151.552,79.999 152.000,80.447 152.000,81.000 C152.000,81.552 151.552,81.999 151.000,81.999 ZM151.000,71.999 C150.448,71.999 150.000,71.551 150.000,71.000 C150.000,70.447 150.448,69.999 151.000,69.999 C151.552,69.999 152.000,70.447 152.000,71.000 C152.000,71.551 151.552,71.999 151.000,71.999 ZM151.000,61.999 C150.448,61.999 150.000,61.552 150.000,61.000 C150.000,60.447 150.448,59.999 151.000,59.999 C151.552,59.999 152.000,60.447 152.000,61.000 C152.000,61.552 151.552,61.999 151.000,61.999 ZM151.000,52.000 C150.448,52.000 150.000,51.552 150.000,50.999 C150.000,50.447 150.448,50.000 151.000,50.000 C151.552,50.000 152.000,50.447 152.000,50.999 C152.000,51.552 151.552,52.000 151.000,52.000 ZM151.000,42.000 C150.448,42.000 150.000,41.552 150.000,40.999 C150.000,40.448 150.448,40.000 151.000,40.000 C151.552,40.000 152.000,40.448 152.000,40.999 C152.000,41.552 151.552,42.000 151.000,42.000 ZM151.000,32.000 C150.448,32.000 150.000,31.552 150.000,31.000 C150.000,30.447 150.448,30.000 151.000,30.000 C151.552,30.000 152.000,30.447 152.000,31.000 C152.000,31.552 151.552,32.000 151.000,32.000 ZM151.000,21.999 C150.448,21.999 150.000,21.551 150.000,21.000 C150.000,20.447 150.448,19.999 151.000,19.999 C151.552,19.999 152.000,20.447 152.000,21.000 C152.000,21.551 151.552,21.999 151.000,21.999 ZM151.000,11.999 C150.448,11.999 150.000,11.552 150.000,11.000 C150.000,10.447 150.448,9.999 151.000,9.999 C151.552,9.999 152.000,10.447 152.000,11.000 C152.000,11.552 151.552,11.999 151.000,11.999 ZM151.000,2.000 C150.448,2.000 150.000,1.552 150.000,0.999 C150.000,0.447 150.448,-0.000 151.000,-0.000 C151.552,-0.000 152.000,0.447 152.000,0.999 C152.000,1.552 151.552,2.000 151.000,2.000 ZM141.000,221.999 C140.448,221.999 140.000,221.552 140.000,221.000 C140.000,220.447 140.448,219.999 141.000,219.999 C141.552,219.999 142.000,220.447 142.000,221.000 C142.000,221.552 141.552,221.999 141.000,221.999 ZM141.000,212.000 C140.448,212.000 140.000,211.552 140.000,210.999 C140.000,210.447 140.448,210.000 141.000,210.000 C141.552,210.000 142.000,210.447 142.000,210.999 C142.000,211.552 141.552,212.000 141.000,212.000 ZM141.000,202.000 C140.448,202.000 140.000,201.552 140.000,200.999 C140.000,200.448 140.448,200.000 141.000,200.000 C141.552,200.000 142.000,200.448 142.000,200.999 C142.000,201.552 141.552,202.000 141.000,202.000 ZM141.000,192.000 C140.448,192.000 140.000,191.552 140.000,191.000 C140.000,190.447 140.448,190.000 141.000,190.000 C141.552,190.000 142.000,190.447 142.000,191.000 C142.000,191.552 141.552,192.000 141.000,192.000 ZM141.000,181.999 C140.448,181.999 140.000,181.551 140.000,181.000 C140.000,180.447 140.448,179.999 141.000,179.999 C141.552,179.999 142.000,180.447 142.000,181.000 C142.000,181.551 141.552,181.999 141.000,181.999 ZM141.000,171.999 C140.448,171.999 140.000,171.552 140.000,171.000 C140.000,170.447 140.448,169.999 141.000,169.999 C141.552,169.999 142.000,170.447 142.000,171.000 C142.000,171.552 141.552,171.999 141.000,171.999 ZM141.000,162.000 C140.448,162.000 140.000,161.552 140.000,160.999 C140.000,160.447 140.448,160.000 141.000,160.000 C141.552,160.000 142.000,160.447 142.000,160.999 C142.000,161.552 141.552,162.000 141.000,162.000 ZM141.000,152.000 C140.448,152.000 140.000,151.552 140.000,150.999 C140.000,150.448 140.448,150.000 141.000,150.000 C141.552,150.000 142.000,150.448 142.000,150.999 C142.000,151.552 141.552,152.000 141.000,152.000 ZM141.000,142.000 C140.448,142.000 140.000,141.552 140.000,140.999 C140.000,140.448 140.448,140.000 141.000,140.000 C141.552,140.000 142.000,140.448 142.000,140.999 C142.000,141.552 141.552,142.000 141.000,142.000 ZM141.000,131.999 C140.448,131.999 140.000,131.552 140.000,131.000 C140.000,130.447 140.448,129.999 141.000,129.999 C141.552,129.999 142.000,130.447 142.000,131.000 C142.000,131.552 141.552,131.999 141.000,131.999 ZM141.000,121.999 C140.448,121.999 140.000,121.552 140.000,121.000 C140.000,120.447 140.448,119.999 141.000,119.999 C141.552,119.999 142.000,120.447 142.000,121.000 C142.000,121.552 141.552,121.999 141.000,121.999 ZM141.000,111.999 C140.448,111.999 140.000,111.552 140.000,111.000 C140.000,110.447 140.448,110.000 141.000,110.000 C141.552,110.000 142.000,110.447 142.000,111.000 C142.000,111.552 141.552,111.999 141.000,111.999 ZM141.000,102.000 C140.448,102.000 140.000,101.552 140.000,100.999 C140.000,100.447 140.448,100.000 141.000,100.000 C141.552,100.000 142.000,100.447 142.000,100.999 C142.000,101.552 141.552,102.000 141.000,102.000 ZM141.000,92.000 C140.448,92.000 140.000,91.552 140.000,90.999 C140.000,90.448 140.448,90.000 141.000,90.000 C141.552,90.000 142.000,90.448 142.000,90.999 C142.000,91.552 141.552,92.000 141.000,92.000 ZM141.000,81.999 C140.448,81.999 140.000,81.552 140.000,81.000 C140.000,80.447 140.448,79.999 141.000,79.999 C141.552,79.999 142.000,80.447 142.000,81.000 C142.000,81.552 141.552,81.999 141.000,81.999 ZM141.000,71.999 C140.448,71.999 140.000,71.551 140.000,71.000 C140.000,70.447 140.448,69.999 141.000,69.999 C141.552,69.999 142.000,70.447 142.000,71.000 C142.000,71.551 141.552,71.999 141.000,71.999 ZM141.000,61.999 C140.448,61.999 140.000,61.552 140.000,61.000 C140.000,60.447 140.448,59.999 141.000,59.999 C141.552,59.999 142.000,60.447 142.000,61.000 C142.000,61.552 141.552,61.999 141.000,61.999 ZM141.000,52.000 C140.448,52.000 140.000,51.552 140.000,50.999 C140.000,50.447 140.448,50.000 141.000,50.000 C141.552,50.000 142.000,50.447 142.000,50.999 C142.000,51.552 141.552,52.000 141.000,52.000 ZM141.000,42.000 C140.448,42.000 140.000,41.552 140.000,40.999 C140.000,40.448 140.448,40.000 141.000,40.000 C141.552,40.000 142.000,40.448 142.000,40.999 C142.000,41.552 141.552,42.000 141.000,42.000 ZM141.000,32.000 C140.448,32.000 140.000,31.552 140.000,31.000 C140.000,30.447 140.448,30.000 141.000,30.000 C141.552,30.000 142.000,30.447 142.000,31.000 C142.000,31.552 141.552,32.000 141.000,32.000 ZM141.000,21.999 C140.448,21.999 140.000,21.551 140.000,21.000 C140.000,20.447 140.448,19.999 141.000,19.999 C141.552,19.999 142.000,20.447 142.000,21.000 C142.000,21.551 141.552,21.999 141.000,21.999 ZM141.000,11.999 C140.448,11.999 140.000,11.552 140.000,11.000 C140.000,10.447 140.448,9.999 141.000,9.999 C141.552,9.999 142.000,10.447 142.000,11.000 C142.000,11.552 141.552,11.999 141.000,11.999 ZM141.000,2.000 C140.448,2.000 140.000,1.552 140.000,0.999 C140.000,0.447 140.448,-0.000 141.000,-0.000 C141.552,-0.000 142.000,0.447 142.000,0.999 C142.000,1.552 141.552,2.000 141.000,2.000 ZM131.000,221.999 C130.448,221.999 130.000,221.552 130.000,221.000 C130.000,220.447 130.448,219.999 131.000,219.999 C131.552,219.999 132.000,220.447 132.000,221.000 C132.000,221.552 131.552,221.999 131.000,221.999 ZM131.000,212.000 C130.448,212.000 130.000,211.552 130.000,210.999 C130.000,210.447 130.448,210.000 131.000,210.000 C131.552,210.000 132.000,210.447 132.000,210.999 C132.000,211.552 131.552,212.000 131.000,212.000 ZM131.000,202.000 C130.448,202.000 130.000,201.552 130.000,200.999 C130.000,200.448 130.448,200.000 131.000,200.000 C131.552,200.000 132.000,200.448 132.000,200.999 C132.000,201.552 131.552,202.000 131.000,202.000 ZM131.000,192.000 C130.448,192.000 130.000,191.552 130.000,191.000 C130.000,190.447 130.448,190.000 131.000,190.000 C131.552,190.000 132.000,190.447 132.000,191.000 C132.000,191.552 131.552,192.000 131.000,192.000 ZM131.000,181.999 C130.448,181.999 130.000,181.551 130.000,181.000 C130.000,180.447 130.448,179.999 131.000,179.999 C131.552,179.999 132.000,180.447 132.000,181.000 C132.000,181.551 131.552,181.999 131.000,181.999 ZM131.000,171.999 C130.448,171.999 130.000,171.552 130.000,171.000 C130.000,170.447 130.448,169.999 131.000,169.999 C131.552,169.999 132.000,170.447 132.000,171.000 C132.000,171.552 131.552,171.999 131.000,171.999 ZM131.000,162.000 C130.448,162.000 130.000,161.552 130.000,160.999 C130.000,160.447 130.448,160.000 131.000,160.000 C131.552,160.000 132.000,160.447 132.000,160.999 C132.000,161.552 131.552,162.000 131.000,162.000 ZM131.000,152.000 C130.448,152.000 130.000,151.552 130.000,150.999 C130.000,150.448 130.448,150.000 131.000,150.000 C131.552,150.000 132.000,150.448 132.000,150.999 C132.000,151.552 131.552,152.000 131.000,152.000 ZM131.000,142.000 C130.448,142.000 130.000,141.552 130.000,140.999 C130.000,140.448 130.448,140.000 131.000,140.000 C131.552,140.000 132.000,140.448 132.000,140.999 C132.000,141.552 131.552,142.000 131.000,142.000 ZM131.000,131.999 C130.448,131.999 130.000,131.552 130.000,131.000 C130.000,130.447 130.448,129.999 131.000,129.999 C131.552,129.999 132.000,130.447 132.000,131.000 C132.000,131.552 131.552,131.999 131.000,131.999 ZM131.000,121.999 C130.448,121.999 130.000,121.552 130.000,121.000 C130.000,120.447 130.448,119.999 131.000,119.999 C131.552,119.999 132.000,120.447 132.000,121.000 C132.000,121.552 131.552,121.999 131.000,121.999 ZM131.000,111.999 C130.448,111.999 130.000,111.552 130.000,111.000 C130.000,110.447 130.448,110.000 131.000,110.000 C131.552,110.000 132.000,110.447 132.000,111.000 C132.000,111.552 131.552,111.999 131.000,111.999 ZM131.000,102.000 C130.448,102.000 130.000,101.552 130.000,100.999 C130.000,100.447 130.448,100.000 131.000,100.000 C131.552,100.000 132.000,100.447 132.000,100.999 C132.000,101.552 131.552,102.000 131.000,102.000 ZM131.000,92.000 C130.448,92.000 130.000,91.552 130.000,90.999 C130.000,90.448 130.448,90.000 131.000,90.000 C131.552,90.000 132.000,90.448 132.000,90.999 C132.000,91.552 131.552,92.000 131.000,92.000 ZM131.000,81.999 C130.448,81.999 130.000,81.552 130.000,81.000 C130.000,80.447 130.448,79.999 131.000,79.999 C131.552,79.999 132.000,80.447 132.000,81.000 C132.000,81.552 131.552,81.999 131.000,81.999 ZM131.000,71.999 C130.448,71.999 130.000,71.551 130.000,71.000 C130.000,70.447 130.448,69.999 131.000,69.999 C131.552,69.999 132.000,70.447 132.000,71.000 C132.000,71.551 131.552,71.999 131.000,71.999 ZM131.000,61.999 C130.448,61.999 130.000,61.552 130.000,61.000 C130.000,60.447 130.448,59.999 131.000,59.999 C131.552,59.999 132.000,60.447 132.000,61.000 C132.000,61.552 131.552,61.999 131.000,61.999 ZM131.000,52.000 C130.448,52.000 130.000,51.552 130.000,50.999 C130.000,50.447 130.448,50.000 131.000,50.000 C131.552,50.000 132.000,50.447 132.000,50.999 C132.000,51.552 131.552,52.000 131.000,52.000 ZM131.000,42.000 C130.448,42.000 130.000,41.552 130.000,40.999 C130.000,40.448 130.448,40.000 131.000,40.000 C131.552,40.000 132.000,40.448 132.000,40.999 C132.000,41.552 131.552,42.000 131.000,42.000 ZM131.000,32.000 C130.448,32.000 130.000,31.552 130.000,31.000 C130.000,30.447 130.448,30.000 131.000,30.000 C131.552,30.000 132.000,30.447 132.000,31.000 C132.000,31.552 131.552,32.000 131.000,32.000 ZM131.000,21.999 C130.448,21.999 130.000,21.551 130.000,21.000 C130.000,20.447 130.448,19.999 131.000,19.999 C131.552,19.999 132.000,20.447 132.000,21.000 C132.000,21.551 131.552,21.999 131.000,21.999 ZM131.000,11.999 C130.448,11.999 130.000,11.552 130.000,11.000 C130.000,10.447 130.448,9.999 131.000,9.999 C131.552,9.999 132.000,10.447 132.000,11.000 C132.000,11.552 131.552,11.999 131.000,11.999 ZM131.000,2.000 C130.448,2.000 130.000,1.552 130.000,0.999 C130.000,0.447 130.448,-0.000 131.000,-0.000 C131.552,-0.000 132.000,0.447 132.000,0.999 C132.000,1.552 131.552,2.000 131.000,2.000 ZM121.000,221.999 C120.448,221.999 120.000,221.552 120.000,221.000 C120.000,220.447 120.448,219.999 121.000,219.999 C121.552,219.999 122.000,220.447 122.000,221.000 C122.000,221.552 121.552,221.999 121.000,221.999 ZM121.000,212.000 C120.448,212.000 120.000,211.552 120.000,210.999 C120.000,210.447 120.448,210.000 121.000,210.000 C121.552,210.000 122.000,210.447 122.000,210.999 C122.000,211.552 121.552,212.000 121.000,212.000 ZM121.000,202.000 C120.448,202.000 120.000,201.552 120.000,200.999 C120.000,200.448 120.448,200.000 121.000,200.000 C121.552,200.000 122.000,200.448 122.000,200.999 C122.000,201.552 121.552,202.000 121.000,202.000 ZM121.000,192.000 C120.448,192.000 120.000,191.552 120.000,191.000 C120.000,190.447 120.448,190.000 121.000,190.000 C121.552,190.000 122.000,190.447 122.000,191.000 C122.000,191.552 121.552,192.000 121.000,192.000 ZM121.000,181.999 C120.448,181.999 120.000,181.551 120.000,181.000 C120.000,180.447 120.448,179.999 121.000,179.999 C121.552,179.999 122.000,180.447 122.000,181.000 C122.000,181.551 121.552,181.999 121.000,181.999 ZM121.000,171.999 C120.448,171.999 120.000,171.552 120.000,171.000 C120.000,170.447 120.448,169.999 121.000,169.999 C121.552,169.999 122.000,170.447 122.000,171.000 C122.000,171.552 121.552,171.999 121.000,171.999 ZM121.000,162.000 C120.448,162.000 120.000,161.552 120.000,160.999 C120.000,160.447 120.448,160.000 121.000,160.000 C121.552,160.000 122.000,160.447 122.000,160.999 C122.000,161.552 121.552,162.000 121.000,162.000 ZM121.000,152.000 C120.448,152.000 120.000,151.552 120.000,150.999 C120.000,150.448 120.448,150.000 121.000,150.000 C121.552,150.000 122.000,150.448 122.000,150.999 C122.000,151.552 121.552,152.000 121.000,152.000 ZM121.000,142.000 C120.448,142.000 120.000,141.552 120.000,140.999 C120.000,140.448 120.448,140.000 121.000,140.000 C121.552,140.000 122.000,140.448 122.000,140.999 C122.000,141.552 121.552,142.000 121.000,142.000 ZM121.000,131.999 C120.448,131.999 120.000,131.552 120.000,131.000 C120.000,130.447 120.448,129.999 121.000,129.999 C121.552,129.999 122.000,130.447 122.000,131.000 C122.000,131.552 121.552,131.999 121.000,131.999 ZM121.000,121.999 C120.448,121.999 120.000,121.552 120.000,121.000 C120.000,120.447 120.448,119.999 121.000,119.999 C121.552,119.999 122.000,120.447 122.000,121.000 C122.000,121.552 121.552,121.999 121.000,121.999 ZM121.000,111.999 C120.448,111.999 120.000,111.552 120.000,111.000 C120.000,110.447 120.448,110.000 121.000,110.000 C121.552,110.000 122.000,110.447 122.000,111.000 C122.000,111.552 121.552,111.999 121.000,111.999 ZM121.000,102.000 C120.448,102.000 120.000,101.552 120.000,100.999 C120.000,100.447 120.448,100.000 121.000,100.000 C121.552,100.000 122.000,100.447 122.000,100.999 C122.000,101.552 121.552,102.000 121.000,102.000 ZM121.000,92.000 C120.448,92.000 120.000,91.552 120.000,90.999 C120.000,90.448 120.448,90.000 121.000,90.000 C121.552,90.000 122.000,90.448 122.000,90.999 C122.000,91.552 121.552,92.000 121.000,92.000 ZM121.000,81.999 C120.448,81.999 120.000,81.552 120.000,81.000 C120.000,80.447 120.448,79.999 121.000,79.999 C121.552,79.999 122.000,80.447 122.000,81.000 C122.000,81.552 121.552,81.999 121.000,81.999 ZM121.000,71.999 C120.448,71.999 120.000,71.551 120.000,71.000 C120.000,70.447 120.448,69.999 121.000,69.999 C121.552,69.999 122.000,70.447 122.000,71.000 C122.000,71.551 121.552,71.999 121.000,71.999 ZM121.000,61.999 C120.448,61.999 120.000,61.552 120.000,61.000 C120.000,60.447 120.448,59.999 121.000,59.999 C121.552,59.999 122.000,60.447 122.000,61.000 C122.000,61.552 121.552,61.999 121.000,61.999 ZM121.000,52.000 C120.448,52.000 120.000,51.552 120.000,50.999 C120.000,50.447 120.448,50.000 121.000,50.000 C121.552,50.000 122.000,50.447 122.000,50.999 C122.000,51.552 121.552,52.000 121.000,52.000 ZM121.000,42.000 C120.448,42.000 120.000,41.552 120.000,40.999 C120.000,40.448 120.448,40.000 121.000,40.000 C121.552,40.000 122.000,40.448 122.000,40.999 C122.000,41.552 121.552,42.000 121.000,42.000 ZM121.000,32.000 C120.448,32.000 120.000,31.552 120.000,31.000 C120.000,30.447 120.448,30.000 121.000,30.000 C121.552,30.000 122.000,30.447 122.000,31.000 C122.000,31.552 121.552,32.000 121.000,32.000 ZM121.000,21.999 C120.448,21.999 120.000,21.551 120.000,21.000 C120.000,20.447 120.448,19.999 121.000,19.999 C121.552,19.999 122.000,20.447 122.000,21.000 C122.000,21.551 121.552,21.999 121.000,21.999 ZM121.000,11.999 C120.448,11.999 120.000,11.552 120.000,11.000 C120.000,10.447 120.448,9.999 121.000,9.999 C121.552,9.999 122.000,10.447 122.000,11.000 C122.000,11.552 121.552,11.999 121.000,11.999 ZM121.000,2.000 C120.448,2.000 120.000,1.552 120.000,0.999 C120.000,0.447 120.448,-0.000 121.000,-0.000 C121.552,-0.000 122.000,0.447 122.000,0.999 C122.000,1.552 121.552,2.000 121.000,2.000 ZM111.000,221.999 C110.448,221.999 110.000,221.552 110.000,221.000 C110.000,220.447 110.448,219.999 111.000,219.999 C111.552,219.999 112.000,220.447 112.000,221.000 C112.000,221.552 111.552,221.999 111.000,221.999 ZM111.000,212.000 C110.448,212.000 110.000,211.552 110.000,210.999 C110.000,210.447 110.448,210.000 111.000,210.000 C111.552,210.000 112.000,210.447 112.000,210.999 C112.000,211.552 111.552,212.000 111.000,212.000 ZM111.000,202.000 C110.448,202.000 110.000,201.552 110.000,200.999 C110.000,200.448 110.448,200.000 111.000,200.000 C111.552,200.000 112.000,200.448 112.000,200.999 C112.000,201.552 111.552,202.000 111.000,202.000 ZM111.000,192.000 C110.448,192.000 110.000,191.552 110.000,191.000 C110.000,190.447 110.448,190.000 111.000,190.000 C111.552,190.000 112.000,190.447 112.000,191.000 C112.000,191.552 111.552,192.000 111.000,192.000 ZM111.000,181.999 C110.448,181.999 110.000,181.551 110.000,181.000 C110.000,180.447 110.448,179.999 111.000,179.999 C111.552,179.999 112.000,180.447 112.000,181.000 C112.000,181.551 111.552,181.999 111.000,181.999 ZM111.000,171.999 C110.448,171.999 110.000,171.552 110.000,171.000 C110.000,170.447 110.448,169.999 111.000,169.999 C111.552,169.999 112.000,170.447 112.000,171.000 C112.000,171.552 111.552,171.999 111.000,171.999 ZM111.000,162.000 C110.448,162.000 110.000,161.552 110.000,160.999 C110.000,160.447 110.448,160.000 111.000,160.000 C111.552,160.000 112.000,160.447 112.000,160.999 C112.000,161.552 111.552,162.000 111.000,162.000 ZM111.000,152.000 C110.448,152.000 110.000,151.552 110.000,150.999 C110.000,150.448 110.448,150.000 111.000,150.000 C111.552,150.000 112.000,150.448 112.000,150.999 C112.000,151.552 111.552,152.000 111.000,152.000 ZM111.000,142.000 C110.448,142.000 110.000,141.552 110.000,140.999 C110.000,140.448 110.448,140.000 111.000,140.000 C111.552,140.000 112.000,140.448 112.000,140.999 C112.000,141.552 111.552,142.000 111.000,142.000 ZM111.000,131.999 C110.448,131.999 110.000,131.552 110.000,131.000 C110.000,130.447 110.448,129.999 111.000,129.999 C111.552,129.999 112.000,130.447 112.000,131.000 C112.000,131.552 111.552,131.999 111.000,131.999 ZM111.000,121.999 C110.448,121.999 110.000,121.552 110.000,121.000 C110.000,120.447 110.448,119.999 111.000,119.999 C111.552,119.999 112.000,120.447 112.000,121.000 C112.000,121.552 111.552,121.999 111.000,121.999 ZM111.000,111.999 C110.448,111.999 110.000,111.552 110.000,111.000 C110.000,110.447 110.448,110.000 111.000,110.000 C111.552,110.000 112.000,110.447 112.000,111.000 C112.000,111.552 111.552,111.999 111.000,111.999 ZM111.000,102.000 C110.448,102.000 110.000,101.552 110.000,100.999 C110.000,100.447 110.448,100.000 111.000,100.000 C111.552,100.000 112.000,100.447 112.000,100.999 C112.000,101.552 111.552,102.000 111.000,102.000 ZM111.000,92.000 C110.448,92.000 110.000,91.552 110.000,90.999 C110.000,90.448 110.448,90.000 111.000,90.000 C111.552,90.000 112.000,90.448 112.000,90.999 C112.000,91.552 111.552,92.000 111.000,92.000 ZM111.000,81.999 C110.448,81.999 110.000,81.552 110.000,81.000 C110.000,80.447 110.448,79.999 111.000,79.999 C111.552,79.999 112.000,80.447 112.000,81.000 C112.000,81.552 111.552,81.999 111.000,81.999 ZM111.000,71.999 C110.448,71.999 110.000,71.551 110.000,71.000 C110.000,70.447 110.448,69.999 111.000,69.999 C111.552,69.999 112.000,70.447 112.000,71.000 C112.000,71.551 111.552,71.999 111.000,71.999 ZM111.000,61.999 C110.448,61.999 110.000,61.552 110.000,61.000 C110.000,60.447 110.448,59.999 111.000,59.999 C111.552,59.999 112.000,60.447 112.000,61.000 C112.000,61.552 111.552,61.999 111.000,61.999 ZM111.000,52.000 C110.448,52.000 110.000,51.552 110.000,50.999 C110.000,50.447 110.448,50.000 111.000,50.000 C111.552,50.000 112.000,50.447 112.000,50.999 C112.000,51.552 111.552,52.000 111.000,52.000 ZM111.000,42.000 C110.448,42.000 110.000,41.552 110.000,40.999 C110.000,40.448 110.448,40.000 111.000,40.000 C111.552,40.000 112.000,40.448 112.000,40.999 C112.000,41.552 111.552,42.000 111.000,42.000 ZM111.000,32.000 C110.448,32.000 110.000,31.552 110.000,31.000 C110.000,30.447 110.448,30.000 111.000,30.000 C111.552,30.000 112.000,30.447 112.000,31.000 C112.000,31.552 111.552,32.000 111.000,32.000 ZM111.000,21.999 C110.448,21.999 110.000,21.551 110.000,21.000 C110.000,20.447 110.448,19.999 111.000,19.999 C111.552,19.999 112.000,20.447 112.000,21.000 C112.000,21.551 111.552,21.999 111.000,21.999 ZM111.000,11.999 C110.448,11.999 110.000,11.552 110.000,11.000 C110.000,10.447 110.448,9.999 111.000,9.999 C111.552,9.999 112.000,10.447 112.000,11.000 C112.000,11.552 111.552,11.999 111.000,11.999 ZM111.000,2.000 C110.448,2.000 110.000,1.552 110.000,0.999 C110.000,0.447 110.448,-0.000 111.000,-0.000 C111.552,-0.000 112.000,0.447 112.000,0.999 C112.000,1.552 111.552,2.000 111.000,2.000 ZM101.000,221.999 C100.448,221.999 100.000,221.552 100.000,221.000 C100.000,220.447 100.448,219.999 101.000,219.999 C101.552,219.999 102.000,220.447 102.000,221.000 C102.000,221.552 101.552,221.999 101.000,221.999 ZM101.000,212.000 C100.448,212.000 100.000,211.552 100.000,210.999 C100.000,210.447 100.448,210.000 101.000,210.000 C101.552,210.000 102.000,210.447 102.000,210.999 C102.000,211.552 101.552,212.000 101.000,212.000 ZM101.000,202.000 C100.448,202.000 100.000,201.552 100.000,200.999 C100.000,200.448 100.448,200.000 101.000,200.000 C101.552,200.000 102.000,200.448 102.000,200.999 C102.000,201.552 101.552,202.000 101.000,202.000 ZM101.000,192.000 C100.448,192.000 100.000,191.552 100.000,191.000 C100.000,190.447 100.448,190.000 101.000,190.000 C101.552,190.000 102.000,190.447 102.000,191.000 C102.000,191.552 101.552,192.000 101.000,192.000 ZM101.000,181.999 C100.448,181.999 100.000,181.551 100.000,181.000 C100.000,180.447 100.448,179.999 101.000,179.999 C101.552,179.999 102.000,180.447 102.000,181.000 C102.000,181.551 101.552,181.999 101.000,181.999 ZM101.000,171.999 C100.448,171.999 100.000,171.552 100.000,171.000 C100.000,170.447 100.448,169.999 101.000,169.999 C101.552,169.999 102.000,170.447 102.000,171.000 C102.000,171.552 101.552,171.999 101.000,171.999 ZM101.000,162.000 C100.448,162.000 100.000,161.552 100.000,160.999 C100.000,160.447 100.448,160.000 101.000,160.000 C101.552,160.000 102.000,160.447 102.000,160.999 C102.000,161.552 101.552,162.000 101.000,162.000 ZM101.000,152.000 C100.448,152.000 100.000,151.552 100.000,150.999 C100.000,150.448 100.448,150.000 101.000,150.000 C101.552,150.000 102.000,150.448 102.000,150.999 C102.000,151.552 101.552,152.000 101.000,152.000 ZM101.000,142.000 C100.448,142.000 100.000,141.552 100.000,140.999 C100.000,140.448 100.448,140.000 101.000,140.000 C101.552,140.000 102.000,140.448 102.000,140.999 C102.000,141.552 101.552,142.000 101.000,142.000 ZM101.000,131.999 C100.448,131.999 100.000,131.552 100.000,131.000 C100.000,130.447 100.448,129.999 101.000,129.999 C101.552,129.999 102.000,130.447 102.000,131.000 C102.000,131.552 101.552,131.999 101.000,131.999 ZM101.000,121.999 C100.448,121.999 100.000,121.552 100.000,121.000 C100.000,120.447 100.448,119.999 101.000,119.999 C101.552,119.999 102.000,120.447 102.000,121.000 C102.000,121.552 101.552,121.999 101.000,121.999 ZM101.000,111.999 C100.448,111.999 100.000,111.552 100.000,111.000 C100.000,110.447 100.448,110.000 101.000,110.000 C101.552,110.000 102.000,110.447 102.000,111.000 C102.000,111.552 101.552,111.999 101.000,111.999 ZM101.000,102.000 C100.448,102.000 100.000,101.552 100.000,100.999 C100.000,100.447 100.448,100.000 101.000,100.000 C101.552,100.000 102.000,100.447 102.000,100.999 C102.000,101.552 101.552,102.000 101.000,102.000 ZM101.000,92.000 C100.448,92.000 100.000,91.552 100.000,90.999 C100.000,90.448 100.448,90.000 101.000,90.000 C101.552,90.000 102.000,90.448 102.000,90.999 C102.000,91.552 101.552,92.000 101.000,92.000 ZM101.000,81.999 C100.448,81.999 100.000,81.552 100.000,81.000 C100.000,80.447 100.448,79.999 101.000,79.999 C101.552,79.999 102.000,80.447 102.000,81.000 C102.000,81.552 101.552,81.999 101.000,81.999 ZM101.000,71.999 C100.448,71.999 100.000,71.551 100.000,71.000 C100.000,70.447 100.448,69.999 101.000,69.999 C101.552,69.999 102.000,70.447 102.000,71.000 C102.000,71.551 101.552,71.999 101.000,71.999 ZM101.000,61.999 C100.448,61.999 100.000,61.552 100.000,61.000 C100.000,60.447 100.448,59.999 101.000,59.999 C101.552,59.999 102.000,60.447 102.000,61.000 C102.000,61.552 101.552,61.999 101.000,61.999 ZM101.000,52.000 C100.448,52.000 100.000,51.552 100.000,50.999 C100.000,50.447 100.448,50.000 101.000,50.000 C101.552,50.000 102.000,50.447 102.000,50.999 C102.000,51.552 101.552,52.000 101.000,52.000 ZM101.000,42.000 C100.448,42.000 100.000,41.552 100.000,40.999 C100.000,40.448 100.448,40.000 101.000,40.000 C101.552,40.000 102.000,40.448 102.000,40.999 C102.000,41.552 101.552,42.000 101.000,42.000 ZM101.000,32.000 C100.448,32.000 100.000,31.552 100.000,31.000 C100.000,30.447 100.448,30.000 101.000,30.000 C101.552,30.000 102.000,30.447 102.000,31.000 C102.000,31.552 101.552,32.000 101.000,32.000 ZM101.000,21.999 C100.448,21.999 100.000,21.551 100.000,21.000 C100.000,20.447 100.448,19.999 101.000,19.999 C101.552,19.999 102.000,20.447 102.000,21.000 C102.000,21.551 101.552,21.999 101.000,21.999 ZM101.000,11.999 C100.448,11.999 100.000,11.552 100.000,11.000 C100.000,10.447 100.448,9.999 101.000,9.999 C101.552,9.999 102.000,10.447 102.000,11.000 C102.000,11.552 101.552,11.999 101.000,11.999 ZM101.000,2.000 C100.448,2.000 100.000,1.552 100.000,0.999 C100.000,0.447 100.448,-0.000 101.000,-0.000 C101.552,-0.000 102.000,0.447 102.000,0.999 C102.000,1.552 101.552,2.000 101.000,2.000 ZM91.000,221.999 C90.448,221.999 90.000,221.552 90.000,221.000 C90.000,220.447 90.448,219.999 91.000,219.999 C91.552,219.999 92.000,220.447 92.000,221.000 C92.000,221.552 91.552,221.999 91.000,221.999 ZM91.000,212.000 C90.448,212.000 90.000,211.552 90.000,210.999 C90.000,210.447 90.448,210.000 91.000,210.000 C91.552,210.000 92.000,210.447 92.000,210.999 C92.000,211.552 91.552,212.000 91.000,212.000 ZM91.000,202.000 C90.448,202.000 90.000,201.552 90.000,200.999 C90.000,200.448 90.448,200.000 91.000,200.000 C91.552,200.000 92.000,200.448 92.000,200.999 C92.000,201.552 91.552,202.000 91.000,202.000 ZM91.000,192.000 C90.448,192.000 90.000,191.552 90.000,191.000 C90.000,190.447 90.448,190.000 91.000,190.000 C91.552,190.000 92.000,190.447 92.000,191.000 C92.000,191.552 91.552,192.000 91.000,192.000 ZM91.000,181.999 C90.448,181.999 90.000,181.551 90.000,181.000 C90.000,180.447 90.448,179.999 91.000,179.999 C91.552,179.999 92.000,180.447 92.000,181.000 C92.000,181.551 91.552,181.999 91.000,181.999 ZM91.000,171.999 C90.448,171.999 90.000,171.552 90.000,171.000 C90.000,170.447 90.448,169.999 91.000,169.999 C91.552,169.999 92.000,170.447 92.000,171.000 C92.000,171.552 91.552,171.999 91.000,171.999 ZM91.000,162.000 C90.448,162.000 90.000,161.552 90.000,160.999 C90.000,160.447 90.448,160.000 91.000,160.000 C91.552,160.000 92.000,160.447 92.000,160.999 C92.000,161.552 91.552,162.000 91.000,162.000 ZM91.000,152.000 C90.448,152.000 90.000,151.552 90.000,150.999 C90.000,150.448 90.448,150.000 91.000,150.000 C91.552,150.000 92.000,150.448 92.000,150.999 C92.000,151.552 91.552,152.000 91.000,152.000 ZM91.000,142.000 C90.448,142.000 90.000,141.552 90.000,140.999 C90.000,140.448 90.448,140.000 91.000,140.000 C91.552,140.000 92.000,140.448 92.000,140.999 C92.000,141.552 91.552,142.000 91.000,142.000 ZM91.000,131.999 C90.448,131.999 90.000,131.552 90.000,131.000 C90.000,130.447 90.448,129.999 91.000,129.999 C91.552,129.999 92.000,130.447 92.000,131.000 C92.000,131.552 91.552,131.999 91.000,131.999 ZM91.000,121.999 C90.448,121.999 90.000,121.552 90.000,121.000 C90.000,120.447 90.448,119.999 91.000,119.999 C91.552,119.999 92.000,120.447 92.000,121.000 C92.000,121.552 91.552,121.999 91.000,121.999 ZM91.000,111.999 C90.448,111.999 90.000,111.552 90.000,111.000 C90.000,110.447 90.448,110.000 91.000,110.000 C91.552,110.000 92.000,110.447 92.000,111.000 C92.000,111.552 91.552,111.999 91.000,111.999 ZM91.000,102.000 C90.448,102.000 90.000,101.552 90.000,100.999 C90.000,100.447 90.448,100.000 91.000,100.000 C91.552,100.000 92.000,100.447 92.000,100.999 C92.000,101.552 91.552,102.000 91.000,102.000 ZM91.000,92.000 C90.448,92.000 90.000,91.552 90.000,90.999 C90.000,90.448 90.448,90.000 91.000,90.000 C91.552,90.000 92.000,90.448 92.000,90.999 C92.000,91.552 91.552,92.000 91.000,92.000 ZM91.000,81.999 C90.448,81.999 90.000,81.552 90.000,81.000 C90.000,80.447 90.448,79.999 91.000,79.999 C91.552,79.999 92.000,80.447 92.000,81.000 C92.000,81.552 91.552,81.999 91.000,81.999 ZM91.000,71.999 C90.448,71.999 90.000,71.551 90.000,71.000 C90.000,70.447 90.448,69.999 91.000,69.999 C91.552,69.999 92.000,70.447 92.000,71.000 C92.000,71.551 91.552,71.999 91.000,71.999 ZM91.000,61.999 C90.448,61.999 90.000,61.552 90.000,61.000 C90.000,60.447 90.448,59.999 91.000,59.999 C91.552,59.999 92.000,60.447 92.000,61.000 C92.000,61.552 91.552,61.999 91.000,61.999 ZM91.000,52.000 C90.448,52.000 90.000,51.552 90.000,50.999 C90.000,50.447 90.448,50.000 91.000,50.000 C91.552,50.000 92.000,50.447 92.000,50.999 C92.000,51.552 91.552,52.000 91.000,52.000 ZM91.000,42.000 C90.448,42.000 90.000,41.552 90.000,40.999 C90.000,40.448 90.448,40.000 91.000,40.000 C91.552,40.000 92.000,40.448 92.000,40.999 C92.000,41.552 91.552,42.000 91.000,42.000 ZM91.000,32.000 C90.448,32.000 90.000,31.552 90.000,31.000 C90.000,30.447 90.448,30.000 91.000,30.000 C91.552,30.000 92.000,30.447 92.000,31.000 C92.000,31.552 91.552,32.000 91.000,32.000 ZM91.000,21.999 C90.448,21.999 90.000,21.551 90.000,21.000 C90.000,20.447 90.448,19.999 91.000,19.999 C91.552,19.999 92.000,20.447 92.000,21.000 C92.000,21.551 91.552,21.999 91.000,21.999 ZM91.000,11.999 C90.448,11.999 90.000,11.552 90.000,11.000 C90.000,10.447 90.448,9.999 91.000,9.999 C91.552,9.999 92.000,10.447 92.000,11.000 C92.000,11.552 91.552,11.999 91.000,11.999 ZM91.000,2.000 C90.448,2.000 90.000,1.552 90.000,0.999 C90.000,0.447 90.448,-0.000 91.000,-0.000 C91.552,-0.000 92.000,0.447 92.000,0.999 C92.000,1.552 91.552,2.000 91.000,2.000 ZM81.000,221.999 C80.448,221.999 80.000,221.552 80.000,221.000 C80.000,220.447 80.448,219.999 81.000,219.999 C81.552,219.999 82.000,220.447 82.000,221.000 C82.000,221.552 81.552,221.999 81.000,221.999 ZM81.000,212.000 C80.448,212.000 80.000,211.552 80.000,210.999 C80.000,210.447 80.448,210.000 81.000,210.000 C81.552,210.000 82.000,210.447 82.000,210.999 C82.000,211.552 81.552,212.000 81.000,212.000 ZM81.000,202.000 C80.448,202.000 80.000,201.552 80.000,200.999 C80.000,200.448 80.448,200.000 81.000,200.000 C81.552,200.000 82.000,200.448 82.000,200.999 C82.000,201.552 81.552,202.000 81.000,202.000 ZM81.000,192.000 C80.448,192.000 80.000,191.552 80.000,191.000 C80.000,190.447 80.448,190.000 81.000,190.000 C81.552,190.000 82.000,190.447 82.000,191.000 C82.000,191.552 81.552,192.000 81.000,192.000 ZM81.000,181.999 C80.448,181.999 80.000,181.551 80.000,181.000 C80.000,180.447 80.448,179.999 81.000,179.999 C81.552,179.999 82.000,180.447 82.000,181.000 C82.000,181.551 81.552,181.999 81.000,181.999 ZM81.000,171.999 C80.448,171.999 80.000,171.552 80.000,171.000 C80.000,170.447 80.448,169.999 81.000,169.999 C81.552,169.999 82.000,170.447 82.000,171.000 C82.000,171.552 81.552,171.999 81.000,171.999 ZM81.000,162.000 C80.448,162.000 80.000,161.552 80.000,160.999 C80.000,160.447 80.448,160.000 81.000,160.000 C81.552,160.000 82.000,160.447 82.000,160.999 C82.000,161.552 81.552,162.000 81.000,162.000 ZM81.000,152.000 C80.448,152.000 80.000,151.552 80.000,150.999 C80.000,150.448 80.448,150.000 81.000,150.000 C81.552,150.000 82.000,150.448 82.000,150.999 C82.000,151.552 81.552,152.000 81.000,152.000 ZM81.000,142.000 C80.448,142.000 80.000,141.552 80.000,140.999 C80.000,140.448 80.448,140.000 81.000,140.000 C81.552,140.000 82.000,140.448 82.000,140.999 C82.000,141.552 81.552,142.000 81.000,142.000 ZM81.000,131.999 C80.448,131.999 80.000,131.552 80.000,131.000 C80.000,130.447 80.448,129.999 81.000,129.999 C81.552,129.999 82.000,130.447 82.000,131.000 C82.000,131.552 81.552,131.999 81.000,131.999 ZM81.000,121.999 C80.448,121.999 80.000,121.552 80.000,121.000 C80.000,120.447 80.448,119.999 81.000,119.999 C81.552,119.999 82.000,120.447 82.000,121.000 C82.000,121.552 81.552,121.999 81.000,121.999 ZM81.000,111.999 C80.448,111.999 80.000,111.552 80.000,111.000 C80.000,110.447 80.448,110.000 81.000,110.000 C81.552,110.000 82.000,110.447 82.000,111.000 C82.000,111.552 81.552,111.999 81.000,111.999 ZM81.000,102.000 C80.448,102.000 80.000,101.552 80.000,100.999 C80.000,100.447 80.448,100.000 81.000,100.000 C81.552,100.000 82.000,100.447 82.000,100.999 C82.000,101.552 81.552,102.000 81.000,102.000 ZM81.000,92.000 C80.448,92.000 80.000,91.552 80.000,90.999 C80.000,90.448 80.448,90.000 81.000,90.000 C81.552,90.000 82.000,90.448 82.000,90.999 C82.000,91.552 81.552,92.000 81.000,92.000 ZM81.000,81.999 C80.448,81.999 80.000,81.552 80.000,81.000 C80.000,80.447 80.448,79.999 81.000,79.999 C81.552,79.999 82.000,80.447 82.000,81.000 C82.000,81.552 81.552,81.999 81.000,81.999 ZM81.000,71.999 C80.448,71.999 80.000,71.551 80.000,71.000 C80.000,70.447 80.448,69.999 81.000,69.999 C81.552,69.999 82.000,70.447 82.000,71.000 C82.000,71.551 81.552,71.999 81.000,71.999 ZM81.000,61.999 C80.448,61.999 80.000,61.552 80.000,61.000 C80.000,60.447 80.448,59.999 81.000,59.999 C81.552,59.999 82.000,60.447 82.000,61.000 C82.000,61.552 81.552,61.999 81.000,61.999 ZM81.000,52.000 C80.448,52.000 80.000,51.552 80.000,50.999 C80.000,50.447 80.448,50.000 81.000,50.000 C81.552,50.000 82.000,50.447 82.000,50.999 C82.000,51.552 81.552,52.000 81.000,52.000 ZM81.000,42.000 C80.448,42.000 80.000,41.552 80.000,40.999 C80.000,40.448 80.448,40.000 81.000,40.000 C81.552,40.000 82.000,40.448 82.000,40.999 C82.000,41.552 81.552,42.000 81.000,42.000 ZM81.000,32.000 C80.448,32.000 80.000,31.552 80.000,31.000 C80.000,30.447 80.448,30.000 81.000,30.000 C81.552,30.000 82.000,30.447 82.000,31.000 C82.000,31.552 81.552,32.000 81.000,32.000 ZM81.000,21.999 C80.448,21.999 80.000,21.551 80.000,21.000 C80.000,20.447 80.448,19.999 81.000,19.999 C81.552,19.999 82.000,20.447 82.000,21.000 C82.000,21.551 81.552,21.999 81.000,21.999 ZM81.000,11.999 C80.448,11.999 80.000,11.552 80.000,11.000 C80.000,10.447 80.448,9.999 81.000,9.999 C81.552,9.999 82.000,10.447 82.000,11.000 C82.000,11.552 81.552,11.999 81.000,11.999 ZM81.000,2.000 C80.448,2.000 80.000,1.552 80.000,0.999 C80.000,0.447 80.448,-0.000 81.000,-0.000 C81.552,-0.000 82.000,0.447 82.000,0.999 C82.000,1.552 81.552,2.000 81.000,2.000 ZM71.000,221.999 C70.448,221.999 70.000,221.552 70.000,221.000 C70.000,220.447 70.448,219.999 71.000,219.999 C71.552,219.999 72.000,220.447 72.000,221.000 C72.000,221.552 71.552,221.999 71.000,221.999 ZM71.000,212.000 C70.448,212.000 70.000,211.552 70.000,210.999 C70.000,210.447 70.448,210.000 71.000,210.000 C71.552,210.000 72.000,210.447 72.000,210.999 C72.000,211.552 71.552,212.000 71.000,212.000 ZM71.000,202.000 C70.448,202.000 70.000,201.552 70.000,200.999 C70.000,200.448 70.448,200.000 71.000,200.000 C71.552,200.000 72.000,200.448 72.000,200.999 C72.000,201.552 71.552,202.000 71.000,202.000 ZM71.000,192.000 C70.448,192.000 70.000,191.552 70.000,191.000 C70.000,190.447 70.448,190.000 71.000,190.000 C71.552,190.000 72.000,190.447 72.000,191.000 C72.000,191.552 71.552,192.000 71.000,192.000 ZM71.000,181.999 C70.448,181.999 70.000,181.551 70.000,181.000 C70.000,180.447 70.448,179.999 71.000,179.999 C71.552,179.999 72.000,180.447 72.000,181.000 C72.000,181.551 71.552,181.999 71.000,181.999 ZM71.000,171.999 C70.448,171.999 70.000,171.552 70.000,171.000 C70.000,170.447 70.448,169.999 71.000,169.999 C71.552,169.999 72.000,170.447 72.000,171.000 C72.000,171.552 71.552,171.999 71.000,171.999 ZM71.000,162.000 C70.448,162.000 70.000,161.552 70.000,160.999 C70.000,160.447 70.448,160.000 71.000,160.000 C71.552,160.000 72.000,160.447 72.000,160.999 C72.000,161.552 71.552,162.000 71.000,162.000 ZM71.000,152.000 C70.448,152.000 70.000,151.552 70.000,150.999 C70.000,150.448 70.448,150.000 71.000,150.000 C71.552,150.000 72.000,150.448 72.000,150.999 C72.000,151.552 71.552,152.000 71.000,152.000 ZM71.000,142.000 C70.448,142.000 70.000,141.552 70.000,140.999 C70.000,140.448 70.448,140.000 71.000,140.000 C71.552,140.000 72.000,140.448 72.000,140.999 C72.000,141.552 71.552,142.000 71.000,142.000 ZM71.000,131.999 C70.448,131.999 70.000,131.552 70.000,131.000 C70.000,130.447 70.448,129.999 71.000,129.999 C71.552,129.999 72.000,130.447 72.000,131.000 C72.000,131.552 71.552,131.999 71.000,131.999 ZM71.000,121.999 C70.448,121.999 70.000,121.552 70.000,121.000 C70.000,120.447 70.448,119.999 71.000,119.999 C71.552,119.999 72.000,120.447 72.000,121.000 C72.000,121.552 71.552,121.999 71.000,121.999 ZM71.000,111.999 C70.448,111.999 70.000,111.552 70.000,111.000 C70.000,110.447 70.448,110.000 71.000,110.000 C71.552,110.000 72.000,110.447 72.000,111.000 C72.000,111.552 71.552,111.999 71.000,111.999 ZM71.000,102.000 C70.448,102.000 70.000,101.552 70.000,100.999 C70.000,100.447 70.448,100.000 71.000,100.000 C71.552,100.000 72.000,100.447 72.000,100.999 C72.000,101.552 71.552,102.000 71.000,102.000 ZM71.000,92.000 C70.448,92.000 70.000,91.552 70.000,90.999 C70.000,90.448 70.448,90.000 71.000,90.000 C71.552,90.000 72.000,90.448 72.000,90.999 C72.000,91.552 71.552,92.000 71.000,92.000 ZM71.000,81.999 C70.448,81.999 70.000,81.552 70.000,81.000 C70.000,80.447 70.448,79.999 71.000,79.999 C71.552,79.999 72.000,80.447 72.000,81.000 C72.000,81.552 71.552,81.999 71.000,81.999 ZM71.000,71.999 C70.448,71.999 70.000,71.551 70.000,71.000 C70.000,70.447 70.448,69.999 71.000,69.999 C71.552,69.999 72.000,70.447 72.000,71.000 C72.000,71.551 71.552,71.999 71.000,71.999 ZM71.000,61.999 C70.448,61.999 70.000,61.552 70.000,61.000 C70.000,60.447 70.448,59.999 71.000,59.999 C71.552,59.999 72.000,60.447 72.000,61.000 C72.000,61.552 71.552,61.999 71.000,61.999 ZM71.000,52.000 C70.448,52.000 70.000,51.552 70.000,50.999 C70.000,50.447 70.448,50.000 71.000,50.000 C71.552,50.000 72.000,50.447 72.000,50.999 C72.000,51.552 71.552,52.000 71.000,52.000 ZM71.000,42.000 C70.448,42.000 70.000,41.552 70.000,40.999 C70.000,40.448 70.448,40.000 71.000,40.000 C71.552,40.000 72.000,40.448 72.000,40.999 C72.000,41.552 71.552,42.000 71.000,42.000 ZM71.000,32.000 C70.448,32.000 70.000,31.552 70.000,31.000 C70.000,30.447 70.448,30.000 71.000,30.000 C71.552,30.000 72.000,30.447 72.000,31.000 C72.000,31.552 71.552,32.000 71.000,32.000 ZM71.000,21.999 C70.448,21.999 70.000,21.551 70.000,21.000 C70.000,20.447 70.448,19.999 71.000,19.999 C71.552,19.999 72.000,20.447 72.000,21.000 C72.000,21.551 71.552,21.999 71.000,21.999 ZM71.000,11.999 C70.448,11.999 70.000,11.552 70.000,11.000 C70.000,10.447 70.448,9.999 71.000,9.999 C71.552,9.999 72.000,10.447 72.000,11.000 C72.000,11.552 71.552,11.999 71.000,11.999 ZM71.000,2.000 C70.448,2.000 70.000,1.552 70.000,0.999 C70.000,0.447 70.448,-0.000 71.000,-0.000 C71.552,-0.000 72.000,0.447 72.000,0.999 C72.000,1.552 71.552,2.000 71.000,2.000 ZM61.000,221.999 C60.448,221.999 60.000,221.552 60.000,221.000 C60.000,220.447 60.448,219.999 61.000,219.999 C61.552,219.999 62.000,220.447 62.000,221.000 C62.000,221.552 61.552,221.999 61.000,221.999 ZM61.000,212.000 C60.448,212.000 60.000,211.552 60.000,210.999 C60.000,210.447 60.448,210.000 61.000,210.000 C61.552,210.000 62.000,210.447 62.000,210.999 C62.000,211.552 61.552,212.000 61.000,212.000 ZM61.000,202.000 C60.448,202.000 60.000,201.552 60.000,200.999 C60.000,200.448 60.448,200.000 61.000,200.000 C61.552,200.000 62.000,200.448 62.000,200.999 C62.000,201.552 61.552,202.000 61.000,202.000 ZM61.000,192.000 C60.448,192.000 60.000,191.552 60.000,191.000 C60.000,190.447 60.448,190.000 61.000,190.000 C61.552,190.000 62.000,190.447 62.000,191.000 C62.000,191.552 61.552,192.000 61.000,192.000 ZM61.000,181.999 C60.448,181.999 60.000,181.551 60.000,181.000 C60.000,180.447 60.448,179.999 61.000,179.999 C61.552,179.999 62.000,180.447 62.000,181.000 C62.000,181.551 61.552,181.999 61.000,181.999 ZM61.000,171.999 C60.448,171.999 60.000,171.552 60.000,171.000 C60.000,170.447 60.448,169.999 61.000,169.999 C61.552,169.999 62.000,170.447 62.000,171.000 C62.000,171.552 61.552,171.999 61.000,171.999 ZM61.000,162.000 C60.448,162.000 60.000,161.552 60.000,160.999 C60.000,160.447 60.448,160.000 61.000,160.000 C61.552,160.000 62.000,160.447 62.000,160.999 C62.000,161.552 61.552,162.000 61.000,162.000 ZM61.000,152.000 C60.448,152.000 60.000,151.552 60.000,150.999 C60.000,150.448 60.448,150.000 61.000,150.000 C61.552,150.000 62.000,150.448 62.000,150.999 C62.000,151.552 61.552,152.000 61.000,152.000 ZM61.000,142.000 C60.448,142.000 60.000,141.552 60.000,140.999 C60.000,140.448 60.448,140.000 61.000,140.000 C61.552,140.000 62.000,140.448 62.000,140.999 C62.000,141.552 61.552,142.000 61.000,142.000 ZM61.000,131.999 C60.448,131.999 60.000,131.552 60.000,131.000 C60.000,130.447 60.448,129.999 61.000,129.999 C61.552,129.999 62.000,130.447 62.000,131.000 C62.000,131.552 61.552,131.999 61.000,131.999 ZM61.000,121.999 C60.448,121.999 60.000,121.552 60.000,121.000 C60.000,120.447 60.448,119.999 61.000,119.999 C61.552,119.999 62.000,120.447 62.000,121.000 C62.000,121.552 61.552,121.999 61.000,121.999 ZM61.000,111.999 C60.448,111.999 60.000,111.552 60.000,111.000 C60.000,110.447 60.448,110.000 61.000,110.000 C61.552,110.000 62.000,110.447 62.000,111.000 C62.000,111.552 61.552,111.999 61.000,111.999 ZM61.000,102.000 C60.448,102.000 60.000,101.552 60.000,100.999 C60.000,100.447 60.448,100.000 61.000,100.000 C61.552,100.000 62.000,100.447 62.000,100.999 C62.000,101.552 61.552,102.000 61.000,102.000 ZM61.000,92.000 C60.448,92.000 60.000,91.552 60.000,90.999 C60.000,90.448 60.448,90.000 61.000,90.000 C61.552,90.000 62.000,90.448 62.000,90.999 C62.000,91.552 61.552,92.000 61.000,92.000 ZM61.000,81.999 C60.448,81.999 60.000,81.552 60.000,81.000 C60.000,80.447 60.448,79.999 61.000,79.999 C61.552,79.999 62.000,80.447 62.000,81.000 C62.000,81.552 61.552,81.999 61.000,81.999 ZM61.000,71.999 C60.448,71.999 60.000,71.551 60.000,71.000 C60.000,70.447 60.448,69.999 61.000,69.999 C61.552,69.999 62.000,70.447 62.000,71.000 C62.000,71.551 61.552,71.999 61.000,71.999 ZM61.000,61.999 C60.448,61.999 60.000,61.552 60.000,61.000 C60.000,60.447 60.448,59.999 61.000,59.999 C61.552,59.999 62.000,60.447 62.000,61.000 C62.000,61.552 61.552,61.999 61.000,61.999 ZM61.000,52.000 C60.448,52.000 60.000,51.552 60.000,50.999 C60.000,50.447 60.448,50.000 61.000,50.000 C61.552,50.000 62.000,50.447 62.000,50.999 C62.000,51.552 61.552,52.000 61.000,52.000 ZM61.000,42.000 C60.448,42.000 60.000,41.552 60.000,40.999 C60.000,40.448 60.448,40.000 61.000,40.000 C61.552,40.000 62.000,40.448 62.000,40.999 C62.000,41.552 61.552,42.000 61.000,42.000 ZM61.000,32.000 C60.448,32.000 60.000,31.552 60.000,31.000 C60.000,30.447 60.448,30.000 61.000,30.000 C61.552,30.000 62.000,30.447 62.000,31.000 C62.000,31.552 61.552,32.000 61.000,32.000 ZM61.000,21.999 C60.448,21.999 60.000,21.551 60.000,21.000 C60.000,20.447 60.448,19.999 61.000,19.999 C61.552,19.999 62.000,20.447 62.000,21.000 C62.000,21.551 61.552,21.999 61.000,21.999 ZM61.000,11.999 C60.448,11.999 60.000,11.552 60.000,11.000 C60.000,10.447 60.448,9.999 61.000,9.999 C61.552,9.999 62.000,10.447 62.000,11.000 C62.000,11.552 61.552,11.999 61.000,11.999 ZM61.000,2.000 C60.448,2.000 60.000,1.552 60.000,0.999 C60.000,0.447 60.448,-0.000 61.000,-0.000 C61.552,-0.000 62.000,0.447 62.000,0.999 C62.000,1.552 61.552,2.000 61.000,2.000 ZM51.000,221.999 C50.448,221.999 50.000,221.552 50.000,221.000 C50.000,220.447 50.448,219.999 51.000,219.999 C51.552,219.999 52.000,220.447 52.000,221.000 C52.000,221.552 51.552,221.999 51.000,221.999 ZM51.000,212.000 C50.448,212.000 50.000,211.552 50.000,210.999 C50.000,210.447 50.448,210.000 51.000,210.000 C51.552,210.000 52.000,210.447 52.000,210.999 C52.000,211.552 51.552,212.000 51.000,212.000 ZM51.000,202.000 C50.448,202.000 50.000,201.552 50.000,200.999 C50.000,200.448 50.448,200.000 51.000,200.000 C51.552,200.000 52.000,200.448 52.000,200.999 C52.000,201.552 51.552,202.000 51.000,202.000 ZM51.000,192.000 C50.448,192.000 50.000,191.552 50.000,191.000 C50.000,190.447 50.448,190.000 51.000,190.000 C51.552,190.000 52.000,190.447 52.000,191.000 C52.000,191.552 51.552,192.000 51.000,192.000 ZM51.000,181.999 C50.448,181.999 50.000,181.551 50.000,181.000 C50.000,180.447 50.448,179.999 51.000,179.999 C51.552,179.999 52.000,180.447 52.000,181.000 C52.000,181.551 51.552,181.999 51.000,181.999 ZM51.000,171.999 C50.448,171.999 50.000,171.552 50.000,171.000 C50.000,170.447 50.448,169.999 51.000,169.999 C51.552,169.999 52.000,170.447 52.000,171.000 C52.000,171.552 51.552,171.999 51.000,171.999 ZM51.000,162.000 C50.448,162.000 50.000,161.552 50.000,160.999 C50.000,160.447 50.448,160.000 51.000,160.000 C51.552,160.000 52.000,160.447 52.000,160.999 C52.000,161.552 51.552,162.000 51.000,162.000 ZM51.000,152.000 C50.448,152.000 50.000,151.552 50.000,150.999 C50.000,150.448 50.448,150.000 51.000,150.000 C51.552,150.000 52.000,150.448 52.000,150.999 C52.000,151.552 51.552,152.000 51.000,152.000 ZM51.000,142.000 C50.448,142.000 50.000,141.552 50.000,140.999 C50.000,140.448 50.448,140.000 51.000,140.000 C51.552,140.000 52.000,140.448 52.000,140.999 C52.000,141.552 51.552,142.000 51.000,142.000 ZM51.000,131.999 C50.448,131.999 50.000,131.552 50.000,131.000 C50.000,130.447 50.448,129.999 51.000,129.999 C51.552,129.999 52.000,130.447 52.000,131.000 C52.000,131.552 51.552,131.999 51.000,131.999 ZM51.000,121.999 C50.448,121.999 50.000,121.552 50.000,121.000 C50.000,120.447 50.448,119.999 51.000,119.999 C51.552,119.999 52.000,120.447 52.000,121.000 C52.000,121.552 51.552,121.999 51.000,121.999 ZM51.000,111.999 C50.448,111.999 50.000,111.552 50.000,111.000 C50.000,110.447 50.448,110.000 51.000,110.000 C51.552,110.000 52.000,110.447 52.000,111.000 C52.000,111.552 51.552,111.999 51.000,111.999 ZM51.000,102.000 C50.448,102.000 50.000,101.552 50.000,100.999 C50.000,100.447 50.448,100.000 51.000,100.000 C51.552,100.000 52.000,100.447 52.000,100.999 C52.000,101.552 51.552,102.000 51.000,102.000 ZM51.000,92.000 C50.448,92.000 50.000,91.552 50.000,90.999 C50.000,90.448 50.448,90.000 51.000,90.000 C51.552,90.000 52.000,90.448 52.000,90.999 C52.000,91.552 51.552,92.000 51.000,92.000 ZM51.000,81.999 C50.448,81.999 50.000,81.552 50.000,81.000 C50.000,80.447 50.448,79.999 51.000,79.999 C51.552,79.999 52.000,80.447 52.000,81.000 C52.000,81.552 51.552,81.999 51.000,81.999 ZM51.000,71.999 C50.448,71.999 50.000,71.551 50.000,71.000 C50.000,70.447 50.448,69.999 51.000,69.999 C51.552,69.999 52.000,70.447 52.000,71.000 C52.000,71.551 51.552,71.999 51.000,71.999 ZM51.000,61.999 C50.448,61.999 50.000,61.552 50.000,61.000 C50.000,60.447 50.448,59.999 51.000,59.999 C51.552,59.999 52.000,60.447 52.000,61.000 C52.000,61.552 51.552,61.999 51.000,61.999 ZM51.000,52.000 C50.448,52.000 50.000,51.552 50.000,50.999 C50.000,50.447 50.448,50.000 51.000,50.000 C51.552,50.000 52.000,50.447 52.000,50.999 C52.000,51.552 51.552,52.000 51.000,52.000 ZM51.000,42.000 C50.448,42.000 50.000,41.552 50.000,40.999 C50.000,40.448 50.448,40.000 51.000,40.000 C51.552,40.000 52.000,40.448 52.000,40.999 C52.000,41.552 51.552,42.000 51.000,42.000 ZM51.000,32.000 C50.448,32.000 50.000,31.552 50.000,31.000 C50.000,30.447 50.448,30.000 51.000,30.000 C51.552,30.000 52.000,30.447 52.000,31.000 C52.000,31.552 51.552,32.000 51.000,32.000 ZM51.000,21.999 C50.448,21.999 50.000,21.551 50.000,21.000 C50.000,20.447 50.448,19.999 51.000,19.999 C51.552,19.999 52.000,20.447 52.000,21.000 C52.000,21.551 51.552,21.999 51.000,21.999 ZM51.000,11.999 C50.448,11.999 50.000,11.552 50.000,11.000 C50.000,10.447 50.448,9.999 51.000,9.999 C51.552,9.999 52.000,10.447 52.000,11.000 C52.000,11.552 51.552,11.999 51.000,11.999 ZM51.000,2.000 C50.448,2.000 50.000,1.552 50.000,0.999 C50.000,0.447 50.448,-0.000 51.000,-0.000 C51.552,-0.000 52.000,0.447 52.000,0.999 C52.000,1.552 51.552,2.000 51.000,2.000 ZM41.000,221.999 C40.448,221.999 40.000,221.552 40.000,221.000 C40.000,220.447 40.448,219.999 41.000,219.999 C41.552,219.999 42.000,220.447 42.000,221.000 C42.000,221.552 41.552,221.999 41.000,221.999 ZM41.000,212.000 C40.448,212.000 40.000,211.552 40.000,210.999 C40.000,210.447 40.448,210.000 41.000,210.000 C41.552,210.000 42.000,210.447 42.000,210.999 C42.000,211.552 41.552,212.000 41.000,212.000 ZM41.000,202.000 C40.448,202.000 40.000,201.552 40.000,200.999 C40.000,200.448 40.448,200.000 41.000,200.000 C41.552,200.000 42.000,200.448 42.000,200.999 C42.000,201.552 41.552,202.000 41.000,202.000 ZM41.000,192.000 C40.448,192.000 40.000,191.552 40.000,191.000 C40.000,190.447 40.448,190.000 41.000,190.000 C41.552,190.000 42.000,190.447 42.000,191.000 C42.000,191.552 41.552,192.000 41.000,192.000 ZM41.000,181.999 C40.448,181.999 40.000,181.551 40.000,181.000 C40.000,180.447 40.448,179.999 41.000,179.999 C41.552,179.999 42.000,180.447 42.000,181.000 C42.000,181.551 41.552,181.999 41.000,181.999 ZM41.000,171.999 C40.448,171.999 40.000,171.552 40.000,171.000 C40.000,170.447 40.448,169.999 41.000,169.999 C41.552,169.999 42.000,170.447 42.000,171.000 C42.000,171.552 41.552,171.999 41.000,171.999 ZM41.000,162.000 C40.448,162.000 40.000,161.552 40.000,160.999 C40.000,160.447 40.448,160.000 41.000,160.000 C41.552,160.000 42.000,160.447 42.000,160.999 C42.000,161.552 41.552,162.000 41.000,162.000 ZM41.000,152.000 C40.448,152.000 40.000,151.552 40.000,150.999 C40.000,150.448 40.448,150.000 41.000,150.000 C41.552,150.000 42.000,150.448 42.000,150.999 C42.000,151.552 41.552,152.000 41.000,152.000 ZM41.000,142.000 C40.448,142.000 40.000,141.552 40.000,140.999 C40.000,140.448 40.448,140.000 41.000,140.000 C41.552,140.000 42.000,140.448 42.000,140.999 C42.000,141.552 41.552,142.000 41.000,142.000 ZM41.000,131.999 C40.448,131.999 40.000,131.552 40.000,131.000 C40.000,130.447 40.448,129.999 41.000,129.999 C41.552,129.999 42.000,130.447 42.000,131.000 C42.000,131.552 41.552,131.999 41.000,131.999 ZM41.000,121.999 C40.448,121.999 40.000,121.552 40.000,121.000 C40.000,120.447 40.448,119.999 41.000,119.999 C41.552,119.999 42.000,120.447 42.000,121.000 C42.000,121.552 41.552,121.999 41.000,121.999 ZM41.000,111.999 C40.448,111.999 40.000,111.552 40.000,111.000 C40.000,110.447 40.448,110.000 41.000,110.000 C41.552,110.000 42.000,110.447 42.000,111.000 C42.000,111.552 41.552,111.999 41.000,111.999 ZM41.000,102.000 C40.448,102.000 40.000,101.552 40.000,100.999 C40.000,100.447 40.448,100.000 41.000,100.000 C41.552,100.000 42.000,100.447 42.000,100.999 C42.000,101.552 41.552,102.000 41.000,102.000 ZM41.000,92.000 C40.448,92.000 40.000,91.552 40.000,90.999 C40.000,90.448 40.448,90.000 41.000,90.000 C41.552,90.000 42.000,90.448 42.000,90.999 C42.000,91.552 41.552,92.000 41.000,92.000 ZM41.000,81.999 C40.448,81.999 40.000,81.552 40.000,81.000 C40.000,80.447 40.448,79.999 41.000,79.999 C41.552,79.999 42.000,80.447 42.000,81.000 C42.000,81.552 41.552,81.999 41.000,81.999 ZM41.000,71.999 C40.448,71.999 40.000,71.551 40.000,71.000 C40.000,70.447 40.448,69.999 41.000,69.999 C41.552,69.999 42.000,70.447 42.000,71.000 C42.000,71.551 41.552,71.999 41.000,71.999 ZM41.000,61.999 C40.448,61.999 40.000,61.552 40.000,61.000 C40.000,60.447 40.448,59.999 41.000,59.999 C41.552,59.999 42.000,60.447 42.000,61.000 C42.000,61.552 41.552,61.999 41.000,61.999 ZM41.000,52.000 C40.448,52.000 40.000,51.552 40.000,50.999 C40.000,50.447 40.448,50.000 41.000,50.000 C41.552,50.000 42.000,50.447 42.000,50.999 C42.000,51.552 41.552,52.000 41.000,52.000 ZM41.000,42.000 C40.448,42.000 40.000,41.552 40.000,40.999 C40.000,40.448 40.448,40.000 41.000,40.000 C41.552,40.000 42.000,40.448 42.000,40.999 C42.000,41.552 41.552,42.000 41.000,42.000 ZM41.000,32.000 C40.448,32.000 40.000,31.552 40.000,31.000 C40.000,30.447 40.448,30.000 41.000,30.000 C41.552,30.000 42.000,30.447 42.000,31.000 C42.000,31.552 41.552,32.000 41.000,32.000 ZM41.000,21.999 C40.448,21.999 40.000,21.551 40.000,21.000 C40.000,20.447 40.448,19.999 41.000,19.999 C41.552,19.999 42.000,20.447 42.000,21.000 C42.000,21.551 41.552,21.999 41.000,21.999 ZM41.000,11.999 C40.448,11.999 40.000,11.552 40.000,11.000 C40.000,10.447 40.448,9.999 41.000,9.999 C41.552,9.999 42.000,10.447 42.000,11.000 C42.000,11.552 41.552,11.999 41.000,11.999 ZM41.000,2.000 C40.448,2.000 40.000,1.552 40.000,0.999 C40.000,0.447 40.448,-0.000 41.000,-0.000 C41.552,-0.000 42.000,0.447 42.000,0.999 C42.000,1.552 41.552,2.000 41.000,2.000 ZM31.000,221.999 C30.448,221.999 30.000,221.552 30.000,221.000 C30.000,220.447 30.448,219.999 31.000,219.999 C31.552,219.999 32.000,220.447 32.000,221.000 C32.000,221.552 31.552,221.999 31.000,221.999 ZM31.000,212.000 C30.448,212.000 30.000,211.552 30.000,210.999 C30.000,210.447 30.448,210.000 31.000,210.000 C31.552,210.000 32.000,210.447 32.000,210.999 C32.000,211.552 31.552,212.000 31.000,212.000 ZM31.000,202.000 C30.448,202.000 30.000,201.552 30.000,200.999 C30.000,200.448 30.448,200.000 31.000,200.000 C31.552,200.000 32.000,200.448 32.000,200.999 C32.000,201.552 31.552,202.000 31.000,202.000 ZM31.000,192.000 C30.448,192.000 30.000,191.552 30.000,191.000 C30.000,190.447 30.448,190.000 31.000,190.000 C31.552,190.000 32.000,190.447 32.000,191.000 C32.000,191.552 31.552,192.000 31.000,192.000 ZM31.000,181.999 C30.448,181.999 30.000,181.551 30.000,181.000 C30.000,180.447 30.448,179.999 31.000,179.999 C31.552,179.999 32.000,180.447 32.000,181.000 C32.000,181.551 31.552,181.999 31.000,181.999 ZM31.000,171.999 C30.448,171.999 30.000,171.552 30.000,171.000 C30.000,170.447 30.448,169.999 31.000,169.999 C31.552,169.999 32.000,170.447 32.000,171.000 C32.000,171.552 31.552,171.999 31.000,171.999 ZM31.000,162.000 C30.448,162.000 30.000,161.552 30.000,160.999 C30.000,160.447 30.448,160.000 31.000,160.000 C31.552,160.000 32.000,160.447 32.000,160.999 C32.000,161.552 31.552,162.000 31.000,162.000 ZM31.000,152.000 C30.448,152.000 30.000,151.552 30.000,150.999 C30.000,150.448 30.448,150.000 31.000,150.000 C31.552,150.000 32.000,150.448 32.000,150.999 C32.000,151.552 31.552,152.000 31.000,152.000 ZM31.000,142.000 C30.448,142.000 30.000,141.552 30.000,140.999 C30.000,140.448 30.448,140.000 31.000,140.000 C31.552,140.000 32.000,140.448 32.000,140.999 C32.000,141.552 31.552,142.000 31.000,142.000 ZM31.000,131.999 C30.448,131.999 30.000,131.552 30.000,131.000 C30.000,130.447 30.448,129.999 31.000,129.999 C31.552,129.999 32.000,130.447 32.000,131.000 C32.000,131.552 31.552,131.999 31.000,131.999 ZM31.000,121.999 C30.448,121.999 30.000,121.552 30.000,121.000 C30.000,120.447 30.448,119.999 31.000,119.999 C31.552,119.999 32.000,120.447 32.000,121.000 C32.000,121.552 31.552,121.999 31.000,121.999 ZM31.000,111.999 C30.448,111.999 30.000,111.552 30.000,111.000 C30.000,110.447 30.448,110.000 31.000,110.000 C31.552,110.000 32.000,110.447 32.000,111.000 C32.000,111.552 31.552,111.999 31.000,111.999 ZM31.000,102.000 C30.448,102.000 30.000,101.552 30.000,100.999 C30.000,100.447 30.448,100.000 31.000,100.000 C31.552,100.000 32.000,100.447 32.000,100.999 C32.000,101.552 31.552,102.000 31.000,102.000 ZM31.000,92.000 C30.448,92.000 30.000,91.552 30.000,90.999 C30.000,90.448 30.448,90.000 31.000,90.000 C31.552,90.000 32.000,90.448 32.000,90.999 C32.000,91.552 31.552,92.000 31.000,92.000 ZM31.000,81.999 C30.448,81.999 30.000,81.552 30.000,81.000 C30.000,80.447 30.448,79.999 31.000,79.999 C31.552,79.999 32.000,80.447 32.000,81.000 C32.000,81.552 31.552,81.999 31.000,81.999 ZM31.000,71.999 C30.448,71.999 30.000,71.551 30.000,71.000 C30.000,70.447 30.448,69.999 31.000,69.999 C31.552,69.999 32.000,70.447 32.000,71.000 C32.000,71.551 31.552,71.999 31.000,71.999 ZM31.000,61.999 C30.448,61.999 30.000,61.552 30.000,61.000 C30.000,60.447 30.448,59.999 31.000,59.999 C31.552,59.999 32.000,60.447 32.000,61.000 C32.000,61.552 31.552,61.999 31.000,61.999 ZM31.000,52.000 C30.448,52.000 30.000,51.552 30.000,50.999 C30.000,50.447 30.448,50.000 31.000,50.000 C31.552,50.000 32.000,50.447 32.000,50.999 C32.000,51.552 31.552,52.000 31.000,52.000 ZM31.000,42.000 C30.448,42.000 30.000,41.552 30.000,40.999 C30.000,40.448 30.448,40.000 31.000,40.000 C31.552,40.000 32.000,40.448 32.000,40.999 C32.000,41.552 31.552,42.000 31.000,42.000 ZM31.000,32.000 C30.448,32.000 30.000,31.552 30.000,31.000 C30.000,30.447 30.448,30.000 31.000,30.000 C31.552,30.000 32.000,30.447 32.000,31.000 C32.000,31.552 31.552,32.000 31.000,32.000 ZM31.000,21.999 C30.448,21.999 30.000,21.551 30.000,21.000 C30.000,20.447 30.448,19.999 31.000,19.999 C31.552,19.999 32.000,20.447 32.000,21.000 C32.000,21.551 31.552,21.999 31.000,21.999 ZM31.000,11.999 C30.448,11.999 30.000,11.552 30.000,11.000 C30.000,10.447 30.448,9.999 31.000,9.999 C31.552,9.999 32.000,10.447 32.000,11.000 C32.000,11.552 31.552,11.999 31.000,11.999 ZM31.000,2.000 C30.448,2.000 30.000,1.552 30.000,0.999 C30.000,0.447 30.448,-0.000 31.000,-0.000 C31.552,-0.000 32.000,0.447 32.000,0.999 C32.000,1.552 31.552,2.000 31.000,2.000 ZM21.000,221.999 C20.448,221.999 20.000,221.552 20.000,221.000 C20.000,220.447 20.448,219.999 21.000,219.999 C21.552,219.999 22.000,220.447 22.000,221.000 C22.000,221.552 21.552,221.999 21.000,221.999 ZM21.000,212.000 C20.448,212.000 20.000,211.552 20.000,210.999 C20.000,210.447 20.448,210.000 21.000,210.000 C21.552,210.000 22.000,210.447 22.000,210.999 C22.000,211.552 21.552,212.000 21.000,212.000 ZM21.000,202.000 C20.448,202.000 20.000,201.552 20.000,200.999 C20.000,200.448 20.448,200.000 21.000,200.000 C21.552,200.000 22.000,200.448 22.000,200.999 C22.000,201.552 21.552,202.000 21.000,202.000 ZM21.000,192.000 C20.448,192.000 20.000,191.552 20.000,191.000 C20.000,190.447 20.448,190.000 21.000,190.000 C21.552,190.000 22.000,190.447 22.000,191.000 C22.000,191.552 21.552,192.000 21.000,192.000 ZM21.000,181.999 C20.448,181.999 20.000,181.551 20.000,181.000 C20.000,180.447 20.448,179.999 21.000,179.999 C21.552,179.999 22.000,180.447 22.000,181.000 C22.000,181.551 21.552,181.999 21.000,181.999 ZM21.000,171.999 C20.448,171.999 20.000,171.552 20.000,171.000 C20.000,170.447 20.448,169.999 21.000,169.999 C21.552,169.999 22.000,170.447 22.000,171.000 C22.000,171.552 21.552,171.999 21.000,171.999 ZM21.000,162.000 C20.448,162.000 20.000,161.552 20.000,160.999 C20.000,160.447 20.448,160.000 21.000,160.000 C21.552,160.000 22.000,160.447 22.000,160.999 C22.000,161.552 21.552,162.000 21.000,162.000 ZM21.000,152.000 C20.448,152.000 20.000,151.552 20.000,150.999 C20.000,150.448 20.448,150.000 21.000,150.000 C21.552,150.000 22.000,150.448 22.000,150.999 C22.000,151.552 21.552,152.000 21.000,152.000 ZM21.000,142.000 C20.448,142.000 20.000,141.552 20.000,140.999 C20.000,140.448 20.448,140.000 21.000,140.000 C21.552,140.000 22.000,140.448 22.000,140.999 C22.000,141.552 21.552,142.000 21.000,142.000 ZM21.000,131.999 C20.448,131.999 20.000,131.552 20.000,131.000 C20.000,130.447 20.448,129.999 21.000,129.999 C21.552,129.999 22.000,130.447 22.000,131.000 C22.000,131.552 21.552,131.999 21.000,131.999 ZM21.000,121.999 C20.448,121.999 20.000,121.552 20.000,121.000 C20.000,120.447 20.448,119.999 21.000,119.999 C21.552,119.999 22.000,120.447 22.000,121.000 C22.000,121.552 21.552,121.999 21.000,121.999 ZM21.000,111.999 C20.448,111.999 20.000,111.552 20.000,111.000 C20.000,110.447 20.448,110.000 21.000,110.000 C21.552,110.000 22.000,110.447 22.000,111.000 C22.000,111.552 21.552,111.999 21.000,111.999 ZM21.000,102.000 C20.448,102.000 20.000,101.552 20.000,100.999 C20.000,100.447 20.448,100.000 21.000,100.000 C21.552,100.000 22.000,100.447 22.000,100.999 C22.000,101.552 21.552,102.000 21.000,102.000 ZM21.000,92.000 C20.448,92.000 20.000,91.552 20.000,90.999 C20.000,90.448 20.448,90.000 21.000,90.000 C21.552,90.000 22.000,90.448 22.000,90.999 C22.000,91.552 21.552,92.000 21.000,92.000 ZM21.000,81.999 C20.448,81.999 20.000,81.552 20.000,81.000 C20.000,80.447 20.448,79.999 21.000,79.999 C21.552,79.999 22.000,80.447 22.000,81.000 C22.000,81.552 21.552,81.999 21.000,81.999 ZM21.000,71.999 C20.448,71.999 20.000,71.551 20.000,71.000 C20.000,70.447 20.448,69.999 21.000,69.999 C21.552,69.999 22.000,70.447 22.000,71.000 C22.000,71.551 21.552,71.999 21.000,71.999 ZM21.000,61.999 C20.448,61.999 20.000,61.552 20.000,61.000 C20.000,60.447 20.448,59.999 21.000,59.999 C21.552,59.999 22.000,60.447 22.000,61.000 C22.000,61.552 21.552,61.999 21.000,61.999 ZM21.000,52.000 C20.448,52.000 20.000,51.552 20.000,50.999 C20.000,50.447 20.448,50.000 21.000,50.000 C21.552,50.000 22.000,50.447 22.000,50.999 C22.000,51.552 21.552,52.000 21.000,52.000 ZM21.000,42.000 C20.448,42.000 20.000,41.552 20.000,40.999 C20.000,40.448 20.448,40.000 21.000,40.000 C21.552,40.000 22.000,40.448 22.000,40.999 C22.000,41.552 21.552,42.000 21.000,42.000 ZM21.000,32.000 C20.448,32.000 20.000,31.552 20.000,31.000 C20.000,30.447 20.448,30.000 21.000,30.000 C21.552,30.000 22.000,30.447 22.000,31.000 C22.000,31.552 21.552,32.000 21.000,32.000 ZM21.000,21.999 C20.448,21.999 20.000,21.551 20.000,21.000 C20.000,20.447 20.448,19.999 21.000,19.999 C21.552,19.999 22.000,20.447 22.000,21.000 C22.000,21.551 21.552,21.999 21.000,21.999 ZM21.000,11.999 C20.448,11.999 20.000,11.552 20.000,11.000 C20.000,10.447 20.448,9.999 21.000,9.999 C21.552,9.999 22.000,10.447 22.000,11.000 C22.000,11.552 21.552,11.999 21.000,11.999 ZM21.000,2.000 C20.448,2.000 20.000,1.552 20.000,0.999 C20.000,0.447 20.448,-0.000 21.000,-0.000 C21.552,-0.000 22.000,0.447 22.000,0.999 C22.000,1.552 21.552,2.000 21.000,2.000 ZM11.000,221.999 C10.448,221.999 10.000,221.552 10.000,221.000 C10.000,220.447 10.448,219.999 11.000,219.999 C11.552,219.999 12.000,220.447 12.000,221.000 C12.000,221.552 11.552,221.999 11.000,221.999 ZM11.000,212.000 C10.448,212.000 10.000,211.552 10.000,210.999 C10.000,210.447 10.448,210.000 11.000,210.000 C11.552,210.000 12.000,210.447 12.000,210.999 C12.000,211.552 11.552,212.000 11.000,212.000 ZM11.000,202.000 C10.448,202.000 10.000,201.552 10.000,200.999 C10.000,200.448 10.448,200.000 11.000,200.000 C11.552,200.000 12.000,200.448 12.000,200.999 C12.000,201.552 11.552,202.000 11.000,202.000 ZM11.000,192.000 C10.448,192.000 10.000,191.552 10.000,191.000 C10.000,190.447 10.448,190.000 11.000,190.000 C11.552,190.000 12.000,190.447 12.000,191.000 C12.000,191.552 11.552,192.000 11.000,192.000 ZM11.000,181.999 C10.448,181.999 10.000,181.551 10.000,181.000 C10.000,180.447 10.448,179.999 11.000,179.999 C11.552,179.999 12.000,180.447 12.000,181.000 C12.000,181.551 11.552,181.999 11.000,181.999 ZM11.000,171.999 C10.448,171.999 10.000,171.552 10.000,171.000 C10.000,170.447 10.448,169.999 11.000,169.999 C11.552,169.999 12.000,170.447 12.000,171.000 C12.000,171.552 11.552,171.999 11.000,171.999 ZM11.000,162.000 C10.448,162.000 10.000,161.552 10.000,160.999 C10.000,160.447 10.448,160.000 11.000,160.000 C11.552,160.000 12.000,160.447 12.000,160.999 C12.000,161.552 11.552,162.000 11.000,162.000 ZM11.000,152.000 C10.448,152.000 10.000,151.552 10.000,150.999 C10.000,150.448 10.448,150.000 11.000,150.000 C11.552,150.000 12.000,150.448 12.000,150.999 C12.000,151.552 11.552,152.000 11.000,152.000 ZM11.000,142.000 C10.448,142.000 10.000,141.552 10.000,140.999 C10.000,140.448 10.448,140.000 11.000,140.000 C11.552,140.000 12.000,140.448 12.000,140.999 C12.000,141.552 11.552,142.000 11.000,142.000 ZM11.000,131.999 C10.448,131.999 10.000,131.552 10.000,131.000 C10.000,130.447 10.448,129.999 11.000,129.999 C11.552,129.999 12.000,130.447 12.000,131.000 C12.000,131.552 11.552,131.999 11.000,131.999 ZM11.000,121.999 C10.448,121.999 10.000,121.552 10.000,121.000 C10.000,120.447 10.448,119.999 11.000,119.999 C11.552,119.999 12.000,120.447 12.000,121.000 C12.000,121.552 11.552,121.999 11.000,121.999 ZM11.000,111.999 C10.448,111.999 10.000,111.552 10.000,111.000 C10.000,110.447 10.448,110.000 11.000,110.000 C11.552,110.000 12.000,110.447 12.000,111.000 C12.000,111.552 11.552,111.999 11.000,111.999 ZM11.000,102.000 C10.448,102.000 10.000,101.552 10.000,100.999 C10.000,100.447 10.448,100.000 11.000,100.000 C11.552,100.000 12.000,100.447 12.000,100.999 C12.000,101.552 11.552,102.000 11.000,102.000 ZM11.000,92.000 C10.448,92.000 10.000,91.552 10.000,90.999 C10.000,90.448 10.448,90.000 11.000,90.000 C11.552,90.000 12.000,90.448 12.000,90.999 C12.000,91.552 11.552,92.000 11.000,92.000 ZM11.000,81.999 C10.448,81.999 10.000,81.552 10.000,81.000 C10.000,80.447 10.448,79.999 11.000,79.999 C11.552,79.999 12.000,80.447 12.000,81.000 C12.000,81.552 11.552,81.999 11.000,81.999 ZM11.000,71.999 C10.448,71.999 10.000,71.551 10.000,71.000 C10.000,70.447 10.448,69.999 11.000,69.999 C11.552,69.999 12.000,70.447 12.000,71.000 C12.000,71.551 11.552,71.999 11.000,71.999 ZM11.000,61.999 C10.448,61.999 10.000,61.552 10.000,61.000 C10.000,60.447 10.448,59.999 11.000,59.999 C11.552,59.999 12.000,60.447 12.000,61.000 C12.000,61.552 11.552,61.999 11.000,61.999 ZM11.000,52.000 C10.448,52.000 10.000,51.552 10.000,50.999 C10.000,50.447 10.448,50.000 11.000,50.000 C11.552,50.000 12.000,50.447 12.000,50.999 C12.000,51.552 11.552,52.000 11.000,52.000 ZM11.000,42.000 C10.448,42.000 10.000,41.552 10.000,40.999 C10.000,40.448 10.448,40.000 11.000,40.000 C11.552,40.000 12.000,40.448 12.000,40.999 C12.000,41.552 11.552,42.000 11.000,42.000 ZM11.000,32.000 C10.448,32.000 10.000,31.552 10.000,31.000 C10.000,30.447 10.448,30.000 11.000,30.000 C11.552,30.000 12.000,30.447 12.000,31.000 C12.000,31.552 11.552,32.000 11.000,32.000 ZM11.000,21.999 C10.448,21.999 10.000,21.551 10.000,21.000 C10.000,20.447 10.448,19.999 11.000,19.999 C11.552,19.999 12.000,20.447 12.000,21.000 C12.000,21.551 11.552,21.999 11.000,21.999 ZM11.000,11.999 C10.448,11.999 10.000,11.552 10.000,11.000 C10.000,10.447 10.448,9.999 11.000,9.999 C11.552,9.999 12.000,10.447 12.000,11.000 C12.000,11.552 11.552,11.999 11.000,11.999 ZM11.000,2.000 C10.448,2.000 10.000,1.552 10.000,0.999 C10.000,0.447 10.448,-0.000 11.000,-0.000 C11.552,-0.000 12.000,0.447 12.000,0.999 C12.000,1.552 11.552,2.000 11.000,2.000 ZM1.000,221.999 C0.448,221.999 -0.000,221.552 -0.000,221.000 C-0.000,220.447 0.448,219.999 1.000,219.999 C1.552,219.999 2.000,220.447 2.000,221.000 C2.000,221.552 1.552,221.999 1.000,221.999 ZM1.000,212.000 C0.448,212.000 -0.000,211.552 -0.000,210.999 C-0.000,210.447 0.448,210.000 1.000,210.000 C1.552,210.000 2.000,210.447 2.000,210.999 C2.000,211.552 1.552,212.000 1.000,212.000 ZM1.000,202.000 C0.448,202.000 -0.000,201.552 -0.000,200.999 C-0.000,200.448 0.448,200.000 1.000,200.000 C1.552,200.000 2.000,200.448 2.000,200.999 C2.000,201.552 1.552,202.000 1.000,202.000 ZM1.000,192.000 C0.448,192.000 -0.000,191.552 -0.000,191.000 C-0.000,190.447 0.448,190.000 1.000,190.000 C1.552,190.000 2.000,190.447 2.000,191.000 C2.000,191.552 1.552,192.000 1.000,192.000 ZM1.000,181.999 C0.448,181.999 -0.000,181.551 -0.000,181.000 C-0.000,180.447 0.448,179.999 1.000,179.999 C1.552,179.999 2.000,180.447 2.000,181.000 C2.000,181.551 1.552,181.999 1.000,181.999 ZM1.000,171.999 C0.448,171.999 -0.000,171.552 -0.000,171.000 C-0.000,170.447 0.448,169.999 1.000,169.999 C1.552,169.999 2.000,170.447 2.000,171.000 C2.000,171.552 1.552,171.999 1.000,171.999 ZM1.000,162.000 C0.448,162.000 -0.000,161.552 -0.000,160.999 C-0.000,160.447 0.448,160.000 1.000,160.000 C1.552,160.000 2.000,160.447 2.000,160.999 C2.000,161.552 1.552,162.000 1.000,162.000 ZM1.000,152.000 C0.448,152.000 -0.000,151.552 -0.000,150.999 C-0.000,150.448 0.448,150.000 1.000,150.000 C1.552,150.000 2.000,150.448 2.000,150.999 C2.000,151.552 1.552,152.000 1.000,152.000 ZM1.000,142.000 C0.448,142.000 -0.000,141.552 -0.000,140.999 C-0.000,140.448 0.448,140.000 1.000,140.000 C1.552,140.000 2.000,140.448 2.000,140.999 C2.000,141.552 1.552,142.000 1.000,142.000 ZM1.000,131.999 C0.448,131.999 -0.000,131.552 -0.000,131.000 C-0.000,130.447 0.448,129.999 1.000,129.999 C1.552,129.999 2.000,130.447 2.000,131.000 C2.000,131.552 1.552,131.999 1.000,131.999 ZM1.000,121.999 C0.448,121.999 -0.000,121.552 -0.000,121.000 C-0.000,120.447 0.448,119.999 1.000,119.999 C1.552,119.999 2.000,120.447 2.000,121.000 C2.000,121.552 1.552,121.999 1.000,121.999 ZM1.000,111.999 C0.448,111.999 -0.000,111.552 -0.000,111.000 C-0.000,110.447 0.448,110.000 1.000,110.000 C1.552,110.000 2.000,110.447 2.000,111.000 C2.000,111.552 1.552,111.999 1.000,111.999 ZM1.000,102.000 C0.448,102.000 -0.000,101.552 -0.000,100.999 C-0.000,100.447 0.448,100.000 1.000,100.000 C1.552,100.000 2.000,100.447 2.000,100.999 C2.000,101.552 1.552,102.000 1.000,102.000 ZM1.000,92.000 C0.448,92.000 -0.000,91.552 -0.000,90.999 C-0.000,90.448 0.448,90.000 1.000,90.000 C1.552,90.000 2.000,90.448 2.000,90.999 C2.000,91.552 1.552,92.000 1.000,92.000 ZM1.000,81.999 C0.448,81.999 -0.000,81.552 -0.000,81.000 C-0.000,80.447 0.448,79.999 1.000,79.999 C1.552,79.999 2.000,80.447 2.000,81.000 C2.000,81.552 1.552,81.999 1.000,81.999 ZM1.000,71.999 C0.448,71.999 -0.000,71.551 -0.000,71.000 C-0.000,70.447 0.448,69.999 1.000,69.999 C1.552,69.999 2.000,70.447 2.000,71.000 C2.000,71.551 1.552,71.999 1.000,71.999 ZM1.000,61.999 C0.448,61.999 -0.000,61.552 -0.000,61.000 C-0.000,60.447 0.448,59.999 1.000,59.999 C1.552,59.999 2.000,60.447 2.000,61.000 C2.000,61.552 1.552,61.999 1.000,61.999 ZM1.000,52.000 C0.448,52.000 -0.000,51.552 -0.000,50.999 C-0.000,50.447 0.448,50.000 1.000,50.000 C1.552,50.000 2.000,50.447 2.000,50.999 C2.000,51.552 1.552,52.000 1.000,52.000 ZM1.000,42.000 C0.448,42.000 -0.000,41.552 -0.000,40.999 C-0.000,40.448 0.448,40.000 1.000,40.000 C1.552,40.000 2.000,40.448 2.000,40.999 C2.000,41.552 1.552,42.000 1.000,42.000 ZM1.000,32.000 C0.448,32.000 -0.000,31.552 -0.000,31.000 C-0.000,30.447 0.448,30.000 1.000,30.000 C1.552,30.000 2.000,30.447 2.000,31.000 C2.000,31.552 1.552,32.000 1.000,32.000 ZM1.000,21.999 C0.448,21.999 -0.000,21.551 -0.000,21.000 C-0.000,20.447 0.448,19.999 1.000,19.999 C1.552,19.999 2.000,20.447 2.000,21.000 C2.000,21.551 1.552,21.999 1.000,21.999 ZM1.000,11.999 C0.448,11.999 -0.000,11.552 -0.000,11.000 C-0.000,10.447 0.448,9.999 1.000,9.999 C1.552,9.999 2.000,10.447 2.000,11.000 C2.000,11.552 1.552,11.999 1.000,11.999 ZM1.000,2.000 C0.448,2.000 -0.000,1.552 -0.000,0.999 C-0.000,0.447 0.448,-0.000 1.000,-0.000 C1.552,-0.000 2.000,0.447 2.000,0.999 C2.000,1.552 1.552,2.000 1.000,2.000 Z"/>
</svg>