<svg xmlns="http://www.w3.org/2000/svg" width="176" height="34" viewBox="0 0 176 34">
  <defs>
    <style>
      .cls-1 {
        fill: #fff;
        fill-rule: evenodd;
      }
    </style>
  </defs>
  <path id="Resonance" class="cls-1" d="M77.146,57.282q-3.934,2.2-7.79,4.545a6.941,6.941,0,0,1-7.712,0q-3.856-2.34-7.79-4.545A7.077,7.077,0,0,1,50,50.576V49.27a5.956,5.956,0,0,0,1.238,1.7c3.482,3.122,5.238-1.988,6.233-4.617,0.005,0,.092-0.271.448-1.019a0.468,0.468,0,0,1,.895-0.063c0.214,0.57.562,1.537,0.959,2.578,0.658,1.73,1.14,3.821,2.333,4.649a2.969,2.969,0,0,0,3.772-.382c1.477-1.875,1.679-3.523,2.269-6.782a24.826,24.826,0,0,1,.668-3.122,2.515,2.515,0,0,1,.9-1.623c0.686-.134,1.054,1.247,1.406,2.229,0.957,2.667,1.323,6.211,2.877,7.452a3.167,3.167,0,0,0,3.676.063c1.084-.815,2.341-3.176,3.329-4.864v5.1A7.076,7.076,0,0,1,77.146,57.282ZM75.562,48.87a2.873,2.873,0,0,1-1.311-2.038c-0.694-2.507-1.8-7.322-4.283-7.8-1.427-.275-2.325,1.274-2.653,2.133a60.907,60.907,0,0,0-1.95,7.578c-0.185.785-.866,2.444-1.406,2.644-0.864.318-1.522-1.336-1.694-1.879-0.6-1.9-1.83-5.293-3.42-5.89-1.366-.515-1.989.6-2.333,1.114-0.852,1.271-2.285,5.359-3.26,5.413-1.63.09-1.915-3-3.2-3.916-0.013-.01-0.039-0.014-0.055-0.023v-4.8A7.079,7.079,0,0,1,53.854,34.7q3.934-2.2,7.79-4.543a6.935,6.935,0,0,1,7.712,0q3.856,2.339,7.79,4.543A7.078,7.078,0,0,1,81,41.406v0.756c-1.457,1.879-2.943,4.211-3.84,5.466C76.8,48.133,76.544,49.284,75.562,48.87Zm25.53-7.707c0-2.156-1.452-3.5-4.423-3.5H92.137L89.144,53H91.1l1.276-6.645h2.948L97.857,53h2.09l-2.794-6.865A4.755,4.755,0,0,0,101.092,41.162Zm-8.339,3.366,0.968-5.061h2.486c1.87,0,2.9.616,2.9,1.936,0,2.178-1.562,3.124-3.983,3.124H92.753ZM104.61,53h10.122V51.2h-8.163V46.069h7.415v-1.8h-7.415v-4.8h8.163v-1.8H104.61V53Zm18.525,0.242c3.168,0,5.083-1.738,5.083-4.4,0-2.156-1.013-3.367-4.379-4.643-2.376-.924-3.345-1.606-3.345-2.882a2.306,2.306,0,0,1,2.487-2.156,3.218,3.218,0,0,1,2.882,1.848L127.513,40a4.855,4.855,0,0,0-4.466-2.6c-2.685,0-4.511,1.606-4.511,3.983,0,2.068,1.1,3.191,4.247,4.4,2.552,0.99,3.454,1.782,3.454,3.234,0,1.43-1.078,2.464-3.08,2.464a3.438,3.438,0,0,1-3.631-3.1l-1.936.484A5.279,5.279,0,0,0,123.135,53.242Zm14.014-.044c5.082,0,8.757-4.511,8.757-9.725,0-3.344-1.87-6.007-5.875-6.007-5.083,0-8.735,4.533-8.735,9.747C131.3,50.536,133.144,53.2,137.149,53.2Zm0.176-1.87c-2.795,0-4.071-1.8-4.071-4.225,0-4,2.618-7.767,6.579-7.767,2.838,0,4.115,1.826,4.115,4.269C143.948,47.587,141.285,51.328,137.325,51.328Zm21.362-13.664V49.612l-7.2-11.948H149.4V53h1.958V41.008L158.533,53h2.112V37.664h-1.958ZM175.3,53h2.156l-5.874-15.336h-1.541L164.163,53h2.157l1.364-3.806h6.249Zm-6.975-5.545,2.486-6.953,2.487,6.953h-4.973Zm21.935-9.791V49.612l-7.195-11.948h-2.09V53h1.958V41.008L190.1,53h2.112V37.664h-1.958Zm13.353,15.6a6.618,6.618,0,0,0,6.579-4.379l-1.848-.682a4.679,4.679,0,0,1-4.731,3.191c-3.278,0-5.17-2.222-5.17-6.095,0-3.851,1.892-6.029,5.236-6.029a4.511,4.511,0,0,1,4.665,3.124l1.8-.7a6.4,6.4,0,0,0-6.469-4.291c-4.466,0-7.195,2.992-7.195,7.9C196.481,50.25,199.188,53.264,203.61,53.264ZM212.893,53h10.1l0.353-1.8H215.2l1.013-5.127h7.393l0.33-1.8h-7.371l0.924-4.8h8.119l0.374-1.8h-10.1Z" transform="translate(-50 -29)"/>
</svg>
