<svg xmlns="http://www.w3.org/2000/svg" xmlns:xlink="http://www.w3.org/1999/xlink" width="253" height="304" viewBox="0 0 253 304">
  <defs>
    <style>
      .cls-1 {
        fill: #e5e5e5;
      }

      .cls-1, .cls-2 {
        fill-rule: evenodd;
      }

      .cls-2 {
        fill: #eeba55;
      }
    </style>
  </defs>
  <path id="Shape" class="cls-1" d="M126,283a5,5,0,1,1,5-5A5,5,0,0,1,126,283Zm0-20a5,5,0,1,1,5-5A5,5,0,0,1,126,263Zm0-20a5,5,0,1,1,5-5A5,5,0,0,1,126,243Zm0-20a5,5,0,1,1,5-5A5,5,0,0,1,126,223Zm0-20a5,5,0,1,1,5-5A5,5,0,0,1,126,203Zm0-20a5,5,0,1,1,5-5A5,5,0,0,1,126,183Zm0-20a5,5,0,1,1,5-5A5,5,0,0,1,126,163Zm0-20a5,5,0,1,1,5-5A5,5,0,0,1,126,143Zm0-20a5,5,0,1,1,5-5A5,5,0,0,1,126,123Zm0-20a5,5,0,1,1,5-5A5,5,0,0,1,126,103Zm0-20a5,5,0,1,1,5-5A5,5,0,0,1,126,83Zm0-20a5,5,0,1,1,5-5A5,5,0,0,1,126,63Zm0-20a5,5,0,1,1,5-5A5,5,0,0,1,126,43ZM106,303a5,5,0,1,1,5-5A5,5,0,0,1,106,303Zm0-20a5,5,0,1,1,5-5A5,5,0,0,1,106,283Zm0-20a5,5,0,1,1,5-5A5,5,0,0,1,106,263Zm0-20a5,5,0,1,1,5-5A5,5,0,0,1,106,243Zm0-20a5,5,0,1,1,5-5A5,5,0,0,1,106,223Zm0-20a5,5,0,1,1,5-5A5,5,0,0,1,106,203Zm0-20a5,5,0,1,1,5-5A5,5,0,0,1,106,183Zm0-20a5,5,0,1,1,5-5A5,5,0,0,1,106,163Zm0-20a5,5,0,1,1,5-5A5,5,0,0,1,106,143Zm0-20a5,5,0,1,1,5-5A5,5,0,0,1,106,123Zm0-20a5,5,0,1,1,5-5A5,5,0,0,1,106,103Zm0-20a5,5,0,1,1,5-5A5,5,0,0,1,106,83Zm0-20a5,5,0,1,1,5-5A5,5,0,0,1,106,63Zm0-20a5,5,0,1,1,5-5A5,5,0,0,1,106,43ZM86,303a5,5,0,1,1,5-5A5,5,0,0,1,86,303Zm0-20a5,5,0,1,1,5-5A5,5,0,0,1,86,283Zm0-20a5,5,0,1,1,5-5A5,5,0,0,1,86,263Zm0-20a5,5,0,1,1,5-5A5,5,0,0,1,86,243Zm0-20a5,5,0,1,1,5-5A5,5,0,0,1,86,223Zm0-20a5,5,0,1,1,5-5A5,5,0,0,1,86,203Zm0-20a5,5,0,1,1,5-5A5,5,0,0,1,86,183Zm0-20a5,5,0,1,1,5-5A5,5,0,0,1,86,163Zm0-20a5,5,0,1,1,5-5A5,5,0,0,1,86,143Zm0-20a5,5,0,1,1,5-5A5,5,0,0,1,86,123Zm0-20a5,5,0,1,1,5-5A5,5,0,0,1,86,103Zm0-20a5,5,0,1,1,5-5A5,5,0,0,1,86,83Zm0-20a5,5,0,1,1,5-5A5,5,0,0,1,86,63Zm0-20a5,5,0,1,1,5-5A5,5,0,0,1,86,43ZM66,303a5,5,0,1,1,5-5A5,5,0,0,1,66,303Zm0-20a5,5,0,1,1,5-5A5,5,0,0,1,66,283Zm0-20a5,5,0,1,1,5-5A5,5,0,0,1,66,263Zm0-20a5,5,0,1,1,5-5A5,5,0,0,1,66,243Zm0-20a5,5,0,1,1,5-5A5,5,0,0,1,66,223Zm0-20a5,5,0,1,1,5-5A5,5,0,0,1,66,203Zm0-20a5,5,0,1,1,5-5A5,5,0,0,1,66,183Zm0-20a5,5,0,1,1,5-5A5,5,0,0,1,66,163Zm0-20a5,5,0,1,1,5-5A5,5,0,0,1,66,143Zm0-20a5,5,0,1,1,5-5A5,5,0,0,1,66,123Zm0-20a5,5,0,1,1,5-5A5,5,0,0,1,66,103Zm0-20a5,5,0,1,1,5-5A5,5,0,0,1,66,83Zm0-20a5,5,0,1,1,5-5A5,5,0,0,1,66,63Zm0-20a5,5,0,1,1,5-5A5,5,0,0,1,66,43ZM46,303a5,5,0,1,1,5-5A5,5,0,0,1,46,303Zm0-20a5,5,0,1,1,5-5A5,5,0,0,1,46,283Zm0-20a5,5,0,1,1,5-5A5,5,0,0,1,46,263Zm0-20a5,5,0,1,1,5-5A5,5,0,0,1,46,243Zm0-20a5,5,0,1,1,5-5A5,5,0,0,1,46,223Zm0-20a5,5,0,1,1,5-5A5,5,0,0,1,46,203Zm0-20a5,5,0,1,1,5-5A5,5,0,0,1,46,183Zm0-20a5,5,0,1,1,5-5A5,5,0,0,1,46,163Zm0-20a5,5,0,1,1,5-5A5,5,0,0,1,46,143Zm0-20a5,5,0,1,1,5-5A5,5,0,0,1,46,123Zm0-20a5,5,0,1,1,5-5A5,5,0,0,1,46,103Zm0-20a5,5,0,1,1,5-5A5,5,0,0,1,46,83Zm0-20a5,5,0,1,1,5-5A5,5,0,0,1,46,63Zm0-20a5,5,0,1,1,5-5A5,5,0,0,1,46,43ZM26,303a5,5,0,1,1,5-5A5,5,0,0,1,26,303Zm0-20a5,5,0,1,1,5-5A5,5,0,0,1,26,283Zm0-20a5,5,0,1,1,5-5A5,5,0,0,1,26,263Zm0-20a5,5,0,1,1,5-5A5,5,0,0,1,26,243Zm0-20a5,5,0,1,1,5-5A5,5,0,0,1,26,223Zm0-20a5,5,0,1,1,5-5A5,5,0,0,1,26,203Zm0-20a5,5,0,1,1,5-5A5,5,0,0,1,26,183Zm0-20a5,5,0,1,1,5-5A5,5,0,0,1,26,163Zm0-20a5,5,0,1,1,5-5A5,5,0,0,1,26,143Zm0-20a5,5,0,1,1,5-5A5,5,0,0,1,26,123Zm0-20a5,5,0,1,1,5-5A5,5,0,0,1,26,103Zm0-20a5,5,0,1,1,5-5A5,5,0,0,1,26,83Zm0-20a5,5,0,1,1,5-5A5,5,0,0,1,26,63Zm0-20a5,5,0,1,1,5-5A5,5,0,0,1,26,43ZM6,303a5,5,0,1,1,5-5A5,5,0,0,1,6,303Zm0-20a5,5,0,1,1,5-5A5,5,0,0,1,6,283Zm0-20a5,5,0,1,1,5-5A5,5,0,0,1,6,263Zm0-20a5,5,0,1,1,5-5A5,5,0,0,1,6,243Zm0-20a5,5,0,1,1,5-5A5,5,0,0,1,6,223Zm0-20a5,5,0,1,1,5-5A5,5,0,0,1,6,203Zm0-20a5,5,0,1,1,5-5A5,5,0,0,1,6,183Zm0-20a5,5,0,1,1,5-5A5,5,0,0,1,6,163Zm0-20a5,5,0,1,1,5-5A5,5,0,0,1,6,143Zm0-20a5,5,0,1,1,5-5A5,5,0,0,1,6,123Zm0-20a5,5,0,1,1,5-5A5,5,0,0,1,6,103ZM6,83a5,5,0,1,1,5-5A5,5,0,0,1,6,83ZM6,63a5,5,0,1,1,5-5A5,5,0,0,1,6,63ZM6,43a5,5,0,1,1,5-5A5,5,0,0,1,6,43ZM126,293a5,5,0,1,1-5,5A5,5,0,0,1,126,293Zm80,10a5,5,0,1,1,5-5A5,5,0,0,1,206,303Zm0-20a5,5,0,1,1,5-5A5,5,0,0,1,206,283Zm0-20a5,5,0,1,1,5-5A5,5,0,0,1,206,263Zm0-20a5,5,0,1,1,5-5A5,5,0,0,1,206,243Zm0-20a5,5,0,1,1,5-5A5,5,0,0,1,206,223Zm0-20a5,5,0,1,1,5-5A5,5,0,0,1,206,203Zm0-20a5,5,0,1,1,5-5A5,5,0,0,1,206,183Zm0-20a5,5,0,1,1,5-5A5,5,0,0,1,206,163Zm0-20a5,5,0,1,1,5-5A5,5,0,0,1,206,143Zm0-20a5,5,0,1,1,5-5A5,5,0,0,1,206,123Zm0-20a5,5,0,1,1,5-5A5,5,0,0,1,206,103Zm0-20a5,5,0,1,1,5-5A5,5,0,0,1,206,83Zm0-20a5,5,0,1,1,5-5A5,5,0,0,1,206,63Zm0-20a5,5,0,1,1,5-5A5,5,0,0,1,206,43ZM186,303a5,5,0,1,1,5-5A5,5,0,0,1,186,303Zm0-20a5,5,0,1,1,5-5A5,5,0,0,1,186,283Zm0-20a5,5,0,1,1,5-5A5,5,0,0,1,186,263Zm0-20a5,5,0,1,1,5-5A5,5,0,0,1,186,243Zm0-20a5,5,0,1,1,5-5A5,5,0,0,1,186,223Zm0-20a5,5,0,1,1,5-5A5,5,0,0,1,186,203Zm0-20a5,5,0,1,1,5-5A5,5,0,0,1,186,183Zm0-20a5,5,0,1,1,5-5A5,5,0,0,1,186,163Zm0-20a5,5,0,1,1,5-5A5,5,0,0,1,186,143Zm0-20a5,5,0,1,1,5-5A5,5,0,0,1,186,123Zm0-20a5,5,0,1,1,5-5A5,5,0,0,1,186,103Zm0-20a5,5,0,1,1,5-5A5,5,0,0,1,186,83Zm0-20a5,5,0,1,1,5-5A5,5,0,0,1,186,63Zm0-20a5,5,0,1,1,5-5A5,5,0,0,1,186,43ZM166,303a5,5,0,1,1,5-5A5,5,0,0,1,166,303Zm0-20a5,5,0,1,1,5-5A5,5,0,0,1,166,283Zm0-20a5,5,0,1,1,5-5A5,5,0,0,1,166,263Zm0-20a5,5,0,1,1,5-5A5,5,0,0,1,166,243Zm0-20a5,5,0,1,1,5-5A5,5,0,0,1,166,223Zm0-20a5,5,0,1,1,5-5A5,5,0,0,1,166,203Zm0-20a5,5,0,1,1,5-5A5,5,0,0,1,166,183Zm0-20a5,5,0,1,1,5-5A5,5,0,0,1,166,163Zm0-20a5,5,0,1,1,5-5A5,5,0,0,1,166,143Zm0-20a5,5,0,1,1,5-5A5,5,0,0,1,166,123Zm0-20a5,5,0,1,1,5-5A5,5,0,0,1,166,103Zm0-20a5,5,0,1,1,5-5A5,5,0,0,1,166,83Zm0-20a5,5,0,1,1,5-5A5,5,0,0,1,166,63Zm0-20a5,5,0,1,1,5-5A5,5,0,0,1,166,43ZM146,303a5,5,0,1,1,5-5A5,5,0,0,1,146,303Zm0-20a5,5,0,1,1,5-5A5,5,0,0,1,146,283Zm0-20a5,5,0,1,1,5-5A5,5,0,0,1,146,263Zm0-20a5,5,0,1,1,5-5A5,5,0,0,1,146,243Zm0-20a5,5,0,1,1,5-5A5,5,0,0,1,146,223Zm0-20a5,5,0,1,1,5-5A5,5,0,0,1,146,203Zm0-20a5,5,0,1,1,5-5A5,5,0,0,1,146,183Zm0-20a5,5,0,1,1,5-5A5,5,0,0,1,146,163Zm0-20a5,5,0,1,1,5-5A5,5,0,0,1,146,143Zm0-20a5,5,0,1,1,5-5A5,5,0,0,1,146,123Zm0-20a5,5,0,1,1,5-5A5,5,0,0,1,146,103Zm0-20a5,5,0,1,1,5-5A5,5,0,0,1,146,83Zm0-20a5,5,0,1,1,5-5A5,5,0,0,1,146,63Zm0-20a5,5,0,1,1,5-5A5,5,0,0,1,146,43Z"/>
  <path id="Shape-2" data-name="Shape" class="cls-2" d="M248.327,17.566h0c-8.237,2.208-13.982,12.4-11.819,20.471,0,0,.075,2.291.052,2.3s-1.108-2.012-1.128-2.009c0,0,0,0,0,0C233.269,30.254,223.2,24.3,214.961,26.507h0c-0.01,0-2.3.047-2.3,0.04s2-1.114,2.013-1.116h0c8.237-2.208,13.982-12.4,11.819-20.471,0-.005-0.027.007,0,0s-0.043-2.3-.067-2.292c0,0,1.143,2,1.144,2,2.163,8.073,12.233,14.025,20.47,11.818h0c0.01,0,2.311-.034,2.3-0.04C250.308,16.431,248.337,17.565,248.327,17.566Z"/>
</svg>
