<svg xmlns="http://www.w3.org/2000/svg" width="106" height="36" viewBox="0 0 106 36">
  <defs>
    <style>
      .cls-1 {
        fill: #119d60;
      }

      .cls-1, .cls-2 {
        fill-rule: evenodd;
      }

      .cls-2 {
        fill: #fff;
      }
    </style>
  </defs>
  <path id="Wave" class="cls-1" d="M28.146,29.284q-3.934,2.2-7.79,4.544a6.94,6.94,0,0,1-7.712,0q-3.856-2.341-7.79-4.544A7.078,7.078,0,0,1,1,22.576V21.271a5.944,5.944,0,0,0,1.237,1.7c3.482,3.122,5.238-1.987,6.233-4.617,0.005,0,.092-0.271.448-1.019a0.469,0.469,0,0,1,.895-0.064c0.214,0.571.562,1.537,0.959,2.579,0.658,1.73,1.14,3.821,2.333,4.649a2.968,2.968,0,0,0,3.772-.382c1.477-1.875,1.679-3.522,2.269-6.782a24.83,24.83,0,0,1,.668-3.122,2.517,2.517,0,0,1,.9-1.623c0.686-.134,1.054,1.247,1.406,2.229,0.957,2.667,1.323,6.212,2.877,7.452a3.167,3.167,0,0,0,3.676.064c1.084-.815,2.341-3.176,3.329-4.864v5.1A7.078,7.078,0,0,1,28.146,29.284Zm-1.584-8.413a2.872,2.872,0,0,1-1.31-2.037c-0.694-2.507-1.8-7.322-4.283-7.8-1.427-.275-2.325,1.275-2.653,2.134a60.893,60.893,0,0,0-1.95,7.578c-0.185.784-.866,2.444-1.406,2.643-0.864.318-1.522-1.335-1.694-1.879-0.6-1.9-1.83-5.293-3.42-5.891-1.366-.514-1.988.6-2.333,1.115C6.66,18,5.227,22.091,4.251,22.144c-1.63.09-1.915-3-3.2-3.916C1.041,18.218,1.015,18.214,1,18.2v-4.8A7.079,7.079,0,0,1,4.854,6.7q3.934-2.2,7.79-4.543a6.937,6.937,0,0,1,7.712,0Q24.212,4.5,28.146,6.7A7.079,7.079,0,0,1,32,13.408v0.756c-1.457,1.879-2.943,4.211-3.84,5.466C27.8,20.134,27.544,21.285,26.562,20.871Z"/>
  <path id="Reso." class="cls-2" d="M43.956,28V20.1h3.5L51.264,28h3.444l-4.172-8.316a5.342,5.342,0,0,0,3.01-2.128,5.927,5.927,0,0,0,.966-3.3,6.053,6.053,0,0,0-.728-2.954,5.2,5.2,0,0,0-2.226-2.114A8.215,8.215,0,0,0,47.736,8.4H40.988V28h2.968Zm0-17.108H47.54a4.074,4.074,0,0,1,3,.938,3.416,3.416,0,0,1,.924,2.506,3.532,3.532,0,0,1-.938,2.548,3.927,3.927,0,0,1-2.954.98H43.956V10.892ZM66.846,27.02a6.306,6.306,0,0,0,2.226-3.276H66.1A3.477,3.477,0,0,1,64.83,25.3a3.705,3.705,0,0,1-2.114.574,4.041,4.041,0,0,1-2.758-1.05,4.291,4.291,0,0,1-1.33-3.066H69.436q0.027-.392.042-0.714t0.014-.6a6.745,6.745,0,0,0-.84-3.332A6.435,6.435,0,0,0,66.3,14.686a6.767,6.767,0,0,0-3.556-.91,7.166,7.166,0,0,0-3.682.924A6.422,6.422,0,0,0,56.6,17.276a8.025,8.025,0,0,0-.882,3.836,7.694,7.694,0,0,0,.9,3.78,6.464,6.464,0,0,0,2.478,2.534,7.142,7.142,0,0,0,3.626.91A6.455,6.455,0,0,0,66.846,27.02Zm-1.47-9.856a3.546,3.546,0,0,1,1.148,2.576h-7.84a3.857,3.857,0,0,1,1.4-2.646,4.2,4.2,0,0,1,2.632-.882A3.843,3.843,0,0,1,65.376,17.164ZM81.35,27.076a3.885,3.885,0,0,0,1.47-3.164,3.261,3.261,0,0,0-.728-2.3,4.581,4.581,0,0,0-1.918-1.19,24.169,24.169,0,0,0-2.59-.714,11.059,11.059,0,0,1-2.254-.756,1.277,1.277,0,0,1-.854-1.148,1.424,1.424,0,0,1,.616-1.19,2.844,2.844,0,0,1,1.736-.462,3.031,3.031,0,0,1,1.834.5,2.059,2.059,0,0,1,.826,1.4h2.856A4.519,4.519,0,0,0,80.65,14.9a5.969,5.969,0,0,0-3.766-1.12,5.781,5.781,0,0,0-3.92,1.218,3.862,3.862,0,0,0-1.4,3.038,2.817,2.817,0,0,0,.77,2.086,5.162,5.162,0,0,0,1.932,1.19,17.9,17.9,0,0,0,2.338.672,11.985,11.985,0,0,1,2.366.686,1.429,1.429,0,0,1,.854,1.442,1.7,1.7,0,0,1-.616,1.288,2.858,2.858,0,0,1-1.96.56,3.386,3.386,0,0,1-2.212-.686,2.962,2.962,0,0,1-1.064-1.638h-3a4.822,4.822,0,0,0,1.96,3.416,7.006,7.006,0,0,0,4.34,1.288A6.131,6.131,0,0,0,81.35,27.076Zm13.958,0.35a6.712,6.712,0,0,0,2.534-2.548,7.56,7.56,0,0,0,.938-3.822,7.56,7.56,0,0,0-.938-3.822,6.748,6.748,0,0,0-2.52-2.548,7.43,7.43,0,0,0-7.126,0,6.711,6.711,0,0,0-2.534,2.548,7.554,7.554,0,0,0-.938,3.822,7.648,7.648,0,0,0,.924,3.822,6.638,6.638,0,0,0,2.506,2.548,7.03,7.03,0,0,0,3.57.91A7.11,7.11,0,0,0,95.308,27.426Zm-5.544-2.17a3.929,3.929,0,0,1-1.456-1.582,5.512,5.512,0,0,1-.56-2.618,5.513,5.513,0,0,1,.56-2.618,3.9,3.9,0,0,1,1.47-1.582,3.826,3.826,0,0,1,5.4,1.582,5.636,5.636,0,0,1,.546,2.618,5.519,5.519,0,0,1-.56,2.618,3.9,3.9,0,0,1-1.47,1.582,3.843,3.843,0,0,1-1.974.532A3.766,3.766,0,0,1,89.764,25.256Zm13.944,2.366a1.8,1.8,0,0,0,.532-1.3,1.843,1.843,0,0,0-1.9-1.876,1.878,1.878,0,0,0-1.386.546,1.81,1.81,0,0,0-.546,1.33,1.778,1.778,0,0,0,.546,1.3,1.878,1.878,0,0,0,1.386.546A1.83,1.83,0,0,0,103.707,27.622Z"/>
</svg>
