<?xml version="1.0" encoding="UTF-8" standalone="no"?>
<svg
   width="1700.67"
   height="450"
   viewBox="0 0 1700.67 450.00001"
   fill="none"
   version="1.1"
   id="svg18"
   sodipodi:docname="ucore.svg"
   inkscape:version="1.3.2 (091e20ef0f, 2023-11-25)"
   xmlns:inkscape="http://www.inkscape.org/namespaces/inkscape"
   xmlns:sodipodi="http://sodipodi.sourceforge.net/DTD/sodipodi-0.dtd"
   xmlns="http://www.w3.org/2000/svg"
   xmlns:svg="http://www.w3.org/2000/svg">
  <path
     d="m 403.53494,369 q -22.8,0 -40.4,-9.6 -17.6,-10 -27.6,-27.2 -9.6,-17.6 -9.6,-40.8 V 164.6 h 29.2 v 120.8 q 0,26.8 15.2,42.4 15.2,15.2 40.8,15.2 18,0 32,-8 14.4,-8.4 23.2,-23.2 V 164.6 h 29.6 V 365 h -29.6 v -23.2 q -23.6,27.2 -62.8,27.2 z m 280.39992,0.4 q -30.4,0 -56.8,-10.8 -26.4,-11.2 -46.4,-30.8 -20,-20 -31.2,-46 -10.8,-26.4 -10.8,-56.8 0,-30.4 10.8,-56.4 11.2,-26.4 31.2,-46 20,-20 46.4,-30.8 26.4,-11.2 56.8,-11.2 22,0 42,5.6 20.4,5.2 37.6,15.6 17.6,10 31.2,24.8 l -20.4,21.6 q -16.4,-18.8 -40.4,-28.8 -24,-10.4 -50,-10.4 -24.4,0 -45.2,8.8 -20.8,8.8 -36.4,24.8 -15.2,15.6 -24,36.8 -8.4,20.8 -8.4,45.6 0,24.4 8.4,45.6 8.8,21.2 24.4,37.2 15.6,15.6 36.4,24.4 21.2,8.8 45.6,8.8 26,0 49.6,-10 23.6,-10.4 39.6,-28.4 l 20,20.8 q -14,14.4 -31.6,24.8 -17.2,10.4 -37.2,16 -20,5.2 -41.2,5.2 z M 922.33439,369 q -28.4,0 -52,-13.6 -23.2,-14 -36.8,-37.6 -13.6,-23.6 -13.6,-52.8 0,-29.2 13.6,-52.8 13.6,-23.6 36.8,-37.2 23.6,-14 52,-14 28.8,0 52,14 23.2,13.6 36.80001,37.2 13.6,23.6 13.6,52.8 0,29.2 -13.6,52.8 -13.60001,23.6 -36.80001,37.6 -23.2,13.6 -52,13.6 z m 0,-26.4 q 20.4,0 36.8,-10.4 16.8,-10.4 26.4,-28 10,-17.6 10,-39.2 0,-22 -10,-39.2 -9.6,-17.6 -26.4,-28 -16.4,-10.4 -36.8,-10.4 -20.4,0 -37.2,10.4 -16.4,10.4 -26.4,28 -9.6,17.2 -9.6,39.2 0,21.6 9.6,39.2 10,17.6 26.4,28 16.8,10.4 37.2,10.4 z M 1065.9348,365 V 164.6 h 29.6 V 193 q 9.2,-15.6 23.2,-24 14.4,-8.8 32.8,-8.8 10.4,0 18.8,2.8 v 27.2 q -5.2,-2 -10.4,-2.8 -5.2,-0.8 -10.4,-0.8 -18.4,0 -32.4,10.8 -13.6,10.4 -21.6,30.4 V 365 Z m 218.4003,3.6 q -28.8,0 -52.4,-13.6 -23.2,-14 -37.2,-37.6 -13.6,-23.6 -13.6,-52.8 0,-28.8 13.2,-52 13.2,-23.6 35.6,-37.2 22.4,-14 50,-14 26.8,0 48,14 21.6,13.6 34,37.2 12.8,23.2 12.8,52 v 9.2 h -164.4 q 2.4,19.6 12.4,35.2 10.4,15.6 26.8,24.8 16.4,8.8 36,8.8 15.6,0 30.4,-4.8 14.8,-4.8 24.8,-13.6 l 18.4,19.6 q -16.8,12.4 -35.2,18.8 -18,6 -39.6,6 z m -73.2,-118.4 h 134 q -2.4,-18 -12,-32 -9.2,-14.4 -23.2,-22.4 -14,-8.4 -30.8,-8.4 -17.2,0 -31.6,8 -14.4,8 -24,22.4 -9.6,14 -12.4,32.4 z"
     id="text1"
     style="font-size:400px;font-family:'Red Hat Display';-inkscape-font-specification:'Red Hat Display';fill:#1a1a1a"
     aria-label="uCore" />
  <sodipodi:namedview
     id="namedview1"
     pagecolor="#ffffff"
     bordercolor="#000000"
     borderopacity="0.25"
     inkscape:showpageshadow="2"
     inkscape:pageopacity="0.0"
     inkscape:pagecheckerboard="0"
     inkscape:deskcolor="#d1d1d1"
     inkscape:zoom="0.35094196"
     inkscape:cx="632.58323"
     inkscape:cy="767.93325"
     inkscape:window-width="1457"
     inkscape:window-height="1212"
     inkscape:window-x="26"
     inkscape:window-y="23"
     inkscape:window-maximized="0"
     inkscape:current-layer="svg18" />
  <defs
     id="defs18">
    <linearGradient
       id="paint0_linear_1016_57"
       x1="100"
       y1="100"
       x2="508"
       y2="508"
       gradientUnits="userSpaceOnUse">
      <stop
         offset="0.0684898"
         stop-color="#0047AB"
         id="stop15" />
      <stop
         offset="0.741212"
         stop-color="#8A2BE2"
         id="stop16" />
    </linearGradient>
    <linearGradient
       id="paint1_linear_1016_57"
       x1="1459.63"
       y1="161.55"
       x2="1459.63"
       y2="218.53"
       gradientUnits="userSpaceOnUse"
       gradientTransform="translate(-588,-161.165)">
      <stop
         stop-color="#59CAFD"
         id="stop17" />
      <stop
         offset="1"
         stop-color="#2B50EF"
         id="stop18" />
    </linearGradient>
  </defs>
</svg>
