<svg xmlns="http://www.w3.org/2000/svg" width="151" height="131" viewBox="0 0 151 131">
  <defs>
    <style>
      .cls-1 {
        fill: #e548b2;
      }

      .cls-1, .cls-2, .cls-3, .cls-4, .cls-5, .cls-6, .cls-7, .cls-8 {
        fill-rule: evenodd;
      }

      .cls-2 {
        fill: #d747c2;
      }

      .cls-3 {
        fill: #c047d5;
      }

      .cls-4 {
        fill: #a749df;
      }

      .cls-5 {
        fill: #8b4de4;
      }

      .cls-6 {
        fill: #7153e8;
      }

      .cls-7 {
        fill: #595deb;
      }

      .cls-8 {
        fill: #4667ed;
      }
    </style>
  </defs>
  <path id="_1" data-name="1" class="cls-1" d="M5.5,2A3.5,3.5,0,1,1,2,5.5,3.5,3.5,0,0,1,5.5,2Zm0,20A3.5,3.5,0,1,1,2,25.5,3.5,3.5,0,0,1,5.5,22Zm0,20A3.5,3.5,0,1,1,2,45.5,3.5,3.5,0,0,1,5.5,42Zm0,20A3.5,3.5,0,1,1,2,65.5,3.5,3.5,0,0,1,5.5,62Zm0,20A3.5,3.5,0,1,1,2,85.5,3.5,3.5,0,0,1,5.5,82Zm0,20A3.5,3.5,0,1,1,2,105.5,3.5,3.5,0,0,1,5.5,102Zm0,20A3.5,3.5,0,1,1,2,125.5,3.5,3.5,0,0,1,5.5,122Z"/>
  <path id="_2" data-name="2" class="cls-2" d="M25.5,2A3.5,3.5,0,1,1,22,5.5,3.5,3.5,0,0,1,25.5,2Zm0,20A3.5,3.5,0,1,1,22,25.5,3.5,3.5,0,0,1,25.5,22Zm0,20A3.5,3.5,0,1,1,22,45.5,3.5,3.5,0,0,1,25.5,42Zm0,20A3.5,3.5,0,1,1,22,65.5,3.5,3.5,0,0,1,25.5,62Zm0,20A3.5,3.5,0,1,1,22,85.5,3.5,3.5,0,0,1,25.5,82Zm0,20a3.5,3.5,0,1,1-3.5,3.5A3.5,3.5,0,0,1,25.5,102Zm0,20a3.5,3.5,0,1,1-3.5,3.5A3.5,3.5,0,0,1,25.5,122Z"/>
  <path id="_3" data-name="3" class="cls-3" d="M45.5,2A3.5,3.5,0,1,1,42,5.5,3.5,3.5,0,0,1,45.5,2Zm0,20A3.5,3.5,0,1,1,42,25.5,3.5,3.5,0,0,1,45.5,22Zm0,20A3.5,3.5,0,1,1,42,45.5,3.5,3.5,0,0,1,45.5,42Zm0,20A3.5,3.5,0,1,1,42,65.5,3.5,3.5,0,0,1,45.5,62Zm0,20A3.5,3.5,0,1,1,42,85.5,3.5,3.5,0,0,1,45.5,82Zm0,20a3.5,3.5,0,1,1-3.5,3.5A3.5,3.5,0,0,1,45.5,102Zm0,20a3.5,3.5,0,1,1-3.5,3.5A3.5,3.5,0,0,1,45.5,122Z"/>
  <path id="_4" data-name="4" class="cls-4" d="M65.5,2A3.5,3.5,0,1,1,62,5.5,3.5,3.5,0,0,1,65.5,2Zm0,20A3.5,3.5,0,1,1,62,25.5,3.5,3.5,0,0,1,65.5,22Zm0,20A3.5,3.5,0,1,1,62,45.5,3.5,3.5,0,0,1,65.5,42Zm0,20A3.5,3.5,0,1,1,62,65.5,3.5,3.5,0,0,1,65.5,62Zm0,20A3.5,3.5,0,1,1,62,85.5,3.5,3.5,0,0,1,65.5,82Zm0,20a3.5,3.5,0,1,1-3.5,3.5A3.5,3.5,0,0,1,65.5,102Zm0,20a3.5,3.5,0,1,1-3.5,3.5A3.5,3.5,0,0,1,65.5,122Z"/>
  <path id="_5" data-name="5" class="cls-5" d="M85.5,2A3.5,3.5,0,1,1,82,5.5,3.5,3.5,0,0,1,85.5,2Zm0,20A3.5,3.5,0,1,1,82,25.5,3.5,3.5,0,0,1,85.5,22Zm0,20A3.5,3.5,0,1,1,82,45.5,3.5,3.5,0,0,1,85.5,42Zm0,20A3.5,3.5,0,1,1,82,65.5,3.5,3.5,0,0,1,85.5,62Zm0,20A3.5,3.5,0,1,1,82,85.5,3.5,3.5,0,0,1,85.5,82Zm0,20a3.5,3.5,0,1,1-3.5,3.5A3.5,3.5,0,0,1,85.5,102Zm0,20a3.5,3.5,0,1,1-3.5,3.5A3.5,3.5,0,0,1,85.5,122Z"/>
  <path id="_6" data-name="6" class="cls-6" d="M105.5,2A3.5,3.5,0,1,1,102,5.5,3.5,3.5,0,0,1,105.5,2Zm0,20a3.5,3.5,0,1,1-3.5,3.5A3.5,3.5,0,0,1,105.5,22Zm0,20a3.5,3.5,0,1,1-3.5,3.5A3.5,3.5,0,0,1,105.5,42Zm0,20a3.5,3.5,0,1,1-3.5,3.5A3.5,3.5,0,0,1,105.5,62Zm0,20a3.5,3.5,0,1,1-3.5,3.5A3.5,3.5,0,0,1,105.5,82Zm0,20a3.5,3.5,0,1,1-3.5,3.5A3.5,3.5,0,0,1,105.5,102Zm0,20a3.5,3.5,0,1,1-3.5,3.5A3.5,3.5,0,0,1,105.5,122Z"/>
  <path id="_7" data-name="7" class="cls-7" d="M125.5,2A3.5,3.5,0,1,1,122,5.5,3.5,3.5,0,0,1,125.5,2Zm0,20a3.5,3.5,0,1,1-3.5,3.5A3.5,3.5,0,0,1,125.5,22Zm0,20a3.5,3.5,0,1,1-3.5,3.5A3.5,3.5,0,0,1,125.5,42Zm0,20a3.5,3.5,0,1,1-3.5,3.5A3.5,3.5,0,0,1,125.5,62Zm0,20a3.5,3.5,0,1,1-3.5,3.5A3.5,3.5,0,0,1,125.5,82Zm0,20a3.5,3.5,0,1,1-3.5,3.5A3.5,3.5,0,0,1,125.5,102Zm0,20a3.5,3.5,0,1,1-3.5,3.5A3.5,3.5,0,0,1,125.5,122Z"/>
  <path id="_8" data-name="8" class="cls-8" d="M145.5,2A3.5,3.5,0,1,1,142,5.5,3.5,3.5,0,0,1,145.5,2Zm0,20a3.5,3.5,0,1,1-3.5,3.5A3.5,3.5,0,0,1,145.5,22Zm0,20a3.5,3.5,0,1,1-3.5,3.5A3.5,3.5,0,0,1,145.5,42Zm0,20a3.5,3.5,0,1,1-3.5,3.5A3.5,3.5,0,0,1,145.5,62Zm0,20a3.5,3.5,0,1,1-3.5,3.5A3.5,3.5,0,0,1,145.5,82Zm0,20a3.5,3.5,0,1,1-3.5,3.5A3.5,3.5,0,0,1,145.5,102Zm0,20a3.5,3.5,0,1,1-3.5,3.5A3.5,3.5,0,0,1,145.5,122Z"/>
</svg>
