<svg xmlns="http://www.w3.org/2000/svg" width="182" height="171" viewBox="0 0 182 171">
  <defs>
    <style>
      .cls-1 {
        fill: #e1e2e6;
      }

      .cls-1, .cls-2 {
        fill-rule: evenodd;
      }

      .cls-2 {
        fill: #f9d981;
      }
    </style>
  </defs>
  <path id="Shape" class="cls-1" d="M6,39a5,5,0,1,1-5,5A5,5,0,0,1,6,39Zm20,0a5,5,0,1,1-5,5A5,5,0,0,1,26,39Zm20,0a5,5,0,1,1-5,5A5,5,0,0,1,46,39Zm20,0a5,5,0,1,1-5,5A5,5,0,0,1,66,39Zm20,0a5,5,0,1,1-5,5A5,5,0,0,1,86,39Zm20,0a5,5,0,1,1-5,5A5,5,0,0,1,106,39Zm20,0a5,5,0,1,1-5,5A5,5,0,0,1,126,39ZM6,59a5,5,0,1,1-5,5A5,5,0,0,1,6,59Zm20,0a5,5,0,1,1-5,5A5,5,0,0,1,26,59Zm20,0a5,5,0,1,1-5,5A5,5,0,0,1,46,59Zm20,0a5,5,0,1,1-5,5A5,5,0,0,1,66,59Zm20,0a5,5,0,1,1-5,5A5,5,0,0,1,86,59Zm20,0a5,5,0,1,1-5,5A5,5,0,0,1,106,59Zm20,0a5,5,0,1,1-5,5A5,5,0,0,1,126,59ZM6,79a5,5,0,1,1-5,5A5,5,0,0,1,6,79Zm20,0a5,5,0,1,1-5,5A5,5,0,0,1,26,79Zm20,0a5,5,0,1,1-5,5A5,5,0,0,1,46,79Zm20,0a5,5,0,1,1-5,5A5,5,0,0,1,66,79Zm20,0a5,5,0,1,1-5,5A5,5,0,0,1,86,79Zm20,0a5,5,0,1,1-5,5A5,5,0,0,1,106,79Zm20,0a5,5,0,1,1-5,5A5,5,0,0,1,126,79ZM6,99a5,5,0,1,1-5,5A5,5,0,0,1,6,99Zm20,0a5,5,0,1,1-5,5A5,5,0,0,1,26,99Zm20,0a5,5,0,1,1-5,5A5,5,0,0,1,46,99Zm20,0a5,5,0,1,1-5,5A5,5,0,0,1,66,99Zm20,0a5,5,0,1,1-5,5A5,5,0,0,1,86,99Zm20,0a5,5,0,1,1-5,5A5,5,0,0,1,106,99Zm20,0a5,5,0,1,1-5,5A5,5,0,0,1,126,99ZM6,119a5,5,0,1,1-5,5A5,5,0,0,1,6,119Zm20,0a5,5,0,1,1-5,5A5,5,0,0,1,26,119Zm20,0a5,5,0,1,1-5,5A5,5,0,0,1,46,119Zm20,0a5,5,0,1,1-5,5A5,5,0,0,1,66,119Zm20,0a5,5,0,1,1-5,5A5,5,0,0,1,86,119Zm20,0a5,5,0,1,1-5,5A5,5,0,0,1,106,119Zm20,0a5,5,0,1,1-5,5A5,5,0,0,1,126,119ZM6,139a5,5,0,1,1-5,5A5,5,0,0,1,6,139Zm20,0a5,5,0,1,1-5,5A5,5,0,0,1,26,139Zm20,0a5,5,0,1,1-5,5A5,5,0,0,1,46,139Zm20,0a5,5,0,1,1-5,5A5,5,0,0,1,66,139Zm20,0a5,5,0,1,1-5,5A5,5,0,0,1,86,139Zm20,0a5,5,0,1,1-5,5A5,5,0,0,1,106,139Zm20,0a5,5,0,1,1-5,5A5,5,0,0,1,126,139ZM6,159a5,5,0,1,1-5,5A5,5,0,0,1,6,159Zm20,0a5,5,0,1,1-5,5A5,5,0,0,1,26,159Zm20,0a5,5,0,1,1-5,5A5,5,0,0,1,46,159Zm20,0a5,5,0,1,1-5,5A5,5,0,0,1,66,159Zm20,0a5,5,0,1,1-5,5A5,5,0,0,1,86,159Zm20,0a5,5,0,1,1-5,5A5,5,0,0,1,106,159Zm20,0a5,5,0,1,1-5,5A5,5,0,0,1,126,159Z"/>
  <path id="Shape-2" data-name="Shape" class="cls-2" d="M178.327,16.567h0c-8.237,2.207-13.982,12.4-11.819,20.471,0,0,.075,2.291.052,2.3s-1.108-2.012-1.128-2.009c0,0,0,0,0,0C163.269,29.253,153.2,23.3,144.961,25.507h0c-0.01,0-2.3.046-2.3,0.04s2-1.114,2.012-1.116h0c8.237-2.208,13.983-12.4,11.819-20.471,0-.006-0.027.007,0,0s-0.043-2.3-.067-2.292c0,0,1.143,2,1.144,2,2.163,8.073,12.233,14.025,20.47,11.818h0c0.01,0,2.311-.035,2.3-0.039C180.308,15.432,178.337,16.564,178.327,16.567Z"/>
</svg>
