<svg 
 xmlns="http://www.w3.org/2000/svg"
 xmlns:xlink="http://www.w3.org/1999/xlink"
 width="102px" height="97px">
<defs>
<linearGradient id="PSgrad_0" x1="0%" x2="0%" y1="100%" y2="0%">
  <stop offset="0%" stop-color="rgb(243,107,127)" stop-opacity="1" />
  <stop offset="100%" stop-color="rgb(159,191,255)" stop-opacity="1" />
</linearGradient>

</defs>
<path fill-rule="evenodd"  fill="rgb(159, 191, 255)"
 d="M52.590,8.003 L90.940,41.623 C104.022,53.091 105.330,72.993 93.862,86.074 L93.862,86.074 C82.393,99.156 62.492,100.464 49.410,88.996 L11.060,55.376 C-2.022,43.908 -3.330,24.007 8.138,10.925 L8.138,10.925 C19.607,-2.157 39.508,-3.465 52.590,8.003 Z"/>
<path fill="url(#PSgrad_0)"
 d="M52.590,8.003 L90.940,41.623 C104.022,53.091 105.330,72.993 93.862,86.074 L93.862,86.074 C82.393,99.156 62.492,100.464 49.410,88.996 L11.060,55.376 C-2.022,43.908 -3.330,24.007 8.138,10.925 L8.138,10.925 C19.607,-2.157 39.508,-3.465 52.590,8.003 Z"/>
</svg>