<svg 
 xmlns="http://www.w3.org/2000/svg"
 xmlns:xlink="http://www.w3.org/1999/xlink"
 width="102px" height="113px">
<defs>
<linearGradient id="PSgrad_0" x1="0%" x2="0%" y1="100%" y2="0%">
  <stop offset="0%" stop-color="rgb(245,146,115)" stop-opacity="1" />
  <stop offset="100%" stop-color="rgb(248,207,97)" stop-opacity="1" />
</linearGradient>

</defs>
<path fill-rule="evenodd"  fill="rgb(243, 107, 127)"
 d="M73.944,49.601 C66.504,43.875 55.830,45.265 50.104,52.705 C44.378,60.145 45.767,70.819 53.208,76.546 L25.152,113.000 C-2.421,91.779 -7.571,52.223 13.650,24.650 C34.871,-2.924 74.427,-8.074 102.000,13.147 L73.944,49.601 Z"/>
<path fill="url(#PSgrad_0)"
 d="M73.944,49.601 C66.504,43.875 55.830,45.265 50.104,52.705 C44.378,60.145 45.767,70.819 53.208,76.546 L25.152,113.000 C-2.421,91.779 -7.571,52.223 13.650,24.650 C34.871,-2.924 74.427,-8.074 102.000,13.147 L73.944,49.601 Z"/>
</svg>