<svg 
 xmlns="http://www.w3.org/2000/svg"
 xmlns:xlink="http://www.w3.org/1999/xlink"
 width="148px" height="148px">
<g>
<path fill-rule="evenodd"  fill="rgb(248, 209, 103)"
 d="M8.157,86.999 L8.165,86.999 C9.994,89.475 12.893,91.082 16.168,91.082 C19.444,91.082 22.343,89.475 24.172,86.999 L24.179,86.999 C26.350,82.837 30.658,79.999 35.624,79.999 C40.591,79.999 44.899,82.837 47.070,86.999 L47.019,86.999 C48.837,89.475 51.721,91.082 54.978,91.082 C58.236,91.082 61.119,89.475 62.938,86.999 L62.944,86.999 C65.103,82.837 69.387,79.999 74.327,79.999 C79.266,79.999 83.550,82.837 85.709,86.999 L85.713,86.999 C87.541,89.475 90.441,91.082 93.716,91.082 C96.992,91.082 99.891,89.475 101.720,86.999 L101.727,86.999 C103.898,82.837 108.206,79.999 113.172,79.999 C118.139,79.999 122.446,82.837 124.617,86.999 L124.567,86.999 C126.385,89.475 129.269,91.082 132.526,91.082 C135.784,91.082 138.667,89.475 140.486,86.999 L140.492,86.999 C142.009,84.075 144.577,81.810 147.682,80.718 C147.582,81.836 147.452,82.945 147.302,84.048 C145.954,84.759 144.784,85.771 143.878,86.999 L143.856,86.999 C141.707,91.160 137.442,93.999 132.526,93.999 C127.610,93.999 123.346,91.160 121.197,86.999 L121.213,86.999 C119.376,84.524 116.463,82.916 113.172,82.916 C109.882,82.916 106.969,84.524 105.131,86.999 L105.108,86.999 C102.947,91.160 98.659,93.999 93.716,93.999 C88.773,93.999 84.486,91.160 82.325,86.999 L82.324,86.999 C80.497,84.524 77.599,82.916 74.327,82.916 C71.054,82.916 68.157,84.524 66.330,86.999 L66.308,86.999 C64.159,91.160 59.894,93.999 54.978,93.999 C50.062,93.999 45.798,91.160 43.649,86.999 L43.666,86.999 C41.828,84.524 38.915,82.916 35.624,82.916 C32.334,82.916 29.421,84.524 27.583,86.999 L27.560,86.999 C25.399,91.160 21.111,93.999 16.168,93.999 C11.225,93.999 6.938,91.160 4.777,86.999 L4.772,86.999 C3.716,85.568 2.295,84.441 0.658,83.733 C0.517,82.662 0.396,81.585 0.301,80.499 C3.705,81.487 6.533,83.868 8.157,86.999 ZM143.878,66.999 L143.856,66.999 C141.707,71.160 137.442,73.999 132.526,73.999 C127.610,73.999 123.346,71.160 121.197,66.999 L121.213,66.999 C119.376,64.523 116.463,62.916 113.172,62.916 C109.882,62.916 106.969,64.523 105.131,66.999 L105.108,66.999 C102.947,71.160 98.659,73.999 93.716,73.999 C88.773,73.999 84.486,71.160 82.325,66.999 L82.324,66.999 C80.497,64.523 77.599,62.916 74.327,62.916 C71.054,62.916 68.157,64.523 66.330,66.999 L66.308,66.999 C64.159,71.160 59.894,73.999 54.978,73.999 C50.062,73.999 45.798,71.160 43.649,66.999 L43.666,66.999 C41.828,64.523 38.915,62.916 35.624,62.916 C32.334,62.916 29.421,64.523 27.583,66.999 L27.560,66.999 C25.399,71.160 21.111,73.999 16.168,73.999 C11.225,73.999 6.938,71.160 4.777,66.999 L4.772,66.999 C3.730,65.587 2.331,64.472 0.721,63.762 C0.859,62.766 1.021,61.779 1.198,60.796 C4.200,61.918 6.678,64.147 8.157,66.999 L8.165,66.999 C9.994,69.474 12.893,71.082 16.168,71.082 C19.444,71.082 22.343,69.474 24.172,66.999 L24.179,66.999 C26.350,62.837 30.658,59.999 35.624,59.999 C40.591,59.999 44.899,62.837 47.070,66.999 L47.019,66.999 C48.837,69.474 51.721,71.082 54.978,71.082 C58.236,71.082 61.119,69.474 62.938,66.999 L62.944,66.999 C65.103,62.837 69.387,59.999 74.327,59.999 C79.266,59.999 83.550,62.837 85.709,66.999 L85.713,66.999 C87.541,69.474 90.441,71.082 93.716,71.082 C96.992,71.082 99.891,69.474 101.720,66.999 L101.727,66.999 C103.898,62.837 108.206,59.999 113.172,59.999 C118.139,59.999 122.446,62.837 124.617,66.999 L124.567,66.999 C126.385,69.474 129.269,71.082 132.526,71.082 C135.784,71.082 138.667,69.474 140.486,66.999 L140.492,66.999 C141.871,64.342 144.118,62.229 146.846,61.045 C147.022,62.037 147.179,63.035 147.314,64.041 C145.961,64.752 144.786,65.767 143.878,66.999 ZM8.157,106.998 L8.165,106.998 C9.994,109.474 12.893,111.082 16.168,111.082 C19.444,111.082 22.343,109.474 24.172,106.998 L24.179,106.998 C26.350,102.837 30.658,99.999 35.624,99.999 C40.591,99.999 44.899,102.837 47.070,106.998 L47.019,106.998 C48.837,109.474 51.721,111.082 54.978,111.082 C58.236,111.082 61.119,109.474 62.938,106.998 L62.944,106.998 C65.103,102.837 69.387,99.999 74.327,99.999 C79.266,99.999 83.550,102.837 85.709,106.998 L85.713,106.998 C87.541,109.474 90.441,111.082 93.716,111.082 C96.992,111.082 99.891,109.474 101.720,106.998 L101.727,106.998 C103.898,102.837 108.206,99.999 113.172,99.999 C118.139,99.999 122.446,102.837 124.617,106.998 L124.567,106.998 C126.385,109.474 129.269,111.082 132.526,111.082 C135.411,111.082 138.000,109.817 139.818,107.809 C138.855,109.679 137.819,111.504 136.705,113.278 C135.395,113.742 133.991,113.999 132.526,113.999 C127.610,113.999 123.346,111.160 121.197,106.998 L121.213,106.998 C119.376,104.523 116.463,102.916 113.172,102.916 C109.882,102.916 106.969,104.523 105.131,106.998 L105.108,106.998 C102.947,111.160 98.659,113.999 93.716,113.999 C88.773,113.999 84.486,111.160 82.325,106.998 L82.324,106.998 C80.497,104.523 77.599,102.916 74.327,102.916 C71.054,102.916 68.157,104.523 66.330,106.998 L66.308,106.998 C64.159,111.160 59.894,113.999 54.978,113.999 C50.062,113.999 45.798,111.160 43.649,106.998 L43.666,106.998 C41.828,104.523 38.915,102.916 35.624,102.916 C32.334,102.916 29.421,104.523 27.583,106.998 L27.560,106.998 C25.399,111.160 21.111,113.999 16.168,113.999 C14.355,113.999 12.632,113.614 11.068,112.925 C9.452,110.317 8.001,107.599 6.713,104.790 C7.264,105.472 7.749,106.211 8.157,106.998 ZM132.526,53.999 C127.610,53.999 123.346,51.160 121.197,46.998 L121.213,46.998 C119.376,44.523 116.463,42.916 113.172,42.916 C109.882,42.916 106.969,44.523 105.131,46.998 L105.108,46.998 C102.947,51.160 98.659,53.999 93.716,53.999 C88.773,53.999 84.486,51.160 82.325,46.998 L82.324,46.998 C80.497,44.523 77.599,42.916 74.327,42.916 C71.054,42.916 68.157,44.523 66.330,46.998 L66.308,46.998 C64.159,51.160 59.894,53.999 54.978,53.999 C50.062,53.999 45.798,51.160 43.649,46.998 L43.666,46.998 C41.828,44.523 38.915,42.916 35.624,42.916 C32.334,42.916 29.421,44.523 27.583,46.998 L27.560,46.998 C25.399,51.160 21.111,53.999 16.168,53.999 C11.364,53.999 7.184,51.312 4.969,47.341 C5.373,46.297 5.796,45.265 6.245,44.245 C6.991,45.073 7.637,45.996 8.157,46.998 L8.165,46.998 C9.994,49.474 12.893,51.082 16.168,51.082 C19.444,51.082 22.343,49.474 24.172,46.998 L24.179,46.998 C26.350,42.837 30.658,39.999 35.624,39.999 C40.591,39.999 44.899,42.837 47.070,46.998 L47.019,46.998 C48.837,49.474 51.721,51.082 54.978,51.082 C58.236,51.082 61.119,49.474 62.938,46.998 L62.944,46.998 C65.103,42.837 69.387,39.999 74.327,39.999 C79.266,39.999 83.550,42.837 85.709,46.998 L85.713,46.998 C87.541,49.474 90.441,51.082 93.716,51.082 C96.992,51.082 99.891,49.474 101.720,46.998 L101.727,46.998 C103.898,42.837 108.206,39.999 113.172,39.999 C118.139,39.999 122.446,42.837 124.617,46.998 L124.567,46.998 C126.385,49.474 129.269,51.082 132.526,51.082 C135.784,51.082 138.667,49.474 140.486,46.998 L140.492,46.998 C140.911,46.192 141.411,45.436 141.979,44.740 C142.439,45.808 142.873,46.890 143.284,47.984 C141.003,51.600 137.042,53.999 132.526,53.999 ZM24.172,126.999 L24.179,126.999 C26.350,122.837 30.658,119.999 35.624,119.999 C40.591,119.999 44.899,122.837 47.070,126.999 L47.019,126.999 C48.837,129.474 51.721,131.082 54.978,131.082 C58.236,131.082 61.119,129.474 62.938,126.999 L62.944,126.999 C65.103,122.837 69.387,119.999 74.327,119.999 C79.266,119.999 83.550,122.837 85.709,126.999 L85.713,126.999 C87.541,129.474 90.441,131.082 93.716,131.082 C96.992,131.082 99.891,129.474 101.720,126.999 L101.727,126.999 C103.898,122.837 108.206,119.999 113.172,119.999 C118.139,119.999 122.446,122.837 124.617,126.999 L124.567,126.999 C124.711,127.195 124.873,127.376 125.030,127.561 C124.332,128.226 123.623,128.879 122.900,129.517 C122.243,128.750 121.667,127.908 121.197,126.999 L121.213,126.999 C119.376,124.523 116.463,122.916 113.172,122.916 C109.882,122.916 106.969,124.523 105.131,126.999 L105.108,126.999 C102.947,131.160 98.659,133.999 93.716,133.999 C88.773,133.999 84.486,131.160 82.325,126.999 L82.324,126.999 C80.497,124.523 77.599,122.916 74.327,122.916 C71.054,122.916 68.157,124.523 66.330,126.999 L66.308,126.999 C64.159,131.160 59.894,133.999 54.978,133.999 C50.062,133.999 45.798,131.160 43.649,126.999 L43.666,126.999 C41.828,124.523 38.915,122.916 35.624,122.916 C32.334,122.916 29.421,124.523 27.583,126.999 L27.560,126.999 C27.011,128.055 26.325,129.025 25.526,129.886 C24.796,129.252 24.078,128.607 23.374,127.946 C23.657,127.646 23.926,127.332 24.172,126.999 ZM132.526,33.999 C127.610,33.999 123.346,31.160 121.197,26.999 L121.213,26.999 C119.376,24.524 116.463,22.916 113.172,22.916 C109.882,22.916 106.969,24.524 105.131,26.999 L105.108,26.999 C102.947,31.160 98.659,33.999 93.716,33.999 C88.773,33.999 84.486,31.160 82.325,26.999 L82.324,26.999 C80.497,24.524 77.599,22.916 74.327,22.916 C71.054,22.916 68.157,24.524 66.330,26.999 L66.308,26.999 C64.159,31.160 59.894,33.999 54.978,33.999 C50.062,33.999 45.798,31.160 43.649,26.999 L43.666,26.999 C41.828,24.524 38.915,22.916 35.624,22.916 C32.334,22.916 29.421,24.524 27.583,26.999 L27.560,26.999 C25.399,31.160 21.111,33.999 16.168,33.999 C14.773,33.999 13.433,33.766 12.175,33.348 C12.740,32.490 13.325,31.649 13.924,30.817 C14.646,30.986 15.396,31.082 16.168,31.082 C19.444,31.082 22.343,29.475 24.172,26.999 L24.179,26.999 C26.350,22.837 30.658,19.999 35.624,19.999 C40.591,19.999 44.899,22.837 47.070,26.999 L47.019,26.999 C48.837,29.475 51.721,31.082 54.978,31.082 C58.236,31.082 61.119,29.475 62.938,26.999 L62.944,26.999 C65.103,22.837 69.387,19.999 74.327,19.999 C79.266,19.999 83.550,22.837 85.709,26.999 L85.713,26.999 C87.541,29.475 90.441,31.082 93.716,31.082 C96.992,31.082 99.891,29.475 101.720,26.999 L101.727,26.999 C103.898,22.837 108.206,19.999 113.172,19.999 C118.139,19.999 122.446,22.837 124.617,26.999 L124.567,26.999 C126.385,29.475 129.269,31.082 132.526,31.082 C133.083,31.082 133.624,31.019 134.156,30.929 C134.767,31.781 135.363,32.645 135.938,33.524 C134.852,33.831 133.709,33.999 132.526,33.999 ZM62.938,146.999 L62.944,146.999 C65.103,142.837 69.387,139.999 74.327,139.999 C79.266,139.999 83.550,142.837 85.709,146.999 L85.713,146.999 C85.728,147.020 85.747,147.038 85.762,147.059 C84.716,147.226 83.660,147.363 82.599,147.486 C82.506,147.324 82.411,147.165 82.325,146.999 L82.324,146.999 C80.497,144.524 77.599,142.916 74.327,142.916 C71.054,142.916 68.157,144.524 66.330,146.999 L66.308,146.999 C66.209,147.190 66.101,147.376 65.993,147.561 C64.925,147.446 63.862,147.316 62.808,147.156 C62.850,147.102 62.898,147.054 62.938,146.999 ZM105.131,6.999 L105.108,6.999 C102.947,11.160 98.659,13.999 93.716,13.999 C88.773,13.999 84.486,11.160 82.325,6.999 L82.324,6.999 C80.497,4.524 77.599,2.916 74.327,2.916 C71.054,2.916 68.157,4.524 66.330,6.999 L66.308,6.999 C64.159,11.160 59.894,13.999 54.978,13.999 C50.062,13.999 45.798,11.160 43.649,6.999 L43.666,6.999 C43.573,6.874 43.466,6.762 43.368,6.641 C44.276,6.228 45.191,5.829 46.119,5.451 C46.469,5.943 46.788,6.459 47.070,6.999 L47.019,6.999 C48.837,9.474 51.721,11.082 54.978,11.082 C58.236,11.082 61.119,9.474 62.938,6.999 L62.944,6.999 C65.082,2.879 69.303,0.060 74.180,0.004 C74.514,0.005 74.845,0.024 75.178,0.029 C79.755,0.335 83.675,3.078 85.709,6.999 L85.713,6.999 C87.541,9.474 90.441,11.082 93.716,11.082 C96.992,11.082 99.891,9.474 101.720,6.999 L101.727,6.999 C101.962,6.548 102.227,6.117 102.510,5.699 C103.422,6.080 104.319,6.487 105.211,6.903 C105.186,6.936 105.156,6.965 105.131,6.999 Z"/>
</g>
</svg>