<svg 
 xmlns="http://www.w3.org/2000/svg"
 xmlns:xlink="http://www.w3.org/1999/xlink"
 width="148px" height="148px" viewBox="0 0 148 148" fill="#111111" aria-hidden="true">
<path fill-rule="evenodd"
 d="M8.157,86.999 L8.165,86.999 C9.994,89.475 12.893,91.083 16.168,91.083 C19.444,91.083 22.343,89.475 24.172,86.999 L24.179,86.999 C26.350,82.838 30.658,79.999 35.625,79.999 C40.591,79.999 44.899,82.838 47.070,86.999 L47.019,86.999 C48.837,89.475 51.721,91.083 54.978,91.083 C58.236,91.083 61.119,89.475 62.938,86.999 L62.944,86.999 C65.103,82.838 69.388,79.999 74.327,79.999 C79.266,79.999 83.550,82.838 85.709,86.999 L85.713,86.999 C87.541,89.475 90.441,91.083 93.716,91.083 C96.992,91.083 99.891,89.475 101.720,86.999 L101.727,86.999 C103.898,82.838 108.206,79.999 113.172,79.999 C118.139,79.999 122.447,82.838 124.617,86.999 L124.567,86.999 C126.385,89.475 129.269,91.083 132.526,91.083 C135.784,91.083 138.667,89.475 140.486,86.999 L140.492,86.999 C142.009,84.075 144.577,81.810 147.682,80.718 C147.582,81.836 147.452,82.945 147.302,84.049 C145.954,84.759 144.784,85.772 143.878,86.999 L143.856,86.999 C141.707,91.161 137.442,94.000 132.526,94.000 C127.610,94.000 123.346,91.161 121.197,86.999 L121.214,86.999 C119.376,84.524 116.463,82.916 113.172,82.916 C109.882,82.916 106.969,84.524 105.131,86.999 L105.108,86.999 C102.947,91.161 98.659,94.000 93.716,94.000 C88.773,94.000 84.486,91.161 82.325,86.999 L82.324,86.999 C80.497,84.524 77.600,82.916 74.327,82.916 C71.054,82.916 68.157,84.524 66.330,86.999 L66.308,86.999 C64.159,91.161 59.894,94.000 54.978,94.000 C50.062,94.000 45.798,91.161 43.649,86.999 L43.666,86.999 C41.828,84.524 38.915,82.916 35.625,82.916 C32.334,82.916 29.421,84.524 27.583,86.999 L27.560,86.999 C25.399,91.161 21.111,94.000 16.168,94.000 C11.225,94.000 6.938,91.161 4.777,86.999 L4.772,86.999 C3.716,85.568 2.295,84.442 0.658,83.734 C0.517,82.662 0.396,81.585 0.301,80.500 C3.705,81.487 6.533,83.868 8.157,86.999 ZM143.878,66.999 L143.856,66.999 C141.707,71.160 137.442,73.999 132.526,73.999 C127.610,73.999 123.346,71.160 121.197,66.999 L121.214,66.999 C119.376,64.524 116.463,62.916 113.172,62.916 C109.882,62.916 106.969,64.524 105.131,66.999 L105.108,66.999 C102.947,71.160 98.659,73.999 93.716,73.999 C88.773,73.999 84.486,71.160 82.325,66.999 L82.324,66.999 C80.497,64.524 77.600,62.916 74.327,62.916 C71.054,62.916 68.157,64.524 66.330,66.999 L66.308,66.999 C64.159,71.160 59.894,73.999 54.978,73.999 C50.062,73.999 45.798,71.160 43.649,66.999 L43.666,66.999 C41.828,64.524 38.915,62.916 35.625,62.916 C32.334,62.916 29.421,64.524 27.583,66.999 L27.560,66.999 C25.399,71.160 21.111,73.999 16.168,73.999 C11.225,73.999 6.938,71.160 4.777,66.999 L4.772,66.999 C3.730,65.587 2.331,64.472 0.721,63.762 C0.859,62.767 1.021,61.779 1.198,60.797 C4.200,61.918 6.678,64.147 8.157,66.999 L8.165,66.999 C9.994,69.475 12.893,71.082 16.168,71.082 C19.444,71.082 22.343,69.475 24.172,66.999 L24.179,66.999 C26.350,62.838 30.658,59.999 35.625,59.999 C40.591,59.999 44.899,62.838 47.070,66.999 L47.019,66.999 C48.837,69.475 51.721,71.082 54.978,71.082 C58.236,71.082 61.119,69.475 62.938,66.999 L62.944,66.999 C65.103,62.838 69.388,59.999 74.327,59.999 C79.266,59.999 83.550,62.838 85.709,66.999 L85.713,66.999 C87.541,69.475 90.441,71.082 93.716,71.082 C96.992,71.082 99.891,69.475 101.720,66.999 L101.727,66.999 C103.898,62.838 108.206,59.999 113.172,59.999 C118.139,59.999 122.447,62.838 124.617,66.999 L124.567,66.999 C126.385,69.475 129.269,71.082 132.526,71.082 C135.784,71.082 138.667,69.475 140.486,66.999 L140.492,66.999 C141.871,64.342 144.118,62.229 146.846,61.045 C147.022,62.038 147.179,63.036 147.314,64.041 C145.961,64.752 144.787,65.768 143.878,66.999 ZM8.157,106.999 L8.165,106.999 C9.994,109.474 12.893,111.082 16.168,111.082 C19.444,111.082 22.343,109.474 24.172,106.999 L24.179,106.999 C26.350,102.837 30.658,99.999 35.625,99.999 C40.591,99.999 44.899,102.837 47.070,106.999 L47.019,106.999 C48.837,109.474 51.721,111.082 54.978,111.082 C58.236,111.082 61.119,109.474 62.938,106.999 L62.944,106.999 C65.103,102.837 69.388,99.999 74.327,99.999 C79.266,99.999 83.550,102.837 85.709,106.999 L85.713,106.999 C87.541,109.474 90.441,111.082 93.716,111.082 C96.992,111.082 99.891,109.474 101.720,106.999 L101.727,106.999 C103.898,102.837 108.206,99.999 113.172,99.999 C118.139,99.999 122.447,102.837 124.617,106.999 L124.567,106.999 C126.385,109.474 129.269,111.082 132.526,111.082 C135.411,111.082 138.000,109.818 139.818,107.809 C138.855,109.680 137.819,111.505 136.705,113.278 C135.395,113.742 133.991,113.999 132.526,113.999 C127.610,113.999 123.346,111.160 121.197,106.999 L121.214,106.999 C119.376,104.524 116.463,102.916 113.172,102.916 C109.882,102.916 106.969,104.524 105.131,106.999 L105.108,106.999 C102.947,111.160 98.659,113.999 93.716,113.999 C88.773,113.999 84.486,111.160 82.325,106.999 L82.324,106.999 C80.497,104.524 77.600,102.916 74.327,102.916 C71.054,102.916 68.157,104.524 66.330,106.999 L66.308,106.999 C64.159,111.160 59.894,113.999 54.978,113.999 C50.062,113.999 45.798,111.160 43.649,106.999 L43.666,106.999 C41.828,104.524 38.915,102.916 35.625,102.916 C32.334,102.916 29.421,104.524 27.583,106.999 L27.560,106.999 C25.399,111.160 21.111,113.999 16.168,113.999 C14.355,113.999 12.632,113.614 11.068,112.925 C9.452,110.318 8.001,107.600 6.713,104.790 C7.264,105.472 7.749,106.211 8.157,106.999 ZM132.526,53.999 C127.610,53.999 123.346,51.160 121.197,46.999 L121.214,46.999 C119.376,44.524 116.463,42.916 113.172,42.916 C109.882,42.916 106.969,44.524 105.131,46.999 L105.108,46.999 C102.947,51.160 98.659,53.999 93.716,53.999 C88.773,53.999 84.486,51.160 82.325,46.999 L82.324,46.999 C80.497,44.524 77.600,42.916 74.327,42.916 C71.054,42.916 68.157,44.524 66.330,46.999 L66.308,46.999 C64.159,51.160 59.894,53.999 54.978,53.999 C50.062,53.999 45.798,51.160 43.649,46.999 L43.666,46.999 C41.828,44.524 38.915,42.916 35.625,42.916 C32.334,42.916 29.421,44.524 27.583,46.999 L27.560,46.999 C25.399,51.160 21.111,53.999 16.168,53.999 C11.364,53.999 7.184,51.313 4.969,47.341 C5.373,46.298 5.796,45.265 6.245,44.245 C6.991,45.073 7.637,45.996 8.157,46.999 L8.165,46.999 C9.994,49.474 12.893,51.082 16.168,51.082 C19.444,51.082 22.343,49.474 24.172,46.999 L24.179,46.999 C26.350,42.837 30.658,39.999 35.625,39.999 C40.591,39.999 44.899,42.837 47.070,46.999 L47.019,46.999 C48.837,49.474 51.721,51.082 54.978,51.082 C58.236,51.082 61.119,49.474 62.938,46.999 L62.944,46.999 C65.103,42.837 69.388,39.999 74.327,39.999 C79.266,39.999 83.550,42.837 85.709,46.999 L85.713,46.999 C87.541,49.474 90.441,51.082 93.716,51.082 C96.992,51.082 99.891,49.474 101.720,46.999 L101.727,46.999 C103.898,42.837 108.206,39.999 113.172,39.999 C118.139,39.999 122.447,42.837 124.617,46.999 L124.567,46.999 C126.385,49.474 129.269,51.082 132.526,51.082 C135.784,51.082 138.667,49.474 140.486,46.999 L140.492,46.999 C140.911,46.192 141.411,45.437 141.979,44.740 C142.439,45.809 142.873,46.891 143.284,47.985 C141.003,51.600 137.042,53.999 132.526,53.999 ZM24.172,126.999 L24.179,126.999 C26.350,122.837 30.658,119.999 35.625,119.999 C40.591,119.999 44.899,122.837 47.070,126.999 L47.019,126.999 C48.837,129.475 51.721,131.082 54.978,131.082 C58.236,131.082 61.119,129.475 62.938,126.999 L62.944,126.999 C65.103,122.837 69.388,119.999 74.327,119.999 C79.266,119.999 83.550,122.837 85.709,126.999 L85.713,126.999 C87.541,129.475 90.441,131.082 93.716,131.082 C96.992,131.082 99.891,129.475 101.720,126.999 L101.727,126.999 C103.898,122.837 108.206,119.999 113.172,119.999 C118.139,119.999 122.447,122.837 124.617,126.999 L124.567,126.999 C124.711,127.195 124.873,127.376 125.030,127.561 C124.332,128.226 123.623,128.880 122.900,129.517 C122.243,128.750 121.667,127.908 121.197,126.999 L121.214,126.999 C119.376,124.524 116.463,122.916 113.172,122.916 C109.882,122.916 106.969,124.524 105.131,126.999 L105.108,126.999 C102.947,131.160 98.659,133.999 93.716,133.999 C88.773,133.999 84.486,131.160 82.325,126.999 L82.324,126.999 C80.497,124.524 77.600,122.916 74.327,122.916 C71.054,122.916 68.157,124.524 66.330,126.999 L66.308,126.999 C64.159,131.160 59.894,133.999 54.978,133.999 C50.062,133.999 45.798,131.160 43.649,126.999 L43.666,126.999 C41.828,124.524 38.915,122.916 35.625,122.916 C32.334,122.916 29.421,124.524 27.583,126.999 L27.560,126.999 C27.011,128.055 26.325,129.025 25.526,129.886 C24.796,129.253 24.078,128.607 23.374,127.946 C23.657,127.646 23.926,127.332 24.172,126.999 ZM132.526,34.000 C127.610,34.000 123.346,31.161 121.197,26.999 L121.214,26.999 C119.376,24.524 116.463,22.916 113.172,22.916 C109.882,22.916 106.969,24.524 105.131,26.999 L105.108,26.999 C102.947,31.161 98.659,34.000 93.716,34.000 C88.773,34.000 84.486,31.161 82.325,26.999 L82.324,26.999 C80.497,24.524 77.600,22.916 74.327,22.916 C71.054,22.916 68.157,24.524 66.330,26.999 L66.308,26.999 C64.159,31.161 59.894,34.000 54.978,34.000 C50.062,34.000 45.798,31.161 43.649,26.999 L43.666,26.999 C41.828,24.524 38.915,22.916 35.625,22.916 C32.334,22.916 29.421,24.524 27.583,26.999 L27.560,26.999 C25.399,31.161 21.111,34.000 16.168,34.000 C14.773,34.000 13.433,33.766 12.175,33.348 C12.740,32.491 13.325,31.649 13.924,30.817 C14.646,30.986 15.396,31.083 16.168,31.083 C19.444,31.083 22.343,29.475 24.172,26.999 L24.179,26.999 C26.350,22.838 30.658,19.999 35.625,19.999 C40.591,19.999 44.899,22.838 47.070,26.999 L47.019,26.999 C48.837,29.475 51.721,31.083 54.978,31.083 C58.236,31.083 61.119,29.475 62.938,26.999 L62.944,26.999 C65.103,22.838 69.388,19.999 74.327,19.999 C79.266,19.999 83.550,22.838 85.709,26.999 L85.713,26.999 C87.541,29.475 90.441,31.083 93.716,31.083 C96.992,31.083 99.891,29.475 101.720,26.999 L101.727,26.999 C103.898,22.838 108.206,19.999 113.172,19.999 C118.139,19.999 122.447,22.838 124.617,26.999 L124.567,26.999 C126.385,29.475 129.269,31.083 132.526,31.083 C133.083,31.083 133.624,31.020 134.156,30.929 C134.767,31.782 135.363,32.645 135.938,33.524 C134.852,33.832 133.709,34.000 132.526,34.000 ZM62.938,146.999 L62.944,146.999 C65.103,142.838 69.388,139.999 74.327,139.999 C79.266,139.999 83.550,142.838 85.709,146.999 L85.713,146.999 C85.728,147.020 85.747,147.038 85.762,147.059 C84.716,147.226 83.660,147.363 82.599,147.486 C82.506,147.325 82.411,147.165 82.325,146.999 L82.324,146.999 C80.497,144.524 77.600,142.916 74.327,142.916 C71.054,142.916 68.157,144.524 66.330,146.999 L66.308,146.999 C66.209,147.190 66.101,147.376 65.993,147.562 C64.925,147.447 63.862,147.317 62.808,147.157 C62.850,147.103 62.898,147.054 62.938,146.999 ZM105.131,6.999 L105.108,6.999 C102.947,11.160 98.659,13.999 93.716,13.999 C88.773,13.999 84.486,11.160 82.325,6.999 L82.324,6.999 C80.497,4.524 77.600,2.916 74.327,2.916 C71.054,2.916 68.157,4.524 66.330,6.999 L66.308,6.999 C64.159,11.160 59.894,13.999 54.978,13.999 C50.062,13.999 45.798,11.160 43.649,6.999 L43.666,6.999 C43.573,6.874 43.466,6.762 43.368,6.642 C44.276,6.228 45.191,5.829 46.119,5.451 C46.469,5.943 46.788,6.459 47.070,6.999 L47.019,6.999 C48.837,9.475 51.721,11.082 54.978,11.082 C58.236,11.082 61.119,9.475 62.938,6.999 L62.944,6.999 C65.082,2.879 69.303,0.061 74.180,0.004 C74.514,0.005 74.845,0.024 75.178,0.030 C79.755,0.335 83.675,3.079 85.709,6.999 L85.713,6.999 C87.541,9.475 90.441,11.082 93.716,11.082 C96.992,11.082 99.891,9.475 101.720,6.999 L101.727,6.999 C101.962,6.548 102.227,6.117 102.510,5.699 C103.422,6.080 104.319,6.488 105.211,6.903 C105.186,6.936 105.156,6.966 105.131,6.999 Z"/>
</svg>