<svg width="2732" height="791" viewBox="0 0 2732 791" fill="none" xmlns="http://www.w3.org/2000/svg">
<path d="M587.088 473.48C573.168 473.48 560.756 470.464 549.852 464.432C539.18 458.168 530.712 449.584 524.448 438.68C518.416 427.776 515.4 415.248 515.4 401.096V288.692H563.076V394.136C563.076 405.736 566.44 415.016 573.168 421.976C580.128 428.936 589.408 432.416 601.008 432.416C608.896 432.416 615.972 430.908 622.236 427.892C628.732 424.644 634.068 420.12 638.244 414.32V288.692H685.92V470H638.244V455.384C624.324 467.448 607.272 473.48 587.088 473.48ZM709.157 470V288.692H756.833V303.656C770.521 291.36 787.457 285.212 807.641 285.212C821.793 285.212 834.205 288.344 844.877 294.608C855.781 300.64 864.249 309.108 870.281 320.012C876.313 330.684 879.329 343.212 879.329 357.596V470H831.653V364.556C831.653 352.724 828.289 343.444 821.561 336.716C814.833 329.756 805.669 326.276 794.069 326.276C785.949 326.276 778.757 327.9 772.493 331.148C766.229 334.164 761.009 338.572 756.833 344.372V470H709.157ZM901.522 470V288.692H949.198V470H901.522ZM925.186 267.116C917.762 267.116 911.382 264.448 906.046 259.112C900.71 253.776 898.042 247.396 898.042 239.972C898.042 232.316 900.71 225.936 906.046 220.832C911.382 215.496 917.762 212.828 925.186 212.828C932.842 212.828 939.222 215.496 944.326 220.832C949.662 225.936 952.33 232.316 952.33 239.972C952.33 247.396 949.662 253.776 944.326 259.112C939.222 264.448 932.842 267.116 925.186 267.116ZM1031.38 470L953.771 288.692H1005.62L1055.39 409.448L1104.8 288.692H1155.61L1077.66 470H1031.38ZM1244.15 473.48C1226.06 473.48 1209.58 469.304 1194.74 460.952C1180.12 452.6 1168.52 441.348 1159.94 427.196C1151.35 413.044 1147.06 397.152 1147.06 379.52C1147.06 361.888 1151.12 345.996 1159.24 331.844C1167.59 317.692 1178.84 306.44 1193 298.088C1207.15 289.736 1222.92 285.56 1240.32 285.56C1257.72 285.56 1273.15 289.852 1286.61 298.436C1300.06 307.02 1310.62 318.62 1318.28 333.236C1326.16 347.852 1330.11 364.44 1330.11 383V395.528H1195.78C1197.87 402.72 1201.23 409.216 1205.87 415.016C1210.74 420.816 1216.66 425.34 1223.62 428.588C1230.81 431.836 1238.47 433.46 1246.59 433.46C1254.71 433.46 1262.13 432.184 1268.86 429.632C1275.82 427.08 1281.74 423.484 1286.61 418.844L1317.93 447.38C1306.79 456.428 1295.31 463.04 1283.48 467.216C1271.88 471.392 1258.77 473.48 1244.15 473.48ZM1195.08 361.424H1283.13C1281.5 354.232 1278.49 347.968 1274.08 342.632C1269.9 337.064 1264.8 332.772 1258.77 329.756C1252.97 326.508 1246.47 324.884 1239.28 324.884C1231.86 324.884 1225.13 326.392 1219.1 329.408C1213.06 332.424 1207.96 336.716 1203.78 342.284C1199.84 347.62 1196.94 354 1195.08 361.424ZM1345.4 470V288.692H1393.08V308.876C1398.88 300.988 1405.84 294.956 1413.96 290.78C1422.08 286.604 1431.24 284.516 1441.45 284.516C1450.26 284.748 1456.88 286.14 1461.28 288.692V330.452C1457.8 328.828 1453.98 327.668 1449.8 326.972C1445.62 326.044 1441.33 325.58 1436.92 325.58C1427.64 325.58 1419.18 327.9 1411.52 332.54C1403.86 337.18 1397.72 343.792 1393.08 352.376V470H1345.4ZM1543.43 473.48C1526.73 473.48 1511.3 471.392 1497.15 467.216C1483 462.808 1470.7 456.544 1460.26 448.424L1483.92 416.756C1494.36 423.716 1504.34 428.936 1513.85 432.416C1523.6 435.896 1533.22 437.636 1542.74 437.636C1553.41 437.636 1561.88 435.896 1568.14 432.416C1574.64 428.704 1577.88 423.948 1577.88 418.148C1577.88 413.508 1576.03 409.796 1572.32 407.012C1568.84 404.228 1563.15 402.256 1555.26 401.096L1520.46 395.876C1502.37 393.092 1488.68 387.292 1479.4 378.476C1470.12 369.428 1465.48 357.596 1465.48 342.98C1465.48 331.148 1468.5 321.056 1474.53 312.704C1480.79 304.12 1489.49 297.508 1500.63 292.868C1512 287.996 1525.45 285.56 1541 285.56C1554.22 285.56 1567.1 287.416 1579.62 291.128C1592.38 294.84 1604.33 300.524 1615.47 308.18L1592.5 339.152C1582.52 332.888 1573.01 328.364 1563.96 325.58C1554.92 322.796 1545.75 321.404 1536.47 321.404C1527.89 321.404 1520.93 323.028 1515.59 326.276C1510.49 329.524 1507.94 333.816 1507.94 339.152C1507.94 344.024 1509.79 347.852 1513.5 350.636C1517.22 353.42 1523.6 355.392 1532.64 356.552L1567.1 361.772C1585.19 364.324 1599 370.124 1608.51 379.172C1618.02 387.988 1622.78 399.472 1622.78 413.624C1622.78 425.224 1619.3 435.548 1612.34 444.596C1605.38 453.412 1595.98 460.488 1584.15 465.824C1572.32 470.928 1558.74 473.48 1543.43 473.48ZM1692.06 473.132C1679.07 473.132 1667.59 470.812 1657.61 466.172C1647.63 461.3 1639.86 454.688 1634.29 446.336C1628.73 437.984 1625.94 428.356 1625.94 417.452C1625.94 400.052 1632.44 386.596 1645.43 377.084C1658.65 367.34 1676.75 362.468 1699.72 362.468C1715.49 362.468 1730.34 364.904 1744.26 369.776V356.552C1744.26 346.112 1741.01 338.224 1734.52 332.888C1728.02 327.552 1718.51 324.884 1705.98 324.884C1698.33 324.884 1690.09 326.16 1681.27 328.712C1672.46 331.032 1662.25 334.744 1650.65 339.848L1633.25 304.7C1647.63 298.204 1661.32 293.332 1674.31 290.084C1687.54 286.836 1700.76 285.212 1713.99 285.212C1738.35 285.212 1757.25 291.128 1770.71 302.96C1784.4 314.56 1791.24 331.032 1791.24 352.376V470H1744.26V457.124C1736.84 462.692 1728.83 466.752 1720.25 469.304C1711.67 471.856 1702.27 473.132 1692.06 473.132ZM1671.18 416.408C1671.18 423.368 1674.2 428.936 1680.23 433.112C1686.26 437.056 1694.27 439.028 1704.24 439.028C1712.13 439.028 1719.44 438.1 1726.17 436.244C1732.89 434.156 1738.93 431.14 1744.26 427.196V400.748C1738.46 398.428 1732.43 396.688 1726.17 395.528C1719.9 394.368 1713.17 393.788 1705.98 393.788C1695.08 393.788 1686.49 395.876 1680.23 400.052C1674.2 403.996 1671.18 409.448 1671.18 416.408ZM1813.4 470V226.4L1861.08 218.396V470H1813.4ZM1940.53 470V226.4L1988.21 218.396V303.308C2002.59 291.94 2019.53 286.256 2039.02 286.256C2056.19 286.256 2071.73 290.432 2085.65 298.784C2099.57 307.136 2110.59 318.388 2118.71 332.54C2127.06 346.46 2131.24 362.12 2131.24 379.52C2131.24 396.92 2127.06 412.696 2118.71 426.848C2110.36 440.768 2099.11 451.904 2084.95 460.256C2070.8 468.376 2055.03 472.436 2037.63 472.436C2028.58 472.436 2019.76 471.16 2011.18 468.608C2002.59 466.056 1994.71 462.344 1987.51 457.472V470H1940.53ZM2031.36 432.068C2041.34 432.068 2050.27 429.748 2058.16 425.108C2066.28 420.468 2072.66 414.204 2077.3 406.316C2081.94 398.428 2084.26 389.496 2084.26 379.52C2084.26 369.544 2081.94 360.612 2077.3 352.724C2072.66 344.604 2066.28 338.34 2058.16 333.932C2050.27 329.292 2041.34 326.972 2031.36 326.972C2022.55 326.972 2014.43 328.48 2007 331.496C1999.81 334.28 1993.55 338.572 1988.21 344.372V415.016C1993.31 420.352 1999.58 424.528 2007 427.544C2014.66 430.56 2022.78 432.068 2031.36 432.068ZM2146.15 470V226.4L2193.83 218.396V470H2146.15ZM2287.49 473.48C2273.57 473.48 2261.16 470.464 2250.25 464.432C2239.58 458.168 2231.11 449.584 2224.85 438.68C2218.82 427.776 2215.8 415.248 2215.8 401.096V288.692H2263.48V394.136C2263.48 405.736 2266.84 415.016 2273.57 421.976C2280.53 428.936 2289.81 432.416 2301.41 432.416C2309.3 432.416 2316.37 430.908 2322.64 427.892C2329.13 424.644 2334.47 420.12 2338.65 414.32V288.692H2386.32V470H2338.65V455.384C2324.73 467.448 2307.67 473.48 2287.49 473.48ZM2498.3 473.48C2480.2 473.48 2463.73 469.304 2448.88 460.952C2434.27 452.6 2422.67 441.348 2414.08 427.196C2405.5 413.044 2401.21 397.152 2401.21 379.52C2401.21 361.888 2405.27 345.996 2413.39 331.844C2421.74 317.692 2432.99 306.44 2447.14 298.088C2461.29 289.736 2477.07 285.56 2494.47 285.56C2511.87 285.56 2527.3 289.852 2540.75 298.436C2554.21 307.02 2564.77 318.62 2572.42 333.236C2580.31 347.852 2584.25 364.44 2584.25 383V395.528H2449.93C2452.01 402.72 2455.38 409.216 2460.02 415.016C2464.89 420.816 2470.81 425.34 2477.77 428.588C2484.96 431.836 2492.61 433.46 2500.73 433.46C2508.85 433.46 2516.28 432.184 2523.01 429.632C2529.97 427.08 2535.88 423.484 2540.75 418.844L2572.07 447.38C2560.94 456.428 2549.45 463.04 2537.62 467.216C2526.02 471.392 2512.91 473.48 2498.3 473.48ZM2449.23 361.424H2537.27C2535.65 354.232 2532.63 347.968 2528.23 342.632C2524.05 337.064 2518.95 332.772 2512.91 329.756C2507.11 326.508 2500.62 324.884 2493.43 324.884C2486 324.884 2479.27 326.392 2473.24 329.408C2467.21 332.424 2462.11 336.716 2457.93 342.284C2453.99 347.62 2451.09 354 2449.23 361.424Z" fill="white"/>
<path d="M257 529H433V263C433 246.431 419.569 233 403 233H167C150.431 233 137 246.431 137 263V409C137 475.274 190.726 529 257 529Z" fill="url(#paint0_linear_1268_471)"/>
<g filter="url(#filter0_b_1268_471)">
<path d="M223.335 389.792V303.628V288H207.667C199.015 288 192 294.997 192 303.628V389.792C192 435.747 229.348 473 275.419 473H377V303.628V288H361.333H345.665V303.628V441.744H275.419C246.654 441.744 223.335 418.485 223.335 389.792Z" fill="white"/>
</g>
<g filter="url(#filter1_b_1268_471)">
<rect x="377" y="288" width="10" height="185" fill="white" fill-opacity="0.3"/>
</g>
<g filter="url(#filter2_b_1268_471)">
<rect x="387" y="288" width="10" height="185" fill="white" fill-opacity="0.1"/>
</g>
<g filter="url(#filter3_b_1268_471)">
<path fill-rule="evenodd" clip-rule="evenodd" d="M377 441.744H377V473H377V441.744ZM275.335 389.792V303.628V288H244L244 389.792C244 408.476 250.174 425.722 260.598 439.611C265.296 440.999 270.27 441.744 275.419 441.744H327.419C298.654 441.744 275.335 418.485 275.335 389.792Z" fill="white" fill-opacity="0.1"/>
</g>
<g filter="url(#filter4_b_1268_471)">
<path fill-rule="evenodd" clip-rule="evenodd" d="M377 288H371.665L377 288V303.628V473H377V288ZM249.335 303.628V389.792C249.335 418.485 272.654 441.744 301.419 441.744L275.419 441.744C256.317 441.744 239.617 431.487 230.552 416.194C225.967 408.457 223.335 399.431 223.335 389.792V303.628V288H218V288H249.335V303.628Z" fill="white" fill-opacity="0.3"/>
</g>
<rect x="498" y="529" width="1689" height="145" rx="72.5" fill="url(#paint1_linear_1268_471)"/>
<path d="M568.112 636L582.416 568.8H609.008C612.976 568.8 616.368 569.504 619.184 570.912C622.064 572.256 624.272 574.176 625.808 576.672C627.408 579.168 628.208 582.144 628.208 585.6C628.208 589.888 627.184 593.696 625.136 597.024C623.088 600.352 620.272 602.976 616.688 604.896C613.104 606.752 609.008 607.68 604.4 607.68H581.36L575.312 636H568.112ZM582.704 601.248H604.304C607.568 601.248 610.448 600.608 612.944 599.328C615.504 598.048 617.488 596.288 618.896 594.048C620.304 591.744 621.008 589.12 621.008 586.176C621.008 582.784 619.856 580.16 617.552 578.304C615.248 576.384 612.048 575.424 607.952 575.424H588.176L582.704 601.248ZM648.085 636.96C643.797 636.96 639.957 635.968 636.565 633.984C633.237 632 630.581 629.28 628.597 625.824C626.677 622.304 625.716 618.368 625.716 614.016C625.716 610.368 626.388 606.912 627.733 603.648C629.076 600.384 630.933 597.504 633.301 595.008C635.733 592.512 638.485 590.56 641.557 589.152C644.693 587.68 648.021 586.944 651.541 586.944C655.829 586.944 659.637 587.936 662.965 589.92C666.357 591.904 669.013 594.624 670.933 598.08C672.917 601.536 673.909 605.472 673.909 609.888C673.909 613.536 673.237 616.992 671.893 620.256C670.549 623.52 668.661 626.4 666.229 628.896C663.861 631.392 661.109 633.376 657.973 634.848C654.901 636.256 651.605 636.96 648.085 636.96ZM648.373 630.624C650.933 630.624 653.333 630.112 655.573 629.088C657.813 628 659.797 626.528 661.525 624.672C663.253 622.752 664.597 620.576 665.557 618.144C666.581 615.648 667.093 613.024 667.093 610.272C667.093 607.008 666.389 604.096 664.981 601.536C663.637 598.976 661.749 596.96 659.317 595.488C656.949 594.016 654.261 593.28 651.253 593.28C648.693 593.28 646.293 593.824 644.053 594.912C641.813 595.936 639.829 597.408 638.101 599.328C636.373 601.184 634.997 603.36 633.972 605.856C633.013 608.288 632.533 610.88 632.533 613.632C632.533 616.832 633.205 619.744 634.549 622.368C635.957 624.928 637.845 626.944 640.213 628.416C642.645 629.888 645.365 630.624 648.373 630.624ZM682.107 636L678.939 587.904H685.564L687.58 626.304L707.452 587.904H713.692L717.244 626.304L735.58 587.904H742.396L718.972 636H712.156L708.7 597.504L688.732 636H682.107ZM761.266 636.864C756.786 636.864 752.786 635.904 749.266 633.984C745.746 632.064 742.994 629.408 741.01 626.016C739.026 622.56 738.034 618.656 738.034 614.304C738.034 610.592 738.674 607.104 739.954 603.84C741.298 600.512 743.122 597.6 745.426 595.104C747.794 592.608 750.482 590.656 753.49 589.248C756.562 587.84 759.826 587.136 763.282 587.136C767.186 587.136 770.674 588.128 773.746 590.112C776.818 592.096 779.25 594.784 781.042 598.176C782.834 601.568 783.73 605.44 783.73 609.792C783.73 610.432 783.698 611.136 783.634 611.904C783.634 612.608 783.57 613.344 783.442 614.112H744.946C745.01 617.312 745.778 620.16 747.25 622.656C748.722 625.152 750.706 627.136 753.202 628.608C755.698 630.016 758.482 630.72 761.554 630.72C763.922 630.72 766.226 630.368 768.466 629.664C770.706 628.96 772.722 628 774.514 626.784L778.162 631.68C775.538 633.472 772.85 634.784 770.098 635.616C767.346 636.448 764.402 636.864 761.266 636.864ZM745.618 608.448H777.106C776.914 605.504 776.178 602.912 774.898 600.672C773.618 598.432 771.922 596.672 769.81 595.392C767.698 594.048 765.298 593.376 762.61 593.376C759.922 593.376 757.394 594.048 755.026 595.392C752.722 596.672 750.738 598.464 749.074 600.768C747.474 603.008 746.322 605.568 745.618 608.448ZM784.283 636L794.555 587.904H801.371L800.123 593.952C801.915 591.712 803.995 589.984 806.363 588.768C808.731 587.488 811.259 586.848 813.947 586.848C815.931 586.848 817.627 587.136 819.035 587.712L817.691 594.24C817.051 593.92 816.219 593.664 815.195 593.472C814.171 593.28 813.179 593.184 812.219 593.184C806.651 593.184 802.011 596.256 798.299 602.4L791.195 636H784.283ZM838.055 636.864C833.575 636.864 829.575 635.904 826.055 633.984C822.535 632.064 819.783 629.408 817.799 626.016C815.815 622.56 814.823 618.656 814.823 614.304C814.823 610.592 815.463 607.104 816.743 603.84C818.087 600.512 819.911 597.6 822.215 595.104C824.583 592.608 827.271 590.656 830.279 589.248C833.351 587.84 836.615 587.136 840.071 587.136C843.975 587.136 847.463 588.128 850.535 590.112C853.607 592.096 856.039 594.784 857.831 598.176C859.623 601.568 860.519 605.44 860.519 609.792C860.519 610.432 860.487 611.136 860.423 611.904C860.423 612.608 860.359 613.344 860.231 614.112H821.735C821.799 617.312 822.567 620.16 824.039 622.656C825.511 625.152 827.495 627.136 829.991 628.608C832.487 630.016 835.271 630.72 838.343 630.72C840.711 630.72 843.015 630.368 845.255 629.664C847.495 628.96 849.511 628 851.303 626.784L854.951 631.68C852.327 633.472 849.639 634.784 846.887 635.616C844.135 636.448 841.191 636.864 838.055 636.864ZM822.407 608.448H853.895C853.703 605.504 852.967 602.912 851.687 600.672C850.407 598.432 848.711 596.672 846.599 595.392C844.487 594.048 842.087 593.376 839.399 593.376C836.711 593.376 834.183 594.048 831.815 595.392C829.511 596.672 827.527 598.464 825.863 600.768C824.263 603.008 823.111 605.568 822.407 608.448ZM885.168 636.768C881.136 636.768 877.52 635.808 874.32 633.888C871.12 631.968 868.592 629.344 866.736 626.016C864.88 622.688 863.952 618.912 863.952 614.688C863.952 610.912 864.624 607.392 865.968 604.128C867.376 600.8 869.296 597.888 871.728 595.392C874.16 592.832 876.976 590.848 880.176 589.44C883.376 587.968 886.8 587.232 890.448 587.232C893.712 587.232 896.72 587.84 899.472 589.056C902.288 590.208 904.688 591.904 906.672 594.144L912.048 568.8L919.248 567.168L904.656 636H897.744L898.416 632.64C894.384 635.392 889.968 636.768 885.168 636.768ZM886.704 630.624C889.136 630.624 891.504 630.176 893.808 629.28C896.112 628.32 898.16 627.008 899.952 625.344L905.136 601.152C903.856 598.848 901.904 596.992 899.28 595.584C896.656 594.176 893.776 593.472 890.64 593.472C886.992 593.472 883.664 594.4 880.656 596.256C877.648 598.112 875.248 600.608 873.456 603.744C871.664 606.816 870.768 610.272 870.768 614.112C870.768 617.312 871.44 620.16 872.784 622.656C874.192 625.152 876.08 627.104 878.448 628.512C880.88 629.92 883.632 630.624 886.704 630.624ZM954.186 636.864C950.922 636.864 947.883 636.256 945.067 635.04C942.314 633.824 939.946 632.096 937.962 629.856L936.618 636H929.802L944.106 568.8L951.306 567.168L946.218 591.264C950.187 588.576 954.571 587.232 959.371 587.232C963.467 587.232 967.083 588.192 970.219 590.112C973.419 592.032 975.947 594.656 977.803 597.984C979.659 601.312 980.587 605.088 980.587 609.312C980.587 613.088 979.883 616.64 978.475 619.968C977.131 623.296 975.243 626.24 972.811 628.8C970.443 631.296 967.659 633.28 964.459 634.752C961.259 636.16 957.834 636.864 954.186 636.864ZM953.995 630.528C957.707 630.528 961.035 629.6 963.979 627.744C966.987 625.888 969.355 623.392 971.083 620.256C972.875 617.12 973.771 613.664 973.771 609.888C973.771 606.688 973.099 603.872 971.755 601.44C970.411 598.944 968.523 596.992 966.09 595.584C963.722 594.176 961.002 593.472 957.93 593.472C955.434 593.472 953.034 593.92 950.731 594.816C948.49 595.648 946.442 596.896 944.586 598.56L939.498 622.752C940.778 625.12 942.73 627.008 945.354 628.416C947.978 629.824 950.859 630.528 953.995 630.528ZM977.02 656.544C976.124 656.544 975.228 656.48 974.332 656.352C973.436 656.224 972.572 656.032 971.74 655.776L973.084 649.44C973.596 649.632 974.236 649.76 975.004 649.824C975.708 649.952 976.444 650.016 977.212 650.016C979.26 650.016 981.148 649.44 982.876 648.288C984.604 647.136 986.236 645.376 987.772 643.008L992.38 635.904L983.164 587.904H990.556L997.756 627.744L1022.52 587.904H1030.3L994.684 644.448C991.996 648.736 989.276 651.808 986.524 653.664C983.772 655.584 980.604 656.544 977.02 656.544ZM1059.28 636.864C1054.8 636.864 1051.53 635.808 1049.48 633.696C1047.5 631.52 1046.92 628.48 1047.76 624.576L1054.19 593.952H1044.01L1045.36 587.904H1055.44L1058.03 575.712L1065.42 573.888L1062.44 587.904H1076.46L1075.12 593.952H1061.1L1054.86 623.04C1054.28 625.792 1054.54 627.776 1055.63 628.992C1056.72 630.144 1058.83 630.72 1061.96 630.72C1062.86 630.72 1063.72 630.656 1064.56 630.528C1065.39 630.336 1066.38 630.08 1067.53 629.76L1066.28 636C1065.26 636.256 1064.11 636.448 1062.83 636.576C1061.61 636.768 1060.43 636.864 1059.28 636.864ZM1070.07 636L1084.37 568.8L1091.57 567.168L1086.2 592.704C1090.36 588.928 1095.19 587.04 1100.69 587.04C1104.47 587.04 1107.64 587.904 1110.2 589.632C1112.82 591.36 1114.68 593.728 1115.76 596.736C1116.85 599.744 1116.98 603.168 1116.15 607.008L1110 636H1103.09L1109.04 607.872C1110 603.456 1109.49 599.904 1107.51 597.216C1105.59 594.528 1102.55 593.184 1098.39 593.184C1095.76 593.184 1093.27 593.76 1090.9 594.912C1088.6 596.064 1086.52 597.728 1084.66 599.904L1076.98 636H1070.07ZM1143.9 636.864C1139.42 636.864 1135.42 635.904 1131.9 633.984C1128.38 632.064 1125.63 629.408 1123.64 626.016C1121.66 622.56 1120.67 618.656 1120.67 614.304C1120.67 610.592 1121.31 607.104 1122.59 603.84C1123.93 600.512 1125.75 597.6 1128.06 595.104C1130.43 592.608 1133.11 590.656 1136.12 589.248C1139.19 587.84 1142.46 587.136 1145.91 587.136C1149.82 587.136 1153.31 588.128 1156.38 590.112C1159.45 592.096 1161.88 594.784 1163.67 598.176C1165.47 601.568 1166.36 605.44 1166.36 609.792C1166.36 610.432 1166.33 611.136 1166.27 611.904C1166.27 612.608 1166.2 613.344 1166.07 614.112H1127.58C1127.64 617.312 1128.41 620.16 1129.88 622.656C1131.35 625.152 1133.34 627.136 1135.83 628.608C1138.33 630.016 1141.11 630.72 1144.19 630.72C1146.55 630.72 1148.86 630.368 1151.1 629.664C1153.34 628.96 1155.35 628 1157.15 626.784L1160.79 631.68C1158.17 633.472 1155.48 634.784 1152.73 635.616C1149.98 636.448 1147.03 636.864 1143.9 636.864ZM1128.25 608.448H1159.74C1159.55 605.504 1158.81 602.912 1157.53 600.672C1156.25 598.432 1154.55 596.672 1152.44 595.392C1150.33 594.048 1147.93 593.376 1145.24 593.376C1142.55 593.376 1140.03 594.048 1137.66 595.392C1135.35 596.672 1133.37 598.464 1131.71 600.768C1130.11 603.008 1128.95 605.568 1128.25 608.448ZM1190.42 636L1199.35 593.952H1188.31L1189.56 587.904H1200.69L1202.8 577.824C1203.76 573.408 1205.62 570.048 1208.37 567.744C1211.12 565.376 1214.64 564.192 1218.93 564.192C1220.28 564.192 1221.56 564.288 1222.77 564.48C1224.05 564.672 1225.2 564.992 1226.23 565.44L1224.98 571.776C1223.96 571.328 1222.93 571.008 1221.91 570.816C1220.95 570.624 1219.83 570.528 1218.55 570.528C1215.99 570.528 1214 571.136 1212.6 572.352C1211.19 573.568 1210.2 575.584 1209.62 578.4L1207.6 587.904H1221.52L1220.18 593.952H1206.26L1197.33 636H1190.42ZM1234.31 636.864C1230.54 636.864 1227.34 636 1224.71 634.272C1222.09 632.48 1220.23 630.08 1219.14 627.072C1218.12 624.064 1217.99 620.64 1218.76 616.8L1224.9 587.904H1231.82L1225.86 616.032C1224.9 620.448 1225.42 624 1227.4 626.688C1229.38 629.376 1232.42 630.72 1236.52 630.72C1239.21 630.72 1241.74 630.144 1244.1 628.992C1246.47 627.776 1248.55 626.048 1250.34 623.808L1258.02 587.904H1264.94L1254.66 636H1247.75L1248.81 631.2C1244.52 634.976 1239.69 636.864 1234.31 636.864ZM1282.7 636.864C1278.22 636.864 1274.96 635.808 1272.91 633.696C1270.93 631.52 1270.35 628.48 1271.18 624.576L1277.62 593.952H1267.44L1268.78 587.904H1278.86L1281.46 575.712L1288.85 573.888L1285.87 587.904H1299.89L1298.54 593.952H1284.53L1278.29 623.04C1277.71 625.792 1277.97 627.776 1279.06 628.992C1280.14 630.144 1282.26 630.72 1285.39 630.72C1286.29 630.72 1287.15 630.656 1287.98 630.528C1288.82 630.336 1289.81 630.08 1290.96 629.76L1289.71 636C1288.69 636.256 1287.54 636.448 1286.26 636.576C1285.04 636.768 1283.86 636.864 1282.7 636.864ZM1312.6 636.864C1308.82 636.864 1305.62 636 1303 634.272C1300.38 632.48 1298.52 630.08 1297.43 627.072C1296.41 624.064 1296.28 620.64 1297.05 616.8L1303.19 587.904H1310.1L1304.15 616.032C1303.19 620.448 1303.7 624 1305.69 626.688C1307.67 629.376 1310.71 630.72 1314.81 630.72C1317.5 630.72 1320.02 630.144 1322.39 628.992C1324.76 627.776 1326.84 626.048 1328.63 623.808L1336.31 587.904H1343.22L1332.95 636H1326.04L1327.1 631.2C1322.81 634.976 1317.98 636.864 1312.6 636.864ZM1341.12 636L1351.39 587.904H1358.21L1356.96 593.952C1358.75 591.712 1360.83 589.984 1363.2 588.768C1365.57 587.488 1368.1 586.848 1370.78 586.848C1372.77 586.848 1374.46 587.136 1375.87 587.712L1374.53 594.24C1373.89 593.92 1373.06 593.664 1372.03 593.472C1371.01 593.28 1370.02 593.184 1369.06 593.184C1363.49 593.184 1358.85 596.256 1355.14 602.4L1348.03 636H1341.12ZM1394.89 636.864C1390.41 636.864 1386.41 635.904 1382.89 633.984C1379.37 632.064 1376.62 629.408 1374.64 626.016C1372.65 622.56 1371.66 618.656 1371.66 614.304C1371.66 610.592 1372.3 607.104 1373.58 603.84C1374.92 600.512 1376.75 597.6 1379.05 595.104C1381.42 592.608 1384.11 590.656 1387.12 589.248C1390.19 587.84 1393.45 587.136 1396.91 587.136C1400.81 587.136 1404.3 588.128 1407.37 590.112C1410.44 592.096 1412.88 594.784 1414.67 598.176C1416.46 601.568 1417.36 605.44 1417.36 609.792C1417.36 610.432 1417.32 611.136 1417.26 611.904C1417.26 612.608 1417.2 613.344 1417.07 614.112H1378.57C1378.64 617.312 1379.4 620.16 1380.88 622.656C1382.35 625.152 1384.33 627.136 1386.83 628.608C1389.32 630.016 1392.11 630.72 1395.18 630.72C1397.55 630.72 1399.85 630.368 1402.09 629.664C1404.33 628.96 1406.35 628 1408.14 626.784L1411.79 631.68C1409.16 633.472 1406.48 634.784 1403.72 635.616C1400.97 636.448 1398.03 636.864 1394.89 636.864ZM1379.24 608.448H1410.73C1410.54 605.504 1409.8 602.912 1408.52 600.672C1407.24 598.432 1405.55 596.672 1403.44 595.392C1401.32 594.048 1398.92 593.376 1396.24 593.376C1393.55 593.376 1391.02 594.048 1388.65 595.392C1386.35 596.672 1384.36 598.464 1382.7 600.768C1381.1 603.008 1379.95 605.568 1379.24 608.448ZM1412.18 649.152L1421.88 628.896H1429.56L1417.75 649.152H1412.18ZM1477.83 636.672C1473.67 636.672 1469.9 635.68 1466.5 633.696C1463.18 631.648 1460.52 628.864 1458.54 625.344C1456.55 621.824 1455.56 617.888 1455.56 613.536C1455.56 609.632 1456.26 605.984 1457.67 602.592C1459.14 599.136 1461.16 596.128 1463.72 593.568C1466.28 591.008 1469.26 588.992 1472.65 587.52C1476.04 586.048 1479.62 585.312 1483.4 585.312C1486.34 585.312 1489.1 585.76 1491.66 586.656C1494.28 587.552 1496.55 588.864 1498.47 590.592L1503.08 568.8L1516.62 565.92L1501.74 636H1488.97L1489.45 633.504C1485.8 635.616 1481.93 636.672 1477.83 636.672ZM1481.29 625.536C1483.34 625.536 1485.22 625.216 1486.95 624.576C1488.74 623.936 1490.38 622.976 1491.85 621.696L1496.07 601.92C1494.79 600.32 1493.06 599.04 1490.89 598.08C1488.71 597.056 1486.38 596.544 1483.88 596.544C1481 596.544 1478.38 597.28 1476.01 598.752C1473.64 600.16 1471.75 602.048 1470.34 604.416C1468.94 606.784 1468.23 609.44 1468.23 612.384C1468.23 614.88 1468.78 617.152 1469.86 619.2C1471.02 621.184 1472.58 622.752 1474.57 623.904C1476.55 624.992 1478.79 625.536 1481.29 625.536ZM1536.21 636.96C1531.35 636.96 1527 635.968 1523.16 633.984C1519.38 631.936 1516.41 629.12 1514.23 625.536C1512.05 621.888 1510.97 617.792 1510.97 613.248C1510.97 609.408 1511.67 605.792 1513.08 602.4C1514.49 599.008 1516.44 596.032 1518.93 593.472C1521.43 590.848 1524.31 588.832 1527.57 587.424C1530.84 585.952 1534.33 585.216 1538.04 585.216C1542.45 585.216 1546.36 586.272 1549.75 588.384C1553.14 590.432 1555.8 593.248 1557.72 596.832C1559.64 600.416 1560.6 604.576 1560.6 609.312C1560.6 610.016 1560.57 610.784 1560.5 611.616C1560.5 612.448 1560.37 613.696 1560.12 615.36H1523.83C1524.21 617.472 1525.01 619.36 1526.23 621.024C1527.45 622.624 1528.98 623.872 1530.84 624.768C1532.76 625.664 1534.9 626.112 1537.27 626.112C1539.38 626.112 1541.37 625.792 1543.22 625.152C1545.08 624.512 1546.71 623.616 1548.12 622.464L1555.32 630.816C1552.25 632.992 1549.21 634.56 1546.2 635.52C1543.19 636.48 1539.86 636.96 1536.21 636.96ZM1524.6 606.048H1548.5C1548.12 604.064 1547.41 602.336 1546.39 600.864C1545.37 599.392 1544.09 598.24 1542.55 597.408C1541.01 596.576 1539.29 596.16 1537.37 596.16C1535.45 596.16 1533.62 596.576 1531.89 597.408C1530.23 598.24 1528.76 599.392 1527.48 600.864C1526.26 602.336 1525.3 604.064 1524.6 606.048ZM1559.56 636L1573.86 568.8L1587.3 565.92L1572.42 636H1559.56ZM1578.78 636L1589.34 585.984H1602.2L1591.64 636H1578.78ZM1597.79 580.032C1595.93 580.032 1594.36 579.392 1593.08 578.112C1591.87 576.832 1591.26 575.264 1591.26 573.408C1591.26 571.872 1591.64 570.464 1592.41 569.184C1593.18 567.904 1594.17 566.912 1595.39 566.208C1596.67 565.44 1598.04 565.056 1599.52 565.056C1601.37 565.056 1602.91 565.696 1604.12 566.976C1605.4 568.192 1606.04 569.728 1606.04 571.584C1606.04 573.12 1605.66 574.528 1604.89 575.808C1604.12 577.024 1603.1 578.048 1601.82 578.88C1600.6 579.648 1599.26 580.032 1597.79 580.032ZM1613.94 636L1603.47 585.984H1617.2L1623.44 619.296L1643.89 585.984H1658L1626.32 636H1613.94ZM1676.57 636.96C1671.71 636.96 1667.36 635.968 1663.52 633.984C1659.74 631.936 1656.76 629.12 1654.59 625.536C1652.41 621.888 1651.32 617.792 1651.32 613.248C1651.32 609.408 1652.03 605.792 1653.44 602.4C1654.84 599.008 1656.8 596.032 1659.29 593.472C1661.79 590.848 1664.67 588.832 1667.93 587.424C1671.2 585.952 1674.68 585.216 1678.4 585.216C1682.81 585.216 1686.72 586.272 1690.11 588.384C1693.5 590.432 1696.16 593.248 1698.08 596.832C1700 600.416 1700.96 604.576 1700.96 609.312C1700.96 610.016 1700.92 610.784 1700.86 611.616C1700.86 612.448 1700.73 613.696 1700.48 615.36H1664.19C1664.57 617.472 1665.37 619.36 1666.59 621.024C1667.8 622.624 1669.34 623.872 1671.2 624.768C1673.12 625.664 1675.26 626.112 1677.63 626.112C1679.74 626.112 1681.72 625.792 1683.58 625.152C1685.44 624.512 1687.07 623.616 1688.48 622.464L1695.68 630.816C1692.6 632.992 1689.56 634.56 1686.56 635.52C1683.55 636.48 1680.22 636.96 1676.57 636.96ZM1664.96 606.048H1688.86C1688.48 604.064 1687.77 602.336 1686.75 600.864C1685.72 599.392 1684.44 598.24 1682.91 597.408C1681.37 596.576 1679.64 596.16 1677.72 596.16C1675.8 596.16 1673.98 596.576 1672.25 597.408C1670.59 598.24 1669.12 599.392 1667.84 600.864C1666.62 602.336 1665.66 604.064 1664.96 606.048ZM1699.82 636L1710.48 585.984H1723.34L1722.28 590.976C1724.14 589.056 1726.19 587.584 1728.43 586.56C1730.67 585.536 1733.04 585.024 1735.53 585.024C1738.28 585.024 1740.36 585.472 1741.77 586.368L1739.37 597.888C1738.73 597.44 1737.71 597.056 1736.3 596.736C1734.89 596.352 1733.55 596.16 1732.27 596.16C1727.28 596.16 1723.08 598.432 1719.69 602.976L1712.78 636H1699.82ZM1762.36 636.96C1757.5 636.96 1753.15 635.968 1749.31 633.984C1745.53 631.936 1742.55 629.12 1740.38 625.536C1738.2 621.888 1737.11 617.792 1737.11 613.248C1737.11 609.408 1737.82 605.792 1739.23 602.4C1740.63 599.008 1742.59 596.032 1745.08 593.472C1747.58 590.848 1750.46 588.832 1753.72 587.424C1756.99 585.952 1760.47 585.216 1764.19 585.216C1768.6 585.216 1772.51 586.272 1775.9 588.384C1779.29 590.432 1781.95 593.248 1783.87 596.832C1785.79 600.416 1786.75 604.576 1786.75 609.312C1786.75 610.016 1786.71 610.784 1786.65 611.616C1786.65 612.448 1786.52 613.696 1786.27 615.36H1749.98C1750.36 617.472 1751.16 619.36 1752.38 621.024C1753.59 622.624 1755.13 623.872 1756.99 624.768C1758.91 625.664 1761.05 626.112 1763.42 626.112C1765.53 626.112 1767.51 625.792 1769.37 625.152C1771.23 624.512 1772.86 623.616 1774.27 622.464L1781.47 630.816C1778.39 632.992 1775.35 634.56 1772.35 635.52C1769.34 636.48 1766.01 636.96 1762.36 636.96ZM1750.75 606.048H1774.65C1774.27 604.064 1773.56 602.336 1772.54 600.864C1771.51 599.392 1770.23 598.24 1768.7 597.408C1767.16 596.576 1765.43 596.16 1763.51 596.16C1761.59 596.16 1759.77 596.576 1758.04 597.408C1756.38 598.24 1754.91 599.392 1753.63 600.864C1752.41 602.336 1751.45 604.064 1750.75 606.048ZM1811.05 636.672C1806.89 636.672 1803.11 635.68 1799.72 633.696C1796.39 631.648 1793.74 628.864 1791.75 625.344C1789.77 621.824 1788.78 617.888 1788.78 613.536C1788.78 609.632 1789.48 605.984 1790.89 602.592C1792.36 599.136 1794.38 596.128 1796.94 593.568C1799.5 591.008 1802.47 588.992 1805.87 587.52C1809.26 586.048 1812.84 585.312 1816.62 585.312C1819.56 585.312 1822.31 585.76 1824.87 586.656C1827.5 587.552 1829.77 588.864 1831.69 590.592L1836.3 568.8L1849.83 565.92L1834.95 636H1822.19L1822.67 633.504C1819.02 635.616 1815.15 636.672 1811.05 636.672ZM1814.51 625.536C1816.55 625.536 1818.44 625.216 1820.17 624.576C1821.96 623.936 1823.59 622.976 1825.07 621.696L1829.29 601.92C1828.01 600.32 1826.28 599.04 1824.11 598.08C1821.93 597.056 1819.59 596.544 1817.1 596.544C1814.22 596.544 1811.59 597.28 1809.23 598.752C1806.86 600.16 1804.97 602.048 1803.56 604.416C1802.15 606.784 1801.45 609.44 1801.45 612.384C1801.45 614.88 1801.99 617.152 1803.08 619.2C1804.23 621.184 1805.8 622.752 1807.79 623.904C1809.77 624.992 1812.01 625.536 1814.51 625.536ZM1880.87 636.672C1875.24 636.672 1871.18 635.328 1868.68 632.64C1866.25 629.952 1865.58 626.112 1866.66 621.12L1871.75 596.928H1861.67L1863.98 585.984H1874.06L1876.74 573.216L1890.28 570.24L1886.92 585.984H1900.84L1898.54 596.928H1884.62L1879.82 618.912C1879.37 621.344 1879.62 623.104 1880.58 624.192C1881.54 625.216 1883.4 625.728 1886.15 625.728C1887.18 625.728 1888.17 625.664 1889.13 625.536C1890.09 625.408 1891.14 625.216 1892.3 624.96L1889.99 635.616C1888.84 635.872 1887.4 636.096 1885.67 636.288C1883.94 636.544 1882.34 636.672 1880.87 636.672ZM1920.99 636.96C1916.32 636.96 1912.13 635.904 1908.41 633.792C1904.7 631.68 1901.76 628.8 1899.58 625.152C1897.47 621.504 1896.41 617.44 1896.41 612.96C1896.41 609.12 1897.12 605.536 1898.53 602.208C1900 598.816 1902.01 595.84 1904.57 593.28C1907.2 590.72 1910.21 588.704 1913.6 587.232C1916.99 585.76 1920.57 585.024 1924.35 585.024C1929.02 585.024 1933.18 586.08 1936.83 588.192C1940.54 590.304 1943.49 593.184 1945.66 596.832C1947.84 600.416 1948.93 604.48 1948.93 609.024C1948.93 612.864 1948.19 616.48 1946.72 619.872C1945.25 623.2 1943.2 626.144 1940.57 628.704C1938.01 631.264 1935.07 633.28 1931.74 634.752C1928.41 636.224 1924.83 636.96 1920.99 636.96ZM1921.57 625.536C1923.61 625.536 1925.5 625.12 1927.23 624.288C1929.02 623.456 1930.59 622.336 1931.93 620.928C1933.28 619.456 1934.33 617.76 1935.1 615.84C1935.87 613.856 1936.25 611.808 1936.25 609.696C1936.25 607.072 1935.71 604.768 1934.62 602.784C1933.53 600.8 1932.03 599.264 1930.11 598.176C1928.25 597.024 1926.11 596.448 1923.68 596.448C1921.69 596.448 1919.81 596.864 1918.01 597.696C1916.29 598.528 1914.72 599.68 1913.31 601.152C1911.97 602.56 1910.91 604.256 1910.14 606.24C1909.44 608.16 1909.09 610.176 1909.09 612.288C1909.09 614.848 1909.6 617.152 1910.62 619.2C1911.71 621.184 1913.18 622.752 1915.04 623.904C1916.96 624.992 1919.13 625.536 1921.57 625.536ZM1973.16 636.672C1969 636.672 1965.22 635.68 1961.83 633.696C1958.5 631.648 1955.85 628.864 1953.86 625.344C1951.88 621.824 1950.89 617.888 1950.89 613.536C1950.89 609.632 1951.59 605.984 1953 602.592C1954.47 599.136 1956.49 596.128 1959.05 593.568C1961.61 591.008 1964.58 588.992 1967.97 587.52C1971.37 586.048 1974.95 585.312 1978.73 585.312C1981.67 585.312 1984.42 585.76 1986.98 586.656C1989.61 587.552 1991.88 588.864 1993.8 590.592L1998.41 568.8L2011.94 565.92L1997.06 636H1984.29L1984.77 633.504C1981.13 635.616 1977.25 636.672 1973.16 636.672ZM1976.61 625.536C1978.66 625.536 1980.55 625.216 1982.28 624.576C1984.07 623.936 1985.7 622.976 1987.17 621.696L1991.4 601.92C1990.12 600.32 1988.39 599.04 1986.21 598.08C1984.04 597.056 1981.7 596.544 1979.21 596.544C1976.33 596.544 1973.7 597.28 1971.33 598.752C1968.97 600.16 1967.08 602.048 1965.67 604.416C1964.26 606.784 1963.56 609.44 1963.56 612.384C1963.56 614.88 1964.1 617.152 1965.19 619.2C1966.34 621.184 1967.91 622.752 1969.89 623.904C1971.88 624.992 1974.12 625.536 1976.61 625.536ZM2021.46 636.576C2016.28 636.576 2012.15 635.328 2009.08 632.832C2006 630.272 2004.47 626.88 2004.47 622.656C2004.47 619.2 2005.3 616.256 2006.96 613.824C2008.69 611.392 2011.12 609.504 2014.26 608.16C2017.4 606.816 2021.14 606.144 2025.49 606.144C2027.86 606.144 2030.2 606.368 2032.5 606.816C2034.87 607.264 2037.08 607.904 2039.12 608.736L2039.7 606.144C2040.4 602.752 2039.89 600.224 2038.16 598.56C2036.5 596.832 2033.62 595.968 2029.52 595.968C2027.67 595.968 2025.62 596.224 2023.38 596.736C2021.2 597.248 2018.55 598.08 2015.41 599.232L2012.24 589.344C2015.96 587.872 2019.48 586.816 2022.8 586.176C2026.13 585.472 2029.3 585.12 2032.31 585.12C2037.36 585.12 2041.52 585.952 2044.79 587.616C2048.12 589.28 2050.45 591.68 2051.8 594.816C2053.14 597.888 2053.33 601.6 2052.37 605.952L2046.04 636H2033.36L2033.94 632.928C2031.96 634.144 2029.94 635.072 2027.89 635.712C2025.84 636.288 2023.7 636.576 2021.46 636.576ZM2025.88 627.264C2027.67 627.264 2029.4 627.04 2031.06 626.592C2032.72 626.08 2034.29 625.376 2035.76 624.48L2037.4 617.184C2034.07 615.584 2030.42 614.784 2026.45 614.784C2023.44 614.784 2021.04 615.392 2019.25 616.608C2017.52 617.824 2016.66 619.456 2016.66 621.504C2016.66 623.296 2017.46 624.704 2019.06 625.728C2020.72 626.752 2023 627.264 2025.88 627.264ZM2052.88 656.544C2051.47 656.544 2050.16 656.448 2048.94 656.256C2047.66 656.128 2046.44 655.904 2045.29 655.584L2047.6 644.352C2048.24 644.544 2048.94 644.672 2049.71 644.736C2050.48 644.864 2051.34 644.928 2052.3 644.928C2054.54 644.928 2056.52 644.416 2058.25 643.392C2060.04 642.368 2061.61 640.8 2062.96 638.688L2064.68 636L2056.04 585.984H2069.77L2074.96 621.12L2096.46 585.984H2110.57L2075.24 642.144C2072.04 647.264 2068.68 650.944 2065.16 653.184C2061.71 655.424 2057.61 656.544 2052.88 656.544ZM2101.56 636.96C2099.64 636.96 2098.01 636.32 2096.67 635.04C2095.39 633.696 2094.75 632.064 2094.75 630.144C2094.75 628.608 2095.13 627.2 2095.9 625.92C2096.73 624.576 2097.79 623.488 2099.07 622.656C2100.41 621.824 2101.85 621.408 2103.39 621.408C2105.37 621.408 2106.97 622.08 2108.19 623.424C2109.47 624.704 2110.11 626.304 2110.11 628.224C2110.11 629.76 2109.69 631.2 2108.86 632.544C2108.09 633.824 2107.07 634.88 2105.79 635.712C2104.51 636.544 2103.1 636.96 2101.56 636.96Z" fill="white"/>
<defs>
<filter id="filter0_b_1268_471" x="152.7" y="248.7" width="263.6" height="263.6" filterUnits="userSpaceOnUse" color-interpolation-filters="sRGB">
<feFlood flood-opacity="0" result="BackgroundImageFix"/>
<feGaussianBlur in="BackgroundImageFix" stdDeviation="19.65"/>
<feComposite in2="SourceAlpha" operator="in" result="effect1_backgroundBlur_1268_471"/>
<feBlend mode="normal" in="SourceGraphic" in2="effect1_backgroundBlur_1268_471" result="shape"/>
</filter>
<filter id="filter1_b_1268_471" x="337" y="248" width="90" height="265" filterUnits="userSpaceOnUse" color-interpolation-filters="sRGB">
<feFlood flood-opacity="0" result="BackgroundImageFix"/>
<feGaussianBlur in="BackgroundImageFix" stdDeviation="20"/>
<feComposite in2="SourceAlpha" operator="in" result="effect1_backgroundBlur_1268_471"/>
<feBlend mode="normal" in="SourceGraphic" in2="effect1_backgroundBlur_1268_471" result="shape"/>
</filter>
<filter id="filter2_b_1268_471" x="347" y="248" width="90" height="265" filterUnits="userSpaceOnUse" color-interpolation-filters="sRGB">
<feFlood flood-opacity="0" result="BackgroundImageFix"/>
<feGaussianBlur in="BackgroundImageFix" stdDeviation="20"/>
<feComposite in2="SourceAlpha" operator="in" result="effect1_backgroundBlur_1268_471"/>
<feBlend mode="normal" in="SourceGraphic" in2="effect1_backgroundBlur_1268_471" result="shape"/>
</filter>
<filter id="filter3_b_1268_471" x="204" y="248" width="213" height="265" filterUnits="userSpaceOnUse" color-interpolation-filters="sRGB">
<feFlood flood-opacity="0" result="BackgroundImageFix"/>
<feGaussianBlur in="BackgroundImageFix" stdDeviation="20"/>
<feComposite in2="SourceAlpha" operator="in" result="effect1_backgroundBlur_1268_471"/>
<feBlend mode="normal" in="SourceGraphic" in2="effect1_backgroundBlur_1268_471" result="shape"/>
</filter>
<filter id="filter4_b_1268_471" x="178" y="248" width="239" height="265" filterUnits="userSpaceOnUse" color-interpolation-filters="sRGB">
<feFlood flood-opacity="0" result="BackgroundImageFix"/>
<feGaussianBlur in="BackgroundImageFix" stdDeviation="20"/>
<feComposite in2="SourceAlpha" operator="in" result="effect1_backgroundBlur_1268_471"/>
<feBlend mode="normal" in="SourceGraphic" in2="effect1_backgroundBlur_1268_471" result="shape"/>
</filter>
<linearGradient id="paint0_linear_1268_471" x1="416" y1="529" x2="97.4795" y2="284.481" gradientUnits="userSpaceOnUse">
<stop offset="0.18594" stop-color="#3550EC"/>
<stop offset="0.795405" stop-color="#252B4B"/>
</linearGradient>
<linearGradient id="paint1_linear_1268_471" x1="2090" y1="674" x2="2054.32" y2="354.955" gradientUnits="userSpaceOnUse">
<stop offset="0.18594" stop-color="#3550EC"/>
<stop offset="0.795405" stop-color="#252B4B"/>
</linearGradient>
</defs>
</svg>
