<svg width="2732" height="692" viewBox="0 0 2732 692" fill="none" xmlns="http://www.w3.org/2000/svg">
<path d="M587.088 473.48C573.168 473.48 560.756 470.464 549.852 464.432C539.18 458.168 530.712 449.584 524.448 438.68C518.416 427.776 515.4 415.248 515.4 401.096V288.692H563.076V394.136C563.076 405.736 566.44 415.016 573.168 421.976C580.128 428.936 589.408 432.416 601.008 432.416C608.896 432.416 615.972 430.908 622.236 427.892C628.732 424.644 634.068 420.12 638.244 414.32V288.692H685.92V470H638.244V455.384C624.324 467.448 607.272 473.48 587.088 473.48ZM709.157 470V288.692H756.833V303.656C770.521 291.36 787.457 285.212 807.641 285.212C821.793 285.212 834.205 288.344 844.877 294.608C855.781 300.64 864.249 309.108 870.281 320.012C876.313 330.684 879.329 343.212 879.329 357.596V470H831.653V364.556C831.653 352.724 828.289 343.444 821.561 336.716C814.833 329.756 805.669 326.276 794.069 326.276C785.949 326.276 778.757 327.9 772.493 331.148C766.229 334.164 761.009 338.572 756.833 344.372V470H709.157ZM901.522 470V288.692H949.198V470H901.522ZM925.186 267.116C917.762 267.116 911.382 264.448 906.046 259.112C900.71 253.776 898.042 247.396 898.042 239.972C898.042 232.316 900.71 225.936 906.046 220.832C911.382 215.496 917.762 212.828 925.186 212.828C932.842 212.828 939.222 215.496 944.326 220.832C949.662 225.936 952.33 232.316 952.33 239.972C952.33 247.396 949.662 253.776 944.326 259.112C939.222 264.448 932.842 267.116 925.186 267.116ZM1031.38 470L953.771 288.692H1005.62L1055.39 409.448L1104.8 288.692H1155.61L1077.66 470H1031.38ZM1244.15 473.48C1226.06 473.48 1209.58 469.304 1194.74 460.952C1180.12 452.6 1168.52 441.348 1159.94 427.196C1151.35 413.044 1147.06 397.152 1147.06 379.52C1147.06 361.888 1151.12 345.996 1159.24 331.844C1167.59 317.692 1178.84 306.44 1193 298.088C1207.15 289.736 1222.92 285.56 1240.32 285.56C1257.72 285.56 1273.15 289.852 1286.61 298.436C1300.06 307.02 1310.62 318.62 1318.28 333.236C1326.16 347.852 1330.11 364.44 1330.11 383V395.528H1195.78C1197.87 402.72 1201.23 409.216 1205.87 415.016C1210.74 420.816 1216.66 425.34 1223.62 428.588C1230.81 431.836 1238.47 433.46 1246.59 433.46C1254.71 433.46 1262.13 432.184 1268.86 429.632C1275.82 427.08 1281.74 423.484 1286.61 418.844L1317.93 447.38C1306.79 456.428 1295.31 463.04 1283.48 467.216C1271.88 471.392 1258.77 473.48 1244.15 473.48ZM1195.08 361.424H1283.13C1281.5 354.232 1278.49 347.968 1274.08 342.632C1269.9 337.064 1264.8 332.772 1258.77 329.756C1252.97 326.508 1246.47 324.884 1239.28 324.884C1231.86 324.884 1225.13 326.392 1219.1 329.408C1213.06 332.424 1207.96 336.716 1203.78 342.284C1199.84 347.62 1196.94 354 1195.08 361.424ZM1345.4 470V288.692H1393.08V308.876C1398.88 300.988 1405.84 294.956 1413.96 290.78C1422.08 286.604 1431.24 284.516 1441.45 284.516C1450.26 284.748 1456.88 286.14 1461.28 288.692V330.452C1457.8 328.828 1453.98 327.668 1449.8 326.972C1445.62 326.044 1441.33 325.58 1436.92 325.58C1427.64 325.58 1419.18 327.9 1411.52 332.54C1403.86 337.18 1397.72 343.792 1393.08 352.376V470H1345.4ZM1543.43 473.48C1526.73 473.48 1511.3 471.392 1497.15 467.216C1483 462.808 1470.7 456.544 1460.26 448.424L1483.92 416.756C1494.36 423.716 1504.34 428.936 1513.85 432.416C1523.6 435.896 1533.22 437.636 1542.74 437.636C1553.41 437.636 1561.88 435.896 1568.14 432.416C1574.64 428.704 1577.88 423.948 1577.88 418.148C1577.88 413.508 1576.03 409.796 1572.32 407.012C1568.84 404.228 1563.15 402.256 1555.26 401.096L1520.46 395.876C1502.37 393.092 1488.68 387.292 1479.4 378.476C1470.12 369.428 1465.48 357.596 1465.48 342.98C1465.48 331.148 1468.5 321.056 1474.53 312.704C1480.79 304.12 1489.49 297.508 1500.63 292.868C1512 287.996 1525.45 285.56 1541 285.56C1554.22 285.56 1567.1 287.416 1579.62 291.128C1592.38 294.84 1604.33 300.524 1615.47 308.18L1592.5 339.152C1582.52 332.888 1573.01 328.364 1563.96 325.58C1554.92 322.796 1545.75 321.404 1536.47 321.404C1527.89 321.404 1520.93 323.028 1515.59 326.276C1510.49 329.524 1507.94 333.816 1507.94 339.152C1507.94 344.024 1509.79 347.852 1513.5 350.636C1517.22 353.42 1523.6 355.392 1532.64 356.552L1567.1 361.772C1585.19 364.324 1599 370.124 1608.51 379.172C1618.02 387.988 1622.78 399.472 1622.78 413.624C1622.78 425.224 1619.3 435.548 1612.34 444.596C1605.38 453.412 1595.98 460.488 1584.15 465.824C1572.32 470.928 1558.74 473.48 1543.43 473.48ZM1692.06 473.132C1679.07 473.132 1667.59 470.812 1657.61 466.172C1647.63 461.3 1639.86 454.688 1634.29 446.336C1628.73 437.984 1625.94 428.356 1625.94 417.452C1625.94 400.052 1632.44 386.596 1645.43 377.084C1658.65 367.34 1676.75 362.468 1699.72 362.468C1715.49 362.468 1730.34 364.904 1744.26 369.776V356.552C1744.26 346.112 1741.01 338.224 1734.52 332.888C1728.02 327.552 1718.51 324.884 1705.98 324.884C1698.33 324.884 1690.09 326.16 1681.27 328.712C1672.46 331.032 1662.25 334.744 1650.65 339.848L1633.25 304.7C1647.63 298.204 1661.32 293.332 1674.31 290.084C1687.54 286.836 1700.76 285.212 1713.99 285.212C1738.35 285.212 1757.25 291.128 1770.71 302.96C1784.4 314.56 1791.24 331.032 1791.24 352.376V470H1744.26V457.124C1736.84 462.692 1728.83 466.752 1720.25 469.304C1711.67 471.856 1702.27 473.132 1692.06 473.132ZM1671.18 416.408C1671.18 423.368 1674.2 428.936 1680.23 433.112C1686.26 437.056 1694.27 439.028 1704.24 439.028C1712.13 439.028 1719.44 438.1 1726.17 436.244C1732.89 434.156 1738.93 431.14 1744.26 427.196V400.748C1738.46 398.428 1732.43 396.688 1726.17 395.528C1719.9 394.368 1713.17 393.788 1705.98 393.788C1695.08 393.788 1686.49 395.876 1680.23 400.052C1674.2 403.996 1671.18 409.448 1671.18 416.408ZM1813.4 470V226.4L1861.08 218.396V470H1813.4ZM1940.53 470V226.4L1988.21 218.396V303.308C2002.59 291.94 2019.53 286.256 2039.02 286.256C2056.19 286.256 2071.73 290.432 2085.65 298.784C2099.57 307.136 2110.59 318.388 2118.71 332.54C2127.06 346.46 2131.24 362.12 2131.24 379.52C2131.24 396.92 2127.06 412.696 2118.71 426.848C2110.36 440.768 2099.11 451.904 2084.95 460.256C2070.8 468.376 2055.03 472.436 2037.63 472.436C2028.58 472.436 2019.76 471.16 2011.18 468.608C2002.59 466.056 1994.71 462.344 1987.51 457.472V470H1940.53ZM2031.36 432.068C2041.34 432.068 2050.27 429.748 2058.16 425.108C2066.28 420.468 2072.66 414.204 2077.3 406.316C2081.94 398.428 2084.26 389.496 2084.26 379.52C2084.26 369.544 2081.94 360.612 2077.3 352.724C2072.66 344.604 2066.28 338.34 2058.16 333.932C2050.27 329.292 2041.34 326.972 2031.36 326.972C2022.55 326.972 2014.43 328.48 2007 331.496C1999.81 334.28 1993.55 338.572 1988.21 344.372V415.016C1993.31 420.352 1999.58 424.528 2007 427.544C2014.66 430.56 2022.78 432.068 2031.36 432.068ZM2146.15 470V226.4L2193.83 218.396V470H2146.15ZM2287.49 473.48C2273.57 473.48 2261.16 470.464 2250.25 464.432C2239.58 458.168 2231.11 449.584 2224.85 438.68C2218.82 427.776 2215.8 415.248 2215.8 401.096V288.692H2263.48V394.136C2263.48 405.736 2266.84 415.016 2273.57 421.976C2280.53 428.936 2289.81 432.416 2301.41 432.416C2309.3 432.416 2316.37 430.908 2322.64 427.892C2329.13 424.644 2334.47 420.12 2338.65 414.32V288.692H2386.32V470H2338.65V455.384C2324.73 467.448 2307.67 473.48 2287.49 473.48ZM2498.3 473.48C2480.2 473.48 2463.73 469.304 2448.88 460.952C2434.27 452.6 2422.67 441.348 2414.08 427.196C2405.5 413.044 2401.21 397.152 2401.21 379.52C2401.21 361.888 2405.27 345.996 2413.39 331.844C2421.74 317.692 2432.99 306.44 2447.14 298.088C2461.29 289.736 2477.07 285.56 2494.47 285.56C2511.87 285.56 2527.3 289.852 2540.75 298.436C2554.21 307.02 2564.77 318.62 2572.42 333.236C2580.31 347.852 2584.25 364.44 2584.25 383V395.528H2449.93C2452.01 402.72 2455.38 409.216 2460.02 415.016C2464.89 420.816 2470.81 425.34 2477.77 428.588C2484.96 431.836 2492.61 433.46 2500.73 433.46C2508.85 433.46 2516.28 432.184 2523.01 429.632C2529.97 427.08 2535.88 423.484 2540.75 418.844L2572.07 447.38C2560.94 456.428 2549.45 463.04 2537.62 467.216C2526.02 471.392 2512.91 473.48 2498.3 473.48ZM2449.23 361.424H2537.27C2535.65 354.232 2532.63 347.968 2528.23 342.632C2524.05 337.064 2518.95 332.772 2512.91 329.756C2507.11 326.508 2500.62 324.884 2493.43 324.884C2486 324.884 2479.27 326.392 2473.24 329.408C2467.21 332.424 2462.11 336.716 2457.93 342.284C2453.99 347.62 2451.09 354 2449.23 361.424Z" fill="white"/>
<path d="M257 529H433V263C433 246.431 419.569 233 403 233H167C150.431 233 137 246.431 137 263V409C137 475.274 190.726 529 257 529Z" fill="url(#paint0_linear_1268_431)"/>
<g filter="url(#filter0_b_1268_431)">
<path d="M223.335 389.792V303.628V288H207.667C199.015 288 192 294.997 192 303.628V389.792C192 435.747 229.348 473 275.419 473H377V303.628V288H361.333H345.665V303.628V441.744H275.419C246.654 441.744 223.335 418.485 223.335 389.792Z" fill="white"/>
</g>
<g filter="url(#filter1_b_1268_431)">
<rect x="377" y="288" width="10" height="185" fill="white" fill-opacity="0.3"/>
</g>
<g filter="url(#filter2_b_1268_431)">
<rect x="387" y="288" width="10" height="185" fill="white" fill-opacity="0.1"/>
</g>
<g filter="url(#filter3_b_1268_431)">
<path fill-rule="evenodd" clip-rule="evenodd" d="M377 441.744H377V473H377V441.744ZM275.335 389.792V303.628V288H244L244 389.792C244 408.476 250.174 425.722 260.598 439.611C265.296 440.999 270.27 441.744 275.419 441.744H327.419C298.654 441.744 275.335 418.485 275.335 389.792Z" fill="white" fill-opacity="0.1"/>
</g>
<g filter="url(#filter4_b_1268_431)">
<path fill-rule="evenodd" clip-rule="evenodd" d="M377 288H371.665L377 288V303.628V473H377V288ZM249.335 303.628V389.792C249.335 418.485 272.654 441.744 301.419 441.744L275.419 441.744C256.317 441.744 239.617 431.487 230.552 416.194C225.967 408.457 223.335 399.431 223.335 389.792V303.628V288H218V288H249.335V303.628Z" fill="white" fill-opacity="0.3"/>
</g>
<defs>
<filter id="filter0_b_1268_431" x="152.7" y="248.7" width="263.6" height="263.6" filterUnits="userSpaceOnUse" color-interpolation-filters="sRGB">
<feFlood flood-opacity="0" result="BackgroundImageFix"/>
<feGaussianBlur in="BackgroundImageFix" stdDeviation="19.65"/>
<feComposite in2="SourceAlpha" operator="in" result="effect1_backgroundBlur_1268_431"/>
<feBlend mode="normal" in="SourceGraphic" in2="effect1_backgroundBlur_1268_431" result="shape"/>
</filter>
<filter id="filter1_b_1268_431" x="337" y="248" width="90" height="265" filterUnits="userSpaceOnUse" color-interpolation-filters="sRGB">
<feFlood flood-opacity="0" result="BackgroundImageFix"/>
<feGaussianBlur in="BackgroundImageFix" stdDeviation="20"/>
<feComposite in2="SourceAlpha" operator="in" result="effect1_backgroundBlur_1268_431"/>
<feBlend mode="normal" in="SourceGraphic" in2="effect1_backgroundBlur_1268_431" result="shape"/>
</filter>
<filter id="filter2_b_1268_431" x="347" y="248" width="90" height="265" filterUnits="userSpaceOnUse" color-interpolation-filters="sRGB">
<feFlood flood-opacity="0" result="BackgroundImageFix"/>
<feGaussianBlur in="BackgroundImageFix" stdDeviation="20"/>
<feComposite in2="SourceAlpha" operator="in" result="effect1_backgroundBlur_1268_431"/>
<feBlend mode="normal" in="SourceGraphic" in2="effect1_backgroundBlur_1268_431" result="shape"/>
</filter>
<filter id="filter3_b_1268_431" x="204" y="248" width="213" height="265" filterUnits="userSpaceOnUse" color-interpolation-filters="sRGB">
<feFlood flood-opacity="0" result="BackgroundImageFix"/>
<feGaussianBlur in="BackgroundImageFix" stdDeviation="20"/>
<feComposite in2="SourceAlpha" operator="in" result="effect1_backgroundBlur_1268_431"/>
<feBlend mode="normal" in="SourceGraphic" in2="effect1_backgroundBlur_1268_431" result="shape"/>
</filter>
<filter id="filter4_b_1268_431" x="178" y="248" width="239" height="265" filterUnits="userSpaceOnUse" color-interpolation-filters="sRGB">
<feFlood flood-opacity="0" result="BackgroundImageFix"/>
<feGaussianBlur in="BackgroundImageFix" stdDeviation="20"/>
<feComposite in2="SourceAlpha" operator="in" result="effect1_backgroundBlur_1268_431"/>
<feBlend mode="normal" in="SourceGraphic" in2="effect1_backgroundBlur_1268_431" result="shape"/>
</filter>
<linearGradient id="paint0_linear_1268_431" x1="416" y1="529" x2="97.4795" y2="284.481" gradientUnits="userSpaceOnUse">
<stop offset="0.18594" stop-color="#3550EC"/>
<stop offset="0.795405" stop-color="#252B4B"/>
</linearGradient>
</defs>
</svg>
