<?xml version="1.0" encoding="UTF-8"?>
<svg xmlns="http://www.w3.org/2000/svg" width="124" height="40" viewBox="0 0 124 40" fill="none">
  <path fill-rule="evenodd" clip-rule="evenodd" d="M58.036 10.7274C59.4507 9.79197 61.1135 9.30228 62.8093 9.32153C66.6081 9.32153 70.6968 11.7347 70.6968 17.0333V29.0564C70.6945 29.1954 70.672 29.3333 70.63 29.4658L70.575 29.6514L70.4077 29.5544C69.0971 28.7976 68.0978 27.5999 67.5881 26.1749L67.5792 26.123V17.2555C67.5792 14.1167 65.7071 12.0881 62.8093 12.0881C59.9096 12.0881 58.0359 14.1167 58.0359 17.2555L58.0246 23.7598C57.4642 25.1293 56.446 26.262 55.1436 26.9645L54.9184 27.0877V1.29742C54.9184 0.472735 55.4867 0 56.4772 0C57.4677 0 58.036 0.472735 58.036 1.29742V10.7274ZM7.71176 9.32153C6.10853 9.26296 4.52824 9.71598 3.19953 10.615C1.87082 11.5141 0.862612 12.8126 0.320767 14.3226C0.280192 14.7033 0.379174 15.3928 1.4979 15.7383C2.72453 16.1155 3.17697 15.4844 3.34132 15.0676C3.66013 14.1695 4.25419 13.3948 5.03891 12.854C5.82362 12.3132 6.75897 12.0337 7.71176 12.0555C10.463 12.0555 12.4599 13.8949 12.4599 16.4289V17.5149C12.4599 18.0228 11.7812 18.3545 11.1407 18.4965L5.67924 19.9232C1.59245 20.8533 0 22.4368 0 25.5702C0 29.2328 3.31508 31.995 7.71176 31.995C12.396 31.995 15.423 29.1318 15.423 24.702L15.5443 16.3868C15.5443 12.2931 12.2505 9.32153 7.71176 9.32153ZM7.71176 29.257C5.03078 29.257 3.08441 27.7067 3.08441 25.5702C3.08441 23.6169 4.15312 23.0175 6.40295 22.4794L11.0813 21.226C11.5638 21.1413 12.0272 20.9711 12.45 20.7236L12.3386 24.5649V24.5693C12.3386 28.8002 9.10273 29.257 7.71176 29.257ZM50.8387 23.812C49.86 23.6749 49.2536 24.0981 49.1611 24.5907C48.9374 25.6621 48.3451 26.6212 47.4874 27.3012C46.6296 27.9811 45.5606 28.3389 44.4664 28.3121C41.5686 28.3121 39.6965 26.2836 39.6965 23.1447V17.2556C39.6965 14.1167 41.5686 12.0882 44.4664 12.0882C45.5608 12.0614 46.63 12.4192 47.4877 13.0994C48.3455 13.7796 48.9377 14.739 49.1611 15.8107C49.2536 16.3012 49.8541 16.724 50.8387 16.5883C51.3098 16.5498 51.7463 16.3258 52.0524 15.9656C52.1306 15.8633 52.1874 15.7464 52.2193 15.6217C52.2513 15.497 52.2579 15.3672 52.2385 15.2399C51.6079 11.8105 48.3394 9.32159 44.4664 9.32159C40.6677 9.32159 36.5789 11.7348 36.5789 17.0338V23.3665C36.5789 28.6656 40.6677 31.0787 44.4664 31.0787C48.3394 31.0787 51.6079 28.5893 52.239 25.1564C52.2579 25.0297 52.2511 24.9005 52.2191 24.7764C52.187 24.6523 52.1303 24.536 52.0524 24.4342C51.9009 24.2558 51.7158 24.109 51.5075 24.0023C51.2992 23.8955 51.0719 23.8309 50.8387 23.812ZM73.4943 17.0338C73.4943 11.7348 77.5831 9.32159 81.3818 9.32159C85.1825 9.32159 89.2728 11.7348 89.2728 17.0338V23.2893C89.2728 28.5883 85.1825 31.0015 81.3818 31.0015C77.5831 31.0015 73.4943 28.5883 73.4943 23.2893V17.0338ZM81.3818 28.2384C84.2816 28.2384 86.1552 26.2098 86.1552 23.071V17.2556C86.1552 14.1167 84.2816 12.0882 81.3818 12.0882C78.484 12.0882 76.6114 14.1167 76.6114 17.2556V23.071C76.6114 26.2098 78.484 28.2384 81.3818 28.2384ZM26.0204 9.32159C22.2217 9.32159 18.1329 11.7348 18.1329 17.0333V29.0564C18.135 29.1956 18.1577 29.3338 18.2002 29.4663L18.2551 29.6515L18.4219 29.5544C19.7324 28.7977 20.7317 27.6003 21.2415 26.1755L21.2504 17.2556C21.2504 14.1167 23.1226 12.0882 26.0203 12.0882C28.9201 12.0882 30.7937 14.1167 30.7937 17.2556V23.702L30.8051 23.7599C31.3653 25.1295 32.3836 26.2622 33.6861 26.9646L33.9113 27.0878V17.0333C33.9113 11.7348 29.821 9.32159 26.0204 9.32159ZM106.11 12.2916C104.728 10.222 102.134 9.41069 100.11 9.33495V9.32159L99.8359 9.32406L99.783 9.32159L99.631 9.32852V9.33198C94.4101 9.49979 92.0707 13.3049 92.0707 17.0333V29.0564C92.073 29.1954 92.0956 29.3333 92.1376 29.4658L92.1925 29.6515L92.3598 29.5544C93.6702 28.7974 94.6694 27.5998 95.1794 26.175L95.1883 17.2556C95.1883 14.1529 97.0347 12.1268 99.8879 12.0941C100.587 12.0933 101.278 12.2491 101.909 12.5501C102.54 12.8511 103.096 13.2897 103.536 13.8336C103.636 13.9912 103.769 14.1261 103.924 14.2296C104.08 14.3332 104.255 14.4031 104.44 14.435C104.624 14.4668 104.813 14.4599 104.994 14.4147C105.175 14.3694 105.345 14.2868 105.493 14.1722C106.288 13.6589 106.52 12.9574 106.113 12.2966L106.11 12.2916ZM119.833 26.2489C119.998 25.8331 120.451 25.2015 121.676 25.5782C122.739 25.9059 122.902 26.5291 122.853 26.9939C122.311 28.504 121.303 29.8026 119.975 30.7017C118.646 31.6007 117.066 32.0537 115.462 31.995C110.924 31.995 107.629 29.0235 107.629 24.9297L107.751 16.6146C107.751 12.1847 110.778 9.32159 115.462 9.32159C119.859 9.32159 123.174 12.0837 123.174 15.7463C123.174 18.8797 121.582 20.4633 117.494 21.3934L112.034 22.82C111.393 22.9621 110.714 23.2937 110.714 23.8016V24.8877C110.714 27.4216 112.711 29.2611 115.462 29.2611C116.415 29.2828 117.351 29.0034 118.135 28.4625C118.92 27.9217 119.514 27.1471 119.833 26.2489ZM112.092 20.0905L116.771 18.8372C119.021 18.2986 120.089 17.6991 120.089 15.7463C120.089 13.6098 118.143 12.0595 115.462 12.0595C114.071 12.0595 110.835 12.5164 110.835 16.7472V16.7517L110.724 20.5934C111.146 20.3458 111.61 20.1755 112.092 20.0905Z" fill="#0E40C0"></path>
</svg>
