<svg xmlns="http://www.w3.org/2000/svg" width="83.969" height="33.031" viewBox="0 0 83.969 33.031" fill="#fff">
  <path id="Jane_Garsia" data-name="Jane —    Garsia" class="cls-1" d="M54.889,36.979a3.283,3.283,0,0,1-.243,1.336,1.779,1.779,0,0,1-.705.827,2.13,2.13,0,0,1-1.123.28,2.389,2.389,0,0,1-1.076-.233,1.746,1.746,0,0,1-1-1.643H48.668a3.516,3.516,0,0,0,.536,1.98,3.416,3.416,0,0,0,1.464,1.238,4.973,4.973,0,0,0,2.095.425,4.7,4.7,0,0,0,2.213-.5,3.512,3.512,0,0,0,1.468-1.44,4.63,4.63,0,0,0,.523-2.274v-9.8H54.889v9.8Zm10.195-7.287h0.108L69.1,41h2.213L66.339,27.182H63.93L58.957,41H61.17Zm-3.542,7.651H68.72V35.589H61.541v1.754ZM82.39,27.182V37.33H82.262L75.231,27.182H73.3V41h2.085V30.866h0.128L82.538,41h1.916V27.182H82.39ZM96.235,41V39.205H89.575v-4.23H95.7V33.187H89.575v-4.21h6.578V27.182H87.491V41h8.744Zm6.227-7.779v1.748h19V33.221h-19ZM76.108,50.547a5.305,5.305,0,0,0-1.933-3.286,5.676,5.676,0,0,0-1.727-.938,6.424,6.424,0,0,0-2.088-.331,6.158,6.158,0,0,0-2.473.489,5.641,5.641,0,0,0-1.963,1.41,6.452,6.452,0,0,0-1.292,2.237,8.979,8.979,0,0,0-.459,2.969,8.4,8.4,0,0,0,.79,3.775,5.842,5.842,0,0,0,2.2,2.453,6.7,6.7,0,0,0,6.261.169,5.075,5.075,0,0,0,2.038-1.974A5.93,5.93,0,0,0,76.2,54.5V52.929H70.771V54.65h3.954l-0.54-.1a4.046,4.046,0,0,1-.462,1.98,3.217,3.217,0,0,1-1.3,1.3,4.039,4.039,0,0,1-1.967.459,3.971,3.971,0,0,1-2.166-.6,4.061,4.061,0,0,1-1.5-1.761,7.651,7.651,0,0,1,0-5.671A4.075,4.075,0,0,1,68.268,48.5a3.821,3.821,0,0,1,2.105-.6,4.182,4.182,0,0,1,1.265.182,3.305,3.305,0,0,1,1.029.53,3.505,3.505,0,0,1,.779.837,4.35,4.35,0,0,1,.523,1.1h2.139ZM83.5,48.692H83.6L87.511,60h2.213L84.752,46.182H82.343L77.37,60h2.213Zm-3.542,7.651h7.179V54.589H79.954v1.754ZM93.8,60V47.97h2.618a3.873,3.873,0,0,1,1.67.307,2,2,0,0,1,.938.88,2.887,2.887,0,0,1,.3,1.356,2.776,2.776,0,0,1-.3,1.329,1.921,1.921,0,0,1-.934.843,4.01,4.01,0,0,1-1.65.29H92.9v1.795h3.731a5.929,5.929,0,0,0,2.669-.533,3.6,3.6,0,0,0,1.592-1.495,4.548,4.548,0,0,0,.53-2.23,4.663,4.663,0,0,0-.527-2.25,3.678,3.678,0,0,0-1.589-1.528,5.745,5.745,0,0,0-2.669-.553H91.714V60H93.8Zm2.429-6.234L99.575,60h2.375l-3.414-6.234H96.228Zm17.286-3.954a3.44,3.44,0,0,0-.647-1.974,4.194,4.194,0,0,0-1.7-1.353,5.9,5.9,0,0,0-2.48-.492,6.035,6.035,0,0,0-2.5.5,4.28,4.28,0,0,0-1.755,1.387,3.455,3.455,0,0,0-.647,2.085,2.979,2.979,0,0,0,.968,2.321,6.319,6.319,0,0,0,2.628,1.329l1.633,0.445a9.279,9.279,0,0,1,1.332.452,2.634,2.634,0,0,1,.938.648,1.457,1.457,0,0,1,.348,1.005,1.842,1.842,0,0,1-.4,1.177,2.6,2.6,0,0,1-1.09.783,4.169,4.169,0,0,1-1.576.28,4.36,4.36,0,0,1-1.474-.239,2.562,2.562,0,0,1-1.1-.735,2.116,2.116,0,0,1-.489-1.245h-2.091a4.033,4.033,0,0,0,.708,2.156,4.122,4.122,0,0,0,1.775,1.4,6.7,6.7,0,0,0,2.685.492,6.579,6.579,0,0,0,2.763-.526,4.072,4.072,0,0,0,1.747-1.437,3.683,3.683,0,0,0,.6-2.085,3.271,3.271,0,0,0-.367-1.6,3.54,3.54,0,0,0-.962-1.12,5.433,5.433,0,0,0-1.289-.729,10.277,10.277,0,0,0-1.356-.439l-1.349-.351a8.71,8.71,0,0,1-.844-0.26,4.241,4.241,0,0,1-.819-0.4,1.959,1.959,0,0,1-.614-0.6,1.517,1.517,0,0,1-.233-0.85,1.718,1.718,0,0,1,.341-1.049,2.272,2.272,0,0,1,.961-0.729,3.712,3.712,0,0,1,1.471-.266,3.44,3.44,0,0,1,1.97.53,1.982,1.982,0,0,1,.891,1.488h2.01Zm2.679-3.63V60h2.085V46.182h-2.085Zm10.2,2.51H126.5L130.409,60h2.213L127.65,46.182h-2.409L120.268,60h2.213Zm-3.543,7.651h7.179V54.589h-7.179v1.754Z" transform="translate(-48.656 -27.188)"/>
</svg>
