<svg 
 xmlns="http://www.w3.org/2000/svg"
 xmlns:xlink="http://www.w3.org/1999/xlink"
 width="89px" height="88px" viewBox="0 0 89 88" fill="#ffffff">
<path fill-rule="evenodd"
 d="M84.156,25.568 L81.326,26.734 L82.525,29.641 L81.692,29.984 L80.494,27.077 L77.637,28.255 L79.089,31.777 L78.257,32.120 L76.414,27.649 L84.597,24.277 L86.440,28.748 L85.608,29.091 L84.156,25.568 ZM79.964,21.133 C79.628,21.600 79.185,22.036 78.632,22.439 C78.079,22.842 77.529,23.131 76.982,23.308 C76.435,23.484 75.907,23.550 75.400,23.507 C74.893,23.463 74.419,23.312 73.977,23.052 C73.535,22.792 73.142,22.427 72.798,21.955 L71.490,20.161 L78.641,14.947 L79.949,16.740 C80.293,17.212 80.521,17.698 80.633,18.198 C80.746,18.698 80.746,19.195 80.634,19.690 C80.522,20.185 80.299,20.665 79.964,21.133 ZM79.151,17.174 L78.522,16.311 L72.825,20.465 L73.454,21.328 C73.789,21.787 74.201,22.109 74.690,22.294 C75.179,22.479 75.711,22.517 76.283,22.406 C76.856,22.295 77.435,22.027 78.020,21.600 C78.608,21.171 79.042,20.701 79.321,20.191 C79.600,19.681 79.725,19.165 79.696,18.644 C79.667,18.123 79.486,17.632 79.151,17.174 ZM68.871,17.502 L69.897,15.303 L67.519,13.323 L65.537,14.726 L64.726,14.050 L72.278,8.791 L73.504,9.812 L69.683,18.178 L68.871,17.502 ZM72.450,9.830 L68.279,12.785 L70.291,14.460 L72.450,9.830 ZM61.526,12.107 L64.721,4.865 L59.489,11.208 L58.150,10.617 L59.299,2.467 L56.102,9.714 L55.212,9.322 L58.785,1.225 L60.399,1.937 L59.149,10.136 L64.374,3.690 L65.988,4.402 L62.416,12.499 L61.526,12.107 ZM47.556,46.445 C45.289,48.713 45.004,52.000 45.000,52.000 C44.996,52.000 44.499,53.997 44.500,53.996 C44.471,53.996 44.004,52.000 44.000,52.000 C43.996,52.000 43.710,48.713 41.444,46.445 C39.213,44.212 36.000,43.997 36.000,44.000 C35.998,44.000 33.976,43.500 33.999,43.500 C34.014,43.484 35.998,43.000 36.000,43.000 C36.000,43.002 39.213,42.787 41.444,40.555 C43.710,38.286 43.996,35.000 44.000,35.000 C44.004,35.000 44.500,33.009 44.500,33.004 C44.500,33.001 44.996,35.000 45.000,35.000 C45.004,35.000 45.289,38.286 47.556,40.555 C49.787,42.787 53.000,43.002 53.000,43.000 C53.002,43.000 55.001,43.484 55.001,43.500 C55.001,43.515 53.002,44.000 53.000,44.000 C53.000,43.997 49.787,44.212 47.556,46.445 ZM43.212,3.716 L43.228,3.068 L47.403,3.174 L47.387,3.821 L43.212,3.716 ZM28.622,1.915 L33.227,0.436 L33.502,1.293 L29.874,2.458 L30.810,5.372 L33.804,4.410 L34.079,5.267 L31.085,6.228 L32.031,9.170 L35.659,8.005 L35.934,8.862 L31.329,10.341 L28.622,1.915 ZM24.545,78.458 L24.839,77.881 L28.560,79.779 L28.265,80.357 L24.545,78.458 ZM27.013,12.265 C26.774,12.645 26.423,12.979 25.961,13.266 C25.326,13.661 24.683,13.832 24.032,13.777 C23.381,13.723 22.758,13.478 22.164,13.042 C21.570,12.606 21.041,12.014 20.576,11.267 C20.109,10.516 19.811,9.779 19.684,9.055 C19.556,8.332 19.612,7.667 19.852,7.060 C20.092,6.454 20.530,5.953 21.165,5.558 C21.695,5.229 22.214,5.056 22.723,5.041 C23.232,5.026 23.701,5.118 24.132,5.317 C24.562,5.516 24.921,5.773 25.211,6.087 C25.361,6.244 25.485,6.402 25.584,6.561 L24.713,7.103 C24.656,7.012 24.582,6.912 24.491,6.803 C24.273,6.543 24.011,6.340 23.705,6.193 C23.399,6.047 23.072,5.980 22.722,5.993 C22.371,6.006 22.016,6.124 21.656,6.348 C21.235,6.610 20.939,6.954 20.769,7.381 C20.598,7.807 20.567,8.302 20.675,8.866 C20.784,9.430 21.046,10.046 21.462,10.715 C21.879,11.385 22.316,11.893 22.776,12.241 C23.235,12.589 23.694,12.782 24.153,12.819 C24.612,12.856 25.052,12.743 25.473,12.481 C25.775,12.293 26.008,12.072 26.170,11.818 C26.332,11.564 26.435,11.296 26.477,11.012 C26.520,10.729 26.511,10.447 26.450,10.167 C26.389,9.887 26.284,9.628 26.136,9.391 L27.008,8.849 C27.196,9.151 27.333,9.496 27.418,9.883 C27.504,10.270 27.517,10.669 27.459,11.080 C27.402,11.490 27.253,11.885 27.013,12.265 ZM19.516,18.142 L11.132,15.330 L17.026,20.816 L16.348,21.545 L9.869,15.515 L11.010,14.290 L19.439,17.111 L13.516,11.598 L14.195,10.869 L20.674,16.899 L19.516,18.142 ZM14.263,24.668 L11.904,24.099 L10.435,26.823 L12.204,28.486 L11.703,29.415 L5.048,23.059 L5.805,21.654 L14.765,23.738 L14.263,24.668 ZM6.033,22.684 L9.757,26.185 L10.999,23.881 L6.033,22.684 ZM10.346,33.576 L1.659,35.230 L9.485,37.127 L9.250,38.095 L0.648,36.010 L1.042,34.383 L9.773,32.715 L1.909,30.809 L2.144,29.841 L10.746,31.926 L10.346,33.576 ZM2.560,41.466 C3.116,41.275 3.754,41.167 4.474,41.145 C5.193,41.122 5.838,41.188 6.407,41.344 C6.976,41.501 7.461,41.731 7.861,42.037 C8.261,42.342 8.570,42.708 8.787,43.133 C9.005,43.558 9.122,44.029 9.138,44.545 C9.154,45.060 9.068,45.536 8.877,45.972 C8.687,46.409 8.402,46.792 8.022,47.122 C7.642,47.452 7.173,47.713 6.615,47.905 C6.057,48.097 5.418,48.204 4.698,48.227 C3.978,48.250 3.335,48.183 2.767,48.027 C2.200,47.871 1.719,47.640 1.323,47.334 C0.927,47.029 0.622,46.663 0.408,46.238 C0.195,45.812 0.080,45.344 0.064,44.832 C0.047,44.316 0.132,43.839 0.318,43.401 C0.505,42.963 0.786,42.579 1.161,42.249 C1.537,41.919 2.003,41.658 2.560,41.466 ZM1.424,46.082 C1.696,46.452 2.101,46.735 2.640,46.932 C3.178,47.129 3.853,47.215 4.665,47.189 C5.477,47.164 6.148,47.035 6.679,46.804 C7.210,46.574 7.603,46.265 7.857,45.879 C8.111,45.492 8.230,45.058 8.215,44.574 C8.199,44.082 8.051,43.653 7.771,43.285 C7.492,42.918 7.080,42.637 6.535,42.442 C5.991,42.247 5.314,42.162 4.507,42.188 C3.695,42.214 3.027,42.342 2.502,42.573 C1.977,42.803 1.590,43.111 1.342,43.495 C1.094,43.879 0.978,44.315 0.993,44.802 C1.009,45.286 1.152,45.713 1.424,46.082 ZM3.448,52.588 C3.533,52.563 3.605,52.542 3.664,52.525 C3.724,52.507 3.796,52.486 3.880,52.461 L4.171,53.445 C4.098,53.466 4.033,53.485 3.975,53.503 C3.918,53.520 3.853,53.539 3.780,53.560 C3.220,53.726 2.866,53.995 2.720,54.368 C2.574,54.741 2.586,55.217 2.758,55.796 C2.922,56.352 3.147,56.753 3.432,56.998 C3.718,57.243 4.083,57.300 4.528,57.168 C4.862,57.070 5.109,56.895 5.271,56.645 C5.433,56.395 5.542,56.086 5.598,55.719 C5.654,55.352 5.690,54.941 5.706,54.486 C5.722,53.935 5.781,53.447 5.883,53.023 C5.985,52.599 6.162,52.244 6.416,51.958 C6.669,51.672 7.032,51.460 7.504,51.320 C7.975,51.181 8.411,51.174 8.812,51.300 C9.212,51.425 9.562,51.670 9.861,52.034 C10.161,52.398 10.396,52.870 10.568,53.449 C10.741,54.036 10.796,54.565 10.734,55.036 C10.671,55.507 10.484,55.909 10.174,56.243 C9.864,56.577 9.429,56.826 8.869,56.992 C8.792,57.015 8.727,57.034 8.673,57.050 C8.619,57.066 8.554,57.085 8.477,57.108 L8.186,56.124 C8.259,56.102 8.321,56.084 8.370,56.069 C8.420,56.055 8.484,56.036 8.560,56.013 C9.147,55.840 9.525,55.561 9.693,55.178 C9.861,54.794 9.858,54.309 9.685,53.722 C9.505,53.116 9.266,52.689 8.967,52.439 C8.668,52.190 8.287,52.134 7.822,52.271 C7.496,52.367 7.251,52.537 7.087,52.779 C6.923,53.022 6.812,53.323 6.754,53.682 C6.695,54.041 6.664,54.449 6.661,54.904 C6.655,55.419 6.596,55.894 6.483,56.330 C6.370,56.766 6.181,57.139 5.916,57.449 C5.651,57.759 5.282,57.984 4.810,58.123 C4.350,58.259 3.928,58.262 3.543,58.132 C3.158,58.002 2.823,57.760 2.539,57.406 C2.255,57.052 2.034,56.608 1.877,56.075 C1.710,55.511 1.652,54.996 1.704,54.528 C1.755,54.060 1.924,53.660 2.212,53.326 C2.499,52.993 2.911,52.747 3.448,52.588 ZM7.487,66.210 L10.142,64.687 L8.576,61.960 L9.357,61.512 L10.922,64.239 L13.602,62.700 L11.705,59.396 L12.486,58.948 L14.894,63.142 L7.218,67.548 L4.810,63.354 L5.590,62.906 L7.487,66.210 ZM12.967,69.436 C13.329,69.340 13.662,69.322 13.964,69.381 C14.266,69.441 14.499,69.539 14.661,69.677 C14.525,69.509 14.423,69.313 14.353,69.090 C14.284,68.867 14.279,68.632 14.338,68.385 C14.397,68.138 14.556,67.893 14.815,67.649 C15.055,67.425 15.299,67.196 15.549,66.962 C15.798,66.728 16.044,66.497 16.286,66.270 C16.412,66.152 16.514,66.038 16.592,65.925 C16.671,65.813 16.714,65.729 16.721,65.673 L17.427,66.426 C17.409,66.481 17.362,66.563 17.288,66.671 C17.214,66.779 17.112,66.894 16.984,67.014 C16.759,67.225 16.530,67.439 16.297,67.658 C16.063,67.877 15.833,68.093 15.605,68.307 C15.319,68.575 15.191,68.865 15.221,69.177 C15.250,69.490 15.420,69.811 15.729,70.140 L17.022,71.519 L19.780,68.933 L20.465,69.664 L14.009,75.718 L11.907,73.477 C11.352,72.885 11.069,72.303 11.059,71.731 C11.049,71.159 11.332,70.604 11.906,70.065 C12.251,69.742 12.604,69.532 12.967,69.436 ZM12.728,73.037 L13.980,74.371 L16.366,72.134 L15.064,70.747 C14.862,70.531 14.625,70.385 14.352,70.308 C14.080,70.232 13.799,70.230 13.508,70.303 C13.217,70.375 12.943,70.532 12.686,70.773 C12.286,71.148 12.100,71.520 12.128,71.888 C12.156,72.257 12.356,72.640 12.728,73.037 ZM40.084,86.645 L40.489,83.612 L37.373,83.196 L37.492,82.304 L40.608,82.720 L41.017,79.657 L37.241,79.153 L37.360,78.261 L42.154,78.901 L40.982,87.673 L36.188,87.033 L36.307,86.141 L40.084,86.645 ZM48.689,78.610 L51.941,87.235 L50.824,87.343 L48.039,79.623 L46.810,87.731 L45.687,87.840 L47.201,78.754 L48.689,78.610 ZM55.229,77.470 C55.567,77.132 55.978,76.876 56.464,76.702 C56.950,76.527 57.430,76.463 57.903,76.510 C58.377,76.556 58.829,76.710 59.261,76.969 C59.692,77.229 60.085,77.594 60.439,78.066 C60.793,78.538 61.092,79.113 61.336,79.791 C61.579,80.468 61.714,81.101 61.740,81.689 C61.766,82.276 61.695,82.806 61.526,83.276 C61.357,83.747 61.104,84.150 60.765,84.484 C60.426,84.818 60.015,85.072 59.533,85.245 C59.047,85.419 58.568,85.485 58.093,85.443 C57.619,85.401 57.167,85.252 56.737,84.996 C56.307,84.740 55.916,84.377 55.562,83.907 C55.208,83.437 54.909,82.863 54.665,82.186 C54.423,81.508 54.287,80.875 54.261,80.285 C54.234,79.696 54.304,79.163 54.471,78.689 C54.639,78.214 54.891,77.808 55.229,77.470 ZM55.649,81.833 C55.923,82.597 56.251,83.193 56.632,83.622 C57.014,84.050 57.425,84.323 57.867,84.441 C58.309,84.558 58.759,84.535 59.219,84.370 C59.674,84.206 60.036,83.938 60.304,83.565 C60.572,83.193 60.717,82.720 60.738,82.147 C60.760,81.574 60.633,80.906 60.359,80.142 C60.084,79.377 59.755,78.778 59.372,78.344 C58.989,77.910 58.574,77.632 58.128,77.510 C57.683,77.387 57.232,77.407 56.777,77.571 C56.313,77.737 55.950,78.010 55.687,78.389 C55.424,78.769 55.283,79.247 55.265,79.825 C55.248,80.403 55.376,81.073 55.649,81.833 ZM65.270,72.266 L70.013,79.737 L69.147,80.287 L64.886,73.576 L61.937,75.447 L61.455,74.687 L65.270,72.266 ZM74.749,68.824 L77.141,65.675 L73.983,63.276 L74.604,62.459 L81.652,67.812 L81.031,68.629 L77.858,66.220 L75.466,69.368 L78.639,71.778 L78.019,72.595 L70.970,67.242 L71.591,66.425 L74.749,68.824 ZM76.903,57.931 L77.308,56.994 L84.607,60.147 L85.525,58.021 L86.351,58.378 L84.107,63.572 L83.281,63.215 L84.202,61.083 L76.903,57.931 ZM79.151,51.168 L87.761,53.219 L87.528,54.199 L78.918,52.148 L79.151,51.168 ZM79.970,45.499 L87.707,43.956 L80.025,42.158 L80.050,40.574 L88.923,39.313 L88.906,40.369 L80.905,41.373 L88.858,43.297 L88.836,44.653 L80.825,46.312 L88.789,47.574 L88.772,48.636 L79.945,47.077 L79.970,45.499 Z"/>
</svg>