<?xml version="1.0" encoding="UTF-8" standalone="no"?>
<!-- Created with Inkscape (http://www.inkscape.org/) -->

<svg
   width="1536"
   height="450"
   viewBox="0 0 1024 300"
   version="1.1"
   id="svg1"
   sodipodi:docname="auroralogo-plain.svg"
   inkscape:version="1.4.2 (ebf0e940d0, 2025-05-08)"
   xmlns:inkscape="http://www.inkscape.org/namespaces/inkscape"
   xmlns:sodipodi="http://sodipodi.sourceforge.net/DTD/sodipodi-0.dtd"
   xmlns:xlink="http://www.w3.org/1999/xlink"
   xmlns="http://www.w3.org/2000/svg"
   xmlns:svg="http://www.w3.org/2000/svg">
  <sodipodi:namedview
     id="namedview1"
     pagecolor="#ffffff"
     bordercolor="#000000"
     borderopacity="0.25"
     inkscape:showpageshadow="2"
     inkscape:pageopacity="0.0"
     inkscape:pagecheckerboard="0"
     inkscape:deskcolor="#d1d1d1"
     showgrid="false"
     inkscape:zoom="0.44894182"
     inkscape:cx="556.86504"
     inkscape:cy="384.23687"
     inkscape:window-width="1745"
     inkscape:window-height="1032"
     inkscape:window-x="0"
     inkscape:window-y="0"
     inkscape:window-maximized="1"
     inkscape:current-layer="svg1" />
  <defs
     id="defs1">
    <linearGradient
       id="linearGradient9">
      <stop
         offset="0"
         style="stop-color:#ffbe8f;stop-opacity:1;"
         id="stop5" />
      <stop
         offset="0.29142818"
         style="stop-color:#b64d5f;stop-opacity:1;"
         id="stop6" />
      <stop
         offset="0.54470932"
         style="stop-color:#6d4793;stop-opacity:1;"
         id="stop7" />
      <stop
         offset="0.75749785"
         style="stop-color:#4f57b0;stop-opacity:1;"
         id="stop8" />
      <stop
         offset="1"
         style="stop-color:#4075bf;stop-opacity:1;"
         id="stop9" />
    </linearGradient>
    <radialGradient
       xlink:href="#linearGradient9"
       id="radialGradient23"
       gradientUnits="userSpaceOnUse"
       gradientTransform="matrix(20.056589,6.5074866e-7,-0.12820521,5.8733108,-470.73343,-461.6729)"
       cx="24.299227"
       cy="129.68373"
       fx="24.299227"
       fy="129.68373"
       r="51.055538" />
  </defs>
  <path
     id="path18"
     style="font-weight:596;font-size:31.4035px;font-family:'Red Hat Display';-inkscape-font-specification:'Red Hat Display weight=596';font-variation-settings:normal;letter-spacing:-1.2267px;display:inline;vector-effect:none;fill:url(#radialGradient23);fill-opacity:1;stroke:none;stroke-width:13.7778;stroke-linecap:butt;stroke-linejoin:miter;stroke-miterlimit:4;stroke-dasharray:none;stroke-dashoffset:0;stroke-opacity:1;-inkscape-stroke:none;stop-color:#000000"
     d="m 255.47005,0.01041667 c -5.66688,-0.188343 -11.2333,2.23421843 -14.96614,6.78776043 L 0,300 69.68099,273.8763 109.67578,225.07292 c 15.98068,-4.03012 39.98444,-12.96525 68.58984,-25.77604 29.40765,-13.1701 60.02633,-28.83414 88.22527,-45.20443 7.1872,-4.17238 14.01063,-8.26918 20.50911,-12.28906 17.28712,-10.69358 35.71075,-23.64975 51.11198,-37.83204 9.12349,-8.401388 17.35224,-17.384408 23.64844,-26.726558 5.9967,-8.89777 10.41776,-18.389558 11.96224,-28.154948 0.674,-4.40135 0.90042,-8.54804 0.66927,-12.43099 -0.23095,-3.88008 -0.9184,-7.481778 -2.0599,-10.779948 -1.14906,-3.32006 -2.73129,-6.252983 -4.67448,-8.795573 -1.96147,-2.566485 -4.2264,-4.652202 -6.65495,-6.329427 -4.95935,-3.4250728 -10.57137,-5.1328148 -15.85807,-5.9544268 -5.69505,-0.885131 -11.54318,-0.821381 -16.79167,-0.390625 -9.07343,0.744627 -17.70288,2.7104425 -23.26822,4.0859375 -2.65688,0.656687 -5.1233,1.32754 -7.33334,1.9687503 -11.80225,3.424008 -13.8173,4.975759 -13.83724,5.152343 -1e-5,6.63e-4 -4e-5,0.0033 0,0.0039 v 0.0013 0.0013 c 0.0913,0.290051 3.24793,-0.514272 14.5,-1.994792 2.24009,-0.294775 4.73497,-0.583636 7.39063,-0.817708 5.64587,-0.49759 14.08393,-0.841116 22.43359,0.148437 4.85837,0.575782 9.71042,1.606984 13.92969,3.317709 3.97059,1.6099 7.02785,3.679803 9.05469,6.152343 0.96342,1.17527 1.67416,2.414557 2.18229,3.735677 0.49891,1.297151 0.83224,2.751211 0.98307,4.40625 0.15092,1.65563 0.12746,3.606476 -0.15885,5.903646 -0.28821,2.31284 -0.84389,4.987375 -1.76302,8.078125 -1.69812,5.47398 -5.17855,11.489797 -10.54818,18.010417 -5.62139,6.82634 -12.98904,13.813907 -21.61068,20.822917 -14.04197,11.41547 -30.73116,22.340394 -46.88021,32.079424 V 18.597656 c -0.008,-7.857321 -4.93681,-14.8657545 -12.31901,-17.5117185 -1.84573,-0.66121 -3.74906,-1.01272683 -5.63802,-1.07552083 z M 236.26953,70.596354 v 65.291666 c -23.23009,11.74062 -47.7187,22.56659 -71.36849,32.53386 -4.60787,1.94198 -9.07612,3.80763 -13.38932,5.60026 z m 328.08985,47.885416 c -19.96871,3e-5 -36.68018,8.19484 -47.54818,22.53516 V 121.99349 H 482.85286 V 273.88151 H 516.8112 V 171.16146 c 8.83025,-17.55959 25.19715,-27.10779 44.83203,-26.92969 4.66226,0.0419 11.3531,1.27555 16.85286,2.59766 5.66412,-7.61303 11.22647,-14.82183 19.16407,-20.68099 -10.63582,-3.92734 -23.21421,-7.66669 -33.30078,-7.66667 z m 293.92187,0 c -19.96867,4e-5 -36.67892,8.19485 -47.54687,22.53516 v -19.02344 l -33.95964,0.73177 v 151.15625 h 33.95964 V 171.16146 c 8.8303,-17.55959 25.19709,-27.10779 44.83203,-26.92969 0.91818,0.008 1.86235,0.0506 2.82942,0.11979 6.50677,-8.48824 14.29837,-15.7197 23.10157,-21.6263 -7.94785,-2.42969 -16.18778,-4.2435 -23.21615,-4.24349 z m -190.50521,0.58203 c -50.26447,0 -90,35.72281 -90,79.03646 0,43.31365 39.73553,77.26172 90,77.26172 50.26446,0 90,-33.94807 90,-77.26172 0,-43.31365 -39.73554,-79.03646 -90,-79.03646 z m 280.48568,0.58724 c -33.79268,0 -61.55653,12.8519 -78.42318,36.02344 l 18.66537,13.20703 c 19.44622,-17.85987 39.04278,-24.64974 55.0052,-24.64974 27.50957,0 47.20573,10.2462 47.20573,31.31771 v 15.80469 c -14.26432,-5.56053 -35.05751,-8.48568 -51.69922,-8.48568 -43.47187,0 -71.52994,19.03617 -71.52994,47.13151 0,26.9247 27.71934,45.36198 65.07812,45.36198 21.05676,0 42.86785,-6.7494 58.15104,-17.28516 v 15.80469 H 1024 V 172.03906 c 0,-33.94854 -41.94561,-52.38802 -75.73828,-52.38802 z m -526.33203,2.34245 v 126.42839 h -42.45313 c -26.49073,0 -43.13151,-14.63539 -43.13151,-38.04818 v -83.82552 c -10.87101,8.84428 -22.38704,16.9454 -33.6237,24.18099 v 64.61979 c 0,34.53386 27.50632,58.53255 67.58204,58.53255 h 51.6263 33.95963 V 121.99349 Z m 245.84635,22.82552 c 31.58511,0 56.71485,24.30794 56.71485,53.28125 0,28.97333 -25.12974,51.50521 -56.71485,51.50521 -31.5851,0 -56.72005,-22.53188 -56.72005,-51.50521 0,-28.97331 25.13495,-53.28125 56.72005,-53.28125 z M 273.42708,168.5026 c -9.94975,5.75832 -20.16599,11.41157 -30.51823,16.90495 l -6.63932,3.52604 v 84.94271 h 37.15755 z m 668.30469,34.5586 c 17.32088,0 36.07732,2.92476 48.98307,9.36328 v 25.16927 c -12.56617,9.65777 -32.00139,16.11068 -50.34114,16.11068 -23.09451,0 -40.28125,-9.95133 -40.28125,-24.29167 0,-14.92564 16.84677,-26.35156 41.63932,-26.35156 z" />
</svg>
