<svg width="444" height="99" viewBox="0 0 444 99" fill="none" xmlns="http://www.w3.org/2000/svg">
<path d="M0 97L31.008 12.408C32.5493 8.32799 34.952 5.29066 38.216 3.296C41.5707 1.21067 45.3333 0.167998 49.504 0.167998C53.6747 0.167998 57.4373 1.16533 60.792 3.15999C64.1467 5.06399 66.5493 8.10133 68 12.272L99.144 97H77.792L71.4 77.824H27.064L20.4 97H0ZM32.912 60.688H65.688L51.952 18.936C51.7707 18.3013 51.4533 17.848 51 17.576C50.6373 17.304 50.184 17.168 49.64 17.168C49.096 17.168 48.6427 17.3493 48.28 17.712C47.9173 17.984 47.6453 18.392 47.464 18.936L32.912 60.688ZM141.915 98.632C134.843 98.632 128.768 97.2267 123.691 94.416C118.614 91.6053 114.715 87.8427 111.995 83.128C109.366 78.4133 108.051 73.2 108.051 67.488V27.64H126.683V67.488C126.683 70.2987 127.363 72.8827 128.723 75.24C130.083 77.5067 131.896 79.32 134.163 80.68C136.52 82.04 139.104 82.72 141.915 82.72C144.726 82.72 147.264 82.04 149.531 80.68C151.888 79.32 153.747 77.5067 155.107 75.24C156.467 72.8827 157.147 70.2987 157.147 67.488V27.64H175.779V67.488C175.779 73.2 174.419 78.4133 171.699 83.128C169.07 87.8427 165.216 91.6053 160.139 94.416C155.152 97.2267 149.078 98.632 141.915 98.632ZM192.769 97V47.36C192.769 41.1947 194.492 36.3893 197.937 32.944C201.473 29.408 206.324 27.64 212.489 27.64H231.665V43.552H215.753C214.575 43.552 213.532 43.96 212.625 44.776C211.809 45.592 211.401 46.6347 211.401 47.904V97H192.769ZM275.246 98.632C268.083 98.632 261.691 97.0453 256.07 93.872C250.449 90.608 246.006 86.256 242.742 80.816C239.478 75.2853 237.846 69.12 237.846 62.32C237.846 55.52 239.478 49.4 242.742 43.96C246.006 38.4293 250.449 34.0773 256.07 30.904C261.691 27.64 268.083 26.008 275.246 26.008C282.409 26.008 288.801 27.64 294.422 30.904C300.043 34.0773 304.486 38.4293 307.75 43.96C311.014 49.4 312.646 55.52 312.646 62.32C312.646 69.12 311.014 75.2853 307.75 80.816C304.486 86.256 300.043 90.608 294.422 93.872C288.801 97.0453 282.409 98.632 275.246 98.632ZM275.246 82.72C279.054 82.72 282.318 81.8133 285.038 80C287.849 78.1867 289.979 75.7387 291.43 72.656C292.971 69.5733 293.742 66.128 293.742 62.32C293.742 58.512 292.971 55.0667 291.43 51.984C289.979 48.9013 287.849 46.4533 285.038 44.64C282.318 42.8267 279.054 41.92 275.246 41.92C271.438 41.92 268.129 42.8267 265.318 44.64C262.598 46.4533 260.467 48.9013 258.926 51.984C257.475 55.0667 256.75 58.512 256.75 62.32C256.75 66.128 257.475 69.5733 258.926 72.656C260.467 75.7387 262.598 78.1867 265.318 80C268.129 81.8133 271.438 82.72 275.246 82.72ZM325.582 97V47.36C325.582 41.1947 327.305 36.3893 330.75 32.944C334.286 29.408 339.137 27.64 345.302 27.64H364.478V43.552H348.566C347.387 43.552 346.345 43.96 345.438 44.776C344.622 45.592 344.214 46.6347 344.214 47.904V97H325.582ZM402.074 98.632C395.728 98.632 390.197 97 385.482 93.736C380.768 90.472 377.096 86.12 374.466 80.68C371.928 75.1493 370.658 69.0747 370.658 62.456C370.658 55.656 372.109 49.4907 375.01 43.96C378.002 38.4293 382.264 34.0773 387.794 30.904C393.325 27.64 399.944 26.008 407.65 26.008C415.448 26.008 422.021 27.64 427.37 30.904C432.72 34.168 436.8 38.5653 439.61 44.096C442.421 49.6267 443.826 55.7467 443.826 62.456V97H425.194V85.44H424.922C423.562 87.888 421.84 90.1093 419.754 92.104C417.76 94.0987 415.312 95.6853 412.41 96.864C409.509 98.0427 406.064 98.632 402.074 98.632ZM407.378 82.72C411.005 82.72 414.133 81.8133 416.762 80C419.392 78.1867 421.386 75.7387 422.746 72.656C424.197 69.4827 424.922 65.992 424.922 62.184C424.922 58.376 424.197 54.976 422.746 51.984C421.386 48.9013 419.392 46.4533 416.762 44.64C414.133 42.8267 411.005 41.92 407.378 41.92C403.661 41.92 400.442 42.8267 397.722 44.64C395.093 46.4533 393.053 48.9013 391.602 51.984C390.242 54.976 389.562 58.376 389.562 62.184C389.562 65.992 390.242 69.4827 391.602 72.656C393.053 75.7387 395.093 78.1867 397.722 80C400.442 81.8133 403.661 82.72 407.378 82.72Z" fill="url(#paint0_linear_1_2)"/>
<defs>
<linearGradient id="paint0_linear_1_2" x1="-3.16515e-09" y1="49" x2="435.015" y2="49.1784" gradientUnits="userSpaceOnUse">
<stop stop-color="#C85479"/>
<stop offset="0.374677" stop-color="#4C3B97"/>
<stop offset="0.645995" stop-color="#5180C4"/>
<stop offset="0.922481" stop-color="#5EBCF2"/>
</linearGradient>
</defs>
</svg>
