<svg width="10174" height="2682" viewBox="0 0 10174 2682" fill="none" xmlns="http://www.w3.org/2000/svg">
<path d="M7505.08 1645.68V583.512H7758.42L7760.74 875.201H7758.42C7811.87 791.529 7894.38 715.605 8005.95 647.428C8117.51 578.476 8246.89 544 8394.09 544C8457.62 544 8507.98 548.261 8545.16 556.783C8582.35 564.531 8613.34 573.44 8638.13 583.512V789.205C8610.24 778.359 8576.93 769.062 8538.19 761.314C8500.23 753.567 8449.87 749.693 8387.12 749.693C8247.66 749.693 8122.93 781.07 8012.92 843.824C7903.68 906.578 7820.78 984.827 7764.23 1078.57V1645.68H7505.08Z" fill="url(#paint0_linear_29_347)"/>
<path d="M5682.7 1114.6V1101.81C5682.7 935.243 5761.73 800.826 5919.77 698.561C6077.82 595.52 6288.16 544 6550.8 544C6814.21 544 7024.16 595.52 7180.66 698.561C7337.93 800.826 7416.57 935.243 7416.57 1101.81V1114.6C7416.57 1288.14 7337.93 1426.04 7180.66 1528.31C7023.39 1629.8 6813.44 1680.54 6550.8 1680.54C6287.39 1680.54 6076.66 1629.8 5918.61 1528.31C5761.34 1426.04 5682.7 1288.14 5682.7 1114.6ZM5938.37 1104.14V1121.57C5938.37 1232.36 5990.27 1322.23 6094.09 1391.18C6197.9 1460.13 6349.75 1494.61 6549.64 1494.61C6751.84 1494.61 6904.08 1460.13 7006.35 1391.18C7109.39 1322.23 7160.91 1231.97 7160.91 1120.41V1104.14C7160.91 994.124 7109.39 905.416 7006.35 838.014C6904.08 769.837 6751.84 735.748 6549.64 735.748C6349.75 735.748 6197.9 769.837 6094.09 838.014C5990.27 905.416 5938.37 994.124 5938.37 1104.14Z" fill="url(#paint1_linear_29_347)"/>
<path d="M4602.41 1645.68V583.512H4855.75L4858.07 875.201H4855.75C4909.2 791.529 4991.71 715.605 5103.28 647.428C5214.84 578.476 5344.22 544 5491.42 544C5554.95 544 5605.31 548.261 5642.49 556.783C5679.68 564.531 5710.67 573.44 5735.46 583.512V789.205C5707.57 778.359 5674.26 769.062 5635.52 761.314C5597.56 753.567 5547.2 749.693 5484.45 749.693C5344.99 749.693 5220.26 781.07 5110.25 843.824C5001.01 906.578 4918.11 984.827 4861.56 1078.57V1645.68H4602.41Z" fill="url(#paint2_linear_29_347)"/>
<path d="M3021 1157.59V583.512H3272.02V1114.6C3272.02 1233.13 3305.72 1325.32 3373.12 1391.18C3441.3 1457.03 3542.79 1489.96 3677.59 1489.96C3815.5 1489.96 3934.42 1461.29 4034.36 1403.96C4134.3 1346.63 4210.61 1280 4263.29 1204.08V583.512H4514.31V1645.68H4267.94L4264.46 1395.83H4267.94C4210.61 1468.65 4124.23 1535.28 4008.79 1595.71C3894.13 1656.14 3756.62 1686.35 3596.24 1686.35C3414.18 1686.35 3272.79 1641.42 3172.07 1551.55C3071.36 1460.9 3021 1329.59 3021 1157.59Z" fill="url(#paint3_linear_29_347)"/>
<path fill-rule="evenodd" clip-rule="evenodd" d="M1261.29 4.45207C1274 1.88119 1287.64 0.453264 1301.64 0.0919035C1343.65 -0.991977 1388.84 7.54764 1421.29 23.7866C1464.93 45.6186 1509.45 84.9893 1535.41 124.678C1557.39 158.296 1570.59 184.24 1757.1 560.51C1821.73 690.899 1888.96 825.419 1906.5 859.445C1924.04 893.471 1941.83 928.079 1946.04 936.351C1952.22 948.486 1954.6 951.504 1958.36 951.957C1961.05 952.28 1983.31 944.235 2010.99 932.94C2087.86 901.564 2266.7 831.345 2389.98 784.141C2461.64 756.702 2932.13 583.507 2935.24 583.507C2935.35 583.507 2935.13 590.736 2934.76 603.033C2933.8 634.898 2931.83 700.792 2931.83 763.093C2931.83 849.437 2929.07 909.2 2928.72 909.2C2927.57 909.2 2588.45 1023.19 2557.34 1034.65C2291.22 1132.71 1990.26 1257.88 1763.07 1365C1741.71 1375.08 1701.76 1393.87 1674.3 1406.77C1605.74 1438.98 1423.5 1532.27 1356.19 1569.61C1233.16 1637.87 1135.16 1697.16 1049.24 1755.32C969.773 1809.11 858.636 1891.9 807.771 1935.19C728.467 2002.69 625.513 2104.22 573.798 2165.94C534.741 2212.55 469.156 2302.81 441.276 2348.31C391.54 2429.49 346.666 2525.24 321.894 2603.07C313.17 2630.48 303.05 2670.3 303.05 2677.22C303.05 2679.87 302.424 2682.01 301.661 2681.99C300.899 2681.96 279.268 2669.73 253.595 2654.81C227.921 2639.89 173.714 2609.07 133.137 2586.34C57.1309 2543.76 8.88882 2515.17 2.70538 2509.04C-0.600788 2505.76 -0.682242 2504.47 1.40951 2488.97C9.17959 2431.37 30.0945 2358.64 56.6035 2297.05C61.1715 2286.44 66.0053 2277.14 67.3445 2276.37C70.5847 2274.53 81.5177 2249.58 80.3919 2246.59C79.9058 2245.3 81.3311 2243.02 83.5583 2241.52C85.7853 2240.02 89.6426 2233.4 92.1319 2226.81C94.6211 2220.22 98.1585 2212.81 99.9919 2210.34C101.825 2207.87 103.328 2204.78 103.328 2203.46C103.328 2200.81 112.938 2179.49 115.801 2175.8C116.796 2174.51 118.183 2171.04 118.882 2168.07C119.581 2165.1 121.36 2161.44 122.835 2159.94C124.311 2158.44 125.516 2155.65 125.516 2153.74C125.516 2150.47 147.577 2106.14 197.568 2008.95C209.535 1985.69 225.846 1953.96 233.817 1938.45C241.789 1922.94 275.455 1854.41 308.627 1786.16C341.8 1717.91 371.202 1658.45 373.964 1654.03C376.726 1649.61 379.519 1643.26 380.173 1639.94C380.828 1636.61 382.469 1632.77 383.818 1631.4C385.166 1630.03 386.267 1627.36 386.267 1625.48C386.267 1623.59 387.518 1621.57 389.044 1620.97C390.57 1620.38 391.817 1618.59 391.817 1617.01C391.817 1615.43 392.522 1614.13 393.387 1614.13C394.251 1614.13 397.327 1608.42 400.221 1601.44C403.114 1594.46 406.981 1586.21 408.814 1583.11C410.646 1580.01 412.15 1575.91 412.15 1574.01C412.15 1572.1 413.822 1568.39 415.856 1565.76C417.89 1563.13 419.555 1559.79 419.555 1558.34C419.555 1556.88 421.319 1553.27 423.473 1550.31C425.627 1547.35 426.786 1543.93 426.049 1542.72C425.301 1541.49 426.419 1538.9 428.583 1536.85C430.713 1534.83 433.024 1530.89 433.717 1528.08C434.41 1525.27 437.232 1519.81 439.992 1515.94C444.277 1509.92 448.356 1500.99 456.757 1479.23C457.655 1476.91 459.14 1473.1 460.054 1470.77C460.969 1468.45 462.733 1463.79 463.977 1460.43C465.22 1457.07 466.949 1454.32 467.822 1454.32C469.581 1454.32 476.885 1440.64 476.885 1437.34C476.885 1436.19 478.139 1433.97 479.674 1432.41C481.209 1430.85 481.991 1428.8 481.413 1427.85C480.835 1426.9 481.246 1426.12 482.323 1426.12C483.4 1426.12 484.279 1423.95 484.279 1421.29C484.279 1418.63 485.53 1415.18 487.056 1413.63C488.581 1412.08 489.829 1408.82 489.829 1406.38C489.829 1403.94 490.925 1400.83 492.266 1399.46C493.607 1398.1 499.126 1386.83 504.53 1374.42C517.024 1345.73 547.056 1281.01 549.022 1278.53C549.843 1277.5 552.747 1270.99 555.47 1264.06C558.194 1257.13 562.525 1249.32 565.097 1246.71C567.743 1244.02 569.971 1239.38 570.23 1236.02C570.483 1232.76 572.052 1229.31 573.717 1228.36C575.382 1227.42 576.744 1224.64 576.744 1222.19C576.744 1216.12 578.631 1211.59 580.636 1212.85C581.546 1213.42 582.294 1211.77 582.294 1209.17C582.294 1204 585.838 1194.87 587.844 1194.87C588.537 1194.87 590.071 1191.59 591.25 1187.59C592.429 1183.59 606.788 1151.23 623.164 1115.68C639.54 1080.13 657.99 1040.04 664.165 1026.6C670.34 1013.15 675.957 1001.73 676.642 1001.22C677.327 1000.7 678.44 997.974 679.118 995.159C679.795 992.344 682.025 988.453 684.074 986.513C686.235 984.465 687.333 981.74 686.685 980.023C686.039 978.313 687.187 975.419 689.408 973.162C691.521 971.014 693.249 967.903 693.249 966.249C693.249 964.595 701.9 944.501 712.471 921.596C723.042 898.692 735.558 871.197 740.286 860.495C745.013 849.794 759.584 818.064 772.663 789.988C785.744 761.912 802.03 726.251 808.855 710.74C815.68 695.229 829.008 666.043 838.471 645.879C847.934 625.715 863.153 592.296 872.291 571.615C881.429 550.933 896.806 517.09 906.462 496.41C916.118 475.729 929.112 446.301 935.333 431.015C941.555 415.729 954.189 387.903 963.407 369.181C972.625 350.458 985.803 321.929 992.691 305.786C1005.86 274.925 1049.1 183.688 1064.97 153.29C1074.37 135.282 1099.98 100.967 1124.23 73.905C1153.23 41.5347 1203.21 16.2051 1261.29 4.45207ZM1366.11 406.026C1351.27 382.722 1332.35 370.577 1310.92 370.577C1295.75 370.577 1286.86 375.076 1272.32 390.084C1259.66 403.163 1246.72 427.733 1218.81 491.708C1208.66 514.974 1193.3 549.662 1184.66 568.792C1176.03 587.922 1155.04 634.877 1138.03 673.138C1121.01 711.398 1099.2 760.046 1089.56 781.244C1079.93 802.442 1054.72 859.127 1033.54 907.21C1012.37 955.294 982.395 1022.56 966.943 1056.68C951.491 1090.8 927.365 1144.53 913.331 1176.07C879.237 1252.68 854.568 1306.39 821.787 1375.36C791.434 1439.22 741.927 1546.3 734.836 1563.42C728.679 1578.3 728.848 1580.29 736.263 1580.29C740.468 1580.29 746.753 1577.25 757.067 1570.25C765.194 1564.72 783.914 1553.17 798.662 1544.57C813.41 1535.97 855.85 1510.72 892.975 1488.47C930.099 1466.21 969.628 1442.54 980.816 1435.86C1091.11 1370.02 1371.42 1223.32 1500.96 1163.64C1533.18 1148.8 1622.36 1109.44 1666.64 1090.52L1692.26 1079.57L1691.18 1072.83C1690.59 1069.12 1629.37 942.555 1555.14 791.584C1480.9 640.612 1409.91 495.092 1397.38 468.206C1384.84 441.32 1370.77 413.34 1366.11 406.026Z" fill="url(#paint4_linear_29_347)"/>
<path d="M2035.92 1740.08C2035.89 1742.22 2047.95 1768.67 2062.72 1798.86C2088.38 1851.32 2089.79 1853.72 2094.28 1852.75C2096.86 1852.19 2115.06 1845.25 2134.71 1837.32C2154.36 1829.39 2212.26 1807.53 2263.37 1788.75C2314.48 1769.97 2357.14 1753.75 2358.18 1752.69C2362.84 1747.95 2346.93 1712.92 2300.81 1626.38C2269.26 1567.19 2179.15 1394.05 2171.15 1377.26C2167.26 1369.09 2166.25 1368.21 2162.03 1369.27C2153.61 1371.38 2011.11 1432.57 1979.32 1447.73C1962.39 1455.8 1937.96 1467.11 1925.03 1472.85C1912.1 1478.59 1900.77 1484.03 1899.85 1484.94C1898.88 1485.89 1904.82 1498.57 1913.88 1514.9C1939.9 1561.84 1962.14 1603.64 1990.85 1659.57C2005.85 1688.8 2019.6 1714.32 2021.41 1716.3C2023.22 1718.28 2024.7 1720.75 2024.7 1721.78C2024.7 1722.81 2027.24 1726.48 2030.34 1729.93C2033.44 1733.38 2035.96 1737.95 2035.92 1740.08Z" fill="url(#paint5_linear_29_347)"/>
<path d="M8585.78 1324.94C8585.78 1221.12 8637.69 1141.32 8741.5 1085.54C8846.09 1028.99 9001.82 1001.48 9208.67 1003.03L9848.99 1008.84V893.795C9848.99 836.464 9816.07 791.917 9750.21 760.152C9684.36 728.388 9565.44 712.506 9393.45 712.506C9233.85 712.506 9118.8 728.388 9048.3 760.152C8977.8 791.917 8942.55 834.527 8942.55 887.984V924.01L8711.29 922.848V876.363C8711.29 785.719 8772.49 707.857 8894.9 642.779C9017.31 576.926 9190.08 544 9413.2 544C9649.5 544 9823.04 573.827 9933.83 633.482C10045.4 692.363 10101.2 791.142 10101.2 929.82V1381.88C10101.2 1429.91 10105.8 1475.62 10115.1 1519.01C10124.4 1561.62 10138.4 1598.03 10157 1628.25V1645.68H9908.26C9893.54 1625.54 9881.15 1601.52 9871.07 1573.63C9861.78 1544.96 9855.19 1507.39 9851.32 1460.9C9806.38 1515.91 9725.42 1563.17 9608.44 1602.68C9492.23 1641.42 9342.31 1660.79 9158.7 1660.79C8976.64 1660.79 8835.63 1630.96 8735.69 1571.3C8635.75 1510.88 8585.78 1428.75 8585.78 1324.94ZM8834.47 1313.32C8834.47 1372.97 8866.62 1420.23 8930.93 1455.09C8995.23 1489.96 9100.21 1507.39 9245.86 1507.39C9397.71 1507.39 9536 1482.21 9660.73 1431.85C9786.24 1380.72 9848.99 1311.77 9848.99 1225V1151.78L9291.18 1148.3C9130.81 1147.52 9014.6 1159.53 8942.55 1184.32C8870.5 1209.11 8834.47 1252.11 8834.47 1313.32Z" fill="url(#paint6_linear_29_347)"/>
<defs>
<linearGradient id="paint0_linear_29_347" x1="40.0004" y1="-154.651" x2="10214" y2="-154.651" gradientUnits="userSpaceOnUse">
<stop stop-color="#FFC18F"/>
<stop offset="0.125" stop-color="#DE8673"/>
<stop offset="0.255" stop-color="#B64D66"/>
<stop offset="0.425" stop-color="#82578B"/>
<stop offset="0.56" stop-color="#6B4793"/>
<stop offset="0.775" stop-color="#4F62B0"/>
<stop offset="1" stop-color="#5180C4"/>
</linearGradient>
<linearGradient id="paint1_linear_29_347" x1="40.0003" y1="-154.651" x2="10214" y2="-154.651" gradientUnits="userSpaceOnUse">
<stop stop-color="#FFC18F"/>
<stop offset="0.125" stop-color="#DE8673"/>
<stop offset="0.255" stop-color="#B64D66"/>
<stop offset="0.425" stop-color="#82578B"/>
<stop offset="0.56" stop-color="#6B4793"/>
<stop offset="0.775" stop-color="#4F62B0"/>
<stop offset="1" stop-color="#5180C4"/>
</linearGradient>
<linearGradient id="paint2_linear_29_347" x1="40.5002" y1="480.474" x2="10213" y2="480.474" gradientUnits="userSpaceOnUse">
<stop stop-color="#FFC18F"/>
<stop offset="0.125" stop-color="#DE8673"/>
<stop offset="0.255" stop-color="#B64D66"/>
<stop offset="0.425" stop-color="#82578B"/>
<stop offset="0.56" stop-color="#6B4793"/>
<stop offset="0.775" stop-color="#4F62B0"/>
<stop offset="1" stop-color="#5180C4"/>
</linearGradient>
<linearGradient id="paint3_linear_29_347" x1="26" y1="-154.651" x2="10200" y2="-154.651" gradientUnits="userSpaceOnUse">
<stop stop-color="#FFC18F"/>
<stop offset="0.125" stop-color="#DE8673"/>
<stop offset="0.255" stop-color="#B64D66"/>
<stop offset="0.425" stop-color="#82578B"/>
<stop offset="0.56" stop-color="#6B4793"/>
<stop offset="0.775" stop-color="#4F62B0"/>
<stop offset="1" stop-color="#5180C4"/>
</linearGradient>
<linearGradient id="paint4_linear_29_347" x1="0" y1="-154.652" x2="10174" y2="-154.652" gradientUnits="userSpaceOnUse">
<stop stop-color="#FFC18F"/>
<stop offset="0.125" stop-color="#DE8673"/>
<stop offset="0.255" stop-color="#B64D66"/>
<stop offset="0.425" stop-color="#82578B"/>
<stop offset="0.56" stop-color="#6B4793"/>
<stop offset="0.775" stop-color="#4F62B0"/>
<stop offset="1" stop-color="#5180C4"/>
</linearGradient>
<linearGradient id="paint5_linear_29_347" x1="0" y1="-154.652" x2="10174" y2="-154.652" gradientUnits="userSpaceOnUse">
<stop stop-color="#FFC18F"/>
<stop offset="0.125" stop-color="#DE8673"/>
<stop offset="0.255" stop-color="#B64D66"/>
<stop offset="0.425" stop-color="#82578B"/>
<stop offset="0.56" stop-color="#6B4793"/>
<stop offset="0.775" stop-color="#4F62B0"/>
<stop offset="1" stop-color="#5180C4"/>
</linearGradient>
<linearGradient id="paint6_linear_29_347" x1="-16.9996" y1="-154.651" x2="10157" y2="-154.651" gradientUnits="userSpaceOnUse">
<stop stop-color="#FFC18F"/>
<stop offset="0.125" stop-color="#DE8673"/>
<stop offset="0.255" stop-color="#B64D66"/>
<stop offset="0.425" stop-color="#82578B"/>
<stop offset="0.56" stop-color="#6B4793"/>
<stop offset="0.775" stop-color="#4F62B0"/>
<stop offset="1" stop-color="#5180C4"/>
</linearGradient>
</defs>
</svg>
