<?xml version="1.0" encoding="UTF-8" standalone="no"?>
<svg
   width="1700.67"
   height="450"
   viewBox="0 0 1700.67 450.00001"
   fill="none"
   version="1.1"
   id="svg18"
   sodipodi:docname="bazzite (copy).svg"
   inkscape:version="1.3.2 (091e20ef0f, 2023-11-25)"
   xmlns:inkscape="http://www.inkscape.org/namespaces/inkscape"
   xmlns:sodipodi="http://sodipodi.sourceforge.net/DTD/sodipodi-0.dtd"
   xmlns="http://www.w3.org/2000/svg"
   xmlns:svg="http://www.w3.org/2000/svg">
  <path
     style="font-size:400px;font-family:Inter;-inkscape-font-specification:Inter;fill:#1a1a1a"
     d="M 335.10065,115.23438 281.58502,260.35156 H 388.81158 Z M 312.83502,76.367187 h 44.72656 L 468.6944,367.96875 h -41.01563 l -26.5625,-74.80469 H 269.67096 l -26.5625,74.80469 H 201.5069 Z M 505.99908,281.64062 V 149.21875 h 35.9375 v 131.05469 q 0,31.05468 12.10938,46.67968 12.10937,15.42969 36.32812,15.42969 29.10157,0 45.89844,-18.55469 16.99219,-18.55468 16.99219,-50.58593 V 149.21875 h 35.9375 v 218.75 h -35.9375 V 334.375 q -13.08594,19.92187 -30.46875,29.6875 -17.1875,9.57031 -40.03906,9.57031 -37.69532,0 -57.22657,-23.4375 -19.53125,-23.4375 -19.53125,-68.55469 z m 90.42969,-137.69531 z m 293.55469,38.86719 q -6.05469,-3.51563 -13.28125,-5.07813 -7.03125,-1.75781 -15.625,-1.75781 -30.46875,0 -46.875,19.92188 -16.21094,19.72656 -16.21094,56.83593 v 115.23438 h -36.13281 v -218.75 h 36.13281 v 33.98437 q 11.32813,-19.92187 29.49219,-29.49218 18.16406,-9.76563 44.14062,-9.76563 3.71094,0 8.20313,0.58594 4.49219,0.39062 9.96094,1.36719 z m 113.67184,-8.39844 q -28.90622,0 -45.70309,22.65625 -16.79688,22.46094 -16.79688,61.71875 0,39.25781 16.60157,61.91406 16.79687,22.46094 45.8984,22.46094 28.711,0 45.5078,-22.65625 16.7969,-22.65625 16.7969,-61.71875 0,-38.86719 -16.7969,-61.52344 -16.7968,-22.85156 -45.5078,-22.85156 z m 0,-30.46875 q 46.875,0 73.6328,30.46875 26.7579,30.46875 26.7579,84.375 0,53.71094 -26.7579,84.375 -26.7578,30.46875 -73.6328,30.46875 -47.07028,0 -73.82809,-30.46875 -26.5625,-30.66406 -26.5625,-84.375 0,-53.90625 26.5625,-84.375 26.75781,-30.46875 73.82809,-30.46875 z m 286.7188,38.86719 q -6.0547,-3.51563 -13.2813,-5.07813 -7.0312,-1.75781 -15.625,-1.75781 -30.4687,0 -46.875,19.92188 -16.2109,19.72656 -16.2109,56.83593 v 115.23438 h -36.1328 v -218.75 h 36.1328 v 33.98437 q 11.3281,-19.92187 29.4922,-29.49218 18.164,-9.76563 44.1406,-9.76563 3.7109,0 8.2031,0.58594 4.4922,0.39062 9.961,1.36719 z m 137.1094,75.19531 q -43.5547,0 -60.3516,9.96094 -16.7969,9.96094 -16.7969,33.98437 0,19.14063 12.5,30.46875 12.6953,11.13282 34.375,11.13282 29.8828,0 47.8516,-21.09375 18.164,-21.28907 18.164,-56.44532 v -8.00781 z m 71.6796,-14.84375 v 124.80469 h -35.9375 v -33.20313 q -12.3046,19.92188 -30.664,29.49219 -18.3594,9.375 -44.9219,9.375 -33.5937,0 -53.5156,-18.75 -19.7266,-18.94531 -19.7266,-50.58594 0,-36.91406 24.6094,-55.66406 24.8047,-18.75 73.8281,-18.75 h 50.3906 v -3.51562 q 0,-24.80469 -16.4062,-38.28125 -16.2109,-13.67188 -45.7031,-13.67188 -18.75,0 -36.5235,4.49219 -17.7734,4.49219 -34.1797,13.47656 v -33.20312 q 19.7266,-7.61719 38.2813,-11.32813 18.5547,-3.90625 36.1328,-3.90625 47.4609,0 70.8984,24.60938 23.4375,24.60937 23.4375,74.60937 z"
     id="text1"
     aria-label="Aurora" />
  <sodipodi:namedview
     id="namedview1"
     pagecolor="#ffffff"
     bordercolor="#000000"
     borderopacity="0.25"
     inkscape:showpageshadow="2"
     inkscape:pageopacity="0.0"
     inkscape:pagecheckerboard="0"
     inkscape:deskcolor="#d1d1d1"
     inkscape:zoom="0.17547098"
     inkscape:cx="851.99273"
     inkscape:cy="1273.7149"
     inkscape:window-width="1457"
     inkscape:window-height="1212"
     inkscape:window-x="26"
     inkscape:window-y="23"
     inkscape:window-maximized="0"
     inkscape:current-layer="svg18" />
  <defs
     id="defs18">
    <linearGradient
       id="paint0_linear_1016_57"
       x1="100"
       y1="100"
       x2="508"
       y2="508"
       gradientUnits="userSpaceOnUse">
      <stop
         offset="0.0684898"
         stop-color="#0047AB"
         id="stop15" />
      <stop
         offset="0.741212"
         stop-color="#8A2BE2"
         id="stop16" />
    </linearGradient>
    <linearGradient
       id="paint1_linear_1016_57"
       x1="1459.63"
       y1="161.55"
       x2="1459.63"
       y2="218.53"
       gradientUnits="userSpaceOnUse"
       gradientTransform="translate(-588,-161.165)">
      <stop
         stop-color="#59CAFD"
         id="stop17" />
      <stop
         offset="1"
         stop-color="#2B50EF"
         id="stop18" />
    </linearGradient>
  </defs>
</svg>
