<?xml version="1.0" encoding="UTF-8" standalone="no"?>
<svg
   width="1700.67"
   height="450"
   viewBox="0 0 1700.67 450.00001"
   fill="none"
   version="1.1"
   id="svg18"
   sodipodi:docname="bazzite.svg"
   inkscape:version="1.3.2 (091e20ef0f, 2023-11-25)"
   xmlns:inkscape="http://www.inkscape.org/namespaces/inkscape"
   xmlns:sodipodi="http://sodipodi.sourceforge.net/DTD/sodipodi-0.dtd"
   xmlns="http://www.w3.org/2000/svg"
   xmlns:svg="http://www.w3.org/2000/svg">
  <sodipodi:namedview
     id="namedview1"
     pagecolor="#ffffff"
     bordercolor="#000000"
     borderopacity="0.25"
     inkscape:showpageshadow="2"
     inkscape:pageopacity="0.0"
     inkscape:pagecheckerboard="0"
     inkscape:deskcolor="#d1d1d1"
     inkscape:zoom="0.35094196"
     inkscape:cx="629.73377"
     inkscape:cy="767.93326"
     inkscape:window-width="1509"
     inkscape:window-height="1288"
     inkscape:window-x="26"
     inkscape:window-y="23"
     inkscape:window-maximized="0"
     inkscape:current-layer="svg18" />
  <g
     id="g1"
     transform="translate(212.50002,82.165)">
    <path
       d="m 102.025,285.67 c -20.02,0 -37.73,-4.235 -53.13,-12.705 -15.4,-8.47 -27.463,-20.533 -36.19,-36.19 C 4.235,220.862 0,202.125 0,180.565 V 0 h 44.275 v 114.345 h 0.385 c 4.107,-6.93 9.497,-12.962 16.17,-18.095 6.673,-5.133 14.117,-9.112 22.33,-11.935 8.213,-2.823 16.94,-4.235 26.18,-4.235 18.737,0 35.163,4.235 49.28,12.705 14.373,8.213 25.538,19.763 33.495,34.65 8.213,14.887 12.32,32.34 12.32,52.36 0,15.657 -2.438,30.03 -7.315,43.12 -4.62,12.833 -11.422,23.998 -20.405,33.495 -8.727,9.497 -19.378,16.812 -31.955,21.945 -12.577,4.877 -26.822,7.315 -42.735,7.315 z m 0,-37.73 c 11.293,0 21.303,-2.695 30.03,-8.085 8.727,-5.647 15.528,-13.347 20.405,-23.1 4.877,-9.753 7.315,-21.047 7.315,-33.88 0,-12.577 -2.438,-23.742 -7.315,-33.495 -4.877,-9.753 -11.678,-17.453 -20.405,-23.1 -8.47,-5.647 -18.352,-8.47 -29.645,-8.47 -11.293,0 -21.303,2.823 -30.03,8.47 -8.727,5.39 -15.528,12.962 -20.405,22.715 -4.877,9.753 -7.315,21.047 -7.315,33.88 0,12.833 2.438,24.127 7.315,33.88 4.877,9.753 11.678,17.453 20.405,23.1 8.727,5.39 18.608,8.085 29.645,8.085 z"
       fill="white"
       id="path8"
       style="fill:#1a1a1a;fill-opacity:1" />
    <path
       d="m 314.446,285.67 c -18.737,0 -34.907,-4.62 -48.51,-13.86 -13.604,-9.24 -24.127,-21.56 -31.57,-36.96 -7.187,-15.657 -10.78,-32.853 -10.78,-51.59 0,-19.507 4.106,-36.96 12.32,-52.36 8.47,-15.657 20.405,-27.977 35.805,-36.96 15.656,-9.24 34.265,-13.86 55.825,-13.86 21.303,0 39.398,4.62 54.285,13.86 15.143,8.983 26.693,21.303 34.649,36.96 8.21,15.4 12.32,32.597 12.32,51.59 v 98.56 h -44.274 v -36.575 h -0.77 c -3.85,7.187 -8.855,13.988 -15.015,20.405 -6.16,6.16 -13.732,11.165 -22.715,15.015 -8.984,3.85 -19.507,5.775 -31.57,5.775 z m 11.935,-37.73 c 11.55,0 21.56,-2.823 30.03,-8.47 8.726,-5.903 15.4,-13.732 20.02,-23.485 4.876,-10.01 7.315,-21.175 7.315,-33.495 0,-12.32 -2.31,-23.228 -6.93,-32.725 -4.62,-9.753 -11.165,-17.453 -19.635,-23.1 -8.47,-5.903 -18.609,-8.855 -30.415,-8.855 -12.32,0 -22.844,2.952 -31.57,8.855 -8.727,5.647 -15.4,13.347 -20.02,23.1 -4.62,9.753 -6.93,20.79 -6.93,33.11 0,12.063 2.31,23.1 6.93,33.11 4.62,9.753 11.165,17.582 19.635,23.485 8.726,5.647 19.25,8.47 31.57,8.47 z"
       fill="white"
       id="path9"
       style="fill:#1a1a1a;fill-opacity:1" />
    <path
       d="m 502.17,281.05 c -8.47,0 -16.04,-2.053 -22.71,-6.16 -6.68,-4.107 -12.07,-9.625 -16.17,-16.555 -3.85,-6.93 -5.78,-14.502 -5.78,-22.715 0,-8.213 2.06,-15.657 6.16,-22.33 4.11,-6.673 9.76,-12.448 16.94,-17.325 l 85.47,-55.825 c 2.57,-1.283 4.11,-2.695 4.62,-4.235 0.77,-1.54 1.16,-3.08 1.16,-4.62 0,-2.31 -0.9,-4.363 -2.7,-6.16 -1.54,-1.797 -3.72,-2.695 -6.54,-2.695 H 467.14 V 84.7 h 108.57 c 8.47,0 15.91,2.053 22.33,6.16 6.67,4.107 11.93,9.625 15.78,16.555 4.11,6.93 6.16,14.502 6.16,22.715 0,8.213 -2.05,15.657 -6.16,22.33 -4.1,6.673 -9.75,12.448 -16.94,17.325 L 511.8,225.61 c -2.31,1.283 -3.98,2.695 -5.01,4.235 -0.77,1.54 -1.15,3.08 -1.15,4.62 0,2.31 0.9,4.363 2.69,6.16 1.8,1.797 4.11,2.695 6.93,2.695 h 100.87 v 37.73 z"
       fill="white"
       id="path10"
       style="fill:#1a1a1a;fill-opacity:1" />
    <path
       d="m 686.13,281.05 c -8.47,0 -16.04,-2.053 -22.71,-6.16 -6.68,-4.107 -12.07,-9.625 -16.17,-16.555 -3.85,-6.93 -5.78,-14.502 -5.78,-22.715 0,-8.213 2.05,-15.657 6.16,-22.33 4.11,-6.673 9.75,-12.448 16.94,-17.325 l 85.47,-55.825 c 2.57,-1.283 4.11,-2.695 4.62,-4.235 0.77,-1.54 1.16,-3.08 1.16,-4.62 0,-2.31 -0.9,-4.363 -2.7,-6.16 -1.54,-1.797 -3.72,-2.695 -6.54,-2.695 H 651.1 V 84.7 h 108.57 c 8.47,0 15.91,2.053 22.33,6.16 6.67,4.107 11.93,9.625 15.78,16.555 4.11,6.93 6.16,14.502 6.16,22.715 0,8.213 -2.05,15.657 -6.16,22.33 -4.11,6.673 -9.75,12.448 -16.94,17.325 l -85.08,55.825 c -2.31,1.283 -3.98,2.695 -5.01,4.235 -0.77,1.54 -1.15,3.08 -1.15,4.62 0,2.31 0.89,4.363 2.69,6.16 1.8,1.797 4.11,2.695 6.93,2.695 h 100.87 v 37.73 z"
       fill="white"
       id="path11"
       style="fill:#1a1a1a;fill-opacity:1" />
    <path
       d="M 849.68,281.05 V 84.7 h 44.28 v 196.35 z"
       fill="white"
       id="path12"
       style="fill:#1a1a1a;fill-opacity:1" />
    <path
       d="m 1014.82,281.05 c -17.45,0 -31.18,-5.005 -41.19,-15.015 C 963.87,256.025 959,242.422 959,225.225 V 35.42 h 43.89 V 223.3 c 0,5.903 1.79,10.78 5.39,14.63 3.59,3.593 8.34,5.39 14.24,5.39 h 41.2 v 37.73 z M 925.12,122.43 V 84.7 h 138.98 v 37.73 z"
       fill="white"
       id="path13"
       style="fill:#1a1a1a;fill-opacity:1" />
    <g
       id="g2">
      <path
         d="m 1198.29,281.05 c -22.08,0 -41.46,-4.107 -58.14,-12.32 -16.43,-8.47 -29.26,-20.02 -38.5,-34.65 -9.24,-14.887 -13.86,-31.955 -13.86,-51.205 0,-20.277 4.11,-38.115 12.32,-53.515 8.21,-15.4 19.51,-27.463 33.88,-36.19 14.37,-8.727 30.93,-13.09 49.67,-13.09 21.04,0 38.37,4.492 51.97,13.475 13.6,8.983 23.61,21.047 30.03,36.19 6.67,15.143 10.01,32.083 10.01,50.82 0,2.567 -0.13,5.518 -0.38,8.855 -0.26,3.337 -0.65,5.903 -1.16,7.7 h -139.37 c 1.54,10.267 5.26,18.865 11.17,25.795 5.9,6.673 13.34,11.807 22.33,15.4 8.98,3.337 18.99,5.005 30.03,5.005 h 52.74 v 37.73 z m -63.91,-113.96 h 97.02 c -0.26,-4.877 -1.03,-9.753 -2.31,-14.63 -1.03,-4.877 -2.83,-9.497 -5.39,-13.86 -2.31,-4.363 -5.39,-8.085 -9.24,-11.165 -3.6,-3.337 -7.96,-5.903 -13.09,-7.7 -5.14,-2.053 -11.04,-3.08 -17.71,-3.08 -7.7,0 -14.51,1.54 -20.41,4.62 -5.9,2.823 -10.91,6.673 -15.01,11.55 -4.11,4.62 -7.32,10.01 -9.63,16.17 -2.05,5.903 -3.46,11.935 -4.23,18.095 z"
         fill="white"
         id="path14"
         style="fill:#1a1a1a;fill-opacity:1" />
    </g>
    <path
       d="m 851.61,48.895 c 5.64,5.647 12.32,8.47 20.02,8.47 7.95,0 14.63,-2.823 20.02,-8.47 5.64,-5.647 8.47,-12.32 8.47,-20.02 0,-7.7 -2.83,-14.373 -8.47,-20.02 -5.39,-5.647 -12.07,-8.47 -20.02,-8.47 -7.7,0 -14.38,2.823 -20.02,8.47 -5.65,5.647 -8.47,12.32 -8.47,20.02 0,7.7 2.82,14.373 8.47,20.02 z"
       fill="url(#paint1_linear_1016_57)"
       id="path15"
       style="fill:url(#paint1_linear_1016_57)" />
  </g>
  <defs
     id="defs18">
    <linearGradient
       id="paint0_linear_1016_57"
       x1="100"
       y1="100"
       x2="508"
       y2="508"
       gradientUnits="userSpaceOnUse">
      <stop
         offset="0.0684898"
         stop-color="#0047AB"
         id="stop15" />
      <stop
         offset="0.741212"
         stop-color="#8A2BE2"
         id="stop16" />
    </linearGradient>
    <linearGradient
       id="paint1_linear_1016_57"
       x1="1459.63"
       y1="161.55"
       x2="1459.63"
       y2="218.53"
       gradientUnits="userSpaceOnUse"
       gradientTransform="translate(-588,-161.165)">
      <stop
         stop-color="#59CAFD"
         id="stop17" />
      <stop
         offset="1"
         stop-color="#2B50EF"
         id="stop18" />
    </linearGradient>
  </defs>
</svg>
