<svg 
 xmlns="http://www.w3.org/2000/svg"
 xmlns:xlink="http://www.w3.org/1999/xlink"
 width="103px" height="223px" viewBox="0 0 103 223" fill="#e0e0e0" aria-hidden="true">
<path fill-rule="evenodd"
 d="M101.500,203.000 C100.672,203.000 100.000,202.328 100.000,201.500 C100.000,200.672 100.672,200.000 101.500,200.000 C102.328,200.000 103.000,200.672 103.000,201.500 C103.000,202.328 102.328,203.000 101.500,203.000 ZM101.500,183.000 C100.672,183.000 100.000,182.328 100.000,181.500 C100.000,180.672 100.672,180.000 101.500,180.000 C102.328,180.000 103.000,180.672 103.000,181.500 C103.000,182.328 102.328,183.000 101.500,183.000 ZM101.500,163.000 C100.672,163.000 100.000,162.328 100.000,161.500 C100.000,160.672 100.672,160.000 101.500,160.000 C102.328,160.000 103.000,160.672 103.000,161.500 C103.000,162.328 102.328,163.000 101.500,163.000 ZM101.500,143.000 C100.672,143.000 100.000,142.328 100.000,141.500 C100.000,140.672 100.672,140.000 101.500,140.000 C102.328,140.000 103.000,140.672 103.000,141.500 C103.000,142.328 102.328,143.000 101.500,143.000 ZM101.500,123.000 C100.672,123.000 100.000,122.328 100.000,121.500 C100.000,120.672 100.672,120.000 101.500,120.000 C102.328,120.000 103.000,120.672 103.000,121.500 C103.000,122.328 102.328,123.000 101.500,123.000 ZM101.500,103.000 C100.672,103.000 100.000,102.328 100.000,101.500 C100.000,100.672 100.672,100.000 101.500,100.000 C102.328,100.000 103.000,100.672 103.000,101.500 C103.000,102.328 102.328,103.000 101.500,103.000 ZM101.500,83.000 C100.672,83.000 100.000,82.328 100.000,81.500 C100.000,80.672 100.672,80.000 101.500,80.000 C102.328,80.000 103.000,80.672 103.000,81.500 C103.000,82.328 102.328,83.000 101.500,83.000 ZM101.500,63.000 C100.672,63.000 100.000,62.328 100.000,61.500 C100.000,60.672 100.672,60.000 101.500,60.000 C102.328,60.000 103.000,60.672 103.000,61.500 C103.000,62.328 102.328,63.000 101.500,63.000 ZM101.500,43.000 C100.672,43.000 100.000,42.328 100.000,41.500 C100.000,40.672 100.672,40.000 101.500,40.000 C102.328,40.000 103.000,40.672 103.000,41.500 C103.000,42.328 102.328,43.000 101.500,43.000 ZM101.500,23.000 C100.672,23.000 100.000,22.328 100.000,21.500 C100.000,20.672 100.672,20.000 101.500,20.000 C102.328,20.000 103.000,20.672 103.000,21.500 C103.000,22.328 102.328,23.000 101.500,23.000 ZM101.500,3.000 C100.672,3.000 100.000,2.328 100.000,1.500 C100.000,0.672 100.672,0.000 101.500,0.000 C102.328,0.000 103.000,0.672 103.000,1.500 C103.000,2.328 102.328,3.000 101.500,3.000 ZM81.500,223.000 C80.672,223.000 80.000,222.328 80.000,221.500 C80.000,220.672 80.672,220.000 81.500,220.000 C82.328,220.000 83.000,220.672 83.000,221.500 C83.000,222.328 82.328,223.000 81.500,223.000 ZM81.500,203.000 C80.672,203.000 80.000,202.328 80.000,201.500 C80.000,200.672 80.672,200.000 81.500,200.000 C82.328,200.000 83.000,200.672 83.000,201.500 C83.000,202.328 82.328,203.000 81.500,203.000 ZM81.500,183.000 C80.672,183.000 80.000,182.328 80.000,181.500 C80.000,180.672 80.672,180.000 81.500,180.000 C82.328,180.000 83.000,180.672 83.000,181.500 C83.000,182.328 82.328,183.000 81.500,183.000 ZM81.500,163.000 C80.672,163.000 80.000,162.328 80.000,161.500 C80.000,160.672 80.672,160.000 81.500,160.000 C82.328,160.000 83.000,160.672 83.000,161.500 C83.000,162.328 82.328,163.000 81.500,163.000 ZM81.500,143.000 C80.672,143.000 80.000,142.328 80.000,141.500 C80.000,140.672 80.672,140.000 81.500,140.000 C82.328,140.000 83.000,140.672 83.000,141.500 C83.000,142.328 82.328,143.000 81.500,143.000 ZM81.500,123.000 C80.672,123.000 80.000,122.328 80.000,121.500 C80.000,120.672 80.672,120.000 81.500,120.000 C82.328,120.000 83.000,120.672 83.000,121.500 C83.000,122.328 82.328,123.000 81.500,123.000 ZM81.500,103.000 C80.672,103.000 80.000,102.328 80.000,101.500 C80.000,100.672 80.672,100.000 81.500,100.000 C82.328,100.000 83.000,100.672 83.000,101.500 C83.000,102.328 82.328,103.000 81.500,103.000 ZM81.500,83.000 C80.672,83.000 80.000,82.328 80.000,81.500 C80.000,80.672 80.672,80.000 81.500,80.000 C82.328,80.000 83.000,80.672 83.000,81.500 C83.000,82.328 82.328,83.000 81.500,83.000 ZM81.500,63.000 C80.672,63.000 80.000,62.328 80.000,61.500 C80.000,60.672 80.672,60.000 81.500,60.000 C82.328,60.000 83.000,60.672 83.000,61.500 C83.000,62.328 82.328,63.000 81.500,63.000 ZM81.500,43.000 C80.672,43.000 80.000,42.328 80.000,41.500 C80.000,40.672 80.672,40.000 81.500,40.000 C82.328,40.000 83.000,40.672 83.000,41.500 C83.000,42.328 82.328,43.000 81.500,43.000 ZM81.500,23.000 C80.672,23.000 80.000,22.328 80.000,21.500 C80.000,20.672 80.672,20.000 81.500,20.000 C82.328,20.000 83.000,20.672 83.000,21.500 C83.000,22.328 82.328,23.000 81.500,23.000 ZM81.500,3.000 C80.672,3.000 80.000,2.328 80.000,1.500 C80.000,0.672 80.672,0.000 81.500,0.000 C82.328,0.000 83.000,0.672 83.000,1.500 C83.000,2.328 82.328,3.000 81.500,3.000 ZM61.500,223.000 C60.672,223.000 60.000,222.328 60.000,221.500 C60.000,220.672 60.672,220.000 61.500,220.000 C62.328,220.000 63.000,220.672 63.000,221.500 C63.000,222.328 62.328,223.000 61.500,223.000 ZM61.500,203.000 C60.672,203.000 60.000,202.328 60.000,201.500 C60.000,200.672 60.672,200.000 61.500,200.000 C62.328,200.000 63.000,200.672 63.000,201.500 C63.000,202.328 62.328,203.000 61.500,203.000 ZM61.500,183.000 C60.672,183.000 60.000,182.328 60.000,181.500 C60.000,180.672 60.672,180.000 61.500,180.000 C62.328,180.000 63.000,180.672 63.000,181.500 C63.000,182.328 62.328,183.000 61.500,183.000 ZM61.500,163.000 C60.672,163.000 60.000,162.328 60.000,161.500 C60.000,160.672 60.672,160.000 61.500,160.000 C62.328,160.000 63.000,160.672 63.000,161.500 C63.000,162.328 62.328,163.000 61.500,163.000 ZM61.500,143.000 C60.672,143.000 60.000,142.328 60.000,141.500 C60.000,140.672 60.672,140.000 61.500,140.000 C62.328,140.000 63.000,140.672 63.000,141.500 C63.000,142.328 62.328,143.000 61.500,143.000 ZM61.500,123.000 C60.672,123.000 60.000,122.328 60.000,121.500 C60.000,120.672 60.672,120.000 61.500,120.000 C62.328,120.000 63.000,120.672 63.000,121.500 C63.000,122.328 62.328,123.000 61.500,123.000 ZM61.500,103.000 C60.672,103.000 60.000,102.328 60.000,101.500 C60.000,100.672 60.672,100.000 61.500,100.000 C62.328,100.000 63.000,100.672 63.000,101.500 C63.000,102.328 62.328,103.000 61.500,103.000 ZM61.500,83.000 C60.672,83.000 60.000,82.328 60.000,81.500 C60.000,80.672 60.672,80.000 61.500,80.000 C62.328,80.000 63.000,80.672 63.000,81.500 C63.000,82.328 62.328,83.000 61.500,83.000 ZM61.500,63.000 C60.672,63.000 60.000,62.328 60.000,61.500 C60.000,60.672 60.672,60.000 61.500,60.000 C62.328,60.000 63.000,60.672 63.000,61.500 C63.000,62.328 62.328,63.000 61.500,63.000 ZM61.500,43.000 C60.672,43.000 60.000,42.328 60.000,41.500 C60.000,40.672 60.672,40.000 61.500,40.000 C62.328,40.000 63.000,40.672 63.000,41.500 C63.000,42.328 62.328,43.000 61.500,43.000 ZM61.500,23.000 C60.672,23.000 60.000,22.328 60.000,21.500 C60.000,20.672 60.672,20.000 61.500,20.000 C62.328,20.000 63.000,20.672 63.000,21.500 C63.000,22.328 62.328,23.000 61.500,23.000 ZM61.500,3.000 C60.672,3.000 60.000,2.328 60.000,1.500 C60.000,0.672 60.672,0.000 61.500,0.000 C62.328,0.000 63.000,0.672 63.000,1.500 C63.000,2.328 62.328,3.000 61.500,3.000 ZM41.500,223.000 C40.672,223.000 40.000,222.328 40.000,221.500 C40.000,220.672 40.672,220.000 41.500,220.000 C42.328,220.000 43.000,220.672 43.000,221.500 C43.000,222.328 42.328,223.000 41.500,223.000 ZM41.500,203.000 C40.672,203.000 40.000,202.328 40.000,201.500 C40.000,200.672 40.672,200.000 41.500,200.000 C42.328,200.000 43.000,200.672 43.000,201.500 C43.000,202.328 42.328,203.000 41.500,203.000 ZM41.500,183.000 C40.672,183.000 40.000,182.328 40.000,181.500 C40.000,180.672 40.672,180.000 41.500,180.000 C42.328,180.000 43.000,180.672 43.000,181.500 C43.000,182.328 42.328,183.000 41.500,183.000 ZM41.500,163.000 C40.672,163.000 40.000,162.328 40.000,161.500 C40.000,160.672 40.672,160.000 41.500,160.000 C42.328,160.000 43.000,160.672 43.000,161.500 C43.000,162.328 42.328,163.000 41.500,163.000 ZM41.500,143.000 C40.672,143.000 40.000,142.328 40.000,141.500 C40.000,140.672 40.672,140.000 41.500,140.000 C42.328,140.000 43.000,140.672 43.000,141.500 C43.000,142.328 42.328,143.000 41.500,143.000 ZM41.500,123.000 C40.672,123.000 40.000,122.328 40.000,121.500 C40.000,120.672 40.672,120.000 41.500,120.000 C42.328,120.000 43.000,120.672 43.000,121.500 C43.000,122.328 42.328,123.000 41.500,123.000 ZM41.500,103.000 C40.672,103.000 40.000,102.328 40.000,101.500 C40.000,100.672 40.672,100.000 41.500,100.000 C42.328,100.000 43.000,100.672 43.000,101.500 C43.000,102.328 42.328,103.000 41.500,103.000 ZM41.500,83.000 C40.672,83.000 40.000,82.328 40.000,81.500 C40.000,80.672 40.672,80.000 41.500,80.000 C42.328,80.000 43.000,80.672 43.000,81.500 C43.000,82.328 42.328,83.000 41.500,83.000 ZM41.500,63.000 C40.672,63.000 40.000,62.328 40.000,61.500 C40.000,60.672 40.672,60.000 41.500,60.000 C42.328,60.000 43.000,60.672 43.000,61.500 C43.000,62.328 42.328,63.000 41.500,63.000 ZM41.500,43.000 C40.672,43.000 40.000,42.328 40.000,41.500 C40.000,40.672 40.672,40.000 41.500,40.000 C42.328,40.000 43.000,40.672 43.000,41.500 C43.000,42.328 42.328,43.000 41.500,43.000 ZM41.500,23.000 C40.672,23.000 40.000,22.328 40.000,21.500 C40.000,20.672 40.672,20.000 41.500,20.000 C42.328,20.000 43.000,20.672 43.000,21.500 C43.000,22.328 42.328,23.000 41.500,23.000 ZM41.500,3.000 C40.672,3.000 40.000,2.328 40.000,1.500 C40.000,0.672 40.672,0.000 41.500,0.000 C42.328,0.000 43.000,0.672 43.000,1.500 C43.000,2.328 42.328,3.000 41.500,3.000 ZM21.500,223.000 C20.672,223.000 20.000,222.328 20.000,221.500 C20.000,220.672 20.672,220.000 21.500,220.000 C22.328,220.000 23.000,220.672 23.000,221.500 C23.000,222.328 22.328,223.000 21.500,223.000 ZM21.500,203.000 C20.672,203.000 20.000,202.328 20.000,201.500 C20.000,200.672 20.672,200.000 21.500,200.000 C22.328,200.000 23.000,200.672 23.000,201.500 C23.000,202.328 22.328,203.000 21.500,203.000 ZM21.500,183.000 C20.672,183.000 20.000,182.328 20.000,181.500 C20.000,180.672 20.672,180.000 21.500,180.000 C22.328,180.000 23.000,180.672 23.000,181.500 C23.000,182.328 22.328,183.000 21.500,183.000 ZM21.500,163.000 C20.672,163.000 20.000,162.328 20.000,161.500 C20.000,160.672 20.672,160.000 21.500,160.000 C22.328,160.000 23.000,160.672 23.000,161.500 C23.000,162.328 22.328,163.000 21.500,163.000 ZM21.500,143.000 C20.672,143.000 20.000,142.328 20.000,141.500 C20.000,140.672 20.672,140.000 21.500,140.000 C22.328,140.000 23.000,140.672 23.000,141.500 C23.000,142.328 22.328,143.000 21.500,143.000 ZM21.500,123.000 C20.672,123.000 20.000,122.328 20.000,121.500 C20.000,120.672 20.672,120.000 21.500,120.000 C22.328,120.000 23.000,120.672 23.000,121.500 C23.000,122.328 22.328,123.000 21.500,123.000 ZM21.500,103.000 C20.672,103.000 20.000,102.328 20.000,101.500 C20.000,100.672 20.672,100.000 21.500,100.000 C22.328,100.000 23.000,100.672 23.000,101.500 C23.000,102.328 22.328,103.000 21.500,103.000 ZM21.500,83.000 C20.672,83.000 20.000,82.328 20.000,81.500 C20.000,80.672 20.672,80.000 21.500,80.000 C22.328,80.000 23.000,80.672 23.000,81.500 C23.000,82.328 22.328,83.000 21.500,83.000 ZM21.500,63.000 C20.672,63.000 20.000,62.328 20.000,61.500 C20.000,60.672 20.672,60.000 21.500,60.000 C22.328,60.000 23.000,60.672 23.000,61.500 C23.000,62.328 22.328,63.000 21.500,63.000 ZM21.500,43.000 C20.672,43.000 20.000,42.328 20.000,41.500 C20.000,40.672 20.672,40.000 21.500,40.000 C22.328,40.000 23.000,40.672 23.000,41.500 C23.000,42.328 22.328,43.000 21.500,43.000 ZM21.500,23.000 C20.672,23.000 20.000,22.328 20.000,21.500 C20.000,20.672 20.672,20.000 21.500,20.000 C22.328,20.000 23.000,20.672 23.000,21.500 C23.000,22.328 22.328,23.000 21.500,23.000 ZM21.500,3.000 C20.672,3.000 20.000,2.328 20.000,1.500 C20.000,0.672 20.672,0.000 21.500,0.000 C22.328,0.000 23.000,0.672 23.000,1.500 C23.000,2.328 22.328,3.000 21.500,3.000 ZM1.500,223.000 C0.672,223.000 -0.000,222.328 -0.000,221.500 C-0.000,220.672 0.672,220.000 1.500,220.000 C2.328,220.000 3.000,220.672 3.000,221.500 C3.000,222.328 2.328,223.000 1.500,223.000 ZM1.500,203.000 C0.672,203.000 -0.000,202.328 -0.000,201.500 C-0.000,200.672 0.672,200.000 1.500,200.000 C2.328,200.000 3.000,200.672 3.000,201.500 C3.000,202.328 2.328,203.000 1.500,203.000 ZM1.500,183.000 C0.672,183.000 -0.000,182.328 -0.000,181.500 C-0.000,180.672 0.672,180.000 1.500,180.000 C2.328,180.000 3.000,180.672 3.000,181.500 C3.000,182.328 2.328,183.000 1.500,183.000 ZM1.500,163.000 C0.672,163.000 -0.000,162.328 -0.000,161.500 C-0.000,160.672 0.672,160.000 1.500,160.000 C2.328,160.000 3.000,160.672 3.000,161.500 C3.000,162.328 2.328,163.000 1.500,163.000 ZM1.500,143.000 C0.672,143.000 -0.000,142.328 -0.000,141.500 C-0.000,140.672 0.672,140.000 1.500,140.000 C2.328,140.000 3.000,140.672 3.000,141.500 C3.000,142.328 2.328,143.000 1.500,143.000 ZM1.500,123.000 C0.672,123.000 -0.000,122.328 -0.000,121.500 C-0.000,120.672 0.672,120.000 1.500,120.000 C2.328,120.000 3.000,120.672 3.000,121.500 C3.000,122.328 2.328,123.000 1.500,123.000 ZM1.500,103.000 C0.672,103.000 -0.000,102.328 -0.000,101.500 C-0.000,100.672 0.672,100.000 1.500,100.000 C2.328,100.000 3.000,100.672 3.000,101.500 C3.000,102.328 2.328,103.000 1.500,103.000 ZM1.500,83.000 C0.672,83.000 -0.000,82.328 -0.000,81.500 C-0.000,80.672 0.672,80.000 1.500,80.000 C2.328,80.000 3.000,80.672 3.000,81.500 C3.000,82.328 2.328,83.000 1.500,83.000 ZM1.500,63.000 C0.672,63.000 -0.000,62.328 -0.000,61.500 C-0.000,60.672 0.672,60.000 1.500,60.000 C2.328,60.000 3.000,60.672 3.000,61.500 C3.000,62.328 2.328,63.000 1.500,63.000 ZM1.500,43.000 C0.672,43.000 -0.000,42.328 -0.000,41.500 C-0.000,40.672 0.672,40.000 1.500,40.000 C2.328,40.000 3.000,40.672 3.000,41.500 C3.000,42.328 2.328,43.000 1.500,43.000 ZM1.500,23.000 C0.672,23.000 -0.000,22.328 -0.000,21.500 C-0.000,20.672 0.672,20.000 1.500,20.000 C2.328,20.000 3.000,20.672 3.000,21.500 C3.000,22.328 2.328,23.000 1.500,23.000 ZM1.500,3.000 C0.672,3.000 -0.000,2.328 -0.000,1.500 C-0.000,0.672 0.672,0.000 1.500,0.000 C2.328,0.000 3.000,0.672 3.000,1.500 C3.000,2.328 2.328,3.000 1.500,3.000 ZM101.500,220.000 C102.328,220.000 103.000,220.672 103.000,221.500 C103.000,222.328 102.328,223.000 101.500,223.000 C100.672,223.000 100.000,222.328 100.000,221.500 C100.000,220.672 100.672,220.000 101.500,220.000 Z"/>
</svg>