<svg xmlns="http://www.w3.org/2000/svg" width="32" height="32" viewBox="0 0 32 32">
  <defs>
    <style>
      .cls-1 {
        fill: #111;
        fill-rule: evenodd;
      }
    </style>
  </defs>
  <path id="Wave" class="cls-1" d="M46,16.078v1.2c-2.784.018-7.1,0.537-9.1-.072-1.849-.564-2.8-2.691-3.924-3.676-0.6-.522-0.907.607-1.127,1.274-0.6,2.173-1.705,5.129-3.256,6.15a4.621,4.621,0,0,1-4.8-.073c-2.029-1.416-2.508-5.467-3.757-8.516-0.46-1.122-.94-2.7-1.837-2.547-0.488.083-.983,1.151-1.173,1.854a25.389,25.389,0,0,0-.873,3.569c-0.771,3.725-1.035,5.608-2.964,7.751a4.3,4.3,0,0,1-4.926.437c-1.558-.947-2.188-3.336-3.048-5.313-0.518-1.192-.974-2.3-1.252-2.948a0.783,0.783,0,0,0-1.336.11,8.407,8.407,0,0,0-.543,1.128c-1.466,3.079-3.468,8.845-8.016,5.277a7.982,7.982,0,0,1-1.8-2.22c-0.288-.432-0.637-1.437-1.169-1.638a10.342,10.342,0,0,0-2.881-.327c-2.073,0-4.147-.146-6.22-0.146V16.115c3.286-.135,9.642-0.4,10.521.145C-5.8,17.306-5.411,21.025-3.3,20.737-1.751,20.524-.493,16,0.62,14.55A3,3,0,0,1,4,13.277c2.077,0.684,3.681,4.563,4.467,6.732,0.225,0.622,1.084,2.512,2.213,2.147,0.706-.228,1.595-2.124,1.837-3.021,1.02-3.778,1.451-6.152,2.547-8.661,0.428-.982,1.6-2.754,3.465-2.438,3.245,0.548,4.688,6.051,5.594,8.915a3.286,3.286,0,0,0,1.712,2.329c1.283,0.473,1.72-.788,2.087-1.419,1-1.718,2.008-5.943,4.175-6.406,2.268-.483,3.995,2.347,5.177,3.567C38.705,16.5,43.357,16.082,46,16.078Z"/>
</svg>
