<svg id="Logo" xmlns="http://www.w3.org/2000/svg" width="210" height="68" viewBox="0 0 210 68">
  <defs>
    <style>
      .cls-1 {
        fill: #fff;
        fill-rule: evenodd;
      }
    </style>
  </defs>
  <path id="Reso." class="cls-1" d="M205.415,53.244a3.664,3.664,0,0,1-2.744,1.092,3.756,3.756,0,0,1-2.772-1.092,3.555,3.555,0,0,1-1.092-2.6,3.621,3.621,0,0,1,1.092-2.66,3.756,3.756,0,0,1,2.772-1.092,3.685,3.685,0,0,1,3.808,3.752A3.6,3.6,0,0,1,205.415,53.244Zm-16.8-.392a14.221,14.221,0,0,1-7.168,1.82,14.064,14.064,0,0,1-7.14-1.82,13.273,13.273,0,0,1-5.012-5.1,15.3,15.3,0,0,1-1.848-7.644,15.111,15.111,0,0,1,1.876-7.644,13.42,13.42,0,0,1,5.068-5.1,14.86,14.86,0,0,1,14.252,0,13.491,13.491,0,0,1,5.04,5.1,15.121,15.121,0,0,1,1.876,7.644,15.121,15.121,0,0,1-1.876,7.644A13.42,13.42,0,0,1,188.615,52.852Zm-0.252-17.976a7.733,7.733,0,0,0-10.808-3.164,7.8,7.8,0,0,0-2.94,3.164,11.031,11.031,0,0,0-1.12,5.236,11.029,11.029,0,0,0,1.12,5.236,7.86,7.86,0,0,0,2.912,3.164,7.533,7.533,0,0,0,3.92,1.064,7.687,7.687,0,0,0,3.948-1.064,7.8,7.8,0,0,0,2.94-3.164,11.041,11.041,0,0,0,1.12-5.236A11.272,11.272,0,0,0,188.363,34.876Zm-35.2,2.548a48.261,48.261,0,0,1,5.18,1.428,9.154,9.154,0,0,1,3.836,2.38,6.518,6.518,0,0,1,1.456,4.592,7.768,7.768,0,0,1-2.94,6.328q-3,2.52-8.148,2.52a14.015,14.015,0,0,1-8.68-2.576,9.647,9.647,0,0,1-3.92-6.832h5.992a5.928,5.928,0,0,0,2.128,3.276,6.773,6.773,0,0,0,4.424,1.372,5.714,5.714,0,0,0,3.92-1.12,3.4,3.4,0,0,0,1.232-2.576,2.857,2.857,0,0,0-1.708-2.884,23.963,23.963,0,0,0-4.732-1.372,35.819,35.819,0,0,1-4.676-1.344,10.338,10.338,0,0,1-3.864-2.38,5.635,5.635,0,0,1-1.54-4.172,7.725,7.725,0,0,1,2.8-6.076q2.8-2.436,7.84-2.436a11.936,11.936,0,0,1,7.532,2.24,9.034,9.034,0,0,1,3.388,6.328h-5.712a4.114,4.114,0,0,0-1.652-2.8,6.06,6.06,0,0,0-3.668-1.008,5.69,5.69,0,0,0-3.472.924,2.85,2.85,0,0,0-1.232,2.38,2.555,2.555,0,0,0,1.708,2.3A22.144,22.144,0,0,0,153.167,37.424Zm-16.3,4.088H115.255a8.587,8.587,0,0,0,2.66,6.132,8.084,8.084,0,0,0,5.516,2.1,7.409,7.409,0,0,0,4.228-1.148,6.949,6.949,0,0,0,2.548-3.108h5.936a12.606,12.606,0,0,1-4.452,6.552,12.908,12.908,0,0,1-8.26,2.632,14.288,14.288,0,0,1-7.252-1.82,12.939,12.939,0,0,1-4.956-5.068,15.393,15.393,0,0,1-1.792-7.56,16.049,16.049,0,0,1,1.764-7.672,12.849,12.849,0,0,1,4.928-5.152,14.333,14.333,0,0,1,7.364-1.848,13.533,13.533,0,0,1,7.112,1.82,12.871,12.871,0,0,1,4.7,4.844,13.491,13.491,0,0,1,1.68,6.664q0,0.56-.028,1.2T136.871,41.512Zm-8.12-9.184a7.686,7.686,0,0,0-5.32-1.9,8.406,8.406,0,0,0-5.264,1.764,7.715,7.715,0,0,0-2.8,5.292h15.68A7.089,7.089,0,0,0,128.751,32.328ZM100.528,54L92.912,38.208h-7V54H79.976V14.8h13.5a16.429,16.429,0,0,1,7.644,1.568,10.407,10.407,0,0,1,4.452,4.228,12.109,12.109,0,0,1,1.456,5.908,11.853,11.853,0,0,1-1.932,6.608,10.684,10.684,0,0,1-6.02,4.256L107.416,54h-6.888Zm0.392-27.328a6.832,6.832,0,0,0-1.848-5.012q-1.848-1.876-5.992-1.876H85.912V33.728h7.224q4.032,0,5.908-1.96A7.066,7.066,0,0,0,100.92,26.672ZM38.712,65.655a13.879,13.879,0,0,1-15.423,0q-7.712-4.681-15.58-9.088A14.156,14.156,0,0,1,0,43.153V40.541a11.886,11.886,0,0,0,2.475,3.4c6.964,6.245,10.476-3.973,12.466-9.234,0.01,0,.185-0.542.9-2.038a0.937,0.937,0,0,1,1.79-.127c0.427,1.141,1.124,3.074,1.918,5.158,1.317,3.46,2.281,7.642,4.667,9.3,2.328,1.616,5.995,1.2,7.543-.764,2.954-3.75,3.359-7.044,4.539-13.565a49.653,49.653,0,0,1,1.337-6.245c0.29-1.23,1.049-3.1,1.8-3.245,1.373-.267,2.108,2.494,2.813,4.458,1.914,5.335,2.646,12.423,5.754,14.9a6.333,6.333,0,0,0,7.352.127C57.51,41.042,60.024,36.32,62,32.945V43.15a14.156,14.156,0,0,1-7.709,13.417Q46.424,60.974,38.712,65.655ZM51.123,39.742C49.6,39.1,48.946,37.27,48.5,35.667c-1.387-5.013-3.6-14.643-8.566-15.6-2.853-.551-4.65,2.55-5.306,4.268-1.677,4.391-2.337,8.546-3.9,15.157C30.36,41.056,29,44.374,27.918,44.773c-1.728.636-3.044-2.67-3.388-3.757-1.2-3.8-3.66-10.585-6.84-11.783-2.732-1.028-3.977,1.2-4.666,2.23-1.7,2.543-4.569,10.719-6.521,10.826-3.26.18-3.83-6-6.393-7.832C0.082,34.437.03,34.428,0,34.41v-9.6A14.158,14.158,0,0,1,7.709,11.4q7.868-4.407,15.58-9.087a13.874,13.874,0,0,1,15.423,0Q46.424,6.99,54.291,11.4A14.158,14.158,0,0,1,62,24.815v1.512c-2.914,3.759-5.885,8.421-7.68,10.932C53.6,38.267,53.088,40.57,51.123,39.742Z"/>
</svg>
