<svg 
 xmlns="http://www.w3.org/2000/svg"
 xmlns:xlink="http://www.w3.org/1999/xlink"
 width="53px" height="42px" viewBox="0 0 54 42" fill="currentColor" aria-hidden="true">
<path fill-rule="evenodd" 
 d="M23.214,28.828 C22.841,27.696 22.204,26.660 21.303,25.723 C20.362,24.747 19.126,23.985 17.597,23.437 C16.068,22.891 14.088,22.617 11.657,22.617 L8.363,22.617 C8.755,18.555 10.206,15.098 12.717,12.246 C15.226,9.395 18.697,6.895 23.129,4.746 L20.544,0.586 C14.943,3.047 10.156,6.660 6.181,11.426 C2.205,16.192 0.219,20.918 0.219,25.605 C0.219,30.645 1.373,34.590 3.684,37.441 C5.995,40.293 9.304,41.719 13.611,41.719 C16.352,41.719 18.732,40.781 20.749,38.906 C22.765,37.031 23.773,34.844 23.773,32.344 C23.773,31.133 23.587,29.962 23.214,28.828 ZM52.101,28.828 C51.728,27.696 51.091,26.660 50.190,25.723 C49.249,24.747 48.013,23.985 46.484,23.437 C44.955,22.891 42.975,22.617 40.544,22.617 L37.250,22.617 C37.642,18.555 39.093,15.098 41.603,12.246 C44.113,9.395 47.584,6.895 52.016,4.746 L49.431,0.586 C43.830,3.047 39.043,6.660 35.067,11.426 C31.092,16.192 29.105,20.918 29.105,25.605 C29.105,30.645 30.260,34.590 32.571,37.441 C34.882,40.293 38.190,41.719 42.498,41.719 C45.239,41.719 47.618,40.781 49.635,38.906 C51.651,37.031 52.660,34.844 52.660,32.344 C52.660,31.133 52.473,29.962 52.101,28.828 Z"/>
</svg>