<svg 
 xmlns="http://www.w3.org/2000/svg"
 xmlns:xlink="http://www.w3.org/1999/xlink"
 width="128px" height="228px" viewBox="0 0 128 228">
<path fill-rule="evenodd"  fill="rgb(26, 115, 232)"
 d="M124.000,207.999 C121.791,207.999 120.000,206.208 120.000,203.999 C120.000,201.789 121.791,199.998 124.000,199.998 C126.209,199.998 128.000,201.789 128.000,203.999 C128.000,206.208 126.209,207.999 124.000,207.999 ZM124.000,201.999 C122.895,201.999 122.000,202.894 122.000,203.999 C122.000,205.103 122.895,205.998 124.000,205.998 C125.104,205.998 126.000,205.103 126.000,203.999 C126.000,202.894 125.104,201.999 124.000,201.999 ZM124.000,187.998 C121.791,187.998 120.000,186.208 120.000,183.999 C120.000,181.790 121.791,179.999 124.000,179.999 C126.209,179.999 128.000,181.790 128.000,183.999 C128.000,186.208 126.209,187.998 124.000,187.998 ZM124.000,181.998 C122.895,181.998 122.000,182.894 122.000,183.999 C122.000,185.103 122.895,185.999 124.000,185.999 C125.104,185.999 126.000,185.103 126.000,183.999 C126.000,182.894 125.104,181.998 124.000,181.998 ZM124.000,167.999 C121.791,167.999 120.000,166.207 120.000,163.998 C120.000,161.789 121.791,159.999 124.000,159.999 C126.209,159.999 128.000,161.789 128.000,163.998 C128.000,166.207 126.209,167.999 124.000,167.999 ZM124.000,161.999 C122.895,161.999 122.000,162.894 122.000,163.998 C122.000,165.103 122.895,165.999 124.000,165.999 C125.104,165.999 126.000,165.103 126.000,163.998 C126.000,162.894 125.104,161.999 124.000,161.999 ZM124.000,147.999 C121.791,147.999 120.000,146.208 120.000,143.998 C120.000,141.789 121.791,139.998 124.000,139.998 C126.209,139.998 128.000,141.789 128.000,143.998 C128.000,146.208 126.209,147.999 124.000,147.999 ZM124.000,141.999 C122.895,141.999 122.000,142.894 122.000,143.998 C122.000,145.103 122.895,145.998 124.000,145.998 C125.104,145.998 126.000,145.103 126.000,143.998 C126.000,142.894 125.104,141.999 124.000,141.999 ZM124.000,127.998 C121.791,127.998 120.000,126.208 120.000,123.999 C120.000,121.790 121.791,119.998 124.000,119.998 C126.209,119.998 128.000,121.790 128.000,123.999 C128.000,126.208 126.209,127.998 124.000,127.998 ZM124.000,121.998 C122.895,121.998 122.000,122.894 122.000,123.999 C122.000,125.103 122.895,125.998 124.000,125.998 C125.104,125.998 126.000,125.103 126.000,123.999 C126.000,122.894 125.104,121.998 124.000,121.998 ZM124.000,107.998 C121.791,107.998 120.000,106.207 120.000,103.998 C120.000,101.789 121.791,99.999 124.000,99.999 C126.209,99.999 128.000,101.789 128.000,103.998 C128.000,106.207 126.209,107.998 124.000,107.998 ZM124.000,101.998 C122.895,101.998 122.000,102.894 122.000,103.998 C122.000,105.103 122.895,105.999 124.000,105.999 C125.104,105.999 126.000,105.103 126.000,103.998 C126.000,102.894 125.104,101.998 124.000,101.998 ZM124.000,87.999 C121.791,87.999 120.000,86.208 120.000,83.998 C120.000,81.789 121.791,79.998 124.000,79.998 C126.209,79.998 128.000,81.789 128.000,83.998 C128.000,86.208 126.209,87.999 124.000,87.999 ZM124.000,81.999 C122.895,81.999 122.000,82.894 122.000,83.998 C122.000,85.103 122.895,85.998 124.000,85.998 C125.104,85.998 126.000,85.103 126.000,83.998 C126.000,82.894 125.104,81.999 124.000,81.999 ZM124.000,67.998 C121.791,67.998 120.000,66.208 120.000,63.999 C120.000,61.790 121.791,59.998 124.000,59.998 C126.209,59.998 128.000,61.790 128.000,63.999 C128.000,66.208 126.209,67.998 124.000,67.998 ZM124.000,61.998 C122.895,61.998 122.000,62.894 122.000,63.999 C122.000,65.103 122.895,65.998 124.000,65.998 C125.104,65.998 126.000,65.103 126.000,63.999 C126.000,62.894 125.104,61.998 124.000,61.998 ZM124.000,47.998 C121.791,47.998 120.000,46.207 120.000,43.998 C120.000,41.789 121.791,39.999 124.000,39.999 C126.209,39.999 128.000,41.789 128.000,43.998 C128.000,46.207 126.209,47.998 124.000,47.998 ZM124.000,41.998 C122.895,41.998 122.000,42.894 122.000,43.998 C122.000,45.103 122.895,45.999 124.000,45.999 C125.104,45.999 126.000,45.103 126.000,43.998 C126.000,42.894 125.104,41.998 124.000,41.998 ZM124.000,27.999 C121.791,27.999 120.000,26.207 120.000,23.998 C120.000,21.789 121.791,19.998 124.000,19.998 C126.209,19.998 128.000,21.789 128.000,23.998 C128.000,26.207 126.209,27.999 124.000,27.999 ZM124.000,21.999 C122.895,21.999 122.000,22.894 122.000,23.998 C122.000,25.103 122.895,25.998 124.000,25.998 C125.104,25.998 126.000,25.103 126.000,23.998 C126.000,22.894 125.104,21.999 124.000,21.999 ZM124.000,7.998 C121.791,7.998 120.000,6.208 120.000,3.999 C120.000,1.790 121.791,-0.002 124.000,-0.002 C126.209,-0.002 128.000,1.790 128.000,3.999 C128.000,6.208 126.209,7.998 124.000,7.998 ZM124.000,1.998 C122.895,1.998 122.000,2.894 122.000,3.999 C122.000,5.103 122.895,5.998 124.000,5.998 C125.104,5.998 126.000,5.103 126.000,3.999 C126.000,2.894 125.104,1.998 124.000,1.998 ZM104.000,227.999 C101.791,227.999 100.000,226.207 100.000,223.998 C100.000,221.789 101.791,219.999 104.000,219.999 C106.209,219.999 108.000,221.789 108.000,223.998 C108.000,226.207 106.209,227.999 104.000,227.999 ZM104.000,221.999 C102.895,221.999 102.000,222.894 102.000,223.998 C102.000,225.103 102.895,225.999 104.000,225.999 C105.104,225.999 106.000,225.103 106.000,223.998 C106.000,222.894 105.104,221.999 104.000,221.999 ZM104.000,207.999 C101.791,207.999 100.000,206.208 100.000,203.999 C100.000,201.789 101.791,199.998 104.000,199.998 C106.209,199.998 108.000,201.789 108.000,203.999 C108.000,206.208 106.209,207.999 104.000,207.999 ZM104.000,201.999 C102.895,201.999 102.000,202.894 102.000,203.999 C102.000,205.103 102.895,205.998 104.000,205.998 C105.104,205.998 106.000,205.103 106.000,203.999 C106.000,202.894 105.104,201.999 104.000,201.999 ZM104.000,187.998 C101.791,187.998 100.000,186.208 100.000,183.999 C100.000,181.790 101.791,179.999 104.000,179.999 C106.209,179.999 108.000,181.790 108.000,183.999 C108.000,186.208 106.209,187.998 104.000,187.998 ZM104.000,181.998 C102.895,181.998 102.000,182.894 102.000,183.999 C102.000,185.103 102.895,185.999 104.000,185.999 C105.104,185.999 106.000,185.103 106.000,183.999 C106.000,182.894 105.104,181.998 104.000,181.998 ZM104.000,167.999 C101.791,167.999 100.000,166.207 100.000,163.998 C100.000,161.789 101.791,159.999 104.000,159.999 C106.209,159.999 108.000,161.789 108.000,163.998 C108.000,166.207 106.209,167.999 104.000,167.999 ZM104.000,161.999 C102.895,161.999 102.000,162.894 102.000,163.998 C102.000,165.103 102.895,165.999 104.000,165.999 C105.104,165.999 106.000,165.103 106.000,163.998 C106.000,162.894 105.104,161.999 104.000,161.999 ZM104.000,147.999 C101.791,147.999 100.000,146.208 100.000,143.998 C100.000,141.789 101.791,139.998 104.000,139.998 C106.209,139.998 108.000,141.789 108.000,143.998 C108.000,146.208 106.209,147.999 104.000,147.999 ZM104.000,141.999 C102.895,141.999 102.000,142.894 102.000,143.998 C102.000,145.103 102.895,145.998 104.000,145.998 C105.104,145.998 106.000,145.103 106.000,143.998 C106.000,142.894 105.104,141.999 104.000,141.999 ZM104.000,127.998 C101.791,127.998 100.000,126.208 100.000,123.999 C100.000,121.790 101.791,119.998 104.000,119.998 C106.209,119.998 108.000,121.790 108.000,123.999 C108.000,126.208 106.209,127.998 104.000,127.998 ZM104.000,121.998 C102.895,121.998 102.000,122.894 102.000,123.999 C102.000,125.103 102.895,125.998 104.000,125.998 C105.104,125.998 106.000,125.103 106.000,123.999 C106.000,122.894 105.104,121.998 104.000,121.998 ZM104.000,107.998 C101.791,107.998 100.000,106.207 100.000,103.998 C100.000,101.789 101.791,99.999 104.000,99.999 C106.209,99.999 108.000,101.789 108.000,103.998 C108.000,106.207 106.209,107.998 104.000,107.998 ZM104.000,101.998 C102.895,101.998 102.000,102.894 102.000,103.998 C102.000,105.103 102.895,105.999 104.000,105.999 C105.104,105.999 106.000,105.103 106.000,103.998 C106.000,102.894 105.104,101.998 104.000,101.998 ZM104.000,87.999 C101.791,87.999 100.000,86.208 100.000,83.998 C100.000,81.789 101.791,79.998 104.000,79.998 C106.209,79.998 108.000,81.789 108.000,83.998 C108.000,86.208 106.209,87.999 104.000,87.999 ZM104.000,81.999 C102.895,81.999 102.000,82.894 102.000,83.998 C102.000,85.103 102.895,85.998 104.000,85.998 C105.104,85.998 106.000,85.103 106.000,83.998 C106.000,82.894 105.104,81.999 104.000,81.999 ZM104.000,67.998 C101.791,67.998 100.000,66.208 100.000,63.999 C100.000,61.790 101.791,59.998 104.000,59.998 C106.209,59.998 108.000,61.790 108.000,63.999 C108.000,66.208 106.209,67.998 104.000,67.998 ZM104.000,61.998 C102.895,61.998 102.000,62.894 102.000,63.999 C102.000,65.103 102.895,65.998 104.000,65.998 C105.104,65.998 106.000,65.103 106.000,63.999 C106.000,62.894 105.104,61.998 104.000,61.998 ZM104.000,47.998 C101.791,47.998 100.000,46.207 100.000,43.998 C100.000,41.789 101.791,39.999 104.000,39.999 C106.209,39.999 108.000,41.789 108.000,43.998 C108.000,46.207 106.209,47.998 104.000,47.998 ZM104.000,41.998 C102.895,41.998 102.000,42.894 102.000,43.998 C102.000,45.103 102.895,45.999 104.000,45.999 C105.104,45.999 106.000,45.103 106.000,43.998 C106.000,42.894 105.104,41.998 104.000,41.998 ZM104.000,27.999 C101.791,27.999 100.000,26.207 100.000,23.998 C100.000,21.789 101.791,19.998 104.000,19.998 C106.209,19.998 108.000,21.789 108.000,23.998 C108.000,26.207 106.209,27.999 104.000,27.999 ZM104.000,21.999 C102.895,21.999 102.000,22.894 102.000,23.998 C102.000,25.103 102.895,25.998 104.000,25.998 C105.104,25.998 106.000,25.103 106.000,23.998 C106.000,22.894 105.104,21.999 104.000,21.999 ZM104.000,7.998 C101.791,7.998 100.000,6.208 100.000,3.999 C100.000,1.790 101.791,-0.002 104.000,-0.002 C106.209,-0.002 108.000,1.790 108.000,3.999 C108.000,6.208 106.209,7.998 104.000,7.998 ZM104.000,1.998 C102.895,1.998 102.000,2.894 102.000,3.999 C102.000,5.103 102.895,5.998 104.000,5.998 C105.104,5.998 106.000,5.103 106.000,3.999 C106.000,2.894 105.104,1.998 104.000,1.998 ZM84.000,227.999 C81.791,227.999 80.000,226.207 80.000,223.998 C80.000,221.789 81.791,219.999 84.000,219.999 C86.209,219.999 88.000,221.789 88.000,223.998 C88.000,226.207 86.209,227.999 84.000,227.999 ZM84.000,221.999 C82.895,221.999 82.000,222.894 82.000,223.998 C82.000,225.103 82.895,225.999 84.000,225.999 C85.104,225.999 86.000,225.103 86.000,223.998 C86.000,222.894 85.104,221.999 84.000,221.999 ZM84.000,207.999 C81.791,207.999 80.000,206.208 80.000,203.999 C80.000,201.789 81.791,199.998 84.000,199.998 C86.209,199.998 88.000,201.789 88.000,203.999 C88.000,206.208 86.209,207.999 84.000,207.999 ZM84.000,201.999 C82.895,201.999 82.000,202.894 82.000,203.999 C82.000,205.103 82.895,205.998 84.000,205.998 C85.104,205.998 86.000,205.103 86.000,203.999 C86.000,202.894 85.104,201.999 84.000,201.999 ZM84.000,187.998 C81.791,187.998 80.000,186.208 80.000,183.999 C80.000,181.790 81.791,179.999 84.000,179.999 C86.209,179.999 88.000,181.790 88.000,183.999 C88.000,186.208 86.209,187.998 84.000,187.998 ZM84.000,181.998 C82.895,181.998 82.000,182.894 82.000,183.999 C82.000,185.103 82.895,185.999 84.000,185.999 C85.104,185.999 86.000,185.103 86.000,183.999 C86.000,182.894 85.104,181.998 84.000,181.998 ZM84.000,167.999 C81.791,167.999 80.000,166.207 80.000,163.998 C80.000,161.789 81.791,159.999 84.000,159.999 C86.209,159.999 88.000,161.789 88.000,163.998 C88.000,166.207 86.209,167.999 84.000,167.999 ZM84.000,161.999 C82.895,161.999 82.000,162.894 82.000,163.998 C82.000,165.103 82.895,165.999 84.000,165.999 C85.104,165.999 86.000,165.103 86.000,163.998 C86.000,162.894 85.104,161.999 84.000,161.999 ZM84.000,147.999 C81.791,147.999 80.000,146.208 80.000,143.998 C80.000,141.789 81.791,139.998 84.000,139.998 C86.209,139.998 88.000,141.789 88.000,143.998 C88.000,146.208 86.209,147.999 84.000,147.999 ZM84.000,141.999 C82.895,141.999 82.000,142.894 82.000,143.998 C82.000,145.103 82.895,145.998 84.000,145.998 C85.104,145.998 86.000,145.103 86.000,143.998 C86.000,142.894 85.104,141.999 84.000,141.999 ZM84.000,127.998 C81.791,127.998 80.000,126.208 80.000,123.999 C80.000,121.790 81.791,119.998 84.000,119.998 C86.209,119.998 88.000,121.790 88.000,123.999 C88.000,126.208 86.209,127.998 84.000,127.998 ZM84.000,121.998 C82.895,121.998 82.000,122.894 82.000,123.999 C82.000,125.103 82.895,125.998 84.000,125.998 C85.104,125.998 86.000,125.103 86.000,123.999 C86.000,122.894 85.104,121.998 84.000,121.998 ZM84.000,107.998 C81.791,107.998 80.000,106.207 80.000,103.998 C80.000,101.789 81.791,99.999 84.000,99.999 C86.209,99.999 88.000,101.789 88.000,103.998 C88.000,106.207 86.209,107.998 84.000,107.998 ZM84.000,101.998 C82.895,101.998 82.000,102.894 82.000,103.998 C82.000,105.103 82.895,105.999 84.000,105.999 C85.104,105.999 86.000,105.103 86.000,103.998 C86.000,102.894 85.104,101.998 84.000,101.998 ZM84.000,87.999 C81.791,87.999 80.000,86.208 80.000,83.998 C80.000,81.789 81.791,79.998 84.000,79.998 C86.209,79.998 88.000,81.789 88.000,83.998 C88.000,86.208 86.209,87.999 84.000,87.999 ZM84.000,81.999 C82.895,81.999 82.000,82.894 82.000,83.998 C82.000,85.103 82.895,85.998 84.000,85.998 C85.104,85.998 86.000,85.103 86.000,83.998 C86.000,82.894 85.104,81.999 84.000,81.999 ZM84.000,67.998 C81.791,67.998 80.000,66.208 80.000,63.999 C80.000,61.790 81.791,59.998 84.000,59.998 C86.209,59.998 88.000,61.790 88.000,63.999 C88.000,66.208 86.209,67.998 84.000,67.998 ZM84.000,61.998 C82.895,61.998 82.000,62.894 82.000,63.999 C82.000,65.103 82.895,65.998 84.000,65.998 C85.104,65.998 86.000,65.103 86.000,63.999 C86.000,62.894 85.104,61.998 84.000,61.998 ZM84.000,47.998 C81.791,47.998 80.000,46.207 80.000,43.998 C80.000,41.789 81.791,39.999 84.000,39.999 C86.209,39.999 88.000,41.789 88.000,43.998 C88.000,46.207 86.209,47.998 84.000,47.998 ZM84.000,41.998 C82.895,41.998 82.000,42.894 82.000,43.998 C82.000,45.103 82.895,45.999 84.000,45.999 C85.104,45.999 86.000,45.103 86.000,43.998 C86.000,42.894 85.104,41.998 84.000,41.998 ZM84.000,27.999 C81.791,27.999 80.000,26.207 80.000,23.998 C80.000,21.789 81.791,19.998 84.000,19.998 C86.209,19.998 88.000,21.789 88.000,23.998 C88.000,26.207 86.209,27.999 84.000,27.999 ZM84.000,21.999 C82.895,21.999 82.000,22.894 82.000,23.998 C82.000,25.103 82.895,25.998 84.000,25.998 C85.104,25.998 86.000,25.103 86.000,23.998 C86.000,22.894 85.104,21.999 84.000,21.999 ZM84.000,7.998 C81.791,7.998 80.000,6.208 80.000,3.999 C80.000,1.790 81.791,-0.002 84.000,-0.002 C86.209,-0.002 88.000,1.790 88.000,3.999 C88.000,6.208 86.209,7.998 84.000,7.998 ZM84.000,1.998 C82.895,1.998 82.000,2.894 82.000,3.999 C82.000,5.103 82.895,5.998 84.000,5.998 C85.104,5.998 86.000,5.103 86.000,3.999 C86.000,2.894 85.104,1.998 84.000,1.998 ZM64.000,227.999 C61.791,227.999 60.000,226.207 60.000,223.998 C60.000,221.789 61.791,219.999 64.000,219.999 C66.209,219.999 68.000,221.789 68.000,223.998 C68.000,226.207 66.209,227.999 64.000,227.999 ZM64.000,221.999 C62.895,221.999 62.000,222.894 62.000,223.998 C62.000,225.103 62.895,225.999 64.000,225.999 C65.104,225.999 66.000,225.103 66.000,223.998 C66.000,222.894 65.104,221.999 64.000,221.999 ZM64.000,207.999 C61.791,207.999 60.000,206.208 60.000,203.999 C60.000,201.789 61.791,199.998 64.000,199.998 C66.209,199.998 68.000,201.789 68.000,203.999 C68.000,206.208 66.209,207.999 64.000,207.999 ZM64.000,201.999 C62.895,201.999 62.000,202.894 62.000,203.999 C62.000,205.103 62.895,205.998 64.000,205.998 C65.104,205.998 66.000,205.103 66.000,203.999 C66.000,202.894 65.104,201.999 64.000,201.999 ZM64.000,187.998 C61.791,187.998 60.000,186.208 60.000,183.999 C60.000,181.790 61.791,179.999 64.000,179.999 C66.209,179.999 68.000,181.790 68.000,183.999 C68.000,186.208 66.209,187.998 64.000,187.998 ZM64.000,181.998 C62.895,181.998 62.000,182.894 62.000,183.999 C62.000,185.103 62.895,185.999 64.000,185.999 C65.104,185.999 66.000,185.103 66.000,183.999 C66.000,182.894 65.104,181.998 64.000,181.998 ZM64.000,167.999 C61.791,167.999 60.000,166.207 60.000,163.998 C60.000,161.789 61.791,159.999 64.000,159.999 C66.209,159.999 68.000,161.789 68.000,163.998 C68.000,166.207 66.209,167.999 64.000,167.999 ZM64.000,161.999 C62.895,161.999 62.000,162.894 62.000,163.998 C62.000,165.103 62.895,165.999 64.000,165.999 C65.104,165.999 66.000,165.103 66.000,163.998 C66.000,162.894 65.104,161.999 64.000,161.999 ZM64.000,147.999 C61.791,147.999 60.000,146.208 60.000,143.998 C60.000,141.789 61.791,139.998 64.000,139.998 C66.209,139.998 68.000,141.789 68.000,143.998 C68.000,146.208 66.209,147.999 64.000,147.999 ZM64.000,141.999 C62.895,141.999 62.000,142.894 62.000,143.998 C62.000,145.103 62.895,145.998 64.000,145.998 C65.104,145.998 66.000,145.103 66.000,143.998 C66.000,142.894 65.104,141.999 64.000,141.999 ZM64.000,127.998 C61.791,127.998 60.000,126.208 60.000,123.999 C60.000,121.790 61.791,119.998 64.000,119.998 C66.209,119.998 68.000,121.790 68.000,123.999 C68.000,126.208 66.209,127.998 64.000,127.998 ZM64.000,121.998 C62.895,121.998 62.000,122.894 62.000,123.999 C62.000,125.103 62.895,125.998 64.000,125.998 C65.104,125.998 66.000,125.103 66.000,123.999 C66.000,122.894 65.104,121.998 64.000,121.998 ZM64.000,107.998 C61.791,107.998 60.000,106.207 60.000,103.998 C60.000,101.789 61.791,99.999 64.000,99.999 C66.209,99.999 68.000,101.789 68.000,103.998 C68.000,106.207 66.209,107.998 64.000,107.998 ZM64.000,101.998 C62.895,101.998 62.000,102.894 62.000,103.998 C62.000,105.103 62.895,105.999 64.000,105.999 C65.104,105.999 66.000,105.103 66.000,103.998 C66.000,102.894 65.104,101.998 64.000,101.998 ZM64.000,87.999 C61.791,87.999 60.000,86.208 60.000,83.998 C60.000,81.789 61.791,79.998 64.000,79.998 C66.209,79.998 68.000,81.789 68.000,83.998 C68.000,86.208 66.209,87.999 64.000,87.999 ZM64.000,81.999 C62.895,81.999 62.000,82.894 62.000,83.998 C62.000,85.103 62.895,85.998 64.000,85.998 C65.104,85.998 66.000,85.103 66.000,83.998 C66.000,82.894 65.104,81.999 64.000,81.999 ZM64.000,67.998 C61.791,67.998 60.000,66.208 60.000,63.999 C60.000,61.790 61.791,59.998 64.000,59.998 C66.209,59.998 68.000,61.790 68.000,63.999 C68.000,66.208 66.209,67.998 64.000,67.998 ZM64.000,61.998 C62.895,61.998 62.000,62.894 62.000,63.999 C62.000,65.103 62.895,65.998 64.000,65.998 C65.104,65.998 66.000,65.103 66.000,63.999 C66.000,62.894 65.104,61.998 64.000,61.998 ZM64.000,47.998 C61.791,47.998 60.000,46.207 60.000,43.998 C60.000,41.789 61.791,39.999 64.000,39.999 C66.209,39.999 68.000,41.789 68.000,43.998 C68.000,46.207 66.209,47.998 64.000,47.998 ZM64.000,41.998 C62.895,41.998 62.000,42.894 62.000,43.998 C62.000,45.103 62.895,45.999 64.000,45.999 C65.104,45.999 66.000,45.103 66.000,43.998 C66.000,42.894 65.104,41.998 64.000,41.998 ZM64.000,27.999 C61.791,27.999 60.000,26.207 60.000,23.998 C60.000,21.789 61.791,19.998 64.000,19.998 C66.209,19.998 68.000,21.789 68.000,23.998 C68.000,26.207 66.209,27.999 64.000,27.999 ZM64.000,21.999 C62.895,21.999 62.000,22.894 62.000,23.998 C62.000,25.103 62.895,25.998 64.000,25.998 C65.104,25.998 66.000,25.103 66.000,23.998 C66.000,22.894 65.104,21.999 64.000,21.999 ZM64.000,7.998 C61.791,7.998 60.000,6.208 60.000,3.999 C60.000,1.790 61.791,-0.002 64.000,-0.002 C66.209,-0.002 68.000,1.790 68.000,3.999 C68.000,6.208 66.209,7.998 64.000,7.998 ZM64.000,1.998 C62.895,1.998 62.000,2.894 62.000,3.999 C62.000,5.103 62.895,5.998 64.000,5.998 C65.104,5.998 66.000,5.103 66.000,3.999 C66.000,2.894 65.104,1.998 64.000,1.998 ZM44.000,227.999 C41.791,227.999 40.000,226.207 40.000,223.998 C40.000,221.789 41.791,219.999 44.000,219.999 C46.209,219.999 48.000,221.789 48.000,223.998 C48.000,226.207 46.209,227.999 44.000,227.999 ZM44.000,221.999 C42.895,221.999 42.000,222.894 42.000,223.998 C42.000,225.103 42.895,225.999 44.000,225.999 C45.104,225.999 46.000,225.103 46.000,223.998 C46.000,222.894 45.104,221.999 44.000,221.999 ZM44.000,207.999 C41.791,207.999 40.000,206.208 40.000,203.999 C40.000,201.789 41.791,199.998 44.000,199.998 C46.209,199.998 48.000,201.789 48.000,203.999 C48.000,206.208 46.209,207.999 44.000,207.999 ZM44.000,201.999 C42.895,201.999 42.000,202.894 42.000,203.999 C42.000,205.103 42.895,205.998 44.000,205.998 C45.104,205.998 46.000,205.103 46.000,203.999 C46.000,202.894 45.104,201.999 44.000,201.999 ZM44.000,187.998 C41.791,187.998 40.000,186.208 40.000,183.999 C40.000,181.790 41.791,179.999 44.000,179.999 C46.209,179.999 48.000,181.790 48.000,183.999 C48.000,186.208 46.209,187.998 44.000,187.998 ZM44.000,181.998 C42.895,181.998 42.000,182.894 42.000,183.999 C42.000,185.103 42.895,185.999 44.000,185.999 C45.104,185.999 46.000,185.103 46.000,183.999 C46.000,182.894 45.104,181.998 44.000,181.998 ZM44.000,167.999 C41.791,167.999 40.000,166.207 40.000,163.998 C40.000,161.789 41.791,159.999 44.000,159.999 C46.209,159.999 48.000,161.789 48.000,163.998 C48.000,166.207 46.209,167.999 44.000,167.999 ZM44.000,161.999 C42.895,161.999 42.000,162.894 42.000,163.998 C42.000,165.103 42.895,165.999 44.000,165.999 C45.104,165.999 46.000,165.103 46.000,163.998 C46.000,162.894 45.104,161.999 44.000,161.999 ZM44.000,147.999 C41.791,147.999 40.000,146.208 40.000,143.998 C40.000,141.789 41.791,139.998 44.000,139.998 C46.209,139.998 48.000,141.789 48.000,143.998 C48.000,146.208 46.209,147.999 44.000,147.999 ZM44.000,141.999 C42.895,141.999 42.000,142.894 42.000,143.998 C42.000,145.103 42.895,145.998 44.000,145.998 C45.104,145.998 46.000,145.103 46.000,143.998 C46.000,142.894 45.104,141.999 44.000,141.999 ZM44.000,127.998 C41.791,127.998 40.000,126.208 40.000,123.999 C40.000,121.790 41.791,119.998 44.000,119.998 C46.209,119.998 48.000,121.790 48.000,123.999 C48.000,126.208 46.209,127.998 44.000,127.998 ZM44.000,121.998 C42.895,121.998 42.000,122.894 42.000,123.999 C42.000,125.103 42.895,125.998 44.000,125.998 C45.104,125.998 46.000,125.103 46.000,123.999 C46.000,122.894 45.104,121.998 44.000,121.998 ZM44.000,107.998 C41.791,107.998 40.000,106.207 40.000,103.998 C40.000,101.789 41.791,99.999 44.000,99.999 C46.209,99.999 48.000,101.789 48.000,103.998 C48.000,106.207 46.209,107.998 44.000,107.998 ZM44.000,101.998 C42.895,101.998 42.000,102.894 42.000,103.998 C42.000,105.103 42.895,105.999 44.000,105.999 C45.104,105.999 46.000,105.103 46.000,103.998 C46.000,102.894 45.104,101.998 44.000,101.998 ZM44.000,87.999 C41.791,87.999 40.000,86.208 40.000,83.998 C40.000,81.789 41.791,79.998 44.000,79.998 C46.209,79.998 48.000,81.789 48.000,83.998 C48.000,86.208 46.209,87.999 44.000,87.999 ZM44.000,81.999 C42.895,81.999 42.000,82.894 42.000,83.998 C42.000,85.103 42.895,85.998 44.000,85.998 C45.104,85.998 46.000,85.103 46.000,83.998 C46.000,82.894 45.104,81.999 44.000,81.999 ZM44.000,67.998 C41.791,67.998 40.000,66.208 40.000,63.999 C40.000,61.790 41.791,59.998 44.000,59.998 C46.209,59.998 48.000,61.790 48.000,63.999 C48.000,66.208 46.209,67.998 44.000,67.998 ZM44.000,61.998 C42.895,61.998 42.000,62.894 42.000,63.999 C42.000,65.103 42.895,65.998 44.000,65.998 C45.104,65.998 46.000,65.103 46.000,63.999 C46.000,62.894 45.104,61.998 44.000,61.998 ZM44.000,47.998 C41.791,47.998 40.000,46.207 40.000,43.998 C40.000,41.789 41.791,39.999 44.000,39.999 C46.209,39.999 48.000,41.789 48.000,43.998 C48.000,46.207 46.209,47.998 44.000,47.998 ZM44.000,41.998 C42.895,41.998 42.000,42.894 42.000,43.998 C42.000,45.103 42.895,45.999 44.000,45.999 C45.104,45.999 46.000,45.103 46.000,43.998 C46.000,42.894 45.104,41.998 44.000,41.998 ZM44.000,27.999 C41.791,27.999 40.000,26.207 40.000,23.998 C40.000,21.789 41.791,19.998 44.000,19.998 C46.209,19.998 48.000,21.789 48.000,23.998 C48.000,26.207 46.209,27.999 44.000,27.999 ZM44.000,21.999 C42.895,21.999 42.000,22.894 42.000,23.998 C42.000,25.103 42.895,25.998 44.000,25.998 C45.104,25.998 46.000,25.103 46.000,23.998 C46.000,22.894 45.104,21.999 44.000,21.999 ZM44.000,7.998 C41.791,7.998 40.000,6.208 40.000,3.999 C40.000,1.790 41.791,-0.002 44.000,-0.002 C46.209,-0.002 48.000,1.790 48.000,3.999 C48.000,6.208 46.209,7.998 44.000,7.998 ZM44.000,1.998 C42.895,1.998 42.000,2.894 42.000,3.999 C42.000,5.103 42.895,5.998 44.000,5.998 C45.104,5.998 46.000,5.103 46.000,3.999 C46.000,2.894 45.104,1.998 44.000,1.998 ZM24.000,227.999 C21.791,227.999 20.000,226.207 20.000,223.998 C20.000,221.789 21.791,219.999 24.000,219.999 C26.209,219.999 28.000,221.789 28.000,223.998 C28.000,226.207 26.209,227.999 24.000,227.999 ZM24.000,221.999 C22.895,221.999 22.000,222.894 22.000,223.998 C22.000,225.103 22.895,225.999 24.000,225.999 C25.104,225.999 26.000,225.103 26.000,223.998 C26.000,222.894 25.104,221.999 24.000,221.999 ZM24.000,207.999 C21.791,207.999 20.000,206.208 20.000,203.999 C20.000,201.789 21.791,199.998 24.000,199.998 C26.209,199.998 28.000,201.789 28.000,203.999 C28.000,206.208 26.209,207.999 24.000,207.999 ZM24.000,201.999 C22.895,201.999 22.000,202.894 22.000,203.999 C22.000,205.103 22.895,205.998 24.000,205.998 C25.104,205.998 26.000,205.103 26.000,203.999 C26.000,202.894 25.104,201.999 24.000,201.999 ZM24.000,187.998 C21.791,187.998 20.000,186.208 20.000,183.999 C20.000,181.790 21.791,179.999 24.000,179.999 C26.209,179.999 28.000,181.790 28.000,183.999 C28.000,186.208 26.209,187.998 24.000,187.998 ZM24.000,181.998 C22.895,181.998 22.000,182.894 22.000,183.999 C22.000,185.103 22.895,185.999 24.000,185.999 C25.104,185.999 26.000,185.103 26.000,183.999 C26.000,182.894 25.104,181.998 24.000,181.998 ZM24.000,167.999 C21.791,167.999 20.000,166.207 20.000,163.998 C20.000,161.789 21.791,159.999 24.000,159.999 C26.209,159.999 28.000,161.789 28.000,163.998 C28.000,166.207 26.209,167.999 24.000,167.999 ZM24.000,161.999 C22.895,161.999 22.000,162.894 22.000,163.998 C22.000,165.103 22.895,165.999 24.000,165.999 C25.104,165.999 26.000,165.103 26.000,163.998 C26.000,162.894 25.104,161.999 24.000,161.999 ZM24.000,147.999 C21.791,147.999 20.000,146.208 20.000,143.998 C20.000,141.789 21.791,139.998 24.000,139.998 C26.209,139.998 28.000,141.789 28.000,143.998 C28.000,146.208 26.209,147.999 24.000,147.999 ZM24.000,141.999 C22.895,141.999 22.000,142.894 22.000,143.998 C22.000,145.103 22.895,145.998 24.000,145.998 C25.104,145.998 26.000,145.103 26.000,143.998 C26.000,142.894 25.104,141.999 24.000,141.999 ZM24.000,127.998 C21.791,127.998 20.000,126.208 20.000,123.999 C20.000,121.790 21.791,119.998 24.000,119.998 C26.209,119.998 28.000,121.790 28.000,123.999 C28.000,126.208 26.209,127.998 24.000,127.998 ZM24.000,121.998 C22.895,121.998 22.000,122.894 22.000,123.999 C22.000,125.103 22.895,125.998 24.000,125.998 C25.104,125.998 26.000,125.103 26.000,123.999 C26.000,122.894 25.104,121.998 24.000,121.998 ZM24.000,107.998 C21.791,107.998 20.000,106.207 20.000,103.998 C20.000,101.789 21.791,99.999 24.000,99.999 C26.209,99.999 28.000,101.789 28.000,103.998 C28.000,106.207 26.209,107.998 24.000,107.998 ZM24.000,101.998 C22.895,101.998 22.000,102.894 22.000,103.998 C22.000,105.103 22.895,105.999 24.000,105.999 C25.104,105.999 26.000,105.103 26.000,103.998 C26.000,102.894 25.104,101.998 24.000,101.998 ZM24.000,87.999 C21.791,87.999 20.000,86.208 20.000,83.998 C20.000,81.789 21.791,79.998 24.000,79.998 C26.209,79.998 28.000,81.789 28.000,83.998 C28.000,86.208 26.209,87.999 24.000,87.999 ZM24.000,81.999 C22.895,81.999 22.000,82.894 22.000,83.998 C22.000,85.103 22.895,85.998 24.000,85.998 C25.104,85.998 26.000,85.103 26.000,83.998 C26.000,82.894 25.104,81.999 24.000,81.999 ZM24.000,67.998 C21.791,67.998 20.000,66.208 20.000,63.999 C20.000,61.790 21.791,59.998 24.000,59.998 C26.209,59.998 28.000,61.790 28.000,63.999 C28.000,66.208 26.209,67.998 24.000,67.998 ZM24.000,61.998 C22.895,61.998 22.000,62.894 22.000,63.999 C22.000,65.103 22.895,65.998 24.000,65.998 C25.104,65.998 26.000,65.103 26.000,63.999 C26.000,62.894 25.104,61.998 24.000,61.998 ZM24.000,47.998 C21.791,47.998 20.000,46.207 20.000,43.998 C20.000,41.789 21.791,39.999 24.000,39.999 C26.209,39.999 28.000,41.789 28.000,43.998 C28.000,46.207 26.209,47.998 24.000,47.998 ZM24.000,41.998 C22.895,41.998 22.000,42.894 22.000,43.998 C22.000,45.103 22.895,45.999 24.000,45.999 C25.104,45.999 26.000,45.103 26.000,43.998 C26.000,42.894 25.104,41.998 24.000,41.998 ZM24.000,27.999 C21.791,27.999 20.000,26.207 20.000,23.998 C20.000,21.789 21.791,19.998 24.000,19.998 C26.209,19.998 28.000,21.789 28.000,23.998 C28.000,26.207 26.209,27.999 24.000,27.999 ZM24.000,21.999 C22.895,21.999 22.000,22.894 22.000,23.998 C22.000,25.103 22.895,25.998 24.000,25.998 C25.104,25.998 26.000,25.103 26.000,23.998 C26.000,22.894 25.104,21.999 24.000,21.999 ZM24.000,7.998 C21.791,7.998 20.000,6.208 20.000,3.999 C20.000,1.790 21.791,-0.002 24.000,-0.002 C26.209,-0.002 28.000,1.790 28.000,3.999 C28.000,6.208 26.209,7.998 24.000,7.998 ZM24.000,1.998 C22.895,1.998 22.000,2.894 22.000,3.999 C22.000,5.103 22.895,5.998 24.000,5.998 C25.104,5.998 26.000,5.103 26.000,3.999 C26.000,2.894 25.104,1.998 24.000,1.998 ZM4.000,227.999 C1.791,227.999 -0.000,226.207 -0.000,223.998 C-0.000,221.789 1.791,219.999 4.000,219.999 C6.209,219.999 8.000,221.789 8.000,223.998 C8.000,226.207 6.209,227.999 4.000,227.999 ZM4.000,221.999 C2.895,221.999 2.000,222.894 2.000,223.998 C2.000,225.103 2.895,225.999 4.000,225.999 C5.104,225.999 6.000,225.103 6.000,223.998 C6.000,222.894 5.104,221.999 4.000,221.999 ZM4.000,207.999 C1.791,207.999 -0.000,206.208 -0.000,203.999 C-0.000,201.789 1.791,199.998 4.000,199.998 C6.209,199.998 8.000,201.789 8.000,203.999 C8.000,206.208 6.209,207.999 4.000,207.999 ZM4.000,201.999 C2.895,201.999 2.000,202.894 2.000,203.999 C2.000,205.103 2.895,205.998 4.000,205.998 C5.104,205.998 6.000,205.103 6.000,203.999 C6.000,202.894 5.104,201.999 4.000,201.999 ZM4.000,187.998 C1.791,187.998 -0.000,186.208 -0.000,183.999 C-0.000,181.790 1.791,179.999 4.000,179.999 C6.209,179.999 8.000,181.790 8.000,183.999 C8.000,186.208 6.209,187.998 4.000,187.998 ZM4.000,181.998 C2.895,181.998 2.000,182.894 2.000,183.999 C2.000,185.103 2.895,185.999 4.000,185.999 C5.104,185.999 6.000,185.103 6.000,183.999 C6.000,182.894 5.104,181.998 4.000,181.998 ZM4.000,167.999 C1.791,167.999 -0.000,166.207 -0.000,163.998 C-0.000,161.789 1.791,159.999 4.000,159.999 C6.209,159.999 8.000,161.789 8.000,163.998 C8.000,166.207 6.209,167.999 4.000,167.999 ZM4.000,161.999 C2.895,161.999 2.000,162.894 2.000,163.998 C2.000,165.103 2.895,165.999 4.000,165.999 C5.104,165.999 6.000,165.103 6.000,163.998 C6.000,162.894 5.104,161.999 4.000,161.999 ZM4.000,147.999 C1.791,147.999 -0.000,146.208 -0.000,143.998 C-0.000,141.789 1.791,139.998 4.000,139.998 C6.209,139.998 8.000,141.789 8.000,143.998 C8.000,146.208 6.209,147.999 4.000,147.999 ZM4.000,141.999 C2.895,141.999 2.000,142.894 2.000,143.998 C2.000,145.103 2.895,145.998 4.000,145.998 C5.104,145.998 6.000,145.103 6.000,143.998 C6.000,142.894 5.104,141.999 4.000,141.999 ZM4.000,127.998 C1.791,127.998 -0.000,126.208 -0.000,123.999 C-0.000,121.790 1.791,119.998 4.000,119.998 C6.209,119.998 8.000,121.790 8.000,123.999 C8.000,126.208 6.209,127.998 4.000,127.998 ZM4.000,121.998 C2.895,121.998 2.000,122.894 2.000,123.999 C2.000,125.103 2.895,125.998 4.000,125.998 C5.104,125.998 6.000,125.103 6.000,123.999 C6.000,122.894 5.104,121.998 4.000,121.998 ZM4.000,107.998 C1.791,107.998 -0.000,106.207 -0.000,103.998 C-0.000,101.789 1.791,99.999 4.000,99.999 C6.209,99.999 8.000,101.789 8.000,103.998 C8.000,106.207 6.209,107.998 4.000,107.998 ZM4.000,101.998 C2.895,101.998 2.000,102.894 2.000,103.998 C2.000,105.103 2.895,105.999 4.000,105.999 C5.104,105.999 6.000,105.103 6.000,103.998 C6.000,102.894 5.104,101.998 4.000,101.998 ZM4.000,87.999 C1.791,87.999 -0.000,86.208 -0.000,83.998 C-0.000,81.789 1.791,79.998 4.000,79.998 C6.209,79.998 8.000,81.789 8.000,83.998 C8.000,86.208 6.209,87.999 4.000,87.999 ZM4.000,81.999 C2.895,81.999 2.000,82.894 2.000,83.998 C2.000,85.103 2.895,85.998 4.000,85.998 C5.104,85.998 6.000,85.103 6.000,83.998 C6.000,82.894 5.104,81.999 4.000,81.999 ZM4.000,67.998 C1.791,67.998 -0.000,66.208 -0.000,63.999 C-0.000,61.790 1.791,59.998 4.000,59.998 C6.209,59.998 8.000,61.790 8.000,63.999 C8.000,66.208 6.209,67.998 4.000,67.998 ZM4.000,61.998 C2.895,61.998 2.000,62.894 2.000,63.999 C2.000,65.103 2.895,65.998 4.000,65.998 C5.104,65.998 6.000,65.103 6.000,63.999 C6.000,62.894 5.104,61.998 4.000,61.998 ZM4.000,47.998 C1.791,47.998 -0.000,46.207 -0.000,43.998 C-0.000,41.789 1.791,39.999 4.000,39.999 C6.209,39.999 8.000,41.789 8.000,43.998 C8.000,46.207 6.209,47.998 4.000,47.998 ZM4.000,41.998 C2.895,41.998 2.000,42.894 2.000,43.998 C2.000,45.103 2.895,45.999 4.000,45.999 C5.104,45.999 6.000,45.103 6.000,43.998 C6.000,42.894 5.104,41.998 4.000,41.998 ZM4.000,27.999 C1.791,27.999 -0.000,26.207 -0.000,23.998 C-0.000,21.789 1.791,19.998 4.000,19.998 C6.209,19.998 8.000,21.789 8.000,23.998 C8.000,26.207 6.209,27.999 4.000,27.999 ZM4.000,21.999 C2.895,21.999 2.000,22.894 2.000,23.998 C2.000,25.103 2.895,25.998 4.000,25.998 C5.104,25.998 6.000,25.103 6.000,23.998 C6.000,22.894 5.104,21.999 4.000,21.999 ZM4.000,7.998 C1.791,7.998 -0.000,6.208 -0.000,3.999 C-0.000,1.790 1.791,-0.002 4.000,-0.002 C6.209,-0.002 8.000,1.790 8.000,3.999 C8.000,6.208 6.209,7.998 4.000,7.998 ZM4.000,1.998 C2.895,1.998 2.000,2.894 2.000,3.999 C2.000,5.103 2.895,5.998 4.000,5.998 C5.104,5.998 6.000,5.103 6.000,3.999 C6.000,2.894 5.104,1.998 4.000,1.998 ZM124.000,219.999 C126.209,219.999 128.000,221.789 128.000,223.998 C128.000,226.207 126.209,227.999 124.000,227.999 C121.791,227.999 120.000,226.207 120.000,223.998 C120.000,221.789 121.791,219.999 124.000,219.999 ZM124.000,225.999 C125.104,225.999 126.000,225.103 126.000,223.998 C126.000,222.894 125.104,221.999 124.000,221.999 C122.895,221.999 122.000,222.894 122.000,223.998 C122.000,225.103 122.895,225.999 124.000,225.999 Z"/>
</svg>