<svg 
 xmlns="http://www.w3.org/2000/svg"
 xmlns:xlink="http://www.w3.org/1999/xlink"
 width="228px" height="228px" viewBox="0 0 228 228">
<path fill-rule="evenodd"  fill="rgb(26, 115, 232)"
 d="M224.000,207.999 C221.791,207.999 220.000,206.208 220.000,203.999 C220.000,201.789 221.791,199.999 224.000,199.999 C226.209,199.999 228.000,201.789 228.000,203.999 C228.000,206.208 226.209,207.999 224.000,207.999 ZM224.000,201.999 C222.895,201.999 222.000,202.894 222.000,203.999 C222.000,205.103 222.895,205.999 224.000,205.999 C225.105,205.999 226.000,205.103 226.000,203.999 C226.000,202.894 225.105,201.999 224.000,201.999 ZM224.000,187.999 C221.791,187.999 220.000,186.208 220.000,183.999 C220.000,181.790 221.791,179.999 224.000,179.999 C226.209,179.999 228.000,181.790 228.000,183.999 C228.000,186.208 226.209,187.999 224.000,187.999 ZM224.000,181.999 C222.895,181.999 222.000,182.894 222.000,183.999 C222.000,185.103 222.895,185.999 224.000,185.999 C225.105,185.999 226.000,185.103 226.000,183.999 C226.000,182.894 225.105,181.999 224.000,181.999 ZM224.000,167.999 C221.791,167.999 220.000,166.208 220.000,163.999 C220.000,161.790 221.791,159.999 224.000,159.999 C226.209,159.999 228.000,161.790 228.000,163.999 C228.000,166.208 226.209,167.999 224.000,167.999 ZM224.000,161.999 C222.895,161.999 222.000,162.894 222.000,163.999 C222.000,165.103 222.895,165.999 224.000,165.999 C225.105,165.999 226.000,165.103 226.000,163.999 C226.000,162.894 225.105,161.999 224.000,161.999 ZM224.000,147.999 C221.791,147.999 220.000,146.208 220.000,143.999 C220.000,141.789 221.791,139.999 224.000,139.999 C226.209,139.999 228.000,141.789 228.000,143.999 C228.000,146.208 226.209,147.999 224.000,147.999 ZM224.000,141.999 C222.895,141.999 222.000,142.894 222.000,143.999 C222.000,145.103 222.895,145.999 224.000,145.999 C225.105,145.999 226.000,145.103 226.000,143.999 C226.000,142.894 225.105,141.999 224.000,141.999 ZM224.000,127.999 C221.791,127.999 220.000,126.208 220.000,123.999 C220.000,121.789 221.791,119.999 224.000,119.999 C226.209,119.999 228.000,121.789 228.000,123.999 C228.000,126.208 226.209,127.999 224.000,127.999 ZM224.000,121.999 C222.895,121.999 222.000,122.894 222.000,123.999 C222.000,125.103 222.895,125.999 224.000,125.999 C225.105,125.999 226.000,125.103 226.000,123.999 C226.000,122.894 225.105,121.999 224.000,121.999 ZM224.000,107.999 C221.791,107.999 220.000,106.208 220.000,103.999 C220.000,101.790 221.791,99.999 224.000,99.999 C226.209,99.999 228.000,101.790 228.000,103.999 C228.000,106.208 226.209,107.999 224.000,107.999 ZM224.000,101.999 C222.895,101.999 222.000,102.894 222.000,103.999 C222.000,105.103 222.895,105.999 224.000,105.999 C225.105,105.999 226.000,105.103 226.000,103.999 C226.000,102.894 225.105,101.999 224.000,101.999 ZM224.000,87.999 C221.791,87.999 220.000,86.208 220.000,83.999 C220.000,81.790 221.791,79.999 224.000,79.999 C226.209,79.999 228.000,81.790 228.000,83.999 C228.000,86.208 226.209,87.999 224.000,87.999 ZM224.000,81.999 C222.895,81.999 222.000,82.894 222.000,83.999 C222.000,85.103 222.895,85.999 224.000,85.999 C225.105,85.999 226.000,85.103 226.000,83.999 C226.000,82.894 225.105,81.999 224.000,81.999 ZM224.000,67.999 C221.791,67.999 220.000,66.208 220.000,63.998 C220.000,61.789 221.791,59.999 224.000,59.999 C226.209,59.999 228.000,61.789 228.000,63.998 C228.000,66.208 226.209,67.999 224.000,67.999 ZM224.000,61.999 C222.895,61.999 222.000,62.894 222.000,63.998 C222.000,65.103 222.895,65.999 224.000,65.999 C225.105,65.999 226.000,65.103 226.000,63.998 C226.000,62.894 225.105,61.999 224.000,61.999 ZM224.000,47.999 C221.791,47.999 220.000,46.208 220.000,43.999 C220.000,41.790 221.791,39.998 224.000,39.998 C226.209,39.998 228.000,41.790 228.000,43.999 C228.000,46.208 226.209,47.999 224.000,47.999 ZM224.000,41.999 C222.895,41.999 222.000,42.894 222.000,43.999 C222.000,45.103 222.895,45.998 224.000,45.998 C225.105,45.998 226.000,45.103 226.000,43.999 C226.000,42.894 225.105,41.999 224.000,41.999 ZM224.000,27.998 C221.791,27.998 220.000,26.208 220.000,23.999 C220.000,21.790 221.791,19.999 224.000,19.999 C226.209,19.999 228.000,21.790 228.000,23.999 C228.000,26.208 226.209,27.998 224.000,27.998 ZM224.000,21.998 C222.895,21.998 222.000,22.894 222.000,23.999 C222.000,25.104 222.895,25.999 224.000,25.999 C225.105,25.999 226.000,25.104 226.000,23.999 C226.000,22.894 225.105,21.998 224.000,21.998 ZM224.000,7.999 C221.791,7.999 220.000,6.208 220.000,3.998 C220.000,1.789 221.791,-0.001 224.000,-0.001 C226.209,-0.001 228.000,1.789 228.000,3.998 C228.000,6.208 226.209,7.999 224.000,7.999 ZM224.000,1.999 C222.895,1.999 222.000,2.894 222.000,3.998 C222.000,5.103 222.895,5.999 224.000,5.999 C225.105,5.999 226.000,5.103 226.000,3.998 C226.000,2.894 225.105,1.999 224.000,1.999 ZM204.000,227.998 C201.791,227.998 200.000,226.208 200.000,223.999 C200.000,221.790 201.791,219.999 204.000,219.999 C206.209,219.999 208.000,221.790 208.000,223.999 C208.000,226.208 206.209,227.998 204.000,227.998 ZM204.000,221.998 C202.895,221.998 202.000,222.894 202.000,223.999 C202.000,225.104 202.895,225.999 204.000,225.999 C205.105,225.999 206.000,225.104 206.000,223.999 C206.000,222.894 205.105,221.998 204.000,221.998 ZM204.000,207.999 C201.791,207.999 200.000,206.208 200.000,203.999 C200.000,201.789 201.791,199.999 204.000,199.999 C206.209,199.999 208.000,201.789 208.000,203.999 C208.000,206.208 206.209,207.999 204.000,207.999 ZM204.000,201.999 C202.895,201.999 202.000,202.894 202.000,203.999 C202.000,205.103 202.895,205.999 204.000,205.999 C205.105,205.999 206.000,205.103 206.000,203.999 C206.000,202.894 205.105,201.999 204.000,201.999 ZM204.000,187.999 C201.791,187.999 200.000,186.208 200.000,183.999 C200.000,181.790 201.791,179.999 204.000,179.999 C206.209,179.999 208.000,181.790 208.000,183.999 C208.000,186.208 206.209,187.999 204.000,187.999 ZM204.000,181.999 C202.895,181.999 202.000,182.894 202.000,183.999 C202.000,185.103 202.895,185.999 204.000,185.999 C205.105,185.999 206.000,185.103 206.000,183.999 C206.000,182.894 205.105,181.999 204.000,181.999 ZM204.000,167.999 C201.791,167.999 200.000,166.208 200.000,163.999 C200.000,161.790 201.791,159.999 204.000,159.999 C206.209,159.999 208.000,161.790 208.000,163.999 C208.000,166.208 206.209,167.999 204.000,167.999 ZM204.000,161.999 C202.895,161.999 202.000,162.894 202.000,163.999 C202.000,165.103 202.895,165.999 204.000,165.999 C205.105,165.999 206.000,165.103 206.000,163.999 C206.000,162.894 205.105,161.999 204.000,161.999 ZM204.000,147.999 C201.791,147.999 200.000,146.208 200.000,143.999 C200.000,141.789 201.791,139.999 204.000,139.999 C206.209,139.999 208.000,141.789 208.000,143.999 C208.000,146.208 206.209,147.999 204.000,147.999 ZM204.000,141.999 C202.895,141.999 202.000,142.894 202.000,143.999 C202.000,145.103 202.895,145.999 204.000,145.999 C205.105,145.999 206.000,145.103 206.000,143.999 C206.000,142.894 205.105,141.999 204.000,141.999 ZM204.000,127.999 C201.791,127.999 200.000,126.208 200.000,123.999 C200.000,121.789 201.791,119.999 204.000,119.999 C206.209,119.999 208.000,121.789 208.000,123.999 C208.000,126.208 206.209,127.999 204.000,127.999 ZM204.000,121.999 C202.895,121.999 202.000,122.894 202.000,123.999 C202.000,125.103 202.895,125.999 204.000,125.999 C205.105,125.999 206.000,125.103 206.000,123.999 C206.000,122.894 205.105,121.999 204.000,121.999 ZM204.000,107.999 C201.791,107.999 200.000,106.208 200.000,103.999 C200.000,101.790 201.791,99.999 204.000,99.999 C206.209,99.999 208.000,101.790 208.000,103.999 C208.000,106.208 206.209,107.999 204.000,107.999 ZM204.000,101.999 C202.895,101.999 202.000,102.894 202.000,103.999 C202.000,105.103 202.895,105.999 204.000,105.999 C205.105,105.999 206.000,105.103 206.000,103.999 C206.000,102.894 205.105,101.999 204.000,101.999 ZM204.000,87.999 C201.791,87.999 200.000,86.208 200.000,83.999 C200.000,81.790 201.791,79.999 204.000,79.999 C206.209,79.999 208.000,81.790 208.000,83.999 C208.000,86.208 206.209,87.999 204.000,87.999 ZM204.000,81.999 C202.895,81.999 202.000,82.894 202.000,83.999 C202.000,85.103 202.895,85.999 204.000,85.999 C205.105,85.999 206.000,85.103 206.000,83.999 C206.000,82.894 205.105,81.999 204.000,81.999 ZM204.000,67.999 C201.791,67.999 200.000,66.208 200.000,63.998 C200.000,61.789 201.791,59.999 204.000,59.999 C206.209,59.999 208.000,61.789 208.000,63.998 C208.000,66.208 206.209,67.999 204.000,67.999 ZM204.000,61.999 C202.895,61.999 202.000,62.894 202.000,63.998 C202.000,65.103 202.895,65.999 204.000,65.999 C205.105,65.999 206.000,65.103 206.000,63.998 C206.000,62.894 205.105,61.999 204.000,61.999 ZM204.000,47.999 C201.791,47.999 200.000,46.208 200.000,43.999 C200.000,41.790 201.791,39.998 204.000,39.998 C206.209,39.998 208.000,41.790 208.000,43.999 C208.000,46.208 206.209,47.999 204.000,47.999 ZM204.000,41.999 C202.895,41.999 202.000,42.894 202.000,43.999 C202.000,45.103 202.895,45.998 204.000,45.998 C205.105,45.998 206.000,45.103 206.000,43.999 C206.000,42.894 205.105,41.999 204.000,41.999 ZM204.000,27.998 C201.791,27.998 200.000,26.208 200.000,23.999 C200.000,21.790 201.791,19.999 204.000,19.999 C206.209,19.999 208.000,21.790 208.000,23.999 C208.000,26.208 206.209,27.998 204.000,27.998 ZM204.000,21.998 C202.895,21.998 202.000,22.894 202.000,23.999 C202.000,25.104 202.895,25.999 204.000,25.999 C205.105,25.999 206.000,25.104 206.000,23.999 C206.000,22.894 205.105,21.998 204.000,21.998 ZM204.000,7.999 C201.791,7.999 200.000,6.208 200.000,3.998 C200.000,1.789 201.791,-0.001 204.000,-0.001 C206.209,-0.001 208.000,1.789 208.000,3.998 C208.000,6.208 206.209,7.999 204.000,7.999 ZM204.000,1.999 C202.895,1.999 202.000,2.894 202.000,3.998 C202.000,5.103 202.895,5.999 204.000,5.999 C205.105,5.999 206.000,5.103 206.000,3.998 C206.000,2.894 205.105,1.999 204.000,1.999 ZM184.000,227.998 C181.791,227.998 180.000,226.208 180.000,223.999 C180.000,221.790 181.791,219.999 184.000,219.999 C186.209,219.999 188.000,221.790 188.000,223.999 C188.000,226.208 186.209,227.998 184.000,227.998 ZM184.000,221.998 C182.895,221.998 182.000,222.894 182.000,223.999 C182.000,225.104 182.895,225.999 184.000,225.999 C185.104,225.999 186.000,225.104 186.000,223.999 C186.000,222.894 185.104,221.998 184.000,221.998 ZM184.000,207.999 C181.791,207.999 180.000,206.208 180.000,203.999 C180.000,201.789 181.791,199.999 184.000,199.999 C186.209,199.999 188.000,201.789 188.000,203.999 C188.000,206.208 186.209,207.999 184.000,207.999 ZM184.000,201.999 C182.895,201.999 182.000,202.894 182.000,203.999 C182.000,205.103 182.895,205.999 184.000,205.999 C185.104,205.999 186.000,205.103 186.000,203.999 C186.000,202.894 185.104,201.999 184.000,201.999 ZM184.000,187.999 C181.791,187.999 180.000,186.208 180.000,183.999 C180.000,181.790 181.791,179.999 184.000,179.999 C186.209,179.999 188.000,181.790 188.000,183.999 C188.000,186.208 186.209,187.999 184.000,187.999 ZM184.000,181.999 C182.895,181.999 182.000,182.894 182.000,183.999 C182.000,185.103 182.895,185.999 184.000,185.999 C185.104,185.999 186.000,185.103 186.000,183.999 C186.000,182.894 185.104,181.999 184.000,181.999 ZM184.000,167.999 C181.791,167.999 180.000,166.208 180.000,163.999 C180.000,161.790 181.791,159.999 184.000,159.999 C186.209,159.999 188.000,161.790 188.000,163.999 C188.000,166.208 186.209,167.999 184.000,167.999 ZM184.000,161.999 C182.895,161.999 182.000,162.894 182.000,163.999 C182.000,165.103 182.895,165.999 184.000,165.999 C185.104,165.999 186.000,165.103 186.000,163.999 C186.000,162.894 185.104,161.999 184.000,161.999 ZM184.000,147.999 C181.791,147.999 180.000,146.208 180.000,143.999 C180.000,141.789 181.791,139.999 184.000,139.999 C186.209,139.999 188.000,141.789 188.000,143.999 C188.000,146.208 186.209,147.999 184.000,147.999 ZM184.000,141.999 C182.895,141.999 182.000,142.894 182.000,143.999 C182.000,145.103 182.895,145.999 184.000,145.999 C185.104,145.999 186.000,145.103 186.000,143.999 C186.000,142.894 185.104,141.999 184.000,141.999 ZM184.000,127.999 C181.791,127.999 180.000,126.208 180.000,123.999 C180.000,121.789 181.791,119.999 184.000,119.999 C186.209,119.999 188.000,121.789 188.000,123.999 C188.000,126.208 186.209,127.999 184.000,127.999 ZM184.000,121.999 C182.895,121.999 182.000,122.894 182.000,123.999 C182.000,125.103 182.895,125.999 184.000,125.999 C185.104,125.999 186.000,125.103 186.000,123.999 C186.000,122.894 185.104,121.999 184.000,121.999 ZM184.000,107.999 C181.791,107.999 180.000,106.208 180.000,103.999 C180.000,101.790 181.791,99.999 184.000,99.999 C186.209,99.999 188.000,101.790 188.000,103.999 C188.000,106.208 186.209,107.999 184.000,107.999 ZM184.000,101.999 C182.895,101.999 182.000,102.894 182.000,103.999 C182.000,105.103 182.895,105.999 184.000,105.999 C185.104,105.999 186.000,105.103 186.000,103.999 C186.000,102.894 185.104,101.999 184.000,101.999 ZM184.000,87.999 C181.791,87.999 180.000,86.208 180.000,83.999 C180.000,81.790 181.791,79.999 184.000,79.999 C186.209,79.999 188.000,81.790 188.000,83.999 C188.000,86.208 186.209,87.999 184.000,87.999 ZM184.000,81.999 C182.895,81.999 182.000,82.894 182.000,83.999 C182.000,85.103 182.895,85.999 184.000,85.999 C185.104,85.999 186.000,85.103 186.000,83.999 C186.000,82.894 185.104,81.999 184.000,81.999 ZM184.000,67.999 C181.791,67.999 180.000,66.208 180.000,63.998 C180.000,61.789 181.791,59.999 184.000,59.999 C186.209,59.999 188.000,61.789 188.000,63.998 C188.000,66.208 186.209,67.999 184.000,67.999 ZM184.000,61.999 C182.895,61.999 182.000,62.894 182.000,63.998 C182.000,65.103 182.895,65.999 184.000,65.999 C185.104,65.999 186.000,65.103 186.000,63.998 C186.000,62.894 185.104,61.999 184.000,61.999 ZM184.000,47.999 C181.791,47.999 180.000,46.208 180.000,43.999 C180.000,41.790 181.791,39.998 184.000,39.998 C186.209,39.998 188.000,41.790 188.000,43.999 C188.000,46.208 186.209,47.999 184.000,47.999 ZM184.000,41.999 C182.895,41.999 182.000,42.894 182.000,43.999 C182.000,45.103 182.895,45.998 184.000,45.998 C185.104,45.998 186.000,45.103 186.000,43.999 C186.000,42.894 185.104,41.999 184.000,41.999 ZM184.000,27.998 C181.791,27.998 180.000,26.208 180.000,23.999 C180.000,21.790 181.791,19.999 184.000,19.999 C186.209,19.999 188.000,21.790 188.000,23.999 C188.000,26.208 186.209,27.998 184.000,27.998 ZM184.000,21.998 C182.895,21.998 182.000,22.894 182.000,23.999 C182.000,25.104 182.895,25.999 184.000,25.999 C185.104,25.999 186.000,25.104 186.000,23.999 C186.000,22.894 185.104,21.998 184.000,21.998 ZM184.000,7.999 C181.791,7.999 180.000,6.208 180.000,3.998 C180.000,1.789 181.791,-0.001 184.000,-0.001 C186.209,-0.001 188.000,1.789 188.000,3.998 C188.000,6.208 186.209,7.999 184.000,7.999 ZM184.000,1.999 C182.895,1.999 182.000,2.894 182.000,3.998 C182.000,5.103 182.895,5.999 184.000,5.999 C185.104,5.999 186.000,5.103 186.000,3.998 C186.000,2.894 185.104,1.999 184.000,1.999 ZM164.000,227.998 C161.791,227.998 160.000,226.208 160.000,223.999 C160.000,221.790 161.791,219.999 164.000,219.999 C166.209,219.999 168.000,221.790 168.000,223.999 C168.000,226.208 166.209,227.998 164.000,227.998 ZM164.000,221.998 C162.895,221.998 162.000,222.894 162.000,223.999 C162.000,225.104 162.895,225.999 164.000,225.999 C165.104,225.999 166.000,225.104 166.000,223.999 C166.000,222.894 165.104,221.998 164.000,221.998 ZM164.000,207.999 C161.791,207.999 160.000,206.208 160.000,203.999 C160.000,201.789 161.791,199.999 164.000,199.999 C166.209,199.999 168.000,201.789 168.000,203.999 C168.000,206.208 166.209,207.999 164.000,207.999 ZM164.000,201.999 C162.895,201.999 162.000,202.894 162.000,203.999 C162.000,205.103 162.895,205.999 164.000,205.999 C165.104,205.999 166.000,205.103 166.000,203.999 C166.000,202.894 165.104,201.999 164.000,201.999 ZM164.000,187.999 C161.791,187.999 160.000,186.208 160.000,183.999 C160.000,181.790 161.791,179.999 164.000,179.999 C166.209,179.999 168.000,181.790 168.000,183.999 C168.000,186.208 166.209,187.999 164.000,187.999 ZM164.000,181.999 C162.895,181.999 162.000,182.894 162.000,183.999 C162.000,185.103 162.895,185.999 164.000,185.999 C165.104,185.999 166.000,185.103 166.000,183.999 C166.000,182.894 165.104,181.999 164.000,181.999 ZM164.000,167.999 C161.791,167.999 160.000,166.208 160.000,163.999 C160.000,161.790 161.791,159.999 164.000,159.999 C166.209,159.999 168.000,161.790 168.000,163.999 C168.000,166.208 166.209,167.999 164.000,167.999 ZM164.000,161.999 C162.895,161.999 162.000,162.894 162.000,163.999 C162.000,165.103 162.895,165.999 164.000,165.999 C165.104,165.999 166.000,165.103 166.000,163.999 C166.000,162.894 165.104,161.999 164.000,161.999 ZM164.000,147.999 C161.791,147.999 160.000,146.208 160.000,143.999 C160.000,141.789 161.791,139.999 164.000,139.999 C166.209,139.999 168.000,141.789 168.000,143.999 C168.000,146.208 166.209,147.999 164.000,147.999 ZM164.000,141.999 C162.895,141.999 162.000,142.894 162.000,143.999 C162.000,145.103 162.895,145.999 164.000,145.999 C165.104,145.999 166.000,145.103 166.000,143.999 C166.000,142.894 165.104,141.999 164.000,141.999 ZM164.000,127.999 C161.791,127.999 160.000,126.208 160.000,123.999 C160.000,121.789 161.791,119.999 164.000,119.999 C166.209,119.999 168.000,121.789 168.000,123.999 C168.000,126.208 166.209,127.999 164.000,127.999 ZM164.000,121.999 C162.895,121.999 162.000,122.894 162.000,123.999 C162.000,125.103 162.895,125.999 164.000,125.999 C165.104,125.999 166.000,125.103 166.000,123.999 C166.000,122.894 165.104,121.999 164.000,121.999 ZM164.000,107.999 C161.791,107.999 160.000,106.208 160.000,103.999 C160.000,101.790 161.791,99.999 164.000,99.999 C166.209,99.999 168.000,101.790 168.000,103.999 C168.000,106.208 166.209,107.999 164.000,107.999 ZM164.000,101.999 C162.895,101.999 162.000,102.894 162.000,103.999 C162.000,105.103 162.895,105.999 164.000,105.999 C165.104,105.999 166.000,105.103 166.000,103.999 C166.000,102.894 165.104,101.999 164.000,101.999 ZM164.000,87.999 C161.791,87.999 160.000,86.208 160.000,83.999 C160.000,81.790 161.791,79.999 164.000,79.999 C166.209,79.999 168.000,81.790 168.000,83.999 C168.000,86.208 166.209,87.999 164.000,87.999 ZM164.000,81.999 C162.895,81.999 162.000,82.894 162.000,83.999 C162.000,85.103 162.895,85.999 164.000,85.999 C165.104,85.999 166.000,85.103 166.000,83.999 C166.000,82.894 165.104,81.999 164.000,81.999 ZM164.000,67.999 C161.791,67.999 160.000,66.208 160.000,63.998 C160.000,61.789 161.791,59.999 164.000,59.999 C166.209,59.999 168.000,61.789 168.000,63.998 C168.000,66.208 166.209,67.999 164.000,67.999 ZM164.000,61.999 C162.895,61.999 162.000,62.894 162.000,63.998 C162.000,65.103 162.895,65.999 164.000,65.999 C165.104,65.999 166.000,65.103 166.000,63.998 C166.000,62.894 165.104,61.999 164.000,61.999 ZM164.000,47.999 C161.791,47.999 160.000,46.208 160.000,43.999 C160.000,41.790 161.791,39.998 164.000,39.998 C166.209,39.998 168.000,41.790 168.000,43.999 C168.000,46.208 166.209,47.999 164.000,47.999 ZM164.000,41.999 C162.895,41.999 162.000,42.894 162.000,43.999 C162.000,45.103 162.895,45.998 164.000,45.998 C165.104,45.998 166.000,45.103 166.000,43.999 C166.000,42.894 165.104,41.999 164.000,41.999 ZM164.000,27.998 C161.791,27.998 160.000,26.208 160.000,23.999 C160.000,21.790 161.791,19.999 164.000,19.999 C166.209,19.999 168.000,21.790 168.000,23.999 C168.000,26.208 166.209,27.998 164.000,27.998 ZM164.000,21.998 C162.895,21.998 162.000,22.894 162.000,23.999 C162.000,25.104 162.895,25.999 164.000,25.999 C165.104,25.999 166.000,25.104 166.000,23.999 C166.000,22.894 165.104,21.998 164.000,21.998 ZM164.000,7.999 C161.791,7.999 160.000,6.208 160.000,3.998 C160.000,1.789 161.791,-0.001 164.000,-0.001 C166.209,-0.001 168.000,1.789 168.000,3.998 C168.000,6.208 166.209,7.999 164.000,7.999 ZM164.000,1.999 C162.895,1.999 162.000,2.894 162.000,3.998 C162.000,5.103 162.895,5.999 164.000,5.999 C165.104,5.999 166.000,5.103 166.000,3.998 C166.000,2.894 165.104,1.999 164.000,1.999 ZM144.000,227.998 C141.791,227.998 140.000,226.208 140.000,223.999 C140.000,221.790 141.791,219.999 144.000,219.999 C146.209,219.999 148.000,221.790 148.000,223.999 C148.000,226.208 146.209,227.998 144.000,227.998 ZM144.000,221.998 C142.895,221.998 142.000,222.894 142.000,223.999 C142.000,225.104 142.895,225.999 144.000,225.999 C145.104,225.999 146.000,225.104 146.000,223.999 C146.000,222.894 145.104,221.998 144.000,221.998 ZM144.000,207.999 C141.791,207.999 140.000,206.208 140.000,203.999 C140.000,201.789 141.791,199.999 144.000,199.999 C146.209,199.999 148.000,201.789 148.000,203.999 C148.000,206.208 146.209,207.999 144.000,207.999 ZM144.000,201.999 C142.895,201.999 142.000,202.894 142.000,203.999 C142.000,205.103 142.895,205.999 144.000,205.999 C145.104,205.999 146.000,205.103 146.000,203.999 C146.000,202.894 145.104,201.999 144.000,201.999 ZM144.000,187.999 C141.791,187.999 140.000,186.208 140.000,183.999 C140.000,181.790 141.791,179.999 144.000,179.999 C146.209,179.999 148.000,181.790 148.000,183.999 C148.000,186.208 146.209,187.999 144.000,187.999 ZM144.000,181.999 C142.895,181.999 142.000,182.894 142.000,183.999 C142.000,185.103 142.895,185.999 144.000,185.999 C145.104,185.999 146.000,185.103 146.000,183.999 C146.000,182.894 145.104,181.999 144.000,181.999 ZM144.000,167.999 C141.791,167.999 140.000,166.208 140.000,163.999 C140.000,161.790 141.791,159.999 144.000,159.999 C146.209,159.999 148.000,161.790 148.000,163.999 C148.000,166.208 146.209,167.999 144.000,167.999 ZM144.000,161.999 C142.895,161.999 142.000,162.894 142.000,163.999 C142.000,165.103 142.895,165.999 144.000,165.999 C145.104,165.999 146.000,165.103 146.000,163.999 C146.000,162.894 145.104,161.999 144.000,161.999 ZM144.000,147.999 C141.791,147.999 140.000,146.208 140.000,143.999 C140.000,141.789 141.791,139.999 144.000,139.999 C146.209,139.999 148.000,141.789 148.000,143.999 C148.000,146.208 146.209,147.999 144.000,147.999 ZM144.000,141.999 C142.895,141.999 142.000,142.894 142.000,143.999 C142.000,145.103 142.895,145.999 144.000,145.999 C145.104,145.999 146.000,145.103 146.000,143.999 C146.000,142.894 145.104,141.999 144.000,141.999 ZM144.000,127.999 C141.791,127.999 140.000,126.208 140.000,123.999 C140.000,121.789 141.791,119.999 144.000,119.999 C146.209,119.999 148.000,121.789 148.000,123.999 C148.000,126.208 146.209,127.999 144.000,127.999 ZM144.000,121.999 C142.895,121.999 142.000,122.894 142.000,123.999 C142.000,125.103 142.895,125.999 144.000,125.999 C145.104,125.999 146.000,125.103 146.000,123.999 C146.000,122.894 145.104,121.999 144.000,121.999 ZM144.000,107.999 C141.791,107.999 140.000,106.208 140.000,103.999 C140.000,101.790 141.791,99.999 144.000,99.999 C146.209,99.999 148.000,101.790 148.000,103.999 C148.000,106.208 146.209,107.999 144.000,107.999 ZM144.000,101.999 C142.895,101.999 142.000,102.894 142.000,103.999 C142.000,105.103 142.895,105.999 144.000,105.999 C145.104,105.999 146.000,105.103 146.000,103.999 C146.000,102.894 145.104,101.999 144.000,101.999 ZM144.000,87.999 C141.791,87.999 140.000,86.208 140.000,83.999 C140.000,81.790 141.791,79.999 144.000,79.999 C146.209,79.999 148.000,81.790 148.000,83.999 C148.000,86.208 146.209,87.999 144.000,87.999 ZM144.000,81.999 C142.895,81.999 142.000,82.894 142.000,83.999 C142.000,85.103 142.895,85.999 144.000,85.999 C145.104,85.999 146.000,85.103 146.000,83.999 C146.000,82.894 145.104,81.999 144.000,81.999 ZM144.000,67.999 C141.791,67.999 140.000,66.208 140.000,63.998 C140.000,61.789 141.791,59.999 144.000,59.999 C146.209,59.999 148.000,61.789 148.000,63.998 C148.000,66.208 146.209,67.999 144.000,67.999 ZM144.000,61.999 C142.895,61.999 142.000,62.894 142.000,63.998 C142.000,65.103 142.895,65.999 144.000,65.999 C145.104,65.999 146.000,65.103 146.000,63.998 C146.000,62.894 145.104,61.999 144.000,61.999 ZM144.000,47.999 C141.791,47.999 140.000,46.208 140.000,43.999 C140.000,41.790 141.791,39.998 144.000,39.998 C146.209,39.998 148.000,41.790 148.000,43.999 C148.000,46.208 146.209,47.999 144.000,47.999 ZM144.000,41.999 C142.895,41.999 142.000,42.894 142.000,43.999 C142.000,45.103 142.895,45.998 144.000,45.998 C145.104,45.998 146.000,45.103 146.000,43.999 C146.000,42.894 145.104,41.999 144.000,41.999 ZM144.000,27.998 C141.791,27.998 140.000,26.208 140.000,23.999 C140.000,21.790 141.791,19.999 144.000,19.999 C146.209,19.999 148.000,21.790 148.000,23.999 C148.000,26.208 146.209,27.998 144.000,27.998 ZM144.000,21.998 C142.895,21.998 142.000,22.894 142.000,23.999 C142.000,25.104 142.895,25.999 144.000,25.999 C145.104,25.999 146.000,25.104 146.000,23.999 C146.000,22.894 145.104,21.998 144.000,21.998 ZM144.000,7.999 C141.791,7.999 140.000,6.208 140.000,3.998 C140.000,1.789 141.791,-0.001 144.000,-0.001 C146.209,-0.001 148.000,1.789 148.000,3.998 C148.000,6.208 146.209,7.999 144.000,7.999 ZM144.000,1.999 C142.895,1.999 142.000,2.894 142.000,3.998 C142.000,5.103 142.895,5.999 144.000,5.999 C145.104,5.999 146.000,5.103 146.000,3.998 C146.000,2.894 145.104,1.999 144.000,1.999 ZM124.000,227.998 C121.791,227.998 120.000,226.208 120.000,223.999 C120.000,221.790 121.791,219.999 124.000,219.999 C126.209,219.999 128.000,221.790 128.000,223.999 C128.000,226.208 126.209,227.998 124.000,227.998 ZM124.000,221.998 C122.895,221.998 122.000,222.894 122.000,223.999 C122.000,225.104 122.895,225.999 124.000,225.999 C125.105,225.999 126.000,225.104 126.000,223.999 C126.000,222.894 125.105,221.998 124.000,221.998 ZM124.000,207.999 C121.791,207.999 120.000,206.208 120.000,203.999 C120.000,201.789 121.791,199.999 124.000,199.999 C126.209,199.999 128.000,201.789 128.000,203.999 C128.000,206.208 126.209,207.999 124.000,207.999 ZM124.000,201.999 C122.895,201.999 122.000,202.894 122.000,203.999 C122.000,205.103 122.895,205.999 124.000,205.999 C125.105,205.999 126.000,205.103 126.000,203.999 C126.000,202.894 125.105,201.999 124.000,201.999 ZM124.000,187.999 C121.791,187.999 120.000,186.208 120.000,183.999 C120.000,181.790 121.791,179.999 124.000,179.999 C126.209,179.999 128.000,181.790 128.000,183.999 C128.000,186.208 126.209,187.999 124.000,187.999 ZM124.000,181.999 C122.895,181.999 122.000,182.894 122.000,183.999 C122.000,185.103 122.895,185.999 124.000,185.999 C125.105,185.999 126.000,185.103 126.000,183.999 C126.000,182.894 125.105,181.999 124.000,181.999 ZM124.000,167.999 C121.791,167.999 120.000,166.208 120.000,163.999 C120.000,161.790 121.791,159.999 124.000,159.999 C126.209,159.999 128.000,161.790 128.000,163.999 C128.000,166.208 126.209,167.999 124.000,167.999 ZM124.000,161.999 C122.895,161.999 122.000,162.894 122.000,163.999 C122.000,165.103 122.895,165.999 124.000,165.999 C125.105,165.999 126.000,165.103 126.000,163.999 C126.000,162.894 125.105,161.999 124.000,161.999 ZM124.000,147.999 C121.791,147.999 120.000,146.208 120.000,143.999 C120.000,141.789 121.791,139.999 124.000,139.999 C126.209,139.999 128.000,141.789 128.000,143.999 C128.000,146.208 126.209,147.999 124.000,147.999 ZM124.000,141.999 C122.895,141.999 122.000,142.894 122.000,143.999 C122.000,145.103 122.895,145.999 124.000,145.999 C125.105,145.999 126.000,145.103 126.000,143.999 C126.000,142.894 125.105,141.999 124.000,141.999 ZM124.000,127.999 C121.791,127.999 120.000,126.208 120.000,123.999 C120.000,121.789 121.791,119.999 124.000,119.999 C126.209,119.999 128.000,121.789 128.000,123.999 C128.000,126.208 126.209,127.999 124.000,127.999 ZM124.000,121.999 C122.895,121.999 122.000,122.894 122.000,123.999 C122.000,125.103 122.895,125.999 124.000,125.999 C125.105,125.999 126.000,125.103 126.000,123.999 C126.000,122.894 125.105,121.999 124.000,121.999 ZM124.000,107.999 C121.791,107.999 120.000,106.208 120.000,103.999 C120.000,101.790 121.791,99.999 124.000,99.999 C126.209,99.999 128.000,101.790 128.000,103.999 C128.000,106.208 126.209,107.999 124.000,107.999 ZM124.000,101.999 C122.895,101.999 122.000,102.894 122.000,103.999 C122.000,105.103 122.895,105.999 124.000,105.999 C125.105,105.999 126.000,105.103 126.000,103.999 C126.000,102.894 125.105,101.999 124.000,101.999 ZM124.000,87.999 C121.791,87.999 120.000,86.208 120.000,83.999 C120.000,81.790 121.791,79.999 124.000,79.999 C126.209,79.999 128.000,81.790 128.000,83.999 C128.000,86.208 126.209,87.999 124.000,87.999 ZM124.000,81.999 C122.895,81.999 122.000,82.894 122.000,83.999 C122.000,85.103 122.895,85.999 124.000,85.999 C125.105,85.999 126.000,85.103 126.000,83.999 C126.000,82.894 125.105,81.999 124.000,81.999 ZM124.000,67.999 C121.791,67.999 120.000,66.208 120.000,63.998 C120.000,61.789 121.791,59.999 124.000,59.999 C126.209,59.999 128.000,61.789 128.000,63.998 C128.000,66.208 126.209,67.999 124.000,67.999 ZM124.000,61.999 C122.895,61.999 122.000,62.894 122.000,63.998 C122.000,65.103 122.895,65.999 124.000,65.999 C125.105,65.999 126.000,65.103 126.000,63.998 C126.000,62.894 125.105,61.999 124.000,61.999 ZM124.000,47.999 C121.791,47.999 120.000,46.208 120.000,43.999 C120.000,41.790 121.791,39.998 124.000,39.998 C126.209,39.998 128.000,41.790 128.000,43.999 C128.000,46.208 126.209,47.999 124.000,47.999 ZM124.000,41.999 C122.895,41.999 122.000,42.894 122.000,43.999 C122.000,45.103 122.895,45.998 124.000,45.998 C125.105,45.998 126.000,45.103 126.000,43.999 C126.000,42.894 125.105,41.999 124.000,41.999 ZM124.000,27.998 C121.791,27.998 120.000,26.208 120.000,23.999 C120.000,21.790 121.791,19.999 124.000,19.999 C126.209,19.999 128.000,21.790 128.000,23.999 C128.000,26.208 126.209,27.998 124.000,27.998 ZM124.000,21.998 C122.895,21.998 122.000,22.894 122.000,23.999 C122.000,25.104 122.895,25.999 124.000,25.999 C125.105,25.999 126.000,25.104 126.000,23.999 C126.000,22.894 125.105,21.998 124.000,21.998 ZM124.000,7.999 C121.791,7.999 120.000,6.208 120.000,3.998 C120.000,1.789 121.791,-0.001 124.000,-0.001 C126.209,-0.001 128.000,1.789 128.000,3.998 C128.000,6.208 126.209,7.999 124.000,7.999 ZM124.000,1.999 C122.895,1.999 122.000,2.894 122.000,3.998 C122.000,5.103 122.895,5.999 124.000,5.999 C125.105,5.999 126.000,5.103 126.000,3.998 C126.000,2.894 125.105,1.999 124.000,1.999 ZM104.000,227.998 C101.791,227.998 100.000,226.208 100.000,223.999 C100.000,221.790 101.791,219.999 104.000,219.999 C106.209,219.999 108.000,221.790 108.000,223.999 C108.000,226.208 106.209,227.998 104.000,227.998 ZM104.000,221.998 C102.895,221.998 102.000,222.894 102.000,223.999 C102.000,225.104 102.895,225.999 104.000,225.999 C105.105,225.999 106.000,225.104 106.000,223.999 C106.000,222.894 105.105,221.998 104.000,221.998 ZM104.000,207.999 C101.791,207.999 100.000,206.208 100.000,203.999 C100.000,201.789 101.791,199.999 104.000,199.999 C106.209,199.999 108.000,201.789 108.000,203.999 C108.000,206.208 106.209,207.999 104.000,207.999 ZM104.000,201.999 C102.895,201.999 102.000,202.894 102.000,203.999 C102.000,205.103 102.895,205.999 104.000,205.999 C105.105,205.999 106.000,205.103 106.000,203.999 C106.000,202.894 105.105,201.999 104.000,201.999 ZM104.000,187.999 C101.791,187.999 100.000,186.208 100.000,183.999 C100.000,181.790 101.791,179.999 104.000,179.999 C106.209,179.999 108.000,181.790 108.000,183.999 C108.000,186.208 106.209,187.999 104.000,187.999 ZM104.000,181.999 C102.895,181.999 102.000,182.894 102.000,183.999 C102.000,185.103 102.895,185.999 104.000,185.999 C105.105,185.999 106.000,185.103 106.000,183.999 C106.000,182.894 105.105,181.999 104.000,181.999 ZM104.000,167.999 C101.791,167.999 100.000,166.208 100.000,163.999 C100.000,161.790 101.791,159.999 104.000,159.999 C106.209,159.999 108.000,161.790 108.000,163.999 C108.000,166.208 106.209,167.999 104.000,167.999 ZM104.000,161.999 C102.895,161.999 102.000,162.894 102.000,163.999 C102.000,165.103 102.895,165.999 104.000,165.999 C105.105,165.999 106.000,165.103 106.000,163.999 C106.000,162.894 105.105,161.999 104.000,161.999 ZM104.000,147.999 C101.791,147.999 100.000,146.208 100.000,143.999 C100.000,141.789 101.791,139.999 104.000,139.999 C106.209,139.999 108.000,141.789 108.000,143.999 C108.000,146.208 106.209,147.999 104.000,147.999 ZM104.000,141.999 C102.895,141.999 102.000,142.894 102.000,143.999 C102.000,145.103 102.895,145.999 104.000,145.999 C105.105,145.999 106.000,145.103 106.000,143.999 C106.000,142.894 105.105,141.999 104.000,141.999 ZM104.000,127.999 C101.791,127.999 100.000,126.208 100.000,123.999 C100.000,121.789 101.791,119.999 104.000,119.999 C106.209,119.999 108.000,121.789 108.000,123.999 C108.000,126.208 106.209,127.999 104.000,127.999 ZM104.000,121.999 C102.895,121.999 102.000,122.894 102.000,123.999 C102.000,125.103 102.895,125.999 104.000,125.999 C105.105,125.999 106.000,125.103 106.000,123.999 C106.000,122.894 105.105,121.999 104.000,121.999 ZM104.000,107.999 C101.791,107.999 100.000,106.208 100.000,103.999 C100.000,101.790 101.791,99.999 104.000,99.999 C106.209,99.999 108.000,101.790 108.000,103.999 C108.000,106.208 106.209,107.999 104.000,107.999 ZM104.000,101.999 C102.895,101.999 102.000,102.894 102.000,103.999 C102.000,105.103 102.895,105.999 104.000,105.999 C105.105,105.999 106.000,105.103 106.000,103.999 C106.000,102.894 105.105,101.999 104.000,101.999 ZM104.000,87.999 C101.791,87.999 100.000,86.208 100.000,83.999 C100.000,81.790 101.791,79.999 104.000,79.999 C106.209,79.999 108.000,81.790 108.000,83.999 C108.000,86.208 106.209,87.999 104.000,87.999 ZM104.000,81.999 C102.895,81.999 102.000,82.894 102.000,83.999 C102.000,85.103 102.895,85.999 104.000,85.999 C105.105,85.999 106.000,85.103 106.000,83.999 C106.000,82.894 105.105,81.999 104.000,81.999 ZM104.000,67.999 C101.791,67.999 100.000,66.208 100.000,63.998 C100.000,61.789 101.791,59.999 104.000,59.999 C106.209,59.999 108.000,61.789 108.000,63.998 C108.000,66.208 106.209,67.999 104.000,67.999 ZM104.000,61.999 C102.895,61.999 102.000,62.894 102.000,63.998 C102.000,65.103 102.895,65.999 104.000,65.999 C105.105,65.999 106.000,65.103 106.000,63.998 C106.000,62.894 105.105,61.999 104.000,61.999 ZM104.000,47.999 C101.791,47.999 100.000,46.208 100.000,43.999 C100.000,41.790 101.791,39.998 104.000,39.998 C106.209,39.998 108.000,41.790 108.000,43.999 C108.000,46.208 106.209,47.999 104.000,47.999 ZM104.000,41.999 C102.895,41.999 102.000,42.894 102.000,43.999 C102.000,45.103 102.895,45.998 104.000,45.998 C105.105,45.998 106.000,45.103 106.000,43.999 C106.000,42.894 105.105,41.999 104.000,41.999 ZM104.000,27.998 C101.791,27.998 100.000,26.208 100.000,23.999 C100.000,21.790 101.791,19.999 104.000,19.999 C106.209,19.999 108.000,21.790 108.000,23.999 C108.000,26.208 106.209,27.998 104.000,27.998 ZM104.000,21.998 C102.895,21.998 102.000,22.894 102.000,23.999 C102.000,25.104 102.895,25.999 104.000,25.999 C105.105,25.999 106.000,25.104 106.000,23.999 C106.000,22.894 105.105,21.998 104.000,21.998 ZM104.000,7.999 C101.791,7.999 100.000,6.208 100.000,3.998 C100.000,1.789 101.791,-0.001 104.000,-0.001 C106.209,-0.001 108.000,1.789 108.000,3.998 C108.000,6.208 106.209,7.999 104.000,7.999 ZM104.000,1.999 C102.895,1.999 102.000,2.894 102.000,3.998 C102.000,5.103 102.895,5.999 104.000,5.999 C105.105,5.999 106.000,5.103 106.000,3.998 C106.000,2.894 105.105,1.999 104.000,1.999 ZM84.000,227.998 C81.791,227.998 80.000,226.208 80.000,223.999 C80.000,221.790 81.791,219.999 84.000,219.999 C86.209,219.999 88.000,221.790 88.000,223.999 C88.000,226.208 86.209,227.998 84.000,227.998 ZM84.000,221.998 C82.895,221.998 82.000,222.894 82.000,223.999 C82.000,225.104 82.895,225.999 84.000,225.999 C85.104,225.999 86.000,225.104 86.000,223.999 C86.000,222.894 85.104,221.998 84.000,221.998 ZM84.000,207.999 C81.791,207.999 80.000,206.208 80.000,203.999 C80.000,201.789 81.791,199.999 84.000,199.999 C86.209,199.999 88.000,201.789 88.000,203.999 C88.000,206.208 86.209,207.999 84.000,207.999 ZM84.000,201.999 C82.895,201.999 82.000,202.894 82.000,203.999 C82.000,205.103 82.895,205.999 84.000,205.999 C85.104,205.999 86.000,205.103 86.000,203.999 C86.000,202.894 85.104,201.999 84.000,201.999 ZM84.000,187.999 C81.791,187.999 80.000,186.208 80.000,183.999 C80.000,181.790 81.791,179.999 84.000,179.999 C86.209,179.999 88.000,181.790 88.000,183.999 C88.000,186.208 86.209,187.999 84.000,187.999 ZM84.000,181.999 C82.895,181.999 82.000,182.894 82.000,183.999 C82.000,185.103 82.895,185.999 84.000,185.999 C85.104,185.999 86.000,185.103 86.000,183.999 C86.000,182.894 85.104,181.999 84.000,181.999 ZM84.000,167.999 C81.791,167.999 80.000,166.208 80.000,163.999 C80.000,161.790 81.791,159.999 84.000,159.999 C86.209,159.999 88.000,161.790 88.000,163.999 C88.000,166.208 86.209,167.999 84.000,167.999 ZM84.000,161.999 C82.895,161.999 82.000,162.894 82.000,163.999 C82.000,165.103 82.895,165.999 84.000,165.999 C85.104,165.999 86.000,165.103 86.000,163.999 C86.000,162.894 85.104,161.999 84.000,161.999 ZM84.000,147.999 C81.791,147.999 80.000,146.208 80.000,143.999 C80.000,141.789 81.791,139.999 84.000,139.999 C86.209,139.999 88.000,141.789 88.000,143.999 C88.000,146.208 86.209,147.999 84.000,147.999 ZM84.000,141.999 C82.895,141.999 82.000,142.894 82.000,143.999 C82.000,145.103 82.895,145.999 84.000,145.999 C85.104,145.999 86.000,145.103 86.000,143.999 C86.000,142.894 85.104,141.999 84.000,141.999 ZM84.000,127.999 C81.791,127.999 80.000,126.208 80.000,123.999 C80.000,121.789 81.791,119.999 84.000,119.999 C86.209,119.999 88.000,121.789 88.000,123.999 C88.000,126.208 86.209,127.999 84.000,127.999 ZM84.000,121.999 C82.895,121.999 82.000,122.894 82.000,123.999 C82.000,125.103 82.895,125.999 84.000,125.999 C85.104,125.999 86.000,125.103 86.000,123.999 C86.000,122.894 85.104,121.999 84.000,121.999 ZM84.000,107.999 C81.791,107.999 80.000,106.208 80.000,103.999 C80.000,101.790 81.791,99.999 84.000,99.999 C86.209,99.999 88.000,101.790 88.000,103.999 C88.000,106.208 86.209,107.999 84.000,107.999 ZM84.000,101.999 C82.895,101.999 82.000,102.894 82.000,103.999 C82.000,105.103 82.895,105.999 84.000,105.999 C85.104,105.999 86.000,105.103 86.000,103.999 C86.000,102.894 85.104,101.999 84.000,101.999 ZM84.000,87.999 C81.791,87.999 80.000,86.208 80.000,83.999 C80.000,81.790 81.791,79.999 84.000,79.999 C86.209,79.999 88.000,81.790 88.000,83.999 C88.000,86.208 86.209,87.999 84.000,87.999 ZM84.000,81.999 C82.895,81.999 82.000,82.894 82.000,83.999 C82.000,85.103 82.895,85.999 84.000,85.999 C85.104,85.999 86.000,85.103 86.000,83.999 C86.000,82.894 85.104,81.999 84.000,81.999 ZM84.000,67.999 C81.791,67.999 80.000,66.208 80.000,63.998 C80.000,61.789 81.791,59.999 84.000,59.999 C86.209,59.999 88.000,61.789 88.000,63.998 C88.000,66.208 86.209,67.999 84.000,67.999 ZM84.000,61.999 C82.895,61.999 82.000,62.894 82.000,63.998 C82.000,65.103 82.895,65.999 84.000,65.999 C85.104,65.999 86.000,65.103 86.000,63.998 C86.000,62.894 85.104,61.999 84.000,61.999 ZM84.000,47.999 C81.791,47.999 80.000,46.208 80.000,43.999 C80.000,41.790 81.791,39.998 84.000,39.998 C86.209,39.998 88.000,41.790 88.000,43.999 C88.000,46.208 86.209,47.999 84.000,47.999 ZM84.000,41.999 C82.895,41.999 82.000,42.894 82.000,43.999 C82.000,45.103 82.895,45.998 84.000,45.998 C85.104,45.998 86.000,45.103 86.000,43.999 C86.000,42.894 85.104,41.999 84.000,41.999 ZM84.000,27.998 C81.791,27.998 80.000,26.208 80.000,23.999 C80.000,21.790 81.791,19.999 84.000,19.999 C86.209,19.999 88.000,21.790 88.000,23.999 C88.000,26.208 86.209,27.998 84.000,27.998 ZM84.000,21.998 C82.895,21.998 82.000,22.894 82.000,23.999 C82.000,25.104 82.895,25.999 84.000,25.999 C85.104,25.999 86.000,25.104 86.000,23.999 C86.000,22.894 85.104,21.998 84.000,21.998 ZM84.000,7.999 C81.791,7.999 80.000,6.208 80.000,3.998 C80.000,1.789 81.791,-0.001 84.000,-0.001 C86.209,-0.001 88.000,1.789 88.000,3.998 C88.000,6.208 86.209,7.999 84.000,7.999 ZM84.000,1.999 C82.895,1.999 82.000,2.894 82.000,3.998 C82.000,5.103 82.895,5.999 84.000,5.999 C85.104,5.999 86.000,5.103 86.000,3.998 C86.000,2.894 85.104,1.999 84.000,1.999 ZM64.000,227.998 C61.791,227.998 60.000,226.208 60.000,223.999 C60.000,221.790 61.791,219.999 64.000,219.999 C66.209,219.999 68.000,221.790 68.000,223.999 C68.000,226.208 66.209,227.998 64.000,227.998 ZM64.000,221.998 C62.895,221.998 62.000,222.894 62.000,223.999 C62.000,225.104 62.895,225.999 64.000,225.999 C65.104,225.999 66.000,225.104 66.000,223.999 C66.000,222.894 65.104,221.998 64.000,221.998 ZM64.000,207.999 C61.791,207.999 60.000,206.208 60.000,203.999 C60.000,201.789 61.791,199.999 64.000,199.999 C66.209,199.999 68.000,201.789 68.000,203.999 C68.000,206.208 66.209,207.999 64.000,207.999 ZM64.000,201.999 C62.895,201.999 62.000,202.894 62.000,203.999 C62.000,205.103 62.895,205.999 64.000,205.999 C65.104,205.999 66.000,205.103 66.000,203.999 C66.000,202.894 65.104,201.999 64.000,201.999 ZM64.000,187.999 C61.791,187.999 60.000,186.208 60.000,183.999 C60.000,181.790 61.791,179.999 64.000,179.999 C66.209,179.999 68.000,181.790 68.000,183.999 C68.000,186.208 66.209,187.999 64.000,187.999 ZM64.000,181.999 C62.895,181.999 62.000,182.894 62.000,183.999 C62.000,185.103 62.895,185.999 64.000,185.999 C65.104,185.999 66.000,185.103 66.000,183.999 C66.000,182.894 65.104,181.999 64.000,181.999 ZM64.000,167.999 C61.791,167.999 60.000,166.208 60.000,163.999 C60.000,161.790 61.791,159.999 64.000,159.999 C66.209,159.999 68.000,161.790 68.000,163.999 C68.000,166.208 66.209,167.999 64.000,167.999 ZM64.000,161.999 C62.895,161.999 62.000,162.894 62.000,163.999 C62.000,165.103 62.895,165.999 64.000,165.999 C65.104,165.999 66.000,165.103 66.000,163.999 C66.000,162.894 65.104,161.999 64.000,161.999 ZM64.000,147.999 C61.791,147.999 60.000,146.208 60.000,143.999 C60.000,141.789 61.791,139.999 64.000,139.999 C66.209,139.999 68.000,141.789 68.000,143.999 C68.000,146.208 66.209,147.999 64.000,147.999 ZM64.000,141.999 C62.895,141.999 62.000,142.894 62.000,143.999 C62.000,145.103 62.895,145.999 64.000,145.999 C65.104,145.999 66.000,145.103 66.000,143.999 C66.000,142.894 65.104,141.999 64.000,141.999 ZM64.000,127.999 C61.791,127.999 60.000,126.208 60.000,123.999 C60.000,121.789 61.791,119.999 64.000,119.999 C66.209,119.999 68.000,121.789 68.000,123.999 C68.000,126.208 66.209,127.999 64.000,127.999 ZM64.000,121.999 C62.895,121.999 62.000,122.894 62.000,123.999 C62.000,125.103 62.895,125.999 64.000,125.999 C65.104,125.999 66.000,125.103 66.000,123.999 C66.000,122.894 65.104,121.999 64.000,121.999 ZM64.000,107.999 C61.791,107.999 60.000,106.208 60.000,103.999 C60.000,101.790 61.791,99.999 64.000,99.999 C66.209,99.999 68.000,101.790 68.000,103.999 C68.000,106.208 66.209,107.999 64.000,107.999 ZM64.000,101.999 C62.895,101.999 62.000,102.894 62.000,103.999 C62.000,105.103 62.895,105.999 64.000,105.999 C65.104,105.999 66.000,105.103 66.000,103.999 C66.000,102.894 65.104,101.999 64.000,101.999 ZM64.000,87.999 C61.791,87.999 60.000,86.208 60.000,83.999 C60.000,81.790 61.791,79.999 64.000,79.999 C66.209,79.999 68.000,81.790 68.000,83.999 C68.000,86.208 66.209,87.999 64.000,87.999 ZM64.000,81.999 C62.895,81.999 62.000,82.894 62.000,83.999 C62.000,85.103 62.895,85.999 64.000,85.999 C65.104,85.999 66.000,85.103 66.000,83.999 C66.000,82.894 65.104,81.999 64.000,81.999 ZM64.000,67.999 C61.791,67.999 60.000,66.208 60.000,63.998 C60.000,61.789 61.791,59.999 64.000,59.999 C66.209,59.999 68.000,61.789 68.000,63.998 C68.000,66.208 66.209,67.999 64.000,67.999 ZM64.000,61.999 C62.895,61.999 62.000,62.894 62.000,63.998 C62.000,65.103 62.895,65.999 64.000,65.999 C65.104,65.999 66.000,65.103 66.000,63.998 C66.000,62.894 65.104,61.999 64.000,61.999 ZM64.000,47.999 C61.791,47.999 60.000,46.208 60.000,43.999 C60.000,41.790 61.791,39.998 64.000,39.998 C66.209,39.998 68.000,41.790 68.000,43.999 C68.000,46.208 66.209,47.999 64.000,47.999 ZM64.000,41.999 C62.895,41.999 62.000,42.894 62.000,43.999 C62.000,45.103 62.895,45.998 64.000,45.998 C65.104,45.998 66.000,45.103 66.000,43.999 C66.000,42.894 65.104,41.999 64.000,41.999 ZM64.000,27.998 C61.791,27.998 60.000,26.208 60.000,23.999 C60.000,21.790 61.791,19.999 64.000,19.999 C66.209,19.999 68.000,21.790 68.000,23.999 C68.000,26.208 66.209,27.998 64.000,27.998 ZM64.000,21.998 C62.895,21.998 62.000,22.894 62.000,23.999 C62.000,25.104 62.895,25.999 64.000,25.999 C65.104,25.999 66.000,25.104 66.000,23.999 C66.000,22.894 65.104,21.998 64.000,21.998 ZM64.000,7.999 C61.791,7.999 60.000,6.208 60.000,3.998 C60.000,1.789 61.791,-0.001 64.000,-0.001 C66.209,-0.001 68.000,1.789 68.000,3.998 C68.000,6.208 66.209,7.999 64.000,7.999 ZM64.000,1.999 C62.895,1.999 62.000,2.894 62.000,3.998 C62.000,5.103 62.895,5.999 64.000,5.999 C65.104,5.999 66.000,5.103 66.000,3.998 C66.000,2.894 65.104,1.999 64.000,1.999 ZM44.000,227.998 C41.791,227.998 40.000,226.208 40.000,223.999 C40.000,221.790 41.791,219.999 44.000,219.999 C46.209,219.999 48.000,221.790 48.000,223.999 C48.000,226.208 46.209,227.998 44.000,227.998 ZM44.000,221.998 C42.895,221.998 42.000,222.894 42.000,223.999 C42.000,225.104 42.895,225.999 44.000,225.999 C45.104,225.999 46.000,225.104 46.000,223.999 C46.000,222.894 45.104,221.998 44.000,221.998 ZM44.000,207.999 C41.791,207.999 40.000,206.208 40.000,203.999 C40.000,201.789 41.791,199.999 44.000,199.999 C46.209,199.999 48.000,201.789 48.000,203.999 C48.000,206.208 46.209,207.999 44.000,207.999 ZM44.000,201.999 C42.895,201.999 42.000,202.894 42.000,203.999 C42.000,205.103 42.895,205.999 44.000,205.999 C45.104,205.999 46.000,205.103 46.000,203.999 C46.000,202.894 45.104,201.999 44.000,201.999 ZM44.000,187.999 C41.791,187.999 40.000,186.208 40.000,183.999 C40.000,181.790 41.791,179.999 44.000,179.999 C46.209,179.999 48.000,181.790 48.000,183.999 C48.000,186.208 46.209,187.999 44.000,187.999 ZM44.000,181.999 C42.895,181.999 42.000,182.894 42.000,183.999 C42.000,185.103 42.895,185.999 44.000,185.999 C45.104,185.999 46.000,185.103 46.000,183.999 C46.000,182.894 45.104,181.999 44.000,181.999 ZM44.000,167.999 C41.791,167.999 40.000,166.208 40.000,163.999 C40.000,161.790 41.791,159.999 44.000,159.999 C46.209,159.999 48.000,161.790 48.000,163.999 C48.000,166.208 46.209,167.999 44.000,167.999 ZM44.000,161.999 C42.895,161.999 42.000,162.894 42.000,163.999 C42.000,165.103 42.895,165.999 44.000,165.999 C45.104,165.999 46.000,165.103 46.000,163.999 C46.000,162.894 45.104,161.999 44.000,161.999 ZM44.000,147.999 C41.791,147.999 40.000,146.208 40.000,143.999 C40.000,141.789 41.791,139.999 44.000,139.999 C46.209,139.999 48.000,141.789 48.000,143.999 C48.000,146.208 46.209,147.999 44.000,147.999 ZM44.000,141.999 C42.895,141.999 42.000,142.894 42.000,143.999 C42.000,145.103 42.895,145.999 44.000,145.999 C45.104,145.999 46.000,145.103 46.000,143.999 C46.000,142.894 45.104,141.999 44.000,141.999 ZM44.000,127.999 C41.791,127.999 40.000,126.208 40.000,123.999 C40.000,121.789 41.791,119.999 44.000,119.999 C46.209,119.999 48.000,121.789 48.000,123.999 C48.000,126.208 46.209,127.999 44.000,127.999 ZM44.000,121.999 C42.895,121.999 42.000,122.894 42.000,123.999 C42.000,125.103 42.895,125.999 44.000,125.999 C45.104,125.999 46.000,125.103 46.000,123.999 C46.000,122.894 45.104,121.999 44.000,121.999 ZM44.000,107.999 C41.791,107.999 40.000,106.208 40.000,103.999 C40.000,101.790 41.791,99.999 44.000,99.999 C46.209,99.999 48.000,101.790 48.000,103.999 C48.000,106.208 46.209,107.999 44.000,107.999 ZM44.000,101.999 C42.895,101.999 42.000,102.894 42.000,103.999 C42.000,105.103 42.895,105.999 44.000,105.999 C45.104,105.999 46.000,105.103 46.000,103.999 C46.000,102.894 45.104,101.999 44.000,101.999 ZM44.000,87.999 C41.791,87.999 40.000,86.208 40.000,83.999 C40.000,81.790 41.791,79.999 44.000,79.999 C46.209,79.999 48.000,81.790 48.000,83.999 C48.000,86.208 46.209,87.999 44.000,87.999 ZM44.000,81.999 C42.895,81.999 42.000,82.894 42.000,83.999 C42.000,85.103 42.895,85.999 44.000,85.999 C45.104,85.999 46.000,85.103 46.000,83.999 C46.000,82.894 45.104,81.999 44.000,81.999 ZM44.000,67.999 C41.791,67.999 40.000,66.208 40.000,63.998 C40.000,61.789 41.791,59.999 44.000,59.999 C46.209,59.999 48.000,61.789 48.000,63.998 C48.000,66.208 46.209,67.999 44.000,67.999 ZM44.000,61.999 C42.895,61.999 42.000,62.894 42.000,63.998 C42.000,65.103 42.895,65.999 44.000,65.999 C45.104,65.999 46.000,65.103 46.000,63.998 C46.000,62.894 45.104,61.999 44.000,61.999 ZM44.000,47.999 C41.791,47.999 40.000,46.208 40.000,43.999 C40.000,41.790 41.791,39.998 44.000,39.998 C46.209,39.998 48.000,41.790 48.000,43.999 C48.000,46.208 46.209,47.999 44.000,47.999 ZM44.000,41.999 C42.895,41.999 42.000,42.894 42.000,43.999 C42.000,45.103 42.895,45.998 44.000,45.998 C45.104,45.998 46.000,45.103 46.000,43.999 C46.000,42.894 45.104,41.999 44.000,41.999 ZM44.000,27.998 C41.791,27.998 40.000,26.208 40.000,23.999 C40.000,21.790 41.791,19.999 44.000,19.999 C46.209,19.999 48.000,21.790 48.000,23.999 C48.000,26.208 46.209,27.998 44.000,27.998 ZM44.000,21.998 C42.895,21.998 42.000,22.894 42.000,23.999 C42.000,25.104 42.895,25.999 44.000,25.999 C45.104,25.999 46.000,25.104 46.000,23.999 C46.000,22.894 45.104,21.998 44.000,21.998 ZM44.000,7.999 C41.791,7.999 40.000,6.208 40.000,3.998 C40.000,1.789 41.791,-0.001 44.000,-0.001 C46.209,-0.001 48.000,1.789 48.000,3.998 C48.000,6.208 46.209,7.999 44.000,7.999 ZM44.000,1.999 C42.895,1.999 42.000,2.894 42.000,3.998 C42.000,5.103 42.895,5.999 44.000,5.999 C45.104,5.999 46.000,5.103 46.000,3.998 C46.000,2.894 45.104,1.999 44.000,1.999 ZM24.000,227.998 C21.791,227.998 20.000,226.208 20.000,223.999 C20.000,221.790 21.791,219.999 24.000,219.999 C26.209,219.999 28.000,221.790 28.000,223.999 C28.000,226.208 26.209,227.998 24.000,227.998 ZM24.000,221.998 C22.895,221.998 22.000,222.894 22.000,223.999 C22.000,225.104 22.895,225.999 24.000,225.999 C25.105,225.999 26.000,225.104 26.000,223.999 C26.000,222.894 25.105,221.998 24.000,221.998 ZM24.000,207.999 C21.791,207.999 20.000,206.208 20.000,203.999 C20.000,201.789 21.791,199.999 24.000,199.999 C26.209,199.999 28.000,201.789 28.000,203.999 C28.000,206.208 26.209,207.999 24.000,207.999 ZM24.000,201.999 C22.895,201.999 22.000,202.894 22.000,203.999 C22.000,205.103 22.895,205.999 24.000,205.999 C25.105,205.999 26.000,205.103 26.000,203.999 C26.000,202.894 25.105,201.999 24.000,201.999 ZM24.000,187.999 C21.791,187.999 20.000,186.208 20.000,183.999 C20.000,181.790 21.791,179.999 24.000,179.999 C26.209,179.999 28.000,181.790 28.000,183.999 C28.000,186.208 26.209,187.999 24.000,187.999 ZM24.000,181.999 C22.895,181.999 22.000,182.894 22.000,183.999 C22.000,185.103 22.895,185.999 24.000,185.999 C25.105,185.999 26.000,185.103 26.000,183.999 C26.000,182.894 25.105,181.999 24.000,181.999 ZM24.000,167.999 C21.791,167.999 20.000,166.208 20.000,163.999 C20.000,161.790 21.791,159.999 24.000,159.999 C26.209,159.999 28.000,161.790 28.000,163.999 C28.000,166.208 26.209,167.999 24.000,167.999 ZM24.000,161.999 C22.895,161.999 22.000,162.894 22.000,163.999 C22.000,165.103 22.895,165.999 24.000,165.999 C25.105,165.999 26.000,165.103 26.000,163.999 C26.000,162.894 25.105,161.999 24.000,161.999 ZM24.000,147.999 C21.791,147.999 20.000,146.208 20.000,143.999 C20.000,141.789 21.791,139.999 24.000,139.999 C26.209,139.999 28.000,141.789 28.000,143.999 C28.000,146.208 26.209,147.999 24.000,147.999 ZM24.000,141.999 C22.895,141.999 22.000,142.894 22.000,143.999 C22.000,145.103 22.895,145.999 24.000,145.999 C25.105,145.999 26.000,145.103 26.000,143.999 C26.000,142.894 25.105,141.999 24.000,141.999 ZM24.000,127.999 C21.791,127.999 20.000,126.208 20.000,123.999 C20.000,121.789 21.791,119.999 24.000,119.999 C26.209,119.999 28.000,121.789 28.000,123.999 C28.000,126.208 26.209,127.999 24.000,127.999 ZM24.000,121.999 C22.895,121.999 22.000,122.894 22.000,123.999 C22.000,125.103 22.895,125.999 24.000,125.999 C25.105,125.999 26.000,125.103 26.000,123.999 C26.000,122.894 25.105,121.999 24.000,121.999 ZM24.000,107.999 C21.791,107.999 20.000,106.208 20.000,103.999 C20.000,101.790 21.791,99.999 24.000,99.999 C26.209,99.999 28.000,101.790 28.000,103.999 C28.000,106.208 26.209,107.999 24.000,107.999 ZM24.000,101.999 C22.895,101.999 22.000,102.894 22.000,103.999 C22.000,105.103 22.895,105.999 24.000,105.999 C25.105,105.999 26.000,105.103 26.000,103.999 C26.000,102.894 25.105,101.999 24.000,101.999 ZM24.000,87.999 C21.791,87.999 20.000,86.208 20.000,83.999 C20.000,81.790 21.791,79.999 24.000,79.999 C26.209,79.999 28.000,81.790 28.000,83.999 C28.000,86.208 26.209,87.999 24.000,87.999 ZM24.000,81.999 C22.895,81.999 22.000,82.894 22.000,83.999 C22.000,85.103 22.895,85.999 24.000,85.999 C25.105,85.999 26.000,85.103 26.000,83.999 C26.000,82.894 25.105,81.999 24.000,81.999 ZM24.000,67.999 C21.791,67.999 20.000,66.208 20.000,63.998 C20.000,61.789 21.791,59.999 24.000,59.999 C26.209,59.999 28.000,61.789 28.000,63.998 C28.000,66.208 26.209,67.999 24.000,67.999 ZM24.000,61.999 C22.895,61.999 22.000,62.894 22.000,63.998 C22.000,65.103 22.895,65.999 24.000,65.999 C25.105,65.999 26.000,65.103 26.000,63.998 C26.000,62.894 25.105,61.999 24.000,61.999 ZM24.000,47.999 C21.791,47.999 20.000,46.208 20.000,43.999 C20.000,41.790 21.791,39.998 24.000,39.998 C26.209,39.998 28.000,41.790 28.000,43.999 C28.000,46.208 26.209,47.999 24.000,47.999 ZM24.000,41.999 C22.895,41.999 22.000,42.894 22.000,43.999 C22.000,45.103 22.895,45.998 24.000,45.998 C25.105,45.998 26.000,45.103 26.000,43.999 C26.000,42.894 25.105,41.999 24.000,41.999 ZM24.000,27.998 C21.791,27.998 20.000,26.208 20.000,23.999 C20.000,21.790 21.791,19.999 24.000,19.999 C26.209,19.999 28.000,21.790 28.000,23.999 C28.000,26.208 26.209,27.998 24.000,27.998 ZM24.000,21.998 C22.895,21.998 22.000,22.894 22.000,23.999 C22.000,25.104 22.895,25.999 24.000,25.999 C25.105,25.999 26.000,25.104 26.000,23.999 C26.000,22.894 25.105,21.998 24.000,21.998 ZM24.000,7.999 C21.791,7.999 20.000,6.208 20.000,3.998 C20.000,1.789 21.791,-0.001 24.000,-0.001 C26.209,-0.001 28.000,1.789 28.000,3.998 C28.000,6.208 26.209,7.999 24.000,7.999 ZM24.000,1.999 C22.895,1.999 22.000,2.894 22.000,3.998 C22.000,5.103 22.895,5.999 24.000,5.999 C25.105,5.999 26.000,5.103 26.000,3.998 C26.000,2.894 25.105,1.999 24.000,1.999 ZM4.000,227.998 C1.791,227.998 -0.000,226.208 -0.000,223.999 C-0.000,221.790 1.791,219.999 4.000,219.999 C6.209,219.999 8.000,221.790 8.000,223.999 C8.000,226.208 6.209,227.998 4.000,227.998 ZM4.000,221.998 C2.895,221.998 2.000,222.894 2.000,223.999 C2.000,225.104 2.895,225.999 4.000,225.999 C5.105,225.999 6.000,225.104 6.000,223.999 C6.000,222.894 5.105,221.998 4.000,221.998 ZM4.000,207.999 C1.791,207.999 -0.000,206.208 -0.000,203.999 C-0.000,201.789 1.791,199.999 4.000,199.999 C6.209,199.999 8.000,201.789 8.000,203.999 C8.000,206.208 6.209,207.999 4.000,207.999 ZM4.000,201.999 C2.895,201.999 2.000,202.894 2.000,203.999 C2.000,205.103 2.895,205.999 4.000,205.999 C5.105,205.999 6.000,205.103 6.000,203.999 C6.000,202.894 5.105,201.999 4.000,201.999 ZM4.000,187.999 C1.791,187.999 -0.000,186.208 -0.000,183.999 C-0.000,181.790 1.791,179.999 4.000,179.999 C6.209,179.999 8.000,181.790 8.000,183.999 C8.000,186.208 6.209,187.999 4.000,187.999 ZM4.000,181.999 C2.895,181.999 2.000,182.894 2.000,183.999 C2.000,185.103 2.895,185.999 4.000,185.999 C5.105,185.999 6.000,185.103 6.000,183.999 C6.000,182.894 5.105,181.999 4.000,181.999 ZM4.000,167.999 C1.791,167.999 -0.000,166.208 -0.000,163.999 C-0.000,161.790 1.791,159.999 4.000,159.999 C6.209,159.999 8.000,161.790 8.000,163.999 C8.000,166.208 6.209,167.999 4.000,167.999 ZM4.000,161.999 C2.895,161.999 2.000,162.894 2.000,163.999 C2.000,165.103 2.895,165.999 4.000,165.999 C5.105,165.999 6.000,165.103 6.000,163.999 C6.000,162.894 5.105,161.999 4.000,161.999 ZM4.000,147.999 C1.791,147.999 -0.000,146.208 -0.000,143.999 C-0.000,141.789 1.791,139.999 4.000,139.999 C6.209,139.999 8.000,141.789 8.000,143.999 C8.000,146.208 6.209,147.999 4.000,147.999 ZM4.000,141.999 C2.895,141.999 2.000,142.894 2.000,143.999 C2.000,145.103 2.895,145.999 4.000,145.999 C5.105,145.999 6.000,145.103 6.000,143.999 C6.000,142.894 5.105,141.999 4.000,141.999 ZM4.000,127.999 C1.791,127.999 -0.000,126.208 -0.000,123.999 C-0.000,121.789 1.791,119.999 4.000,119.999 C6.209,119.999 8.000,121.789 8.000,123.999 C8.000,126.208 6.209,127.999 4.000,127.999 ZM4.000,121.999 C2.895,121.999 2.000,122.894 2.000,123.999 C2.000,125.103 2.895,125.999 4.000,125.999 C5.105,125.999 6.000,125.103 6.000,123.999 C6.000,122.894 5.105,121.999 4.000,121.999 ZM4.000,107.999 C1.791,107.999 -0.000,106.208 -0.000,103.999 C-0.000,101.790 1.791,99.999 4.000,99.999 C6.209,99.999 8.000,101.790 8.000,103.999 C8.000,106.208 6.209,107.999 4.000,107.999 ZM4.000,101.999 C2.895,101.999 2.000,102.894 2.000,103.999 C2.000,105.103 2.895,105.999 4.000,105.999 C5.105,105.999 6.000,105.103 6.000,103.999 C6.000,102.894 5.105,101.999 4.000,101.999 ZM4.000,87.999 C1.791,87.999 -0.000,86.208 -0.000,83.999 C-0.000,81.790 1.791,79.999 4.000,79.999 C6.209,79.999 8.000,81.790 8.000,83.999 C8.000,86.208 6.209,87.999 4.000,87.999 ZM4.000,81.999 C2.895,81.999 2.000,82.894 2.000,83.999 C2.000,85.103 2.895,85.999 4.000,85.999 C5.105,85.999 6.000,85.103 6.000,83.999 C6.000,82.894 5.105,81.999 4.000,81.999 ZM4.000,67.999 C1.791,67.999 -0.000,66.208 -0.000,63.998 C-0.000,61.789 1.791,59.999 4.000,59.999 C6.209,59.999 8.000,61.789 8.000,63.998 C8.000,66.208 6.209,67.999 4.000,67.999 ZM4.000,61.999 C2.895,61.999 2.000,62.894 2.000,63.998 C2.000,65.103 2.895,65.999 4.000,65.999 C5.105,65.999 6.000,65.103 6.000,63.998 C6.000,62.894 5.105,61.999 4.000,61.999 ZM4.000,47.999 C1.791,47.999 -0.000,46.208 -0.000,43.999 C-0.000,41.790 1.791,39.998 4.000,39.998 C6.209,39.998 8.000,41.790 8.000,43.999 C8.000,46.208 6.209,47.999 4.000,47.999 ZM4.000,41.999 C2.895,41.999 2.000,42.894 2.000,43.999 C2.000,45.103 2.895,45.998 4.000,45.998 C5.105,45.998 6.000,45.103 6.000,43.999 C6.000,42.894 5.105,41.999 4.000,41.999 ZM4.000,27.998 C1.791,27.998 -0.000,26.208 -0.000,23.999 C-0.000,21.790 1.791,19.999 4.000,19.999 C6.209,19.999 8.000,21.790 8.000,23.999 C8.000,26.208 6.209,27.998 4.000,27.998 ZM4.000,21.998 C2.895,21.998 2.000,22.894 2.000,23.999 C2.000,25.104 2.895,25.999 4.000,25.999 C5.105,25.999 6.000,25.104 6.000,23.999 C6.000,22.894 5.105,21.998 4.000,21.998 ZM4.000,7.999 C1.791,7.999 -0.000,6.208 -0.000,3.998 C-0.000,1.789 1.791,-0.001 4.000,-0.001 C6.209,-0.001 8.000,1.789 8.000,3.998 C8.000,6.208 6.209,7.999 4.000,7.999 ZM4.000,1.999 C2.895,1.999 2.000,2.894 2.000,3.998 C2.000,5.103 2.895,5.999 4.000,5.999 C5.105,5.999 6.000,5.103 6.000,3.998 C6.000,2.894 5.105,1.999 4.000,1.999 ZM224.000,219.999 C226.209,219.999 228.000,221.790 228.000,223.999 C228.000,226.208 226.209,227.998 224.000,227.998 C221.791,227.998 220.000,226.208 220.000,223.999 C220.000,221.790 221.791,219.999 224.000,219.999 ZM224.000,225.999 C225.105,225.999 226.000,225.104 226.000,223.999 C226.000,222.894 225.105,221.998 224.000,221.998 C222.895,221.998 222.000,222.894 222.000,223.999 C222.000,225.104 222.895,225.999 224.000,225.999 Z"/>
</svg>