<svg 
 xmlns="http://www.w3.org/2000/svg"
 xmlns:xlink="http://www.w3.org/1999/xlink"
 width="170px" height="12px">
<path fill-rule="evenodd"  fill="rgb(255, 255, 255)"
 d="M170.002,10.041 L170.002,11.696 L160.776,11.696 L160.776,1.145 L169.885,1.145 L169.885,2.800 L162.980,2.800 L162.980,5.460 L169.606,5.460 L169.606,7.115 L162.980,7.115 L162.980,10.041 L170.002,10.041 ZM152.666,10.337 C153.695,10.337 154.498,10.031 155.076,9.420 C155.517,8.958 155.791,8.371 155.898,7.662 L158.279,7.662 C157.857,10.549 155.859,11.992 152.284,11.992 C150.482,11.992 149.077,11.435 148.068,10.322 C147.147,9.307 146.687,8.007 146.687,6.420 C146.687,4.815 147.147,3.514 148.068,2.519 C149.106,1.406 150.600,0.849 152.549,0.849 C154.273,0.849 155.649,1.263 156.677,2.090 C157.617,2.849 158.151,3.835 158.279,5.046 L155.898,5.046 C155.791,4.258 155.433,3.637 154.826,3.184 C154.219,2.731 153.450,2.504 152.519,2.504 C151.462,2.504 150.619,2.844 149.992,3.524 C149.317,4.253 148.979,5.283 148.979,6.613 C148.979,7.716 149.322,8.612 150.007,9.302 C150.693,9.992 151.579,10.337 152.666,10.337 ZM135.580,3.775 L135.580,11.696 L133.465,11.696 L133.465,1.145 L136.000,1.145 L142.265,9.066 L142.265,1.145 L144.380,1.145 L144.380,11.696 L141.889,11.696 L135.580,3.775 ZM128.235,9.081 L123.298,9.081 L122.211,11.696 L119.831,11.696 L124.503,1.145 L127.118,1.145 L131.790,11.696 L129.336,11.696 L128.235,9.081 ZM125.781,2.977 L123.959,7.425 L127.573,7.425 L125.781,2.977 ZM109.356,3.775 L109.356,11.696 L107.240,11.696 L107.240,1.145 L109.776,1.145 L116.041,9.066 L116.041,1.145 L118.156,1.145 L118.156,11.696 L115.665,11.696 L109.356,3.775 ZM98.778,11.992 C96.692,11.992 95.110,11.435 94.033,10.322 C93.083,9.337 92.608,8.037 92.608,6.420 C92.608,4.805 93.083,3.504 94.033,2.519 C95.110,1.406 96.692,0.849 98.778,0.849 C100.864,0.849 102.446,1.406 103.524,2.519 C104.474,3.504 104.949,4.805 104.949,6.420 C104.949,8.037 104.474,9.337 103.524,10.322 C102.446,11.435 100.864,11.992 98.778,11.992 ZM101.628,3.576 C100.943,2.861 99.993,2.504 98.778,2.504 C97.564,2.504 96.614,2.861 95.928,3.576 C95.242,4.290 94.900,5.238 94.900,6.420 C94.900,7.603 95.238,8.544 95.913,9.243 C96.609,9.973 97.564,10.337 98.778,10.337 C99.993,10.337 100.948,9.973 101.643,9.243 C102.319,8.544 102.657,7.603 102.657,6.420 C102.657,5.238 102.314,4.290 101.628,3.576 ZM89.097,5.918 C90.448,6.391 91.124,7.273 91.124,8.563 C91.124,9.795 90.566,10.706 89.449,11.297 C88.568,11.760 87.446,11.992 86.085,11.992 C82.569,11.992 80.796,10.756 80.766,8.283 L83.147,8.283 C83.205,9.652 84.209,10.337 86.158,10.337 C86.902,10.337 87.500,10.224 87.951,9.997 C88.479,9.731 88.744,9.327 88.744,8.785 C88.744,8.085 88.078,7.618 86.746,7.381 C84.346,6.938 83.102,6.702 83.014,6.671 C81.682,6.199 81.016,5.347 81.016,4.115 C81.016,3.002 81.467,2.165 82.368,1.603 C83.171,1.101 84.263,0.849 85.644,0.849 C88.856,0.849 90.566,1.967 90.771,4.204 L88.391,4.204 C88.352,3.741 88.132,3.357 87.730,3.051 C87.260,2.687 86.599,2.504 85.747,2.504 C84.121,2.504 83.308,2.987 83.308,3.953 C83.308,4.603 83.984,5.037 85.336,5.253 C87.588,5.607 88.842,5.829 89.097,5.918 ZM69.954,1.145 L79.062,1.145 L79.062,2.800 L72.157,2.800 L72.157,5.460 L78.783,5.460 L78.783,7.115 L72.157,7.115 L72.157,10.041 L79.180,10.041 L79.180,11.696 L69.954,11.696 L69.954,1.145 ZM66.927,7.544 C67.123,7.977 67.221,8.607 67.221,9.435 C67.221,10.549 67.368,11.302 67.662,11.696 L65.282,11.696 C65.106,11.371 65.017,10.839 65.017,10.100 C65.017,9.233 64.914,8.617 64.709,8.253 C64.444,7.771 63.940,7.529 63.196,7.529 L59.449,7.529 L59.449,11.696 L57.246,11.696 L57.246,1.145 L63.886,1.145 C66.246,1.145 67.427,2.100 67.427,4.012 C67.427,4.672 67.260,5.228 66.927,5.682 C66.624,6.095 66.212,6.386 65.693,6.553 L65.693,6.583 C66.281,6.712 66.692,7.031 66.927,7.544 ZM63.254,2.800 L59.449,2.800 L59.449,5.873 L63.254,5.873 C63.891,5.873 64.364,5.758 64.672,5.527 C64.981,5.295 65.135,4.894 65.135,4.322 C65.135,3.307 64.508,2.800 63.254,2.800 ZM41.174,6.905 C39.788,6.483 39.073,4.887 38.231,4.148 C37.784,3.757 37.551,4.604 37.385,5.104 C36.932,6.734 36.106,8.951 34.943,9.717 C33.926,10.386 32.309,10.337 31.342,9.661 C29.821,8.599 29.462,5.562 28.524,3.275 C28.179,2.433 27.819,1.249 27.147,1.364 C26.781,1.427 26.409,2.228 26.267,2.755 C25.957,3.630 25.863,4.244 25.613,5.431 C25.034,8.225 24.836,9.637 23.389,11.245 C22.631,12.088 20.835,12.265 19.695,11.572 C18.526,10.862 18.054,9.070 17.409,7.588 C17.020,6.694 16.679,5.866 16.470,5.376 C16.342,5.077 15.717,4.999 15.468,5.459 C15.120,6.100 15.066,6.305 15.061,6.305 C13.961,8.614 12.460,12.938 9.049,10.262 C8.385,9.742 8.121,9.224 7.703,8.597 C7.486,8.273 7.225,7.520 6.826,7.369 C6.335,7.184 5.335,7.123 4.665,7.123 C3.110,7.123 1.555,7.014 -0.000,7.014 C-0.000,6.468 -0.000,6.632 -0.000,6.086 C2.464,5.985 7.232,5.784 7.890,6.195 C9.147,6.980 9.441,9.769 11.021,9.553 C12.186,9.393 13.130,6.002 13.965,4.912 C14.302,4.472 15.163,3.517 16.501,3.958 C18.059,4.470 19.262,7.379 19.851,9.006 C20.020,9.473 20.664,10.890 21.511,10.617 C22.040,10.446 22.707,9.024 22.888,8.351 C23.654,5.518 23.977,3.737 24.798,1.856 C25.120,1.119 26.000,-0.210 27.397,0.027 C29.831,0.438 30.914,4.565 31.593,6.714 C31.810,7.401 32.132,8.186 32.877,8.461 C33.839,8.815 34.167,7.870 34.442,7.397 C35.191,6.108 35.948,2.939 37.573,2.592 C39.274,2.230 40.569,4.352 41.456,5.268 C42.529,6.375 46.018,6.061 48.000,6.059 C48.000,6.605 48.000,6.414 48.000,6.960 C45.912,6.973 42.674,7.362 41.174,6.905 Z"/>
</svg>