<svg xmlns="http://www.w3.org/2000/svg" width="127" height="99" viewBox="0 0 127 99">
  <defs>
    <style>
      .cls-1 {
        fill: none;
        stroke: #010101;
        stroke-width: 2px;
        fill-rule: evenodd;
      }
    </style>
  </defs>
  <path id="_" data-name="“" class="cls-1" d="M55.5,67.266a18.961,18.961,0,0,0-4.458-7.246,22.148,22.148,0,0,0-8.647-5.332,41.923,41.923,0,0,0-13.86-1.914H20.848a41.674,41.674,0,0,1,10.158-24.2q8.783-9.978,24.3-17.5L49.27,1.367A90.58,90.58,0,0,0,15.755,26.66Q1.842,43.342,1.844,59.746q0,17.637,8.086,27.617t23.163,9.981a23.654,23.654,0,0,0,16.654-6.563Q56.8,84.219,56.8,75.469A26.1,26.1,0,0,0,55.5,67.266Zm67.4,0a18.958,18.958,0,0,0-4.459-7.246,22.143,22.143,0,0,0-8.647-5.332,41.92,41.92,0,0,0-13.86-1.914H88.25a41.673,41.673,0,0,1,10.158-24.2q8.783-9.978,24.3-17.5l-6.03-9.707A90.578,90.578,0,0,0,83.157,26.66Q69.244,43.342,69.246,59.746q0,17.637,8.086,27.617T100.5,97.344a23.653,23.653,0,0,0,16.654-6.563q7.056-6.562,7.058-15.312A26.112,26.112,0,0,0,122.9,67.266Z"/>
</svg>
